<svg xmlns="http://www.w3.org/2000/svg" width="433.943" height="221.25" viewBox="0 0 433.943 221.25">
  <g id="Grupo_30199" data-name="Grupo 30199" transform="translate(-759.279 -24.851)">
    <g id="Grupo_30138" data-name="Grupo 30138">
      <path id="Trazado_24151" data-name="Trazado 24151" d="M810.43,244.81h-3l-.469,1.12h-1.256l2.592-6.2h1.256l2.593,6.2H810.9Zm-.408-.976-1.092-2.61-1.093,2.61Z" fill="#a8a8a8"/>
    </g>
    <g id="Grupo_30139" data-name="Grupo 30139">
      <path id="Trazado_24152" data-name="Trazado 24152" d="M760.765,200.422l-1.037.66-.449-.774,1.7-1.151h.878V205.2h-1.089Z" fill="#a8a8a8"/>
      <path id="Trazado_24153" data-name="Trazado 24153" d="M763.018,202.171c0-1.828,1.1-3.12,2.654-3.12s2.637,1.292,2.637,3.12-1.09,3.129-2.637,3.129S763.018,204.008,763.018,202.171Zm4.174,0c0-1.248-.632-2.118-1.52-2.118s-1.529.87-1.529,2.118.632,2.127,1.529,2.127S767.192,203.419,767.192,202.171Z" fill="#a8a8a8"/>
    </g>
    <g id="Grupo_30140" data-name="Grupo 30140">
      <path id="Trazado_24154" data-name="Trazado 24154" d="M759.517,165.188l2.223-1.775c.765-.616,1.037-1.073,1.037-1.565a.954.954,0,0,0-1.028-.923,1.941,1.941,0,0,0-1.529.853l-.712-.659a2.737,2.737,0,0,1,2.276-1.178,1.939,1.939,0,0,1,2.11,1.881c0,.8-.37,1.441-1.407,2.241l-1.265,1.02h2.733v1h-4.438Z" fill="#a8a8a8"/>
      <path id="Trazado_24155" data-name="Trazado 24155" d="M764.855,163.061c0-1.828,1.1-3.12,2.655-3.12s2.636,1.292,2.636,3.12-1.089,3.129-2.636,3.129S764.855,164.9,764.855,163.061Zm4.175,0c0-1.248-.633-2.118-1.52-2.118s-1.53.87-1.53,2.118.633,2.127,1.53,2.127S769.03,164.309,769.03,163.061Z" fill="#a8a8a8"/>
    </g>
    <g id="Grupo_30141" data-name="Grupo 30141">
      <path id="Trazado_24156" data-name="Trazado 24156" d="M759.385,126.062l.668-.721a2.2,2.2,0,0,0,1.652.765c.721,0,1.169-.36,1.169-.888s-.448-.817-1.3-.817l-.677.009v-.95h.677c.712.009,1.178-.281,1.178-.808,0-.492-.475-.835-1.125-.835a1.932,1.932,0,0,0-1.468.747l-.65-.668a2.707,2.707,0,0,1,2.215-1.063c1.283,0,2.135.685,2.135,1.643a1.447,1.447,0,0,1-1.142,1.4,1.5,1.5,0,0,1,1.274,1.432c0,1.037-.887,1.776-2.25,1.776A3,3,0,0,1,759.385,126.062Z" fill="#a8a8a8"/>
      <path id="Trazado_24157" data-name="Trazado 24157" d="M764.82,123.953c0-1.828,1.1-3.12,2.655-3.12s2.636,1.292,2.636,3.12-1.09,3.129-2.636,3.129S764.82,125.79,764.82,123.953Zm4.175,0c0-1.248-.633-2.119-1.52-2.119s-1.53.871-1.53,2.119.633,2.127,1.53,2.127S768.995,125.2,768.995,123.953Z" fill="#a8a8a8"/>
    </g>
    <g id="Grupo_30142" data-name="Grupo 30142">
      <path id="Trazado_24158" data-name="Trazado 24158" d="M762.47,86.555h-2.98l-.1-.852,2.865-3.876h1.31v3.788h.835v.94h-.835v1.31h-1.09Zm0-.94V83.022l-1.916,2.593Z" fill="#a8a8a8"/>
      <path id="Trazado_24159" data-name="Trazado 24159" d="M765.182,84.841c0-1.828,1.1-3.12,2.654-3.12s2.637,1.292,2.637,3.12-1.09,3.129-2.637,3.129S765.182,86.678,765.182,84.841Zm4.174,0c0-1.248-.632-2.118-1.52-2.118s-1.529.87-1.529,2.118.632,2.127,1.529,2.127S769.356,86.089,769.356,84.841Z" fill="#a8a8a8"/>
    </g>
    <g id="Grupo_30143" data-name="Grupo 30143">
      <path id="Trazado_24160" data-name="Trazado 24160" d="M759.5,47.929l.65-.782a2.362,2.362,0,0,0,1.626.765,1.1,1.1,0,0,0,1.2-1.064,1.065,1.065,0,0,0-1.2-1.028,1.983,1.983,0,0,0-1.23.422l-.747-.317.088-3.208h3.867v1h-2.839l-.053,1.556a2.1,2.1,0,0,1,1.222-.369,1.865,1.865,0,0,1,1.995,1.9,2.077,2.077,0,0,1-2.32,2.057A3,3,0,0,1,759.5,47.929Z" fill="#a8a8a8"/>
      <path id="Trazado_24161" data-name="Trazado 24161" d="M764.926,45.732c0-1.828,1.1-3.12,2.654-3.12s2.637,1.292,2.637,3.12-1.09,3.129-2.637,3.129S764.926,47.569,764.926,45.732Zm4.175,0c0-1.248-.633-2.118-1.521-2.118s-1.529.87-1.529,2.118.633,2.127,1.529,2.127S769.1,46.98,769.1,45.732Z" fill="#a8a8a8"/>
    </g>
    <g id="Grupo_30144" data-name="Grupo 30144">
      <path id="Trazado_24162" data-name="Trazado 24162" d="M866.407,239.725h3.044a1.645,1.645,0,0,1,1.834,1.553,1.493,1.493,0,0,1-.876,1.373,1.7,1.7,0,0,1-.841,3.279h-3.161Zm2.774,2.538a.8.8,0,1,0,0-1.563h-1.654v1.563Zm.162,2.692a.9.9,0,1,0,0-1.771h-1.816v1.771Z" fill="#a8a8a8"/>
    </g>
    <g id="Grupo_30145" data-name="Grupo 30145">
      <path id="Trazado_24163" data-name="Trazado 24163" d="M925.166,242.823a3.252,3.252,0,0,1,5.6-2.2l-.8.749a2.042,2.042,0,0,0-1.535-.722,2.183,2.183,0,0,0,0,4.363,2.058,2.058,0,0,0,1.544-.723l.8.741a3.235,3.235,0,0,1-2.339,1.012A3.28,3.28,0,0,1,925.166,242.823Z" fill="#a8a8a8"/>
    </g>
    <g id="Grupo_30146" data-name="Grupo 30146">
      <path id="Trazado_24164" data-name="Trazado 24164" d="M982.761,239.725h2.186c2.05,0,3.495,1.282,3.495,3.1a3.186,3.186,0,0,1-3.495,3.107h-2.186Zm2.3,5.184a2.087,2.087,0,1,0,0-4.164H983.89v4.164Z" fill="#a8a8a8"/>
    </g>
    <g id="Grupo_30147" data-name="Grupo 30147">
      <path id="Trazado_24165" data-name="Trazado 24165" d="M1042.865,240.754v1.5h3.207v1.029h-3.207V244.9h3.541v1.03h-4.67v-6.2h4.67v1.029Z" fill="#a8a8a8"/>
    </g>
    <g id="Grupo_30148" data-name="Grupo 30148">
      <path id="Trazado_24166" data-name="Trazado 24166" d="M1099.754,240.754v1.572h3.207v1.029h-3.207v2.575h-1.129v-6.2h4.67v1.029Z" fill="#a8a8a8"/>
    </g>
    <g id="Grupo_30149" data-name="Grupo 30149">
      <path id="Trazado_24167" data-name="Trazado 24167" d="M1159.562,242.578h2.646v2.511a3.546,3.546,0,0,1-2.466,1.012,3.212,3.212,0,1,1,0-6.423,3.533,3.533,0,0,1,2.466,1l-.8.749a2.281,2.281,0,0,0-1.662-.722,2.182,2.182,0,0,0,0,4.363,2.4,2.4,0,0,0,1.364-.443V243.5h-1.544Z" fill="#a8a8a8"/>
    </g>
    <rect id="Rectángulo_5073" data-name="Rectángulo 5073" width="6.541" height="123.654" transform="translate(789.926 93.578)" fill="#f9c04e"/>
    <rect id="Rectángulo_5074" data-name="Rectángulo 5074" width="6.541" height="106.322" transform="translate(799.411 110.91)" fill="#662d91"/>
    <rect id="Rectángulo_5075" data-name="Rectángulo 5075" width="6.541" height="159.137" transform="translate(808.897 58.095)" fill="#ba72ed"/>
    <rect id="Rectángulo_5076" data-name="Rectángulo 5076" width="6.541" height="139.287" transform="translate(818.383 77.945)" fill="#51beed"/>
    <rect id="Rectángulo_5077" data-name="Rectángulo 5077" width="6.541" height="127.058" transform="translate(827.869 90.174)" fill="#e82b7e"/>
    <rect id="Rectángulo_5078" data-name="Rectángulo 5078" width="6.541" height="118.207" transform="translate(848.551 99.025)" fill="#f9c04e"/>
    <rect id="Rectángulo_5079" data-name="Rectángulo 5079" width="6.541" height="102.999" transform="translate(858.037 114.233)" fill="#662d91"/>
    <rect id="Rectángulo_5080" data-name="Rectángulo 5080" width="6.541" height="108.892" transform="translate(867.523 108.34)" fill="#ba72ed"/>
    <rect id="Rectángulo_5081" data-name="Rectángulo 5081" width="6.542" height="128.853" transform="translate(877.009 88.379)" fill="#51beed"/>
    <rect id="Rectángulo_5082" data-name="Rectángulo 5082" width="6.541" height="75.436" transform="translate(886.495 141.796)" fill="#e82b7e"/>
    <rect id="Rectángulo_5083" data-name="Rectángulo 5083" width="6.541" height="123.654" transform="translate(906.754 93.578)" fill="#f9c04e"/>
    <rect id="Rectángulo_5084" data-name="Rectángulo 5084" width="6.541" height="169.696" transform="translate(916.24 47.536)" fill="#662d91"/>
    <rect id="Rectángulo_5085" data-name="Rectángulo 5085" width="6.541" height="130.093" transform="translate(925.726 87.139)" fill="#ba72ed"/>
    <rect id="Rectángulo_5086" data-name="Rectángulo 5086" width="6.541" height="157.095" transform="translate(935.212 60.137)" fill="#51beed"/>
    <rect id="Rectángulo_5087" data-name="Rectángulo 5087" width="6.542" height="164.896" transform="translate(944.698 52.336)" fill="#e82b7e"/>
    <rect id="Rectángulo_5088" data-name="Rectángulo 5088" width="6.541" height="111.618" transform="translate(963.232 105.614)" fill="#f9c04e"/>
    <rect id="Rectángulo_5089" data-name="Rectángulo 5089" width="6.541" height="104.118" transform="translate(972.718 113.114)" fill="#662d91"/>
    <rect id="Rectángulo_5090" data-name="Rectángulo 5090" width="6.541" height="47.112" transform="translate(982.204 170.12)" fill="#ba72ed"/>
    <rect id="Rectángulo_5091" data-name="Rectángulo 5091" width="6.541" height="76.215" transform="translate(991.69 141.017)" fill="#51beed"/>
    <rect id="Rectángulo_5092" data-name="Rectángulo 5092" width="6.541" height="84.616" transform="translate(1001.176 132.616)" fill="#e82b7e"/>
    <rect id="Rectángulo_5093" data-name="Rectángulo 5093" width="6.541" height="111.618" transform="translate(1018.852 105.614)" fill="#f9c04e"/>
    <rect id="Rectángulo_5094" data-name="Rectángulo 5094" width="6.541" height="104.118" transform="translate(1028.338 113.114)" fill="#662d91"/>
    <rect id="Rectángulo_5095" data-name="Rectángulo 5095" width="6.541" height="146.38" transform="translate(1037.824 70.852)" fill="#ba72ed"/>
    <rect id="Rectángulo_5096" data-name="Rectángulo 5096" width="6.541" height="139.287" transform="translate(1047.309 77.945)" fill="#51beed"/>
    <rect id="Rectángulo_5097" data-name="Rectángulo 5097" width="6.541" height="84.616" transform="translate(1056.795 132.616)" fill="#e82b7e"/>
    <rect id="Rectángulo_5098" data-name="Rectángulo 5098" width="6.541" height="63.529" transform="translate(1075.741 153.703)" fill="#f9c04e"/>
    <rect id="Rectángulo_5099" data-name="Rectángulo 5099" width="6.541" height="139.287" transform="translate(1085.227 77.945)" fill="#662d91"/>
    <rect id="Rectángulo_5100" data-name="Rectángulo 5100" width="6.541" height="92.454" transform="translate(1094.713 124.778)" fill="#ba72ed"/>
    <rect id="Rectángulo_5101" data-name="Rectángulo 5101" width="6.541" height="92.454" transform="translate(1104.198 124.778)" fill="#51beed"/>
    <rect id="Rectángulo_5102" data-name="Rectángulo 5102" width="6.541" height="164.896" transform="translate(1113.684 52.336)" fill="#e82b7e"/>
    <rect id="Rectángulo_5103" data-name="Rectángulo 5103" width="6.541" height="63.529" transform="translate(1133.815 153.703)" fill="#f9c04e"/>
    <rect id="Rectángulo_5104" data-name="Rectángulo 5104" width="6.541" height="112.326" transform="translate(1143.301 104.906)" fill="#662d91"/>
    <rect id="Rectángulo_5105" data-name="Rectángulo 5105" width="6.541" height="129.794" transform="translate(1152.787 87.438)" fill="#ba72ed"/>
    <rect id="Rectángulo_5106" data-name="Rectángulo 5106" width="6.541" height="155.373" transform="translate(1162.272 61.859)" fill="#51beed"/>
    <rect id="Rectángulo_5107" data-name="Rectángulo 5107" width="6.541" height="96.404" transform="translate(1171.758 120.828)" fill="#e82b7e"/>
    <path id="Trazado_24168" data-name="Trazado 24168" d="M778.351,24.851V228.834h414.871" fill="none" stroke="#d3d3d1" stroke-miterlimit="10" stroke-width="1"/>
  </g>
</svg>
