<svg xmlns="http://www.w3.org/2000/svg" width="716" height="268" viewBox="0 0 716 268">
  <g id="Grupo_30138" data-name="Grupo 30138" transform="translate(-4379 4797)">
    <path id="Trazado_24151" data-name="Trazado 24151" d="M0,0H519V73H0Z" transform="translate(4574 -4746)" fill="#eef2f9"/>
    <path id="Trazado_24152" data-name="Trazado 24152" d="M31.143,4.889h2.676V19h-2.8V7.779L27.773,10.8V7.906Zm11.27,11.6h6.016V19H38.477V16.881l5.615-5.732a3.534,3.534,0,0,0,1.221-2.432,1.72,1.72,0,0,0-.5-1.309,1.98,1.98,0,0,0-1.421-.479q-2,0-2,2.275V10.25l-2.8-.283v-.7A4.4,4.4,0,0,1,39.873,5.87a4.937,4.937,0,0,1,3.5-1.2,5.172,5.172,0,0,1,3.4,1.084,3.653,3.653,0,0,1,1.313,2.979,4.224,4.224,0,0,1-.444,1.934,8.082,8.082,0,0,1-1.411,1.885Z" transform="translate(4574 -4721)" fill="#002b45"/>
    <path id="Trazado_24153" data-name="Trazado 24153" d="M20.3,15.6h6.161V17h-8.35V15.849l4.957-5.124a5.872,5.872,0,0,0,1.116-1.468,2.928,2.928,0,0,0,.308-1.274,2.136,2.136,0,0,0-.624-1.639,2.548,2.548,0,0,0-3.309.053,2.741,2.741,0,0,0-.628,1.991V9.3L18.41,9.16V8.4a3.912,3.912,0,0,1,1.046-2.94A3.842,3.842,0,0,1,22.251,4.44a3.873,3.873,0,0,1,2.685.94,3.27,3.27,0,0,1,1.05,2.566,3.892,3.892,0,0,1-.417,1.789,7.689,7.689,0,0,1-1.34,1.78Zm12.138,1.564a3.447,3.447,0,0,1-3.05-1.617A8.623,8.623,0,0,1,28.315,10.8a8.662,8.662,0,0,1,1.059-4.737,3.705,3.705,0,0,1,6.113,0A8.637,8.637,0,0,1,36.551,10.8a8.6,8.6,0,0,1-1.077,4.742A3.44,3.44,0,0,1,32.438,17.167Zm0-1.406a2.093,2.093,0,0,0,1.925-1.239A8.08,8.08,0,0,0,35.03,10.8a7.851,7.851,0,0,0-.681-3.713,2.115,2.115,0,0,0-3.828,0,7.891,7.891,0,0,0-.677,3.718,8.122,8.122,0,0,0,.664,3.722A2.091,2.091,0,0,0,32.438,15.761Zm10.134,1.406a3.447,3.447,0,0,1-3.05-1.617A8.623,8.623,0,0,1,38.449,10.8a8.662,8.662,0,0,1,1.059-4.737,3.705,3.705,0,0,1,6.113,0A8.637,8.637,0,0,1,46.685,10.8a8.6,8.6,0,0,1-1.077,4.742A3.44,3.44,0,0,1,42.571,17.167Zm0-1.406A2.093,2.093,0,0,0,44.5,14.521a8.08,8.08,0,0,0,.668-3.718,7.851,7.851,0,0,0-.681-3.713,2.115,2.115,0,0,0-3.828,0,7.891,7.891,0,0,0-.677,3.718,8.122,8.122,0,0,0,.664,3.722A2.091,2.091,0,0,0,42.571,15.761Zm10.134,1.406a3.447,3.447,0,0,1-3.05-1.617A8.623,8.623,0,0,1,48.583,10.8a8.662,8.662,0,0,1,1.059-4.737,3.705,3.705,0,0,1,6.113,0A8.637,8.637,0,0,1,56.818,10.8a8.6,8.6,0,0,1-1.077,4.742A3.44,3.44,0,0,1,52.705,17.167Zm0-1.406a2.093,2.093,0,0,0,1.925-1.239A8.08,8.08,0,0,0,55.3,10.8a7.851,7.851,0,0,0-.681-3.713,2.115,2.115,0,0,0-3.828,0,7.891,7.891,0,0,0-.677,3.718,8.122,8.122,0,0,0,.664,3.722A2.091,2.091,0,0,0,52.705,15.761Z" transform="translate(4574 -4648)" fill="#00223d"/>
    <path id="Trazado_24154" data-name="Trazado 24154" d="M22.392,4.625h1.424V17h-1.5V6.286L19.342,8.861V7.235Zm10.02-.141a4.324,4.324,0,0,1,3.072,1.165,3.927,3.927,0,0,1,1.244,3,4.873,4.873,0,0,1-1.081,2.971L31.506,17H29.687l3.419-4.307a3.992,3.992,0,0,1-1.037.132,3.8,3.8,0,0,1-3.331-1.9,4.225,4.225,0,0,1-.589-2.167,4.445,4.445,0,0,1,.321-1.745,3.84,3.84,0,0,1,.91-1.354A4.235,4.235,0,0,1,30.746,4.8,4.476,4.476,0,0,1,32.411,4.484Zm-1.964,6.372a2.805,2.805,0,0,0,2.026.773,2.646,2.646,0,0,0,2.017-.848,2.85,2.85,0,0,0,.778-2.07,2.763,2.763,0,0,0-.8-2.057,3.066,3.066,0,0,0-4.056.04,2.733,2.733,0,0,0-.787,2.087A2.8,2.8,0,0,0,30.447,10.856Zm12.125,6.311a3.447,3.447,0,0,1-3.05-1.617A8.623,8.623,0,0,1,38.449,10.8a8.662,8.662,0,0,1,1.059-4.737,3.705,3.705,0,0,1,6.113,0A8.637,8.637,0,0,1,46.685,10.8a8.6,8.6,0,0,1-1.077,4.742A3.44,3.44,0,0,1,42.571,17.167Zm0-1.406A2.093,2.093,0,0,0,44.5,14.521a8.08,8.08,0,0,0,.668-3.718,7.851,7.851,0,0,0-.681-3.713,2.115,2.115,0,0,0-3.828,0,7.891,7.891,0,0,0-.677,3.718,8.122,8.122,0,0,0,.664,3.722A2.091,2.091,0,0,0,42.571,15.761Zm10.134,1.406a3.447,3.447,0,0,1-3.05-1.617A8.623,8.623,0,0,1,48.583,10.8a8.662,8.662,0,0,1,1.059-4.737,3.705,3.705,0,0,1,6.113,0A8.637,8.637,0,0,1,56.818,10.8a8.6,8.6,0,0,1-1.077,4.742A3.44,3.44,0,0,1,52.705,17.167Zm0-1.406a2.093,2.093,0,0,0,1.925-1.239A8.08,8.08,0,0,0,55.3,10.8a7.851,7.851,0,0,0-.681-3.713,2.115,2.115,0,0,0-3.828,0,7.891,7.891,0,0,0-.677,3.718,8.122,8.122,0,0,0,.664,3.722A2.091,2.091,0,0,0,52.705,15.761Z" transform="translate(4648 -4648)" fill="#00223d"/>
    <path id="Trazado_24155" data-name="Trazado 24155" d="M20.716,17.167q-4.122,0-4.122-4.4l1.547-.079a3.864,3.864,0,0,0,.58,2.329,2.339,2.339,0,0,0,2,.773,2.742,2.742,0,0,0,1.92-.668,2.254,2.254,0,0,0,.734-1.749,2.232,2.232,0,0,0-.708-1.74,2.537,2.537,0,0,0-1.771-.642h-.615V9.7h.6a1.831,1.831,0,0,0,1.354-.571,1.927,1.927,0,0,0,.563-1.406,1.733,1.733,0,0,0-.6-1.362,2.188,2.188,0,0,0-1.5-.527,2.392,2.392,0,0,0-.989.185,1.388,1.388,0,0,0-.628.541,2.548,2.548,0,0,0-.316.787,4.611,4.611,0,0,0-.1,1L17.112,8.29a4.007,4.007,0,0,1,.927-2.839,3.436,3.436,0,0,1,2.641-.993,3.669,3.669,0,0,1,2.536.905,2.893,2.893,0,0,1,1.015,2.25,2.71,2.71,0,0,1-.492,1.608,2.812,2.812,0,0,1-1.239,1,3.421,3.421,0,0,1,1.74,1.134,3.179,3.179,0,0,1,.677,2.083,3.4,3.4,0,0,1-1.182,2.7A4.434,4.434,0,0,1,20.716,17.167Zm10.222,0a3.447,3.447,0,0,1-3.05-1.617A8.623,8.623,0,0,1,26.815,10.8a8.662,8.662,0,0,1,1.059-4.737,3.705,3.705,0,0,1,6.113,0A8.637,8.637,0,0,1,35.051,10.8a8.6,8.6,0,0,1-1.077,4.742A3.44,3.44,0,0,1,30.938,17.167Zm0-1.406a2.093,2.093,0,0,0,1.925-1.239A8.08,8.08,0,0,0,33.53,10.8a7.851,7.851,0,0,0-.681-3.713,2.115,2.115,0,0,0-3.828,0,7.891,7.891,0,0,0-.677,3.718,8.122,8.122,0,0,0,.664,3.722A2.091,2.091,0,0,0,30.938,15.761Zm10.134,1.406a3.447,3.447,0,0,1-3.05-1.617A8.623,8.623,0,0,1,36.949,10.8a8.662,8.662,0,0,1,1.059-4.737,3.705,3.705,0,0,1,6.113,0A8.637,8.637,0,0,1,45.185,10.8a8.6,8.6,0,0,1-1.077,4.742A3.44,3.44,0,0,1,41.071,17.167Zm0-1.406A2.093,2.093,0,0,0,43,14.521a8.08,8.08,0,0,0,.668-3.718,7.851,7.851,0,0,0-.681-3.713,2.115,2.115,0,0,0-3.828,0,7.891,7.891,0,0,0-.677,3.718,8.122,8.122,0,0,0,.664,3.722A2.091,2.091,0,0,0,41.071,15.761Zm10.134,1.406a3.447,3.447,0,0,1-3.05-1.617A8.623,8.623,0,0,1,47.083,10.8a8.662,8.662,0,0,1,1.059-4.737,3.705,3.705,0,0,1,6.113,0A8.637,8.637,0,0,1,55.318,10.8a8.6,8.6,0,0,1-1.077,4.742A3.44,3.44,0,0,1,51.205,17.167Zm0-1.406a2.093,2.093,0,0,0,1.925-1.239A8.08,8.08,0,0,0,53.8,10.8a7.851,7.851,0,0,0-.681-3.713,2.115,2.115,0,0,0-3.828,0,7.891,7.891,0,0,0-.677,3.718,8.122,8.122,0,0,0,.664,3.722A2.091,2.091,0,0,0,51.205,15.761Z" transform="translate(4723 -4648)" fill="#00223d"/>
    <path id="Trazado_24156" data-name="Trazado 24156" d="M21.892,4.625h1.424V17h-1.5V6.286L18.842,8.861V7.235Zm5.836,0h8.464V5.9L30.145,17H28.4L34.5,6.031H27.728Zm17.35,11.522a4.913,4.913,0,0,1-6,0,3.369,3.369,0,0,1-1.2-2.694,3.329,3.329,0,0,1,.624-2.021,3.577,3.577,0,0,1,1.7-1.248,3.056,3.056,0,0,1-1.217-1.059A2.694,2.694,0,0,1,38.529,7.6,2.861,2.861,0,0,1,39.54,5.341a3.72,3.72,0,0,1,2.54-.883,3.655,3.655,0,0,1,2.509.888A2.87,2.87,0,0,1,45.6,7.6a2.753,2.753,0,0,1-.439,1.525,2.974,2.974,0,0,1-1.2,1.059,3.647,3.647,0,0,1,1.688,1.252,3.31,3.31,0,0,1,.624,2.017A3.371,3.371,0,0,1,45.077,16.147Zm-3-6.469a2.094,2.094,0,0,0,1.5-.58,1.887,1.887,0,0,0,.611-1.424,1.826,1.826,0,0,0-.611-1.393,2.288,2.288,0,0,0-3.01,0,1.829,1.829,0,0,0-.606,1.4A1.887,1.887,0,0,0,40.573,9.1,2.105,2.105,0,0,0,42.08,9.679Zm0,6.082a2.756,2.756,0,0,0,1.9-.677,2.283,2.283,0,0,0,.76-1.793,2.237,2.237,0,0,0-.76-1.767,2.778,2.778,0,0,0-1.9-.668,2.807,2.807,0,0,0-1.916.668,2.231,2.231,0,0,0-.765,1.767,2.277,2.277,0,0,0,.765,1.793A2.785,2.785,0,0,0,42.08,15.761Zm10.125,1.406a3.447,3.447,0,0,1-3.05-1.617A8.623,8.623,0,0,1,48.083,10.8a8.662,8.662,0,0,1,1.059-4.737,3.705,3.705,0,0,1,6.113,0A8.637,8.637,0,0,1,56.318,10.8a8.6,8.6,0,0,1-1.077,4.742A3.44,3.44,0,0,1,52.205,17.167Zm0-1.406a2.093,2.093,0,0,0,1.925-1.239A8.08,8.08,0,0,0,54.8,10.8a7.851,7.851,0,0,0-.681-3.713,2.115,2.115,0,0,0-3.828,0,7.891,7.891,0,0,0-.677,3.718,8.122,8.122,0,0,0,.664,3.722A2.091,2.091,0,0,0,52.205,15.761Z" transform="translate(4797 -4648)" fill="#00223d"/>
    <path id="Trazado_24157" data-name="Trazado 24157" d="M22.392,4.625h1.424V17h-1.5V6.286L19.342,8.861V7.235ZM30.434,15.6h6.161V17h-8.35V15.849L33.2,10.725a5.872,5.872,0,0,0,1.116-1.468,2.928,2.928,0,0,0,.308-1.274A2.136,2.136,0,0,0,34,6.343a2.548,2.548,0,0,0-3.309.053,2.741,2.741,0,0,0-.628,1.991V9.3L28.544,9.16V8.4a3.912,3.912,0,0,1,1.046-2.94A3.842,3.842,0,0,1,32.385,4.44a3.873,3.873,0,0,1,2.685.94,3.27,3.27,0,0,1,1.05,2.566A3.892,3.892,0,0,1,35.7,9.736a7.689,7.689,0,0,1-1.34,1.78Zm12.138,1.564a3.447,3.447,0,0,1-3.05-1.617A8.623,8.623,0,0,1,38.449,10.8a8.662,8.662,0,0,1,1.059-4.737,3.705,3.705,0,0,1,6.113,0A8.637,8.637,0,0,1,46.685,10.8a8.6,8.6,0,0,1-1.077,4.742A3.44,3.44,0,0,1,42.571,17.167Zm0-1.406A2.093,2.093,0,0,0,44.5,14.521a8.08,8.08,0,0,0,.668-3.718,7.851,7.851,0,0,0-.681-3.713,2.115,2.115,0,0,0-3.828,0,7.891,7.891,0,0,0-.677,3.718,8.122,8.122,0,0,0,.664,3.722A2.091,2.091,0,0,0,42.571,15.761Zm10.134,1.406a3.447,3.447,0,0,1-3.05-1.617A8.623,8.623,0,0,1,48.583,10.8a8.662,8.662,0,0,1,1.059-4.737,3.705,3.705,0,0,1,6.113,0A8.637,8.637,0,0,1,56.818,10.8a8.6,8.6,0,0,1-1.077,4.742A3.44,3.44,0,0,1,52.705,17.167Zm0-1.406a2.093,2.093,0,0,0,1.925-1.239A8.08,8.08,0,0,0,55.3,10.8a7.851,7.851,0,0,0-.681-3.713,2.115,2.115,0,0,0-3.828,0,7.891,7.891,0,0,0-.677,3.718,8.122,8.122,0,0,0,.664,3.722A2.091,2.091,0,0,0,52.705,15.761Z" transform="translate(4871 -4648)" fill="#00223d"/>
    <path id="Trazado_24158" data-name="Trazado 24158" d="M22.892,4.625h1.424V17h-1.5V6.286L19.842,8.861V7.235ZM32.85,17.167q-4.122,0-4.122-4.4l1.547-.079a3.864,3.864,0,0,0,.58,2.329,2.339,2.339,0,0,0,2,.773,2.742,2.742,0,0,0,1.92-.668A2.254,2.254,0,0,0,35.5,13.37a2.232,2.232,0,0,0-.708-1.74,2.537,2.537,0,0,0-1.771-.642H32.41V9.7h.6a1.831,1.831,0,0,0,1.354-.571,1.927,1.927,0,0,0,.563-1.406,1.733,1.733,0,0,0-.6-1.362,2.188,2.188,0,0,0-1.5-.527,2.392,2.392,0,0,0-.989.185,1.388,1.388,0,0,0-.628.541,2.548,2.548,0,0,0-.316.787,4.611,4.611,0,0,0-.1,1L29.246,8.29a4.007,4.007,0,0,1,.927-2.839,3.436,3.436,0,0,1,2.641-.993,3.669,3.669,0,0,1,2.536.905,2.893,2.893,0,0,1,1.015,2.25,2.71,2.71,0,0,1-.492,1.608,2.812,2.812,0,0,1-1.239,1,3.421,3.421,0,0,1,1.74,1.134,3.179,3.179,0,0,1,.677,2.083,3.4,3.4,0,0,1-1.182,2.7A4.434,4.434,0,0,1,32.85,17.167Zm14.906-4.052v1.4H45.849V17H44.328V14.513H38.4V13.106l5.15-8.481h2.294v8.49Zm-7.778,0h4.351V5.741Zm13.228,4.052a3.447,3.447,0,0,1-3.05-1.617A8.623,8.623,0,0,1,49.083,10.8a8.662,8.662,0,0,1,1.059-4.737,3.705,3.705,0,0,1,6.113,0A8.637,8.637,0,0,1,57.318,10.8a8.6,8.6,0,0,1-1.077,4.742A3.44,3.44,0,0,1,53.205,17.167Zm0-1.406a2.093,2.093,0,0,0,1.925-1.239A8.08,8.08,0,0,0,55.8,10.8a7.851,7.851,0,0,0-.681-3.713,2.115,2.115,0,0,0-3.828,0,7.891,7.891,0,0,0-.677,3.718,8.122,8.122,0,0,0,.664,3.722A2.091,2.091,0,0,0,53.205,15.761Z" transform="translate(4945 -4648)" fill="#00223d"/>
    <path id="Trazado_24159" data-name="Trazado 24159" d="M22.392,4.625h1.424V17h-1.5V6.286L19.342,8.861V7.235ZM30.434,15.6h6.161V17h-8.35V15.849L33.2,10.725a5.872,5.872,0,0,0,1.116-1.468,2.928,2.928,0,0,0,.308-1.274A2.136,2.136,0,0,0,34,6.343a2.548,2.548,0,0,0-3.309.053,2.741,2.741,0,0,0-.628,1.991V9.3L28.544,9.16V8.4a3.912,3.912,0,0,1,1.046-2.94A3.842,3.842,0,0,1,32.385,4.44a3.873,3.873,0,0,1,2.685.94,3.27,3.27,0,0,1,1.05,2.566A3.892,3.892,0,0,1,35.7,9.736a7.689,7.689,0,0,1-1.34,1.78Zm12.05,1.564q-4.122,0-4.122-4.4l1.547-.079a3.864,3.864,0,0,0,.58,2.329,2.339,2.339,0,0,0,2,.773,2.742,2.742,0,0,0,1.92-.668,2.254,2.254,0,0,0,.734-1.749,2.232,2.232,0,0,0-.708-1.74,2.537,2.537,0,0,0-1.771-.642h-.615V9.7h.6A1.831,1.831,0,0,0,44,9.125a1.927,1.927,0,0,0,.563-1.406,1.733,1.733,0,0,0-.6-1.362,2.188,2.188,0,0,0-1.5-.527,2.392,2.392,0,0,0-.989.185,1.388,1.388,0,0,0-.628.541,2.548,2.548,0,0,0-.316.787,4.611,4.611,0,0,0-.1,1L38.88,8.29a4.007,4.007,0,0,1,.927-2.839,3.436,3.436,0,0,1,2.641-.993,3.669,3.669,0,0,1,2.536.905A2.893,2.893,0,0,1,46,7.613a2.71,2.71,0,0,1-.492,1.608,2.812,2.812,0,0,1-1.239,1,3.421,3.421,0,0,1,1.74,1.134,3.179,3.179,0,0,1,.677,2.083,3.4,3.4,0,0,1-1.182,2.7A4.434,4.434,0,0,1,42.483,17.167ZM57.39,13.115v1.4H55.482V17H53.962V14.513H48.038V13.106l5.15-8.481h2.294v8.49Zm-7.778,0h4.351V5.741Z" transform="translate(5019 -4648)" fill="#00223d"/>
    <path id="Trazado_24160" data-name="Trazado 24160" d="M22.392,4.625h1.424V17h-1.5V6.286L19.342,8.861V7.235Zm14.317,8.253a4.176,4.176,0,0,1-.562,2.224,3.974,3.974,0,0,1-1.556,1.512,4.437,4.437,0,0,1-2.145.527,4.32,4.32,0,0,1-3.076-1.165,3.934,3.934,0,0,1-1.239-3A4.873,4.873,0,0,1,29.2,10l4.14-5.379h1.793L31.7,8.958a3.853,3.853,0,0,1,1.072-.149,3.933,3.933,0,0,1,1.9.475A3.8,3.8,0,0,1,36.12,10.7,4.242,4.242,0,0,1,36.709,12.878Zm-4.3,2.848a2.688,2.688,0,0,0,2.813-2.874A2.719,2.719,0,0,0,32.385,10a2.66,2.66,0,0,0-2.021.848,2.842,2.842,0,0,0-.782,2.07,2.739,2.739,0,0,0,.8,2.065A2.834,2.834,0,0,0,32.411,15.726Zm10.16,1.441a3.447,3.447,0,0,1-3.05-1.617A8.623,8.623,0,0,1,38.449,10.8a8.662,8.662,0,0,1,1.059-4.737,3.705,3.705,0,0,1,6.113,0A8.637,8.637,0,0,1,46.685,10.8a8.6,8.6,0,0,1-1.077,4.742A3.44,3.44,0,0,1,42.571,17.167Zm0-1.406A2.093,2.093,0,0,0,44.5,14.521a8.08,8.08,0,0,0,.668-3.718,7.851,7.851,0,0,0-.681-3.713,2.115,2.115,0,0,0-3.828,0,7.891,7.891,0,0,0-.677,3.718,8.122,8.122,0,0,0,.664,3.722A2.091,2.091,0,0,0,42.571,15.761Zm10.134,1.406a3.447,3.447,0,0,1-3.05-1.617A8.623,8.623,0,0,1,48.583,10.8a8.662,8.662,0,0,1,1.059-4.737,3.705,3.705,0,0,1,6.113,0A8.637,8.637,0,0,1,56.818,10.8a8.6,8.6,0,0,1-1.077,4.742A3.44,3.44,0,0,1,52.705,17.167Zm0-1.406a2.093,2.093,0,0,0,1.925-1.239A8.08,8.08,0,0,0,55.3,10.8a7.851,7.851,0,0,0-.681-3.713,2.115,2.115,0,0,0-3.828,0,7.891,7.891,0,0,0-.677,3.718,8.122,8.122,0,0,0,.664,3.722A2.091,2.091,0,0,0,52.705,15.761Z" transform="translate(4574 -4577)" fill="#00223d"/>
    <path id="Trazado_24161" data-name="Trazado 24161" d="M21.892,4.625h1.424V17h-1.5V6.286L18.842,8.861V7.235Zm5.836,0h8.464V5.9L30.145,17H28.4L34.5,6.031H27.728Zm18.615,8.253A4.176,4.176,0,0,1,45.78,15.1a3.974,3.974,0,0,1-1.556,1.512,4.437,4.437,0,0,1-2.145.527A4.32,4.32,0,0,1,39,15.976a3.934,3.934,0,0,1-1.239-3A4.873,4.873,0,0,1,38.837,10l4.14-5.379H44.77L41.333,8.958a3.853,3.853,0,0,1,1.072-.149,3.933,3.933,0,0,1,1.9.475,3.8,3.8,0,0,1,1.45,1.419A4.242,4.242,0,0,1,46.343,12.878Zm-4.3,2.848a2.688,2.688,0,0,0,2.813-2.874A2.719,2.719,0,0,0,42.019,10,2.66,2.66,0,0,0,40,10.843a2.842,2.842,0,0,0-.782,2.07,2.739,2.739,0,0,0,.8,2.065A2.834,2.834,0,0,0,42.045,15.726Zm10.16,1.441a3.447,3.447,0,0,1-3.05-1.617A8.623,8.623,0,0,1,48.083,10.8a8.662,8.662,0,0,1,1.059-4.737,3.705,3.705,0,0,1,6.113,0A8.637,8.637,0,0,1,56.318,10.8a8.6,8.6,0,0,1-1.077,4.742A3.44,3.44,0,0,1,52.205,17.167Zm0-1.406a2.093,2.093,0,0,0,1.925-1.239A8.08,8.08,0,0,0,54.8,10.8a7.851,7.851,0,0,0-.681-3.713,2.115,2.115,0,0,0-3.828,0,7.891,7.891,0,0,0-.677,3.718,8.122,8.122,0,0,0,.664,3.722A2.091,2.091,0,0,0,52.205,15.761Z" transform="translate(4649 -4577)" fill="#00223d"/>
    <path id="Trazado_24162" data-name="Trazado 24162" d="M18.8,15.6h6.161V17h-8.35V15.849l4.957-5.124a5.872,5.872,0,0,0,1.116-1.468,2.928,2.928,0,0,0,.308-1.274,2.136,2.136,0,0,0-.624-1.639,2.548,2.548,0,0,0-3.309.053,2.741,2.741,0,0,0-.628,1.991V9.3L16.91,9.16V8.4a3.912,3.912,0,0,1,1.046-2.94A3.842,3.842,0,0,1,20.751,4.44a3.873,3.873,0,0,1,2.685.94,3.27,3.27,0,0,1,1.05,2.566,3.892,3.892,0,0,1-.417,1.789,7.689,7.689,0,0,1-1.34,1.78Zm16.409-2.725a4.176,4.176,0,0,1-.562,2.224,3.974,3.974,0,0,1-1.556,1.512,4.437,4.437,0,0,1-2.145.527,4.32,4.32,0,0,1-3.076-1.165,3.934,3.934,0,0,1-1.239-3A4.873,4.873,0,0,1,27.7,10l4.14-5.379h1.793L30.2,8.958a3.853,3.853,0,0,1,1.072-.149,3.933,3.933,0,0,1,1.9.475A3.8,3.8,0,0,1,34.62,10.7,4.242,4.242,0,0,1,35.209,12.878Zm-4.3,2.848a2.688,2.688,0,0,0,2.813-2.874A2.719,2.719,0,0,0,30.885,10a2.66,2.66,0,0,0-2.021.848,2.842,2.842,0,0,0-.782,2.07,2.739,2.739,0,0,0,.8,2.065A2.834,2.834,0,0,0,30.911,15.726Zm10.16,1.441a3.447,3.447,0,0,1-3.05-1.617A8.623,8.623,0,0,1,36.949,10.8a8.662,8.662,0,0,1,1.059-4.737,3.705,3.705,0,0,1,6.113,0A8.637,8.637,0,0,1,45.185,10.8a8.6,8.6,0,0,1-1.077,4.742A3.44,3.44,0,0,1,41.071,17.167Zm0-1.406A2.093,2.093,0,0,0,43,14.521a8.08,8.08,0,0,0,.668-3.718,7.851,7.851,0,0,0-.681-3.713,2.115,2.115,0,0,0-3.828,0,7.891,7.891,0,0,0-.677,3.718,8.122,8.122,0,0,0,.664,3.722A2.091,2.091,0,0,0,41.071,15.761Zm10.134,1.406a3.447,3.447,0,0,1-3.05-1.617A8.623,8.623,0,0,1,47.083,10.8a8.662,8.662,0,0,1,1.059-4.737,3.705,3.705,0,0,1,6.113,0A8.637,8.637,0,0,1,55.318,10.8a8.6,8.6,0,0,1-1.077,4.742A3.44,3.44,0,0,1,51.205,17.167Zm0-1.406a2.093,2.093,0,0,0,1.925-1.239A8.08,8.08,0,0,0,53.8,10.8a7.851,7.851,0,0,0-.681-3.713,2.115,2.115,0,0,0-3.828,0,7.891,7.891,0,0,0-.677,3.718,8.122,8.122,0,0,0,.664,3.722A2.091,2.091,0,0,0,51.205,15.761Z" transform="translate(4723 -4577)" fill="#00223d"/>
    <path id="Trazado_24163" data-name="Trazado 24163" d="M26.844,4.484a4.324,4.324,0,0,1,3.072,1.165,3.927,3.927,0,0,1,1.244,3,4.873,4.873,0,0,1-1.081,2.971L25.939,17H24.12l3.419-4.307a3.992,3.992,0,0,1-1.037.132,3.8,3.8,0,0,1-3.331-1.9,4.225,4.225,0,0,1-.589-2.167A4.445,4.445,0,0,1,22.9,7.011a3.84,3.84,0,0,1,.91-1.354A4.235,4.235,0,0,1,25.179,4.8,4.476,4.476,0,0,1,26.844,4.484ZM24.88,10.856a2.805,2.805,0,0,0,2.026.773,2.646,2.646,0,0,0,2.017-.848,2.85,2.85,0,0,0,.778-2.07,2.763,2.763,0,0,0-.8-2.057,3.066,3.066,0,0,0-4.056.04,2.733,2.733,0,0,0-.787,2.087A2.8,2.8,0,0,0,24.88,10.856Zm15.13,5.291a4.913,4.913,0,0,1-6,0,3.369,3.369,0,0,1-1.2-2.694,3.329,3.329,0,0,1,.624-2.021,3.577,3.577,0,0,1,1.7-1.248,3.056,3.056,0,0,1-1.217-1.059A2.694,2.694,0,0,1,33.462,7.6a2.861,2.861,0,0,1,1.011-2.254,3.72,3.72,0,0,1,2.54-.883,3.655,3.655,0,0,1,2.509.888A2.87,2.87,0,0,1,40.529,7.6a2.753,2.753,0,0,1-.439,1.525,2.974,2.974,0,0,1-1.2,1.059,3.647,3.647,0,0,1,1.688,1.252,3.31,3.31,0,0,1,.624,2.017A3.371,3.371,0,0,1,40.01,16.147Zm-3-6.469a2.094,2.094,0,0,0,1.5-.58,1.887,1.887,0,0,0,.611-1.424,1.826,1.826,0,0,0-.611-1.393,2.288,2.288,0,0,0-3.01,0,1.829,1.829,0,0,0-.606,1.4A1.887,1.887,0,0,0,35.506,9.1,2.105,2.105,0,0,0,37.013,9.679Zm0,6.082a2.756,2.756,0,0,0,1.9-.677,2.283,2.283,0,0,0,.76-1.793,2.237,2.237,0,0,0-.76-1.767,2.778,2.778,0,0,0-1.9-.668,2.807,2.807,0,0,0-1.916.668,2.231,2.231,0,0,0-.765,1.767,2.277,2.277,0,0,0,.765,1.793A2.785,2.785,0,0,0,37.013,15.761Zm10.125,1.406a3.447,3.447,0,0,1-3.05-1.617A8.623,8.623,0,0,1,43.016,10.8a8.662,8.662,0,0,1,1.059-4.737,3.705,3.705,0,0,1,6.113,0A8.637,8.637,0,0,1,51.251,10.8a8.6,8.6,0,0,1-1.077,4.742A3.44,3.44,0,0,1,47.138,17.167Zm0-1.406a2.093,2.093,0,0,0,1.925-1.239,8.08,8.08,0,0,0,.668-3.718A7.851,7.851,0,0,0,49.05,7.09a2.115,2.115,0,0,0-3.828,0,7.891,7.891,0,0,0-.677,3.718,8.122,8.122,0,0,0,.664,3.722A2.091,2.091,0,0,0,47.138,15.761Z" transform="translate(4797 -4577)" fill="#00223d"/>
    <path id="Trazado_24164" data-name="Trazado 24164" d="M27.344,4.484a4.324,4.324,0,0,1,3.072,1.165,3.927,3.927,0,0,1,1.244,3,4.873,4.873,0,0,1-1.081,2.971L26.439,17H24.62l3.419-4.307A3.992,3.992,0,0,1,27,12.825a3.8,3.8,0,0,1-3.331-1.9,4.225,4.225,0,0,1-.589-2.167A4.445,4.445,0,0,1,23.4,7.011a3.84,3.84,0,0,1,.91-1.354A4.235,4.235,0,0,1,25.679,4.8,4.476,4.476,0,0,1,27.344,4.484ZM25.38,10.856a2.805,2.805,0,0,0,2.026.773,2.646,2.646,0,0,0,2.017-.848,2.85,2.85,0,0,0,.778-2.07,2.763,2.763,0,0,0-.8-2.057,3.066,3.066,0,0,0-4.056.04,2.733,2.733,0,0,0-.787,2.087A2.8,2.8,0,0,0,25.38,10.856Zm15.13,5.291a4.913,4.913,0,0,1-6,0,3.369,3.369,0,0,1-1.2-2.694,3.329,3.329,0,0,1,.624-2.021,3.577,3.577,0,0,1,1.7-1.248,3.056,3.056,0,0,1-1.217-1.059A2.694,2.694,0,0,1,33.962,7.6a2.861,2.861,0,0,1,1.011-2.254,3.72,3.72,0,0,1,2.54-.883,3.655,3.655,0,0,1,2.509.888A2.87,2.87,0,0,1,41.029,7.6a2.753,2.753,0,0,1-.439,1.525,2.974,2.974,0,0,1-1.2,1.059,3.647,3.647,0,0,1,1.688,1.252,3.31,3.31,0,0,1,.624,2.017A3.371,3.371,0,0,1,40.51,16.147Zm-3-6.469a2.094,2.094,0,0,0,1.5-.58,1.887,1.887,0,0,0,.611-1.424,1.826,1.826,0,0,0-.611-1.393,2.288,2.288,0,0,0-3.01,0,1.829,1.829,0,0,0-.606,1.4A1.887,1.887,0,0,0,36.006,9.1,2.105,2.105,0,0,0,37.513,9.679Zm0,6.082a2.756,2.756,0,0,0,1.9-.677,2.283,2.283,0,0,0,.76-1.793,2.237,2.237,0,0,0-.76-1.767,2.778,2.778,0,0,0-1.9-.668,2.807,2.807,0,0,0-1.916.668,2.231,2.231,0,0,0-.765,1.767,2.277,2.277,0,0,0,.765,1.793A2.785,2.785,0,0,0,37.513,15.761Zm10.125,1.406a3.447,3.447,0,0,1-3.05-1.617A8.623,8.623,0,0,1,43.516,10.8a8.662,8.662,0,0,1,1.059-4.737,3.705,3.705,0,0,1,6.113,0A8.637,8.637,0,0,1,51.751,10.8a8.6,8.6,0,0,1-1.077,4.742A3.44,3.44,0,0,1,47.638,17.167Zm0-1.406a2.093,2.093,0,0,0,1.925-1.239,8.08,8.08,0,0,0,.668-3.718A7.851,7.851,0,0,0,49.55,7.09a2.115,2.115,0,0,0-3.828,0,7.891,7.891,0,0,0-.677,3.718,8.122,8.122,0,0,0,.664,3.722A2.091,2.091,0,0,0,47.638,15.761Z" transform="translate(4871 -4577)" fill="#00223d"/>
    <path id="Trazado_24165" data-name="Trazado 24165" d="M22.892,4.625h1.424V17h-1.5V6.286L19.842,8.861V7.235Zm10.134,0h1.424V17h-1.5V6.286L29.976,8.861V7.235Zm10.134,0h1.424V17h-1.5V6.286L40.109,8.861V7.235ZM53.205,17.167a3.447,3.447,0,0,1-3.05-1.617A8.623,8.623,0,0,1,49.083,10.8a8.662,8.662,0,0,1,1.059-4.737,3.705,3.705,0,0,1,6.113,0A8.637,8.637,0,0,1,57.318,10.8a8.6,8.6,0,0,1-1.077,4.742A3.44,3.44,0,0,1,53.205,17.167Zm0-1.406a2.093,2.093,0,0,0,1.925-1.239A8.08,8.08,0,0,0,55.8,10.8a7.851,7.851,0,0,0-.681-3.713,2.115,2.115,0,0,0-3.828,0,7.891,7.891,0,0,0-.677,3.718,8.122,8.122,0,0,0,.664,3.722A2.091,2.091,0,0,0,53.205,15.761Z" transform="translate(4945 -4577)" fill="#00223d"/>
    <path id="Trazado_24166" data-name="Trazado 24166" d="M21.892,4.625h1.424V17h-1.5V6.286L18.842,8.861V7.235Zm10.134,0h1.424V17h-1.5V6.286L28.976,8.861V7.235ZM40.067,15.6h6.161V17h-8.35V15.849l4.957-5.124a5.872,5.872,0,0,0,1.116-1.468,2.928,2.928,0,0,0,.308-1.274,2.136,2.136,0,0,0-.624-1.639,2.548,2.548,0,0,0-3.309.053A2.741,2.741,0,0,0,39.7,8.387V9.3L38.178,9.16V8.4a3.912,3.912,0,0,1,1.046-2.94,4.33,4.33,0,0,1,5.48-.075,3.27,3.27,0,0,1,1.05,2.566,3.892,3.892,0,0,1-.417,1.789A7.689,7.689,0,0,1,44,11.516Zm12.138,1.564a3.447,3.447,0,0,1-3.05-1.617A8.623,8.623,0,0,1,48.083,10.8a8.662,8.662,0,0,1,1.059-4.737,3.705,3.705,0,0,1,6.113,0A8.637,8.637,0,0,1,56.318,10.8a8.6,8.6,0,0,1-1.077,4.742A3.44,3.44,0,0,1,52.205,17.167Zm0-1.406a2.093,2.093,0,0,0,1.925-1.239A8.08,8.08,0,0,0,54.8,10.8a7.851,7.851,0,0,0-.681-3.713,2.115,2.115,0,0,0-3.828,0,7.891,7.891,0,0,0-.677,3.718,8.122,8.122,0,0,0,.664,3.722A2.091,2.091,0,0,0,52.205,15.761Z" transform="translate(5019 -4577)" fill="#00223d"/>
    <path id="Trazado_24167" data-name="Trazado 24167" d="M57.4,16.412h4.424V19H54.471V4.889H57.4ZM63.689,19V4h2.842V19Zm13.984-2.725a9.392,9.392,0,0,0,.244,2.451V19H75.291l-.225-1.094a3.264,3.264,0,0,1-1.406.967,5.183,5.183,0,0,1-1.816.322,4.776,4.776,0,0,1-.937-.088,3.187,3.187,0,0,1-.845-.3,2.564,2.564,0,0,1-.7-.522,2.291,2.291,0,0,1-.469-.8,3.17,3.17,0,0,1-.176-1.089,3.02,3.02,0,0,1,.186-1.089,2.552,2.552,0,0,1,.488-.815,2.962,2.962,0,0,1,.791-.6,6.053,6.053,0,0,1,1-.43,11.9,11.9,0,0,1,1.191-.312l1.65-.371a1.82,1.82,0,0,0,.747-.317.633.633,0,0,0,.22-.5A1.036,1.036,0,0,0,74.5,11a2.3,2.3,0,0,0-1.2-.293,1.721,1.721,0,0,0-1.963,1.533l-2.49-.449A3.371,3.371,0,0,1,70.3,9.5a5.783,5.783,0,0,1,3.154-.737q4.219,0,4.219,3.623Zm-4.951,1.016a2.262,2.262,0,0,0,1.738-.728,3.066,3.066,0,0,0,.674-2.153l-2.383.674a2.816,2.816,0,0,0-1,.41.842.842,0,0,0-.347.723.935.935,0,0,0,.371.8A1.536,1.536,0,0,0,72.723,17.291ZM92.3,8.766a3.836,3.836,0,0,1,2.588.815,2.918,2.918,0,0,1,.947,2.339V19H93.025V12.721a1.677,1.677,0,0,0-.449-1.27,1.573,1.573,0,0,0-1.133-.43,1.814,1.814,0,0,0-1.367.547,2.484,2.484,0,0,0-.527,1.768V19H86.707V12.75a1.721,1.721,0,0,0-.449-1.294,1.6,1.6,0,0,0-1.162-.435,1.757,1.757,0,0,0-1.357.576,2.751,2.751,0,0,0-.527,1.885V19h-2.8V8.961h2.8v1.182a3.414,3.414,0,0,1,2.91-1.377,4.293,4.293,0,0,1,1.89.386A2.572,2.572,0,0,1,89.2,10.27,3.55,3.55,0,0,1,92.3,8.766Zm14.5,7.51a9.392,9.392,0,0,0,.244,2.451V19h-2.627l-.225-1.094a3.264,3.264,0,0,1-1.406.967,5.183,5.183,0,0,1-1.816.322,4.776,4.776,0,0,1-.937-.088,3.187,3.187,0,0,1-.845-.3,2.564,2.564,0,0,1-.7-.522,2.291,2.291,0,0,1-.469-.8A3.17,3.17,0,0,1,97.85,16.4a3.02,3.02,0,0,1,.186-1.089,2.552,2.552,0,0,1,.488-.815,2.962,2.962,0,0,1,.791-.6,6.053,6.053,0,0,1,1-.43,11.9,11.9,0,0,1,1.191-.312l1.65-.371a1.82,1.82,0,0,0,.747-.317.633.633,0,0,0,.22-.5,1.036,1.036,0,0,0-.493-.967,2.3,2.3,0,0,0-1.2-.293,1.721,1.721,0,0,0-1.963,1.533l-2.49-.449A3.371,3.371,0,0,1,99.432,9.5a5.783,5.783,0,0,1,3.154-.737q4.219,0,4.219,3.623Zm-4.951,1.016a2.262,2.262,0,0,0,1.738-.728,3.066,3.066,0,0,0,.674-2.153l-2.383.674a2.816,2.816,0,0,0-1,.41.842.842,0,0,0-.347.723.935.935,0,0,0,.371.8A1.536,1.536,0,0,0,101.854,17.291ZM116.434,4h2.813V19H116.58l-.068-1.309a2.867,2.867,0,0,1-1.274,1.138,4.29,4.29,0,0,1-1.88.405,4.883,4.883,0,0,1-1.875-.361A4.516,4.516,0,0,1,108.9,16.2a6.106,6.106,0,0,1-.381-2.2,5.707,5.707,0,0,1,.664-2.8,4.55,4.55,0,0,1,1.753-1.821,4.827,4.827,0,0,1,2.417-.615,4.4,4.4,0,0,1,1.821.366,2.843,2.843,0,0,1,1.255,1.04ZM114,16.9a2.5,2.5,0,0,0,1.9-.8,2.932,2.932,0,0,0,.757-2.1,2.938,2.938,0,0,0-.762-2.1A2.5,2.5,0,0,0,114,11.09a2.53,2.53,0,0,0-1.909.791A2.937,2.937,0,0,0,111.336,14a2.924,2.924,0,0,0,.757,2.109A2.53,2.53,0,0,0,114,16.9Zm16.387-.625a9.391,9.391,0,0,0,.244,2.451V19h-2.627l-.225-1.094a3.264,3.264,0,0,1-1.406.967,5.183,5.183,0,0,1-1.816.322,4.776,4.776,0,0,1-.937-.088,3.187,3.187,0,0,1-.845-.3,2.564,2.564,0,0,1-.7-.522,2.291,2.291,0,0,1-.469-.8,3.17,3.17,0,0,1-.176-1.089,3.02,3.02,0,0,1,.186-1.089,2.552,2.552,0,0,1,.488-.815,2.962,2.962,0,0,1,.791-.6,6.053,6.053,0,0,1,1-.43,11.9,11.9,0,0,1,1.191-.312l1.65-.371a1.82,1.82,0,0,0,.747-.317.633.633,0,0,0,.22-.5A1.036,1.036,0,0,0,127.21,11a2.3,2.3,0,0,0-1.2-.293,1.721,1.721,0,0,0-1.963,1.533l-2.49-.449a3.371,3.371,0,0,1,1.455-2.29,5.783,5.783,0,0,1,3.154-.737q4.219,0,4.219,3.623Zm-4.951,1.016a2.262,2.262,0,0,0,1.738-.728,3.066,3.066,0,0,0,.674-2.153l-2.383.674a2.816,2.816,0,0,0-1,.41.842.842,0,0,0-.347.723.935.935,0,0,0,.371.8A1.536,1.536,0,0,0,125.438,17.291Zm11.221,1.9a5.61,5.61,0,0,1-2.93-.7,2.972,2.972,0,0,1-1.436-2.09l2.354-.664a1.891,1.891,0,0,0,2.012,1.494A2.078,2.078,0,0,0,137.684,17a.8.8,0,0,0,.4-.776.821.821,0,0,0-.166-.518,1.315,1.315,0,0,0-.513-.371,6.388,6.388,0,0,0-.684-.264q-.337-.107-.894-.259t-.928-.288a6.215,6.215,0,0,1-.884-.376,3.769,3.769,0,0,1-.732-.518,2.086,2.086,0,0,1-.547-.786,2.836,2.836,0,0,1-.19-1.074,2.565,2.565,0,0,1,1.089-2.246,4.865,4.865,0,0,1,2.847-.762,4.988,4.988,0,0,1,2.627.645,2.917,2.917,0,0,1,1.348,2.012l-2.178.488a1.706,1.706,0,0,0-1.787-1.27,1.957,1.957,0,0,0-.986.225.722.722,0,0,0-.391.664.761.761,0,0,0,.059.3.6.6,0,0,0,.205.244,2.992,2.992,0,0,0,.283.186,2.136,2.136,0,0,0,.4.161q.264.083.439.127l.513.132.522.137q.537.146.942.293a5.519,5.519,0,0,1,.864.41,3.1,3.1,0,0,1,.757.591,2.635,2.635,0,0,1,.493.83,3.066,3.066,0,0,1,.2,1.118,3.02,3.02,0,0,1-.337,1.455,2.529,2.529,0,0,1-.923.981,4.492,4.492,0,0,1-1.3.527A6.763,6.763,0,0,1,136.658,19.2ZM48.03,30.457a1.579,1.579,0,0,1-1.152-.474,1.555,1.555,0,0,1-.479-1.147,1.536,1.536,0,0,1,.483-1.138,1.584,1.584,0,0,1,1.147-.474,1.616,1.616,0,0,1,0,3.232ZM46.595,42V31.961h2.832V42Zm11.67-10.234a3.914,3.914,0,0,1,2.773.9A3.349,3.349,0,0,1,62,35.242V42H59.183V35.848a1.749,1.749,0,0,0-.5-1.387,1.9,1.9,0,0,0-1.294-.439,2.643,2.643,0,0,0-.84.127,2.158,2.158,0,0,0-.7.4,1.748,1.748,0,0,0-.5.757,3.5,3.5,0,0,0-.19,1.162V42H52.337V31.961h2.813v1.113A3.868,3.868,0,0,1,58.265,31.766Zm13.379.2h2.676v9.287a7.51,7.51,0,0,1-.376,2.5,4.123,4.123,0,0,1-1.089,1.714,4.539,4.539,0,0,1-1.67.962A7.04,7.04,0,0,1,69,46.736q-3.975,0-5.176-3.115l2.334-1a3.406,3.406,0,0,0,1.084,1.455,2.763,2.763,0,0,0,1.65.469q2.607,0,2.607-3.1V40.281a3.163,3.163,0,0,1-1.265.991,4.2,4.2,0,0,1-1.782.376A4.5,4.5,0,0,1,65.228,40.3a4.638,4.638,0,0,1-.991-1.577,5.83,5.83,0,0,1,0-4.067,4.451,4.451,0,0,1,1-1.558,4.584,4.584,0,0,1,1.465-.977,4.521,4.521,0,0,1,1.772-.352,4.083,4.083,0,0,1,1.86.415,2.967,2.967,0,0,1,1.245,1.108ZM67.332,38.6a2.576,2.576,0,0,0,3.687-.01,2.806,2.806,0,0,0,0-3.818,2.6,2.6,0,0,0-3.7-.015,2.671,2.671,0,0,0-.737,1.929A2.644,2.644,0,0,0,67.332,38.6Zm12.6-5.049a3.259,3.259,0,0,1,1.318-1.206,4.023,4.023,0,0,1,1.963-.5v2.51a3.8,3.8,0,0,0-2.4.605,2.643,2.643,0,0,0-.742,2.148V42H77.239V31.961h2.7Zm14.316,3.281-.029.674H86.78a2.6,2.6,0,0,0,.8,1.836,2.561,2.561,0,0,0,1.768.635,2.468,2.468,0,0,0,1.323-.347,2.131,2.131,0,0,0,.845-1.011L94.095,39a4.383,4.383,0,0,1-1.758,2.354,5.226,5.226,0,0,1-2.969.84,5.435,5.435,0,0,1-3.911-1.382,5.042,5.042,0,0,1-1.45-3.833,5.072,5.072,0,0,1,1.455-3.833,5.273,5.273,0,0,1,3.818-1.4,4.6,4.6,0,0,1,4.971,5.088Zm-4.951-3.1a2.222,2.222,0,0,0-2.441,1.934h4.609a2.114,2.114,0,0,0-.693-1.436A2.2,2.2,0,0,0,89.3,33.738ZM99.925,42.2a5.61,5.61,0,0,1-2.93-.7A2.972,2.972,0,0,1,95.56,39.4l2.354-.664a1.891,1.891,0,0,0,2.012,1.494A2.078,2.078,0,0,0,100.95,40a.8.8,0,0,0,.4-.776.821.821,0,0,0-.166-.518,1.315,1.315,0,0,0-.513-.371,6.387,6.387,0,0,0-.684-.264q-.337-.107-.894-.259t-.928-.288a6.215,6.215,0,0,1-.884-.376,3.77,3.77,0,0,1-.732-.518A2.086,2.086,0,0,1,96,35.848a2.836,2.836,0,0,1-.19-1.074A2.565,2.565,0,0,1,96.9,32.527a4.865,4.865,0,0,1,2.847-.762,4.988,4.988,0,0,1,2.627.645,2.917,2.917,0,0,1,1.348,2.012l-2.178.488a1.706,1.706,0,0,0-1.787-1.27,1.957,1.957,0,0,0-.986.225.722.722,0,0,0-.391.664.761.761,0,0,0,.059.3.6.6,0,0,0,.205.244,2.991,2.991,0,0,0,.283.186,2.137,2.137,0,0,0,.4.161q.264.083.439.127l.513.132.522.137q.537.146.942.293a5.519,5.519,0,0,1,.864.41,3.1,3.1,0,0,1,.757.591,2.635,2.635,0,0,1,.493.83,3.066,3.066,0,0,1,.2,1.118,3.02,3.02,0,0,1-.337,1.455,2.529,2.529,0,0,1-.923.981,4.492,4.492,0,0,1-1.3.527A6.763,6.763,0,0,1,99.925,42.2Zm14.385-2.92a9.392,9.392,0,0,0,.244,2.451V42h-2.627l-.225-1.094a3.264,3.264,0,0,1-1.406.967,5.183,5.183,0,0,1-1.816.322,4.776,4.776,0,0,1-.937-.088,3.187,3.187,0,0,1-.845-.3,2.564,2.564,0,0,1-.7-.522,2.291,2.291,0,0,1-.469-.8,3.17,3.17,0,0,1-.176-1.089,3.02,3.02,0,0,1,.186-1.089,2.552,2.552,0,0,1,.488-.815,2.962,2.962,0,0,1,.791-.6,6.053,6.053,0,0,1,1-.43,11.9,11.9,0,0,1,1.191-.312l1.65-.371a1.82,1.82,0,0,0,.747-.317.633.633,0,0,0,.22-.5,1.036,1.036,0,0,0-.493-.967,2.3,2.3,0,0,0-1.2-.293,1.721,1.721,0,0,0-1.963,1.533l-2.49-.449a3.371,3.371,0,0,1,1.455-2.29,5.783,5.783,0,0,1,3.154-.737q4.219,0,4.219,3.623Zm-4.951,1.016a2.262,2.262,0,0,0,1.738-.728,3.066,3.066,0,0,0,.674-2.153l-2.383.674a2.816,2.816,0,0,0-1,.41.842.842,0,0,0-.347.723.935.935,0,0,0,.371.8A1.536,1.536,0,0,0,109.358,40.291ZM123.938,27h2.813V42h-2.666l-.068-1.309a2.867,2.867,0,0,1-1.274,1.138,4.29,4.29,0,0,1-1.88.405,4.882,4.882,0,0,1-1.875-.361,4.516,4.516,0,0,1-2.578-2.676,6.106,6.106,0,0,1-.381-2.2,5.707,5.707,0,0,1,.664-2.8,4.55,4.55,0,0,1,1.753-1.821,4.827,4.827,0,0,1,2.417-.615,4.4,4.4,0,0,1,1.821.366,2.843,2.843,0,0,1,1.255,1.04Zm-2.432,12.9a2.5,2.5,0,0,0,1.9-.8,3.289,3.289,0,0,0,0-4.2,2.5,2.5,0,0,0-1.895-.806,2.53,2.53,0,0,0-1.909.791,3.332,3.332,0,0,0,0,4.229A2.53,2.53,0,0,0,121.507,39.9Zm16.387-.625a9.391,9.391,0,0,0,.244,2.451V42h-2.627l-.225-1.094a3.264,3.264,0,0,1-1.406.967,5.183,5.183,0,0,1-1.816.322,4.776,4.776,0,0,1-.937-.088,3.187,3.187,0,0,1-.845-.3,2.563,2.563,0,0,1-.7-.522,2.291,2.291,0,0,1-.469-.8,3.17,3.17,0,0,1-.176-1.089,3.019,3.019,0,0,1,.186-1.089,2.552,2.552,0,0,1,.488-.815,2.962,2.962,0,0,1,.791-.6,6.052,6.052,0,0,1,1-.43,11.9,11.9,0,0,1,1.191-.312l1.65-.371a1.82,1.82,0,0,0,.747-.317.633.633,0,0,0,.22-.5,1.036,1.036,0,0,0-.493-.967,2.3,2.3,0,0,0-1.2-.293,1.721,1.721,0,0,0-1.963,1.533l-2.49-.449a3.371,3.371,0,0,1,1.455-2.29,5.783,5.783,0,0,1,3.154-.737q4.219,0,4.219,3.623Zm-4.951,1.016a2.262,2.262,0,0,0,1.738-.728,3.066,3.066,0,0,0,.674-2.153l-2.383.674a2.816,2.816,0,0,0-1,.41.842.842,0,0,0-.347.723.935.935,0,0,0,.371.8A1.536,1.536,0,0,0,132.942,40.291Zm11.221,1.9a5.61,5.61,0,0,1-2.93-.7A2.972,2.972,0,0,1,139.8,39.4l2.354-.664a1.891,1.891,0,0,0,2.012,1.494A2.078,2.078,0,0,0,145.188,40a.8.8,0,0,0,.4-.776.821.821,0,0,0-.166-.518,1.315,1.315,0,0,0-.513-.371,6.387,6.387,0,0,0-.684-.264q-.337-.107-.894-.259t-.928-.288a6.215,6.215,0,0,1-.884-.376,3.769,3.769,0,0,1-.732-.518,2.086,2.086,0,0,1-.547-.786,2.836,2.836,0,0,1-.19-1.074,2.565,2.565,0,0,1,1.089-2.246,4.865,4.865,0,0,1,2.847-.762,4.988,4.988,0,0,1,2.627.645,2.917,2.917,0,0,1,1.348,2.012l-2.178.488A1.706,1.706,0,0,0,144,33.641a1.957,1.957,0,0,0-.986.225.722.722,0,0,0-.391.664.761.761,0,0,0,.059.3.6.6,0,0,0,.205.244,2.992,2.992,0,0,0,.283.186,2.137,2.137,0,0,0,.4.161q.264.083.439.127l.513.132.522.137q.537.146.942.293a5.519,5.519,0,0,1,.864.41,3.1,3.1,0,0,1,.757.591,2.635,2.635,0,0,1,.493.83,3.066,3.066,0,0,1,.2,1.118,3.02,3.02,0,0,1-.337,1.455,2.529,2.529,0,0,1-.923.981,4.492,4.492,0,0,1-1.3.527A6.763,6.763,0,0,1,144.163,42.2Z" transform="translate(4380 -4661)" fill="#002b45"/>
    <path id="Trazado_24168" data-name="Trazado 24168" d="M57.4,16.412h4.424V19H54.471V4.889H57.4ZM63.689,19V4h2.842V19Zm13.984-2.725a9.392,9.392,0,0,0,.244,2.451V19H75.291l-.225-1.094a3.264,3.264,0,0,1-1.406.967,5.183,5.183,0,0,1-1.816.322,4.776,4.776,0,0,1-.937-.088,3.187,3.187,0,0,1-.845-.3,2.564,2.564,0,0,1-.7-.522,2.291,2.291,0,0,1-.469-.8,3.17,3.17,0,0,1-.176-1.089,3.02,3.02,0,0,1,.186-1.089,2.552,2.552,0,0,1,.488-.815,2.962,2.962,0,0,1,.791-.6,6.053,6.053,0,0,1,1-.43,11.9,11.9,0,0,1,1.191-.312l1.65-.371a1.82,1.82,0,0,0,.747-.317.633.633,0,0,0,.22-.5A1.036,1.036,0,0,0,74.5,11a2.3,2.3,0,0,0-1.2-.293,1.721,1.721,0,0,0-1.963,1.533l-2.49-.449A3.371,3.371,0,0,1,70.3,9.5a5.783,5.783,0,0,1,3.154-.737q4.219,0,4.219,3.623Zm-4.951,1.016a2.262,2.262,0,0,0,1.738-.728,3.066,3.066,0,0,0,.674-2.153l-2.383.674a2.816,2.816,0,0,0-1,.41.842.842,0,0,0-.347.723.935.935,0,0,0,.371.8A1.536,1.536,0,0,0,72.723,17.291ZM92.3,8.766a3.836,3.836,0,0,1,2.588.815,2.918,2.918,0,0,1,.947,2.339V19H93.025V12.721a1.677,1.677,0,0,0-.449-1.27,1.573,1.573,0,0,0-1.133-.43,1.814,1.814,0,0,0-1.367.547,2.484,2.484,0,0,0-.527,1.768V19H86.707V12.75a1.721,1.721,0,0,0-.449-1.294,1.6,1.6,0,0,0-1.162-.435,1.757,1.757,0,0,0-1.357.576,2.751,2.751,0,0,0-.527,1.885V19h-2.8V8.961h2.8v1.182a3.414,3.414,0,0,1,2.91-1.377,4.293,4.293,0,0,1,1.89.386A2.572,2.572,0,0,1,89.2,10.27,3.55,3.55,0,0,1,92.3,8.766Zm14.5,7.51a9.392,9.392,0,0,0,.244,2.451V19h-2.627l-.225-1.094a3.264,3.264,0,0,1-1.406.967,5.183,5.183,0,0,1-1.816.322,4.776,4.776,0,0,1-.937-.088,3.187,3.187,0,0,1-.845-.3,2.564,2.564,0,0,1-.7-.522,2.291,2.291,0,0,1-.469-.8A3.17,3.17,0,0,1,97.85,16.4a3.02,3.02,0,0,1,.186-1.089,2.552,2.552,0,0,1,.488-.815,2.962,2.962,0,0,1,.791-.6,6.053,6.053,0,0,1,1-.43,11.9,11.9,0,0,1,1.191-.312l1.65-.371a1.82,1.82,0,0,0,.747-.317.633.633,0,0,0,.22-.5,1.036,1.036,0,0,0-.493-.967,2.3,2.3,0,0,0-1.2-.293,1.721,1.721,0,0,0-1.963,1.533l-2.49-.449A3.371,3.371,0,0,1,99.432,9.5a5.783,5.783,0,0,1,3.154-.737q4.219,0,4.219,3.623Zm-4.951,1.016a2.262,2.262,0,0,0,1.738-.728,3.066,3.066,0,0,0,.674-2.153l-2.383.674a2.816,2.816,0,0,0-1,.41.842.842,0,0,0-.347.723.935.935,0,0,0,.371.8A1.536,1.536,0,0,0,101.854,17.291ZM116.434,4h2.813V19H116.58l-.068-1.309a2.867,2.867,0,0,1-1.274,1.138,4.29,4.29,0,0,1-1.88.405,4.883,4.883,0,0,1-1.875-.361A4.516,4.516,0,0,1,108.9,16.2a6.106,6.106,0,0,1-.381-2.2,5.707,5.707,0,0,1,.664-2.8,4.55,4.55,0,0,1,1.753-1.821,4.827,4.827,0,0,1,2.417-.615,4.4,4.4,0,0,1,1.821.366,2.843,2.843,0,0,1,1.255,1.04ZM114,16.9a2.5,2.5,0,0,0,1.9-.8,2.932,2.932,0,0,0,.757-2.1,2.938,2.938,0,0,0-.762-2.1A2.5,2.5,0,0,0,114,11.09a2.53,2.53,0,0,0-1.909.791A2.937,2.937,0,0,0,111.336,14a2.924,2.924,0,0,0,.757,2.109A2.53,2.53,0,0,0,114,16.9Zm16.387-.625a9.391,9.391,0,0,0,.244,2.451V19h-2.627l-.225-1.094a3.264,3.264,0,0,1-1.406.967,5.183,5.183,0,0,1-1.816.322,4.776,4.776,0,0,1-.937-.088,3.187,3.187,0,0,1-.845-.3,2.564,2.564,0,0,1-.7-.522,2.291,2.291,0,0,1-.469-.8,3.17,3.17,0,0,1-.176-1.089,3.02,3.02,0,0,1,.186-1.089,2.552,2.552,0,0,1,.488-.815,2.962,2.962,0,0,1,.791-.6,6.053,6.053,0,0,1,1-.43,11.9,11.9,0,0,1,1.191-.312l1.65-.371a1.82,1.82,0,0,0,.747-.317.633.633,0,0,0,.22-.5A1.036,1.036,0,0,0,127.21,11a2.3,2.3,0,0,0-1.2-.293,1.721,1.721,0,0,0-1.963,1.533l-2.49-.449a3.371,3.371,0,0,1,1.455-2.29,5.783,5.783,0,0,1,3.154-.737q4.219,0,4.219,3.623Zm-4.951,1.016a2.262,2.262,0,0,0,1.738-.728,3.066,3.066,0,0,0,.674-2.153l-2.383.674a2.816,2.816,0,0,0-1,.41.842.842,0,0,0-.347.723.935.935,0,0,0,.371.8A1.536,1.536,0,0,0,125.438,17.291Zm11.221,1.9a5.61,5.61,0,0,1-2.93-.7,2.972,2.972,0,0,1-1.436-2.09l2.354-.664a1.891,1.891,0,0,0,2.012,1.494A2.078,2.078,0,0,0,137.684,17a.8.8,0,0,0,.4-.776.821.821,0,0,0-.166-.518,1.315,1.315,0,0,0-.513-.371,6.388,6.388,0,0,0-.684-.264q-.337-.107-.894-.259t-.928-.288a6.215,6.215,0,0,1-.884-.376,3.769,3.769,0,0,1-.732-.518,2.086,2.086,0,0,1-.547-.786,2.836,2.836,0,0,1-.19-1.074,2.565,2.565,0,0,1,1.089-2.246,4.865,4.865,0,0,1,2.847-.762,4.988,4.988,0,0,1,2.627.645,2.917,2.917,0,0,1,1.348,2.012l-2.178.488a1.706,1.706,0,0,0-1.787-1.27,1.957,1.957,0,0,0-.986.225.722.722,0,0,0-.391.664.761.761,0,0,0,.059.3.6.6,0,0,0,.205.244,2.992,2.992,0,0,0,.283.186,2.136,2.136,0,0,0,.4.161q.264.083.439.127l.513.132.522.137q.537.146.942.293a5.519,5.519,0,0,1,.864.41,3.1,3.1,0,0,1,.757.591,2.635,2.635,0,0,1,.493.83,3.066,3.066,0,0,1,.2,1.118,3.02,3.02,0,0,1-.337,1.455,2.529,2.529,0,0,1-.923.981,4.492,4.492,0,0,1-1.3.527A6.763,6.763,0,0,1,136.658,19.2ZM59.524,33.553a3.259,3.259,0,0,1,1.318-1.206,4.023,4.023,0,0,1,1.963-.5v2.51a3.8,3.8,0,0,0-2.4.605,2.643,2.643,0,0,0-.742,2.148V42H56.829V31.961h2.7Zm14.316,3.281-.029.674H66.37a2.6,2.6,0,0,0,.8,1.836,2.561,2.561,0,0,0,1.768.635,2.468,2.468,0,0,0,1.323-.347,2.131,2.131,0,0,0,.845-1.011L73.685,39a4.383,4.383,0,0,1-1.758,2.354,5.226,5.226,0,0,1-2.969.84,5.435,5.435,0,0,1-3.911-1.382A5.042,5.042,0,0,1,63.6,36.98a5.072,5.072,0,0,1,1.455-3.833,5.273,5.273,0,0,1,3.818-1.4,4.6,4.6,0,0,1,4.971,5.088Zm-4.951-3.1a2.222,2.222,0,0,0-2.441,1.934h4.609a2.114,2.114,0,0,0-.693-1.436A2.2,2.2,0,0,0,68.89,33.738Zm11.631,8.447a5.364,5.364,0,0,1-3.877-1.445,4.992,4.992,0,0,1-1.5-3.77,4.981,4.981,0,0,1,1.5-3.77,5.96,5.96,0,0,1,7.134-.469,4.316,4.316,0,0,1,1.68,2.725l-2.6.283a2.226,2.226,0,0,0-.84-1.318,2.554,2.554,0,0,0-1.523-.439,2.3,2.3,0,0,0-1.836.82,3.686,3.686,0,0,0,0,4.331,2.3,2.3,0,0,0,1.836.825,2.532,2.532,0,0,0,1.519-.439,2.277,2.277,0,0,0,.845-1.318l2.6.283a4.328,4.328,0,0,1-1.694,2.725A5.327,5.327,0,0,1,80.521,42.186ZM88.89,30.457a1.579,1.579,0,0,1-1.152-.474,1.555,1.555,0,0,1-.479-1.147,1.536,1.536,0,0,1,.483-1.138,1.584,1.584,0,0,1,1.147-.474,1.616,1.616,0,0,1,0,3.232ZM87.454,42V31.961h2.832V42ZM99.095,31.766a4.857,4.857,0,0,1,1.865.361,4.516,4.516,0,0,1,2.578,2.676,6.529,6.529,0,0,1,0,4.395,4.516,4.516,0,0,1-2.578,2.676,4.857,4.857,0,0,1-1.865.361,4.336,4.336,0,0,1-1.9-.405,2.808,2.808,0,0,1-1.265-1.138L95.862,42H93.2V27h2.813v6.182a2.8,2.8,0,0,1,1.255-1.045A4.414,4.414,0,0,1,99.095,31.766ZM98.44,39.9a2.53,2.53,0,0,0,1.909-.791,3.332,3.332,0,0,0,0-4.229,2.53,2.53,0,0,0-1.909-.791,2.5,2.5,0,0,0-1.895.806,3.289,3.289,0,0,0,0,4.2A2.5,2.5,0,0,0,98.44,39.9Zm9.033-9.443a1.579,1.579,0,0,1-1.152-.474,1.555,1.555,0,0,1-.479-1.147,1.536,1.536,0,0,1,.483-1.138,1.584,1.584,0,0,1,1.147-.474,1.616,1.616,0,0,1,0,3.232ZM106.038,42V31.961h2.832V42ZM118.9,27h2.813V42h-2.666l-.068-1.309a2.867,2.867,0,0,1-1.274,1.138,4.29,4.29,0,0,1-1.88.405,4.882,4.882,0,0,1-1.875-.361A4.516,4.516,0,0,1,111.37,39.2a6.106,6.106,0,0,1-.381-2.2,5.707,5.707,0,0,1,.664-2.8,4.55,4.55,0,0,1,1.753-1.821,4.827,4.827,0,0,1,2.417-.615,4.4,4.4,0,0,1,1.821.366,2.843,2.843,0,0,1,1.255,1.04Zm-2.432,12.9a2.5,2.5,0,0,0,1.9-.8,3.289,3.289,0,0,0,0-4.2,2.5,2.5,0,0,0-1.895-.806,2.53,2.53,0,0,0-1.909.791,3.332,3.332,0,0,0,0,4.229A2.53,2.53,0,0,0,116.468,39.9Zm16.387-.625a9.391,9.391,0,0,0,.244,2.451V42h-2.627l-.225-1.094a3.264,3.264,0,0,1-1.406.967,5.183,5.183,0,0,1-1.816.322,4.776,4.776,0,0,1-.937-.088,3.187,3.187,0,0,1-.845-.3,2.564,2.564,0,0,1-.7-.522,2.291,2.291,0,0,1-.469-.8A3.17,3.17,0,0,1,123.9,39.4a3.02,3.02,0,0,1,.186-1.089,2.552,2.552,0,0,1,.488-.815,2.962,2.962,0,0,1,.791-.6,6.053,6.053,0,0,1,1-.43,11.9,11.9,0,0,1,1.191-.312l1.65-.371a1.82,1.82,0,0,0,.747-.317.633.633,0,0,0,.22-.5,1.036,1.036,0,0,0-.493-.967,2.3,2.3,0,0,0-1.2-.293,1.721,1.721,0,0,0-1.963,1.533l-2.49-.449a3.371,3.371,0,0,1,1.455-2.29,5.783,5.783,0,0,1,3.154-.737q4.219,0,4.219,3.623ZM127.9,40.291a2.262,2.262,0,0,0,1.738-.728,3.066,3.066,0,0,0,.674-2.153l-2.383.674a2.816,2.816,0,0,0-1,.41.842.842,0,0,0-.347.723.935.935,0,0,0,.371.8A1.536,1.536,0,0,0,127.9,40.291Zm11.221,1.9a5.61,5.61,0,0,1-2.93-.7,2.972,2.972,0,0,1-1.436-2.09l2.354-.664a1.891,1.891,0,0,0,2.012,1.494A2.078,2.078,0,0,0,140.149,40a.8.8,0,0,0,.4-.776.821.821,0,0,0-.166-.518,1.315,1.315,0,0,0-.513-.371,6.387,6.387,0,0,0-.684-.264q-.337-.107-.894-.259t-.928-.288a6.215,6.215,0,0,1-.884-.376,3.769,3.769,0,0,1-.732-.518,2.086,2.086,0,0,1-.547-.786,2.836,2.836,0,0,1-.19-1.074,2.565,2.565,0,0,1,1.089-2.246,4.865,4.865,0,0,1,2.847-.762,4.988,4.988,0,0,1,2.627.645,2.917,2.917,0,0,1,1.348,2.012l-2.178.488a1.706,1.706,0,0,0-1.787-1.27,1.957,1.957,0,0,0-.986.225.722.722,0,0,0-.391.664.761.761,0,0,0,.059.3.6.6,0,0,0,.205.244,2.992,2.992,0,0,0,.283.186,2.137,2.137,0,0,0,.4.161q.264.083.439.127l.513.132.522.137q.537.146.942.293a5.519,5.519,0,0,1,.864.41,3.1,3.1,0,0,1,.757.591,2.635,2.635,0,0,1,.493.83,3.066,3.066,0,0,1,.2,1.118,3.02,3.02,0,0,1-.337,1.455A2.529,2.529,0,0,1,142,41.5a4.492,4.492,0,0,1-1.3.527A6.763,6.763,0,0,1,139.124,42.2Z" transform="translate(4380 -4588)" fill="#002b45"/>
    <path id="Trazado_24169" data-name="Trazado 24169" d="M30.643,4.889h2.676V19h-2.8V7.779L27.273,10.8V7.906ZM42.947,19.2A5.063,5.063,0,0,1,39.1,17.906a5.59,5.59,0,0,1-1.211-3.945l2.881-.127a10.2,10.2,0,0,0,.044,1.035,3.578,3.578,0,0,0,.176.8,1.433,1.433,0,0,0,.371.6,1.686,1.686,0,0,0,.635.347,3.137,3.137,0,0,0,.952.127,2.288,2.288,0,0,0,1.665-.566,1.98,1.98,0,0,0,.581-1.484,2,2,0,0,0-.557-1.528,2.1,2.1,0,0,0-1.494-.522H42.6V10.455H43.1a1.527,1.527,0,0,0,1.167-.5,1.776,1.776,0,0,0,.464-1.26,1.419,1.419,0,0,0-.508-1.172,2.064,2.064,0,0,0-1.338-.41,2.005,2.005,0,0,0-.762.132,1.421,1.421,0,0,0-.513.337,1.49,1.49,0,0,0-.3.518,2.72,2.72,0,0,0-.146.615,6.144,6.144,0,0,0-.034.684l-2.842-.137A4.517,4.517,0,0,1,39.5,5.87a4.617,4.617,0,0,1,3.359-1.177,4.8,4.8,0,0,1,3.223,1.079,3.379,3.379,0,0,1,1.27,2.681,3.051,3.051,0,0,1-.542,1.816,3.1,3.1,0,0,1-1.235,1.074,3.478,3.478,0,0,1,.9.4,3.683,3.683,0,0,1,.786.674,3.007,3.007,0,0,1,.581,1.025,4.126,4.126,0,0,1,.215,1.367A3.988,3.988,0,0,1,46.658,18,5.508,5.508,0,0,1,42.947,19.2Z" transform="translate(4649 -4721)" fill="#002b45"/>
    <path id="Trazado_24170" data-name="Trazado 24170" d="M30.643,4.889h2.676V19h-2.8V7.779L27.273,10.8V7.906Zm17.793,8.926v2.51h-1.7V19H43.924V16.324H37.43V13.8l5-8.916h4.307v8.926Zm-8.4,0h3.887V6.578Z" transform="translate(4723 -4721)" fill="#002b45"/>
    <path id="Trazado_24171" data-name="Trazado 24171" d="M30.643,4.889h2.676V19h-2.8V7.779L27.273,10.8V7.906ZM42.693,9.85q5.42,0,5.42,4.453a4.757,4.757,0,0,1-1.367,3.569,4.941,4.941,0,0,1-3.6,1.333,5.978,5.978,0,0,1-2.524-.522,4.356,4.356,0,0,1-1.831-1.553,4.158,4.158,0,0,1-.693-2.378,4.39,4.39,0,0,1,.059-.7l2.793-.127a4.128,4.128,0,0,0-.068.625,1.9,1.9,0,0,0,.635,1.558,2.392,2.392,0,0,0,1.572.522,2.167,2.167,0,0,0,1.641-.6A2.237,2.237,0,0,0,45.3,14.41a2.012,2.012,0,0,0-.7-1.65,3.765,3.765,0,0,0-2.363-.576h-3.7l.586-7.295h8.33V7.4h-5.8L41.463,9.85Z" transform="translate(4794 -4721)" fill="#002b45"/>
    <path id="Trazado_24172" data-name="Trazado 24172" d="M30.643,4.889h2.676V19h-2.8V7.779L27.273,10.8V7.906Zm17.52,9.375a4.6,4.6,0,0,1-.415,1.982A4.678,4.678,0,0,1,46.6,17.813a5.38,5.38,0,0,1-1.675,1.006,5.678,5.678,0,0,1-4.038-.01,5.014,5.014,0,0,1-1.65-1.03,4.851,4.851,0,0,1-1.489-3.506A5.865,5.865,0,0,1,39,10.826L43.4,4.889H46.59L42.928,9.664a4.758,4.758,0,0,1,.645-.039,4.6,4.6,0,0,1,1.733.332,4.694,4.694,0,0,1,1.46.923,4.27,4.27,0,0,1,1.011,1.47A4.936,4.936,0,0,1,48.162,14.264ZM45.408,14.2a2.411,2.411,0,0,0-.684-1.821,2.486,2.486,0,0,0-1.846-.708,2.383,2.383,0,0,0-1.787.713,2.518,2.518,0,0,0-.713,1.777,2.315,2.315,0,0,0,2.471,2.5,2.543,2.543,0,0,0,1.836-.684A2.383,2.383,0,0,0,45.408,14.2Z" transform="translate(4868 -4721)" fill="#002b45"/>
    <path id="Trazado_24173" data-name="Trazado 24173" d="M30.643,4.889h2.676V19h-2.8V7.779L27.273,10.8V7.906Zm7.441,0h9.932V7.057L41.639,19H38.455l6.4-11.611H38.084Z" transform="translate(4943 -4721)" fill="#002b45"/>
    <path id="Trazado_24174" data-name="Trazado 24174" d="M30.643,4.889h2.676V19h-2.8V7.779L27.273,10.8V7.906ZM43,19.2a5.647,5.647,0,0,1-3.687-1.182,3.882,3.882,0,0,1-1.45-3.174,3.955,3.955,0,0,1,.591-2.163,4.049,4.049,0,0,1,1.636-1.46,3.575,3.575,0,0,1-1.167-1.2,3.1,3.1,0,0,1-.425-1.6,3.31,3.31,0,0,1,1.26-2.69A4.955,4.955,0,0,1,43,4.693a4.874,4.874,0,0,1,3.2,1.03,3.315,3.315,0,0,1,1.255,2.69,3.161,3.161,0,0,1-.41,1.6,3.6,3.6,0,0,1-1.133,1.206,4.029,4.029,0,0,1,1.621,1.46,3.98,3.98,0,0,1,.586,2.163,4.055,4.055,0,0,1-.674,2.319,4.241,4.241,0,0,1-1.831,1.519A6.332,6.332,0,0,1,43,19.2Zm0-8.8a1.876,1.876,0,0,0,1.338-.527,1.708,1.708,0,0,0,.557-1.289,1.666,1.666,0,0,0-.557-1.27,2.007,2.007,0,0,0-2.69,0,1.673,1.673,0,0,0-.552,1.27,1.71,1.71,0,0,0,.552,1.294A1.893,1.893,0,0,0,43,10.4Zm0,6.279a2.358,2.358,0,0,0,1.65-.6,2.06,2.06,0,0,0,.654-1.6,2,2,0,0,0-.659-1.567A2.374,2.374,0,0,0,43,12.32a2.4,2.4,0,0,0-1.665.591,2,2,0,0,0-.659,1.567,2.052,2.052,0,0,0,.659,1.6A2.389,2.389,0,0,0,43,16.676Z" transform="translate(5019 -4721)" fill="#002b45"/>
    <path id="Trazado_24175" data-name="Trazado 24175" d="M0,0H520V50H0Z" transform="translate(4574 -4796)" fill="#b869c3"/>
    <path id="Trazado_24176" data-name="Trazado 24176" d="M240.457,19.2a7.98,7.98,0,0,1-3.73-.977l1.24-2.412a3.685,3.685,0,0,0,2.139.752A1.543,1.543,0,0,0,241.414,16a2.948,2.948,0,0,0,.43-1.782V4.889h2.93v9.873a4.388,4.388,0,0,1-1.177,3.276A4.283,4.283,0,0,1,240.457,19.2ZM254.48,8.961h2.813V19h-2.666l-.068-1.211a3.834,3.834,0,0,1-3.193,1.406,3.914,3.914,0,0,1-2.773-.9,3.349,3.349,0,0,1-.967-2.573V8.961h2.822v6.152a1.735,1.735,0,0,0,.5,1.377,1.909,1.909,0,0,0,1.3.439,2.264,2.264,0,0,0,1.6-.571,2.454,2.454,0,0,0,.63-1.86ZM260.2,19V4h2.842V19Zm7.188-11.543a1.579,1.579,0,0,1-1.152-.474,1.555,1.555,0,0,1-.479-1.147,1.536,1.536,0,0,1,.483-1.138,1.584,1.584,0,0,1,1.147-.474A1.626,1.626,0,0,1,269,5.836a1.626,1.626,0,0,1-1.611,1.621ZM265.955,19V8.961h2.832V19Zm10.42.2a6.313,6.313,0,0,1-2.842-.615,4.6,4.6,0,0,1-1.948-1.807,5.384,5.384,0,0,1-.708-2.8,4.911,4.911,0,0,1,1.523-3.809,6.368,6.368,0,0,1,7.959,0,4.911,4.911,0,0,1,1.523,3.809,4.938,4.938,0,0,1-1.523,3.823A5.654,5.654,0,0,1,276.375,19.2Zm-.029-2.236a2.577,2.577,0,0,0,1.987-.82,3.071,3.071,0,0,0,.757-2.168,3.071,3.071,0,0,0-.757-2.168,2.577,2.577,0,0,0-1.987-.82,2.483,2.483,0,0,0-1.929.825,3.1,3.1,0,0,0-.747,2.163,3.1,3.1,0,0,0,.747,2.163A2.483,2.483,0,0,0,276.346,16.959Z" transform="translate(4574 -4781)" fill="#fff"/>
    <path id="Trazado_24177" data-name="Trazado 24177" d="M0,0H713.5" transform="translate(4380.5 -4672.5)" fill="none" stroke="#4d3189" stroke-width="3"/>
    <path id="Trazado_24178" data-name="Trazado 24178" d="M0,0H519.5" transform="translate(4574.5 -4745.5)" fill="none" stroke="#4d3189" stroke-width="3"/>
    <path id="Trazado_24179" data-name="Trazado 24179" d="M0,0H713.5" transform="translate(4380.5 -4795.5)" fill="none" stroke="#4d3189" stroke-width="3"/>
    <path id="Trazado_24180" data-name="Trazado 24180" d="M0,0H713.5" transform="translate(4380.5 -4598.5)" fill="none" stroke="#4d3189" stroke-width="3"/>
    <path id="Trazado_24181" data-name="Trazado 24181" d="M0,0H713.5" transform="translate(4380.5 -4530.5)" fill="none" stroke="#4d3189" stroke-width="3"/>
    <path id="Trazado_24182" data-name="Trazado 24182" d="M0,0V265" transform="translate(4574.5 -4795.5)" fill="none" stroke="#4d3189" stroke-width="3"/>
    <path id="Trazado_24183" data-name="Trazado 24183" d="M0,0V215" transform="translate(4648.5 -4745.5)" fill="none" stroke="#4d3189" stroke-width="3"/>
    <path id="Trazado_24184" data-name="Trazado 24184" d="M0,0V215" transform="translate(4722.5 -4745.5)" fill="none" stroke="#4d3189" stroke-width="3"/>
    <path id="Trazado_24185" data-name="Trazado 24185" d="M0,0V215" transform="translate(4796.5 -4745.5)" fill="none" stroke="#4d3189" stroke-width="3"/>
    <path id="Trazado_24186" data-name="Trazado 24186" d="M0,0V215" transform="translate(4870.5 -4745.5)" fill="none" stroke="#4d3189" stroke-width="3"/>
    <path id="Trazado_24187" data-name="Trazado 24187" d="M0,0V215" transform="translate(4944.5 -4745.5)" fill="none" stroke="#4d3189" stroke-width="3"/>
    <path id="Trazado_24188" data-name="Trazado 24188" d="M0,0V215" transform="translate(5019.5 -4745.5)" fill="none" stroke="#4d3189" stroke-width="3"/>
    <path id="Trazado_24189" data-name="Trazado 24189" d="M0,0V265" transform="translate(5093.5 -4795.5)" fill="none" stroke="#4d3189" stroke-width="3"/>
    <path id="Trazado_24190" data-name="Trazado 24190" d="M0,0V265" transform="translate(4380.5 -4795.5)" fill="none" stroke="#4d3189" stroke-width="3"/>
  </g>
</svg>
