<svg xmlns="http://www.w3.org/2000/svg" xmlns:xlink="http://www.w3.org/1999/xlink" width="620.52" height="305.943" viewBox="0 0 620.52 305.943">
  <defs>
    <linearGradient id="linear-gradient" y1="0.5" x2="1" y2="0.5" gradientUnits="objectBoundingBox">
      <stop offset="0" stop-color="#10e0cc"/>
      <stop offset="1" stop-color="#5fe8ba"/>
    </linearGradient>
    <linearGradient id="linear-gradient-2" y1="0.5" x2="1" y2="0.5" gradientUnits="objectBoundingBox">
      <stop offset="0" stop-color="#0075cf"/>
      <stop offset="1" stop-color="#40ccff"/>
    </linearGradient>
    <linearGradient id="linear-gradient-3" y1="0.5" x2="1" y2="0.5" gradientUnits="objectBoundingBox">
      <stop offset="0" stop-color="#15afd8"/>
      <stop offset="1" stop-color="#2bfff8"/>
    </linearGradient>
  </defs>
  <g id="Grupo_30202" data-name="Grupo 30202" transform="translate(-4854 3520)">
    <path id="Trazado_24353" data-name="Trazado 24353" d="M-3697.913,2749.613h-574.272V2486.031h1.12v262.462h573.152Z" transform="translate(9172.434 -6006.031)" fill="#3a4960"/>
    <path id="Trazado_24354" data-name="Trazado 24354" d="M-4263.226,2702.043h-8.4v-1.12h8.4Zm545.431-1.12h-17.225v1.12h17.225Zm-28.708,0h-17.223v1.12h17.223Zm-28.707,0h-17.224v1.12h17.224Zm-28.706,0h-17.224v1.12h17.224Zm-28.707,0h-17.224v1.12h17.224Zm-28.707,0h-17.224v1.12h17.224Zm-28.707,0h-17.224v1.12h17.224Zm-28.706,0h-17.225v1.12h17.225Zm-28.708,0h-17.223v1.12h17.223Zm-28.706,0h-17.225v1.12h17.225Zm-28.707,0h-17.224v1.12h17.224Zm-28.707,0h-17.224v1.12h17.224Zm-28.707,0H-4079.5v1.12h17.224Zm-28.707,0h-17.224v1.12h17.224Zm-28.707,0h-17.223v1.12h17.223Zm-28.706,0h-17.225v1.12h17.225Zm-28.707,0h-17.224v1.12h17.224Zm-28.707,0h-17.224v1.12h17.224Zm-28.707,0h-17.224v1.12h17.224Zm536.606,0h-8.4v1.12h8.4Z" transform="translate(9172.434 -6006.031)" fill="#3a4960"/>
    <path id="Trazado_24355" data-name="Trazado 24355" d="M-4263.226,2654.472h-8.4v-1.12h8.4Zm545.431-1.12h-17.225v1.12h17.225Zm-28.708,0h-17.223v1.12h17.223Zm-28.707,0h-17.224v1.12h17.224Zm-28.706,0h-17.224v1.12h17.224Zm-28.707,0h-17.224v1.12h17.224Zm-28.707,0h-17.224v1.12h17.224Zm-28.707,0h-17.224v1.12h17.224Zm-28.706,0h-17.225v1.12h17.225Zm-28.708,0h-17.223v1.12h17.223Zm-28.706,0h-17.225v1.12h17.225Zm-28.707,0h-17.224v1.12h17.224Zm-28.707,0h-17.224v1.12h17.224Zm-28.707,0H-4079.5v1.12h17.224Zm-28.707,0h-17.224v1.12h17.224Zm-28.707,0h-17.223v1.12h17.223Zm-28.706,0h-17.225v1.12h17.225Zm-28.707,0h-17.224v1.12h17.224Zm-28.707,0h-17.224v1.12h17.224Zm-28.707,0h-17.224v1.12h17.224Zm536.606,0h-8.4v1.12h8.4Z" transform="translate(9172.434 -6006.031)" fill="#3a4960"/>
    <path id="Trazado_24356" data-name="Trazado 24356" d="M-4263.226,2606.9h-8.4v-1.12h8.4Zm545.431-1.12h-17.225v1.12h17.225Zm-28.708,0h-17.223v1.12h17.223Zm-28.707,0h-17.224v1.12h17.224Zm-28.706,0h-17.224v1.12h17.224Zm-28.707,0h-17.224v1.12h17.224Zm-28.707,0h-17.224v1.12h17.224Zm-28.707,0h-17.224v1.12h17.224Zm-28.706,0h-17.225v1.12h17.225Zm-28.708,0h-17.223v1.12h17.223Zm-28.706,0h-17.225v1.12h17.225Zm-28.707,0h-17.224v1.12h17.224Zm-28.707,0h-17.224v1.12h17.224Zm-28.707,0H-4079.5v1.12h17.224Zm-28.707,0h-17.224v1.12h17.224Zm-28.707,0h-17.223v1.12h17.223Zm-28.706,0h-17.225v1.12h17.225Zm-28.707,0h-17.224v1.12h17.224Zm-28.707,0h-17.224v1.12h17.224Zm-28.707,0h-17.224v1.12h17.224Zm536.606,0h-8.4v1.12h8.4Z" transform="translate(9172.434 -6006.031)" fill="#3a4960"/>
    <path id="Trazado_24357" data-name="Trazado 24357" d="M-4263.226,2559.332h-8.4v-1.12h8.4Zm545.431-1.12h-17.225v1.12h17.225Zm-28.708,0h-17.223v1.12h17.223Zm-28.707,0h-17.224v1.12h17.224Zm-28.706,0h-17.224v1.12h17.224Zm-28.707,0h-17.224v1.12h17.224Zm-28.707,0h-17.224v1.12h17.224Zm-28.707,0h-17.224v1.12h17.224Zm-28.706,0h-17.225v1.12h17.225Zm-28.708,0h-17.223v1.12h17.223Zm-28.706,0h-17.225v1.12h17.225Zm-28.707,0h-17.224v1.12h17.224Zm-28.707,0h-17.224v1.12h17.224Zm-28.707,0H-4079.5v1.12h17.224Zm-28.707,0h-17.224v1.12h17.224Zm-28.707,0h-17.223v1.12h17.223Zm-28.706,0h-17.225v1.12h17.225Zm-28.707,0h-17.224v1.12h17.224Zm-28.707,0h-17.224v1.12h17.224Zm-28.707,0h-17.224v1.12h17.224Zm536.606,0h-8.4v1.12h8.4Z" transform="translate(9172.434 -6006.031)" fill="#3a4960"/>
    <path id="Trazado_24358" data-name="Trazado 24358" d="M-4263.226,2511.761h-8.4v-1.12h8.4Zm545.431-1.12h-17.225v1.12h17.225Zm-28.708,0h-17.223v1.12h17.223Zm-28.707,0h-17.224v1.12h17.224Zm-28.706,0h-17.224v1.12h17.224Zm-28.707,0h-17.224v1.12h17.224Zm-28.707,0h-17.224v1.12h17.224Zm-28.707,0h-17.224v1.12h17.224Zm-28.706,0h-17.225v1.12h17.225Zm-28.708,0h-17.223v1.12h17.223Zm-28.706,0h-17.225v1.12h17.225Zm-28.707,0h-17.224v1.12h17.224Zm-28.707,0h-17.224v1.12h17.224Zm-28.707,0H-4079.5v1.12h17.224Zm-28.707,0h-17.224v1.12h17.224Zm-28.707,0h-17.223v1.12h17.223Zm-28.706,0h-17.225v1.12h17.225Zm-28.707,0h-17.224v1.12h17.224Zm-28.707,0h-17.224v1.12h17.224Zm-28.707,0h-17.224v1.12h17.224Zm536.606,0h-8.4v1.12h8.4Z" transform="translate(9172.434 -6006.031)" fill="#3a4960"/>
    <path id="Trazado_24359" data-name="Trazado 24359" d="M-4305.291,2693.493v10.976h-1.552v-9.612h-2.478v-1.364Z" transform="translate(9172.434 -6006.031)" fill="#3a4960"/>
    <path id="Trazado_24360" data-name="Trazado 24360" d="M-4300.721,2703.928a4.465,4.465,0,0,1-1.591-1.937,7.183,7.183,0,0,1-.581-3.01,7.189,7.189,0,0,1,.581-3.011,4.462,4.462,0,0,1,1.591-1.936,4.112,4.112,0,0,1,2.313-.667,4.085,4.085,0,0,1,2.3.667,4.461,4.461,0,0,1,1.592,1.936,7.2,7.2,0,0,1,.58,3.011,7.2,7.2,0,0,1-.58,3.01,4.464,4.464,0,0,1-1.592,1.937,4.082,4.082,0,0,1-2.3.666A4.11,4.11,0,0,1-4300.721,2703.928Zm4.422-1.811a5.262,5.262,0,0,0,.792-3.136,5.264,5.264,0,0,0-.792-3.137,2.487,2.487,0,0,0-2.109-1.081,2.5,2.5,0,0,0-2.125,1.081,5.271,5.271,0,0,0-.792,3.137,5.269,5.269,0,0,0,.792,3.136,2.5,2.5,0,0,0,2.125,1.082A2.488,2.488,0,0,0-4296.3,2702.117Z" transform="translate(9172.434 -6006.031)" fill="#3a4960"/>
    <path id="Trazado_24361" data-name="Trazado 24361" d="M-4290.262,2703.928a4.467,4.467,0,0,1-1.592-1.937,7.2,7.2,0,0,1-.58-3.01,7.2,7.2,0,0,1,.58-3.011,4.464,4.464,0,0,1,1.592-1.936,4.111,4.111,0,0,1,2.312-.667,4.088,4.088,0,0,1,2.3.667,4.459,4.459,0,0,1,1.591,1.936,7.189,7.189,0,0,1,.58,3.011,7.183,7.183,0,0,1-.58,3.01,4.462,4.462,0,0,1-1.591,1.937,4.086,4.086,0,0,1-2.3.666A4.109,4.109,0,0,1-4290.262,2703.928Zm4.422-1.811a5.27,5.27,0,0,0,.791-3.136,5.272,5.272,0,0,0-.791-3.137,2.489,2.489,0,0,0-2.11-1.081,2.5,2.5,0,0,0-2.124,1.081,5.264,5.264,0,0,0-.792,3.137,5.262,5.262,0,0,0,.792,3.136,2.5,2.5,0,0,0,2.124,1.082A2.49,2.49,0,0,0-4285.84,2702.117Z" transform="translate(9172.434 -6006.031)" fill="#3a4960"/>
    <path id="Trazado_24362" data-name="Trazado 24362" d="M-4290.262,2747.392a4.47,4.47,0,0,1-1.592-1.936,7.208,7.208,0,0,1-.58-3.011,7.2,7.2,0,0,1,.58-3.01,4.459,4.459,0,0,1,1.592-1.937,4.109,4.109,0,0,1,2.312-.666,4.086,4.086,0,0,1,2.3.666,4.454,4.454,0,0,1,1.591,1.937,7.18,7.18,0,0,1,.58,3.01,7.193,7.193,0,0,1-.58,3.011,4.465,4.465,0,0,1-1.591,1.936,4.088,4.088,0,0,1-2.3.666A4.111,4.111,0,0,1-4290.262,2747.392Zm4.422-1.811a5.268,5.268,0,0,0,.791-3.136,5.266,5.266,0,0,0-.791-3.136,2.487,2.487,0,0,0-2.11-1.082,2.5,2.5,0,0,0-2.124,1.082,5.258,5.258,0,0,0-.792,3.136,5.261,5.261,0,0,0,.792,3.136,2.5,2.5,0,0,0,2.124,1.082A2.49,2.49,0,0,0-4285.84,2745.581Z" transform="translate(9172.434 -6006.031)" fill="#3a4960"/>
    <path id="Trazado_24363" data-name="Trazado 24363" d="M-4307.422,2653.316v1.364h-7.887v-1.066l4.468-4.312a5.327,5.327,0,0,0,1.1-1.357,2.584,2.584,0,0,0,.283-1.152,1.614,1.614,0,0,0-.6-1.34,2.737,2.737,0,0,0-1.733-.479,3.444,3.444,0,0,0-2.807,1.192l-1.066-.925a4.257,4.257,0,0,1,1.686-1.223,5.936,5.936,0,0,1,2.328-.439,4.239,4.239,0,0,1,2.744.823,2.719,2.719,0,0,1,1.019,2.234,3.788,3.788,0,0,1-.376,1.662,6.654,6.654,0,0,1-1.427,1.788l-3.355,3.23Z" transform="translate(9172.434 -6006.031)" fill="#3a4960"/>
    <path id="Trazado_24364" data-name="Trazado 24364" d="M-4304.013,2654.139a4.472,4.472,0,0,1-1.591-1.936,7.188,7.188,0,0,1-.58-3.011,7.185,7.185,0,0,1,.58-3.01,4.464,4.464,0,0,1,1.591-1.937,4.114,4.114,0,0,1,2.313-.666,4.086,4.086,0,0,1,2.3.666,4.464,4.464,0,0,1,1.591,1.937,7.185,7.185,0,0,1,.58,3.01,7.188,7.188,0,0,1-.58,3.011,4.472,4.472,0,0,1-1.591,1.936,4.086,4.086,0,0,1-2.3.666A4.114,4.114,0,0,1-4304.013,2654.139Zm4.423-1.811a5.266,5.266,0,0,0,.791-3.136,5.269,5.269,0,0,0-.791-3.136,2.489,2.489,0,0,0-2.11-1.082,2.5,2.5,0,0,0-2.124,1.082,5.261,5.261,0,0,0-.792,3.136,5.258,5.258,0,0,0,.792,3.136,2.5,2.5,0,0,0,2.124,1.082A2.491,2.491,0,0,0-4299.59,2652.328Z" transform="translate(9172.434 -6006.031)" fill="#3a4960"/>
    <path id="Trazado_24365" data-name="Trazado 24365" d="M-4293.554,2654.139a4.474,4.474,0,0,1-1.592-1.936,7.2,7.2,0,0,1-.58-3.011,7.2,7.2,0,0,1,.58-3.01,4.466,4.466,0,0,1,1.592-1.937,4.11,4.11,0,0,1,2.313-.666,4.082,4.082,0,0,1,2.3.666,4.454,4.454,0,0,1,1.591,1.937,7.185,7.185,0,0,1,.581,3.01,7.188,7.188,0,0,1-.581,3.011,4.462,4.462,0,0,1-1.591,1.936,4.082,4.082,0,0,1-2.3.666A4.11,4.11,0,0,1-4293.554,2654.139Zm4.422-1.811a5.258,5.258,0,0,0,.792-3.136,5.261,5.261,0,0,0-.792-3.136,2.486,2.486,0,0,0-2.109-1.082,2.5,2.5,0,0,0-2.125,1.082,5.261,5.261,0,0,0-.792,3.136,5.258,5.258,0,0,0,.792,3.136,2.5,2.5,0,0,0,2.125,1.082A2.488,2.488,0,0,0-4289.132,2652.328Z" transform="translate(9172.434 -6006.031)" fill="#3a4960"/>
    <path id="Trazado_24366" data-name="Trazado 24366" d="M-4308.5,2602.248a2.888,2.888,0,0,1,.846,2.141,3.173,3.173,0,0,1-.47,1.7,3.249,3.249,0,0,1-1.4,1.207,5.261,5.261,0,0,1-2.282.447,7.242,7.242,0,0,1-2.258-.353,4.8,4.8,0,0,1-1.772-.98l.721-1.238a4.149,4.149,0,0,0,1.443.854,5.376,5.376,0,0,0,1.866.322,3.091,3.091,0,0,0,1.9-.518,1.69,1.69,0,0,0,.682-1.427,1.659,1.659,0,0,0-.674-1.411,3.41,3.41,0,0,0-2.038-.5h-.879v-1.1l2.76-3.387h-5.284v-1.364h7.244v1.066l-2.87,3.544A3.927,3.927,0,0,1-4308.5,2602.248Z" transform="translate(9172.434 -6006.031)" fill="#3a4960"/>
    <path id="Trazado_24367" data-name="Trazado 24367" d="M-4304.027,2607.078a4.463,4.463,0,0,1-1.592-1.937,7.208,7.208,0,0,1-.58-3.01,7.211,7.211,0,0,1,.58-3.011,4.459,4.459,0,0,1,1.592-1.936,4.107,4.107,0,0,1,2.312-.667,4.083,4.083,0,0,1,2.3.667,4.456,4.456,0,0,1,1.591,1.936,7.188,7.188,0,0,1,.58,3.011,7.185,7.185,0,0,1-.58,3.01,4.46,4.46,0,0,1-1.591,1.937,4.082,4.082,0,0,1-2.3.666A4.106,4.106,0,0,1-4304.027,2607.078Zm4.422-1.811a5.27,5.27,0,0,0,.792-3.136,5.274,5.274,0,0,0-.792-3.137,2.488,2.488,0,0,0-2.11-1.081,2.5,2.5,0,0,0-2.124,1.081,5.264,5.264,0,0,0-.792,3.137,5.26,5.26,0,0,0,.792,3.136,2.5,2.5,0,0,0,2.124,1.082A2.489,2.489,0,0,0-4299.6,2605.267Z" transform="translate(9172.434 -6006.031)" fill="#3a4960"/>
    <path id="Trazado_24368" data-name="Trazado 24368" d="M-4293.569,2607.078a4.461,4.461,0,0,1-1.591-1.937,7.193,7.193,0,0,1-.58-3.01,7.2,7.2,0,0,1,.58-3.011,4.457,4.457,0,0,1,1.591-1.936,4.11,4.11,0,0,1,2.313-.667,4.082,4.082,0,0,1,2.3.667,4.458,4.458,0,0,1,1.592,1.936,7.2,7.2,0,0,1,.58,3.011,7.2,7.2,0,0,1-.58,3.01,4.462,4.462,0,0,1-1.592,1.937,4.081,4.081,0,0,1-2.3.666A4.11,4.11,0,0,1-4293.569,2607.078Zm4.422-1.811a5.263,5.263,0,0,0,.792-3.136,5.267,5.267,0,0,0-.792-3.137,2.486,2.486,0,0,0-2.109-1.081,2.5,2.5,0,0,0-2.125,1.081,5.271,5.271,0,0,0-.792,3.137,5.267,5.267,0,0,0,.792,3.136,2.5,2.5,0,0,0,2.125,1.082A2.487,2.487,0,0,0-4289.147,2605.267Z" transform="translate(9172.434 -6006.031)" fill="#3a4960"/>
    <path id="Trazado_24369" data-name="Trazado 24369" d="M-4308.727,2559.565h-2.086v2.7h-1.521v-2.7h-6.1v-1.1l5.613-7.181h1.694l-5.379,6.93h4.218v-2.383h1.474v2.383h2.086Z" transform="translate(9172.434 -6006.031)" fill="#3a4960"/>
    <path id="Trazado_24370" data-name="Trazado 24370" d="M-4305.615,2561.722a4.464,4.464,0,0,1-1.592-1.937,7.206,7.206,0,0,1-.58-3.01,7.213,7.213,0,0,1,.58-3.011,4.464,4.464,0,0,1,1.592-1.936,4.111,4.111,0,0,1,2.312-.667,4.088,4.088,0,0,1,2.3.667,4.459,4.459,0,0,1,1.591,1.936,7.19,7.19,0,0,1,.58,3.011,7.183,7.183,0,0,1-.58,3.01,4.459,4.459,0,0,1-1.591,1.937,4.086,4.086,0,0,1-2.3.666A4.109,4.109,0,0,1-4305.615,2561.722Zm4.422-1.811a5.27,5.27,0,0,0,.791-3.136,5.272,5.272,0,0,0-.791-3.137,2.489,2.489,0,0,0-2.11-1.081,2.5,2.5,0,0,0-2.124,1.081,5.261,5.261,0,0,0-.792,3.137,5.259,5.259,0,0,0,.792,3.136,2.5,2.5,0,0,0,2.124,1.082A2.489,2.489,0,0,0-4301.193,2559.911Z" transform="translate(9172.434 -6006.031)" fill="#3a4960"/>
    <path id="Trazado_24371" data-name="Trazado 24371" d="M-4295.157,2561.722a4.463,4.463,0,0,1-1.591-1.937,7.191,7.191,0,0,1-.581-3.01,7.2,7.2,0,0,1,.581-3.011,4.462,4.462,0,0,1,1.591-1.936,4.112,4.112,0,0,1,2.313-.667,4.085,4.085,0,0,1,2.3.667,4.468,4.468,0,0,1,1.592,1.936,7.2,7.2,0,0,1,.58,3.011,7.2,7.2,0,0,1-.58,3.01,4.468,4.468,0,0,1-1.592,1.937,4.082,4.082,0,0,1-2.3.666A4.11,4.11,0,0,1-4295.157,2561.722Zm4.422-1.811a5.262,5.262,0,0,0,.792-3.136,5.265,5.265,0,0,0-.792-3.137,2.487,2.487,0,0,0-2.109-1.081,2.5,2.5,0,0,0-2.125,1.081,5.265,5.265,0,0,0-.792,3.137,5.262,5.262,0,0,0,.792,3.136,2.5,2.5,0,0,0,2.125,1.082A2.488,2.488,0,0,0-4290.735,2559.911Z" transform="translate(9172.434 -6006.031)" fill="#3a4960"/>
    <path id="Trazado_24372" data-name="Trazado 24372" d="M-4308.639,2506.758a2.936,2.936,0,0,1,1.1,2.423,3.34,3.34,0,0,1-.463,1.748,3.153,3.153,0,0,1-1.4,1.223,5.3,5.3,0,0,1-2.3.447,7.194,7.194,0,0,1-2.242-.353,4.978,4.978,0,0,1-1.788-.98l.721-1.239a4.136,4.136,0,0,0,1.443.855,5.348,5.348,0,0,0,1.85.322,3.081,3.081,0,0,0,1.921-.526,1.711,1.711,0,0,0,.682-1.434,1.694,1.694,0,0,0-.752-1.5,4.793,4.793,0,0,0-2.572-.509h-2.493l.58-5.739h6.194v1.364h-4.877l-.3,3.01h1.224A5.5,5.5,0,0,1-4308.639,2506.758Z" transform="translate(9172.434 -6006.031)" fill="#3a4960"/>
    <path id="Trazado_24373" data-name="Trazado 24373" d="M-4304.061,2511.933a4.464,4.464,0,0,1-1.592-1.937,7.2,7.2,0,0,1-.58-3.01,7.2,7.2,0,0,1,.58-3.011,4.458,4.458,0,0,1,1.592-1.936,4.1,4.1,0,0,1,2.313-.667,4.074,4.074,0,0,1,2.3.667,4.457,4.457,0,0,1,1.591,1.936,7.2,7.2,0,0,1,.581,3.011,7.192,7.192,0,0,1-.581,3.01,4.463,4.463,0,0,1-1.591,1.937,4.083,4.083,0,0,1-2.3.666A4.109,4.109,0,0,1-4304.061,2511.933Zm4.422-1.812a5.255,5.255,0,0,0,.792-3.135,5.26,5.26,0,0,0-.792-3.137,2.486,2.486,0,0,0-2.109-1.081,2.5,2.5,0,0,0-2.125,1.081,5.264,5.264,0,0,0-.792,3.137,5.258,5.258,0,0,0,.792,3.135,2.5,2.5,0,0,0,2.125,1.083A2.486,2.486,0,0,0-4299.639,2510.121Z" transform="translate(9172.434 -6006.031)" fill="#3a4960"/>
    <path id="Trazado_24374" data-name="Trazado 24374" d="M-4293.6,2511.933a4.469,4.469,0,0,1-1.591-1.937,7.185,7.185,0,0,1-.58-3.01,7.188,7.188,0,0,1,.58-3.011,4.463,4.463,0,0,1,1.591-1.936,4.1,4.1,0,0,1,2.313-.667,4.074,4.074,0,0,1,2.3.667,4.459,4.459,0,0,1,1.592,1.936,7.211,7.211,0,0,1,.58,3.011,7.208,7.208,0,0,1-.58,3.01,4.465,4.465,0,0,1-1.592,1.937,4.083,4.083,0,0,1-2.3.666A4.114,4.114,0,0,1-4293.6,2511.933Zm4.422-1.812a5.255,5.255,0,0,0,.792-3.135,5.26,5.26,0,0,0-.792-3.137,2.486,2.486,0,0,0-2.109-1.081,2.5,2.5,0,0,0-2.125,1.081,5.271,5.271,0,0,0-.792,3.137,5.265,5.265,0,0,0,.792,3.135,2.5,2.5,0,0,0,2.125,1.083A2.486,2.486,0,0,0-4289.181,2510.121Z" transform="translate(9172.434 -6006.031)" fill="#3a4960"/>
    <path id="Trazado_24375" data-name="Trazado 24375" d="M-4284.338,2789.2a3.5,3.5,0,0,1-1.789.139l-.112-1.4a2.711,2.711,0,0,0,2.54-.7,1.738,1.738,0,0,0,.593-1.392,2.517,2.517,0,0,0-.837-1.513l-4.357-4.358-2.806,2.806-.964-.965,3.9-3.9,5.268,5.267a3.84,3.84,0,0,1,1.319,2.549,3.37,3.37,0,0,1-1.164,2.461A4.116,4.116,0,0,1-4284.338,2789.2Z" transform="translate(9172.434 -6006.031)" fill="#3a4960"/>
    <path id="Trazado_24376" data-name="Trazado 24376" d="M-4279.626,2774.236a3.264,3.264,0,0,1,2.435,1.135l3.548,3.548-1.009,1.01-.776-.776a2.389,2.389,0,0,1-.133,1.385,4.1,4.1,0,0,1-.954,1.387,3.452,3.452,0,0,1-2.056,1.1,2.162,2.162,0,0,1-1.847-.659,2.189,2.189,0,0,1-.682-1.813,3.943,3.943,0,0,1,1.325-2.268l1.685-1.684-.21-.21a1.923,1.923,0,0,0-1.453-.656,2.386,2.386,0,0,0-1.541.81,4.375,4.375,0,0,0-.847,1.192,3.714,3.714,0,0,0-.383,1.3l-1.243-.355a4.542,4.542,0,0,1,.528-1.647,6.444,6.444,0,0,1,1.146-1.536A3.76,3.76,0,0,1-4279.626,2774.236Zm3.25,5.366a2.2,2.2,0,0,0-.128-1.413l-.821-.821-1.64,1.64q-1.352,1.353-.444,2.263a1.165,1.165,0,0,0,1.042.354,2.221,2.221,0,0,0,1.209-.7A2.8,2.8,0,0,0-4276.376,2779.6Z" transform="translate(9172.434 -6006.031)" fill="#3a4960"/>
    <path id="Trazado_24377" data-name="Trazado 24377" d="M-4272.035,2766.746a3.607,3.607,0,0,1,2.561,1.24l3.382,3.382-1.065,1.065-3.26-3.259a2.558,2.558,0,0,0-1.7-.877,2.2,2.2,0,0,0-1.608.743,2.59,2.59,0,0,0-.857,1.869,2.786,2.786,0,0,0,.947,1.946l3.027,3.026-1.065,1.065-5.875-5.877,1.019-1.019.887.887a2.921,2.921,0,0,1,.172-1.57,4.282,4.282,0,0,1,1-1.49A3.422,3.422,0,0,1-4272.035,2766.746Z" transform="translate(9172.434 -6006.031)" fill="#3a4960"/>
    <path id="Trazado_24378" data-name="Trazado 24378" d="M-4236.383,2781.918l2.7,2.705,3.892-3.893.954.954-3.893,3.893,3.138,3.138-1.109,1.109-7.761-7.761,5.478-5.478.964.965Z" transform="translate(9172.434 -6006.031)" fill="#3a4960"/>
    <path id="Trazado_24379" data-name="Trazado 24379" d="M-4221.294,2775.254l-4.769,4.768a2.6,2.6,0,0,0,1.93.566,3.147,3.147,0,0,0,1.918-.975,3.086,3.086,0,0,0,.987-2.407l1.275.1a3.633,3.633,0,0,1-.282,1.7,4.9,4.9,0,0,1-1.081,1.569,4.912,4.912,0,0,1-2.034,1.269,3.854,3.854,0,0,1-2.185.044,4.332,4.332,0,0,1-1.945-1.157,4.4,4.4,0,0,1-1.159-1.925,3.86,3.86,0,0,1-.017-2.123,4.222,4.222,0,0,1,1.13-1.9,4.157,4.157,0,0,1,1.886-1.12,3.776,3.776,0,0,1,2.1.04,4.6,4.6,0,0,1,1.945,1.2A4.471,4.471,0,0,1-4221.294,2775.254Zm-6.148,2.179a2.653,2.653,0,0,0,.615,1.824l3.77-3.77a2.673,2.673,0,0,0-1.819-.609,2.573,2.573,0,0,0-1.751.81A2.6,2.6,0,0,0-4227.442,2777.433Z" transform="translate(9172.434 -6006.031)" fill="#3a4960"/>
    <path id="Trazado_24380" data-name="Trazado 24380" d="M-4218.123,2766.141a3.826,3.826,0,0,1,2.112-.006,4.409,4.409,0,0,1,1.947,1.182,4.449,4.449,0,0,1,1.185,1.951,3.806,3.806,0,0,1,0,2.117,4.375,4.375,0,0,1-1.152,1.907,3.937,3.937,0,0,1-1.453.942,3.249,3.249,0,0,1-1.642.156l.931.931-1.019,1.019-8.227-8.227,1.065-1.063,3.237,3.237a3.194,3.194,0,0,1,.184-1.592,3.969,3.969,0,0,1,.926-1.4A4.366,4.366,0,0,1-4218.123,2766.141Zm3.825,5.032a2.641,2.641,0,0,0-.022-1.441,3.1,3.1,0,0,0-.82-1.34,3.106,3.106,0,0,0-1.341-.822,2.624,2.624,0,0,0-1.438-.017,2.875,2.875,0,0,0-1.268.761,2.882,2.882,0,0,0-.755,1.262,2.556,2.556,0,0,0,.017,1.438,3.176,3.176,0,0,0,.826,1.336,3.143,3.143,0,0,0,1.336.825,2.582,2.582,0,0,0,1.441.022,2.816,2.816,0,0,0,1.27-.747A2.8,2.8,0,0,0-4214.3,2771.173Z" transform="translate(9172.434 -6006.031)" fill="#3a4960"/>
    <path id="Trazado_24381" data-name="Trazado 24381" d="M-4169.932,2782.911l-5.666-5.643,1.908,7.518-.51.51-7.483-1.875,5.622,5.622-1.066,1.065-7.761-7.761.909-.91,8.692,2.218-2.261-8.649.909-.908,7.772,7.748Z" transform="translate(9172.434 -6006.031)" fill="#3a4960"/>
    <path id="Trazado_24382" data-name="Trazado 24382" d="M-4168.018,2770.333a3.268,3.268,0,0,1,2.434,1.136l3.548,3.548-1.01,1.009-.776-.775a2.367,2.367,0,0,1-.134,1.384,4.063,4.063,0,0,1-.951,1.387,3.46,3.46,0,0,1-2.058,1.1,2.157,2.157,0,0,1-1.846-.66,2.177,2.177,0,0,1-.681-1.812,3.946,3.946,0,0,1,1.323-2.269l1.686-1.684-.211-.21a1.918,1.918,0,0,0-1.452-.655,2.382,2.382,0,0,0-1.541.809,4.4,4.4,0,0,0-.848,1.192,3.762,3.762,0,0,0-.383,1.3l-1.241-.354a4.554,4.554,0,0,1,.526-1.647,6.383,6.383,0,0,1,1.148-1.536A3.753,3.753,0,0,1-4168.018,2770.333Zm3.249,5.366a2.2,2.2,0,0,0-.128-1.413l-.822-.82-1.639,1.639q-1.355,1.355-.443,2.263a1.16,1.16,0,0,0,1.041.355,2.223,2.223,0,0,0,1.209-.7A2.8,2.8,0,0,0-4164.769,2775.7Z" transform="translate(9172.434 -6006.031)" fill="#3a4960"/>
    <path id="Trazado_24383" data-name="Trazado 24383" d="M-4163.888,2765.538a4.223,4.223,0,0,1,1.052-1.586l1.033,1.031a2.92,2.92,0,0,0-.256.233,2.521,2.521,0,0,0-.842,1.873,2.88,2.88,0,0,0,.975,1.962l2.927,2.927-1.063,1.066-5.877-5.877,1.02-1.02.986.987A2.567,2.567,0,0,1-4163.888,2765.538Z" transform="translate(9172.434 -6006.031)" fill="#3a4960"/>
    <path id="Trazado_24384" data-name="Trazado 24384" d="M-4119.494,2782.444l-4.124,4.125,1.087,2.793-1.142,1.142-4.248-11.274,1.1-1.1,11.288,4.235-1.164,1.163Zm-1.275-.5-5.476-2.13,2.128,5.478Z" transform="translate(9172.434 -6006.031)" fill="#3a4960"/>
    <path id="Trazado_24385" data-name="Trazado 24385" d="M-4115.447,2771.169a3.819,3.819,0,0,1,2.112-.006,4.42,4.42,0,0,1,1.947,1.181,4.45,4.45,0,0,1,1.186,1.951,3.816,3.816,0,0,1,0,2.117,4.367,4.367,0,0,1-1.153,1.908,3.846,3.846,0,0,1-1.4.914,3.414,3.414,0,0,1-1.6.184l3.039,3.037-1.064,1.064-8.027-8.027,1.019-1.019.932.931a3.172,3.172,0,0,1,.162-1.636,3.948,3.948,0,0,1,.947-1.446A4.356,4.356,0,0,1-4115.447,2771.169Zm3.825,5.033a2.635,2.635,0,0,0-.022-1.441,3.1,3.1,0,0,0-.82-1.341,3.125,3.125,0,0,0-1.341-.823,2.611,2.611,0,0,0-1.437-.015,2.861,2.861,0,0,0-1.269.76,2.782,2.782,0,0,0-.743,1.263,2.676,2.676,0,0,0,.017,1.437,3.069,3.069,0,0,0,.815,1.336,3.169,3.169,0,0,0,1.335.826,2.6,2.6,0,0,0,1.442.022,2.816,2.816,0,0,0,1.269-.748A2.8,2.8,0,0,0-4111.622,2776.2Z" transform="translate(9172.434 -6006.031)" fill="#3a4960"/>
    <path id="Trazado_24386" data-name="Trazado 24386" d="M-4110.8,2766.3a4.2,4.2,0,0,1,1.054-1.586l1.031,1.031a2.948,2.948,0,0,0-.255.232,2.534,2.534,0,0,0-.842,1.875,2.883,2.883,0,0,0,.976,1.962l2.927,2.927-1.065,1.064-5.875-5.876,1.019-1.019.987.987A2.577,2.577,0,0,1-4110.8,2766.3Z" transform="translate(9172.434 -6006.031)" fill="#3a4960"/>
    <path id="Trazado_24387" data-name="Trazado 24387" d="M-4063,2783.688l-5.665-5.644,1.907,7.516-.509.51-7.484-1.874,5.622,5.621-1.065,1.066-7.762-7.762.909-.909,8.692,2.217-2.26-8.648.909-.909,7.772,7.751Z" transform="translate(9172.434 -6006.031)" fill="#3a4960"/>
    <path id="Trazado_24388" data-name="Trazado 24388" d="M-4061.09,2771.108a3.27,3.27,0,0,1,2.434,1.136l3.548,3.548-1.009,1.01-.777-.777a2.374,2.374,0,0,1-.133,1.387,4.09,4.09,0,0,1-.952,1.385,3.461,3.461,0,0,1-2.057,1.1,2.164,2.164,0,0,1-1.847-.659,2.185,2.185,0,0,1-.681-1.814,3.933,3.933,0,0,1,1.324-2.266l1.685-1.685-.211-.212a1.924,1.924,0,0,0-1.452-.654,2.38,2.38,0,0,0-1.541.81,4.4,4.4,0,0,0-.847,1.192,3.718,3.718,0,0,0-.384,1.3l-1.24-.357a4.547,4.547,0,0,1,.526-1.646,6.415,6.415,0,0,1,1.147-1.534A3.764,3.764,0,0,1-4061.09,2771.108Zm3.249,5.367a2.2,2.2,0,0,0-.128-1.413l-.821-.822-1.64,1.641q-1.353,1.351-.443,2.262a1.167,1.167,0,0,0,1.041.355,2.224,2.224,0,0,0,1.209-.7A2.8,2.8,0,0,0-4057.841,2776.475Z" transform="translate(9172.434 -6006.031)" fill="#3a4960"/>
    <path id="Trazado_24389" data-name="Trazado 24389" d="M-4053.921,2762.854l3.614,9.312a4.135,4.135,0,0,1,.382,2.146,2.845,2.845,0,0,1-.848,1.58,3.634,3.634,0,0,1-.975.7,2.421,2.421,0,0,1-1.076.265l-.343-1.252a2.091,2.091,0,0,0,1.485-.621,1.444,1.444,0,0,0,.444-.853,2.487,2.487,0,0,0-.233-1.176l-.221-.6-8.461-3.27,1.109-1.109,6.753,2.651-2.672-6.731Z" transform="translate(9172.434 -6006.031)" fill="#3a4960"/>
    <path id="Trazado_24390" data-name="Trazado 24390" d="M-4015.516,2789.64a3.488,3.488,0,0,1-1.79.139l-.111-1.4a2.71,2.71,0,0,0,2.539-.7,1.732,1.732,0,0,0,.593-1.392,2.518,2.518,0,0,0-.836-1.513l-4.358-4.357-2.8,2.805-.965-.964,3.9-3.9,5.268,5.268a3.837,3.837,0,0,1,1.319,2.548,3.366,3.366,0,0,1-1.164,2.461A4.1,4.1,0,0,1-4015.516,2789.64Z" transform="translate(9172.434 -6006.031)" fill="#3a4960"/>
    <path id="Trazado_24391" data-name="Trazado 24391" d="M-4009.877,2772.661l5.876,5.875-1.009,1.009-.888-.886a3,3,0,0,1-.144,1.553,3.747,3.747,0,0,1-.9,1.4,3.627,3.627,0,0,1-2.5,1.2,3.576,3.576,0,0,1-2.589-1.236l-3.382-3.382,1.064-1.064,3.259,3.259a2.585,2.585,0,0,0,1.7.882,2.17,2.17,0,0,0,1.613-.738,2.484,2.484,0,0,0,.821-1.84,2.837,2.837,0,0,0-.954-1.93l-3.038-3.037Z" transform="translate(9172.434 -6006.031)" fill="#3a4960"/>
    <path id="Trazado_24392" data-name="Trazado 24392" d="M-4002.339,2766.308a3.6,3.6,0,0,1,2.562,1.241l3.382,3.381-1.066,1.066-3.259-3.26a2.56,2.56,0,0,0-1.7-.877,2.192,2.192,0,0,0-1.607.744,2.583,2.583,0,0,0-.859,1.868,2.8,2.8,0,0,0,.948,1.946l3.027,3.026-1.064,1.064-5.877-5.876,1.019-1.02.888.888a2.948,2.948,0,0,1,.171-1.57,4.321,4.321,0,0,1,1-1.491A3.429,3.429,0,0,1-4002.339,2766.308Z" transform="translate(9172.434 -6006.031)" fill="#3a4960"/>
    <path id="Trazado_24393" data-name="Trazado 24393" d="M-3959.435,2787.413a3.467,3.467,0,0,1-1.79.138l-.111-1.4a2.7,2.7,0,0,0,2.539-.7,1.73,1.73,0,0,0,.593-1.391,2.515,2.515,0,0,0-.836-1.514l-4.358-4.357-2.8,2.8-.965-.964,3.9-3.9,5.268,5.267a3.842,3.842,0,0,1,1.319,2.55,3.367,3.367,0,0,1-1.164,2.461A4.117,4.117,0,0,1-3959.435,2787.413Z" transform="translate(9172.434 -6006.031)" fill="#3a4960"/>
    <path id="Trazado_24394" data-name="Trazado 24394" d="M-3953.8,2770.432l5.876,5.876-1.009,1.01-.888-.888a3,3,0,0,1-.144,1.553,3.746,3.746,0,0,1-.9,1.4,3.637,3.637,0,0,1-2.5,1.2,3.585,3.585,0,0,1-2.589-1.237l-3.382-3.382,1.064-1.064,3.259,3.259a2.581,2.581,0,0,0,1.7.882,2.17,2.17,0,0,0,1.613-.738,2.486,2.486,0,0,0,.821-1.841,2.835,2.835,0,0,0-.954-1.928l-3.038-3.038Z" transform="translate(9172.434 -6006.031)" fill="#3a4960"/>
    <path id="Trazado_24395" data-name="Trazado 24395" d="M-3954.119,2766.052l1.065-1.064,8.227,8.227-1.064,1.064Z" transform="translate(9172.434 -6006.031)" fill="#3a4960"/>
    <path id="Trazado_24396" data-name="Trazado 24396" d="M-3905.555,2783.914l-4.126,4.125,1.088,2.793-1.142,1.142-4.248-11.274,1.1-1.1,11.287,4.235-1.164,1.163Zm-1.275-.5-5.478-2.13,2.129,5.478Z" transform="translate(9172.434 -6006.031)" fill="#3a4960"/>
    <path id="Trazado_24397" data-name="Trazado 24397" d="M-3901.108,2771.595l5.876,5.876-1.011,1.011-.886-.888a3.023,3.023,0,0,1-.144,1.553,3.744,3.744,0,0,1-.9,1.4,3.638,3.638,0,0,1-2.5,1.205,3.586,3.586,0,0,1-2.587-1.237l-3.382-3.382,1.065-1.065,3.259,3.26a2.578,2.578,0,0,0,1.7.881,2.165,2.165,0,0,0,1.613-.737,2.477,2.477,0,0,0,.82-1.842,2.822,2.822,0,0,0-.954-1.927l-3.036-3.038Z" transform="translate(9172.434 -6006.031)" fill="#3a4960"/>
    <path id="Trazado_24398" data-name="Trazado 24398" d="M-3893.458,2763.946l5.077,5.078a4.3,4.3,0,0,1,1.514,3.044,4.492,4.492,0,0,1-1.547,3.021,7.778,7.778,0,0,1-1.813,1.358,4.45,4.45,0,0,1-1.868.571l-.311-1.33a4.265,4.265,0,0,0,1.575-.455,5.438,5.438,0,0,0,1.453-1.043,2.963,2.963,0,0,0,1.036-2.012,2.845,2.845,0,0,0-.993-1.979l-.466-.465a3.322,3.322,0,0,1-.242,1.607,4.358,4.358,0,0,1-.967,1.42,4.526,4.526,0,0,1-1.884,1.164,3.8,3.8,0,0,1-2.078.06,3.987,3.987,0,0,1-1.868-1.091,4,4,0,0,1-1.094-1.87,3.732,3.732,0,0,1,.068-2.072,4.578,4.578,0,0,1,1.168-1.879,4.386,4.386,0,0,1,1.481-.992,3.236,3.236,0,0,1,1.658-.217l-.91-.909Zm2.432,6.48a2.545,2.545,0,0,0,.04-1.4,2.688,2.688,0,0,0-.733-1.252,2.533,2.533,0,0,0-1.945-.815,2.883,2.883,0,0,0-1.979.925,2.914,2.914,0,0,0-.937,1.99,2.547,2.547,0,0,0,.814,1.947,2.691,2.691,0,0,0,1.253.73,2.556,2.556,0,0,0,1.4-.037,3.1,3.1,0,0,0,1.292-.8A3.094,3.094,0,0,0-3891.026,2770.426Z" transform="translate(9172.434 -6006.031)" fill="#3a4960"/>
    <path id="Trazado_24399" data-name="Trazado 24399" d="M-3853.361,2789.087a4.869,4.869,0,0,1-1.984.575l-.455-1.273a4.824,4.824,0,0,0,1.785-.489,5.887,5.887,0,0,0,1.675-1.176,3.644,3.644,0,0,0,1.114-1.767,1.43,1.43,0,0,0-.394-1.348,1.212,1.212,0,0,0-.91-.388,2.478,2.478,0,0,0-1.024.261c-.343.167-.8.427-1.382.781a15.556,15.556,0,0,1-1.833.993,3.3,3.3,0,0,1-1.571.272,2.449,2.449,0,0,1-1.562-.8,2.832,2.832,0,0,1-.794-1.446,3.174,3.174,0,0,1,.2-1.791,5.7,5.7,0,0,1,1.354-1.952,7.313,7.313,0,0,1,1.529-1.175,5.066,5.066,0,0,1,1.651-.631l.521,1.252a5.7,5.7,0,0,0-1.514.571,5.512,5.512,0,0,0-1.247.925,3.4,3.4,0,0,0-1.069,1.758,1.492,1.492,0,0,0,.415,1.358,1.2,1.2,0,0,0,.915.383,2.622,2.622,0,0,0,1.048-.271,15.011,15.011,0,0,0,1.365-.777,15.382,15.382,0,0,1,1.828-.987,3.333,3.333,0,0,1,1.558-.271,2.389,2.389,0,0,1,1.546.781,2.8,2.8,0,0,1,.784,1.446,3.16,3.16,0,0,1-.213,1.808,5.858,5.858,0,0,1-1.369,1.957A7.508,7.508,0,0,1-3853.361,2789.087Z" transform="translate(9172.434 -6006.031)" fill="#3a4960"/>
    <path id="Trazado_24400" data-name="Trazado 24400" d="M-3844.314,2775.239l-4.768,4.767a2.605,2.605,0,0,0,1.929.566,3.13,3.13,0,0,0,1.918-.976,3.072,3.072,0,0,0,.987-2.405l1.275.1a3.624,3.624,0,0,1-.282,1.7,4.888,4.888,0,0,1-1.081,1.57,4.938,4.938,0,0,1-2.034,1.27,3.855,3.855,0,0,1-2.185.043,4.319,4.319,0,0,1-1.945-1.158,4.412,4.412,0,0,1-1.159-1.924,3.854,3.854,0,0,1-.016-2.124,4.22,4.22,0,0,1,1.129-1.894,4.145,4.145,0,0,1,1.886-1.12,3.776,3.776,0,0,1,2.1.039,4.617,4.617,0,0,1,1.945,1.2A4.47,4.47,0,0,1-3844.314,2775.239Zm-6.147,2.177a2.641,2.641,0,0,0,.615,1.825l3.769-3.769a2.677,2.677,0,0,0-1.818-.611,2.587,2.587,0,0,0-1.752.811A2.593,2.593,0,0,0-3850.461,2777.416Z" transform="translate(9172.434 -6006.031)" fill="#3a4960"/>
    <path id="Trazado_24401" data-name="Trazado 24401" d="M-3841.142,2766.124a3.826,3.826,0,0,1,2.111,0,4.411,4.411,0,0,1,1.947,1.18,4.457,4.457,0,0,1,1.186,1.952,3.81,3.81,0,0,1,0,2.117,4.353,4.353,0,0,1-1.153,1.906,3.839,3.839,0,0,1-1.4.916,3.416,3.416,0,0,1-1.6.183l3.039,3.038-1.063,1.063-8.029-8.026,1.02-1.019.932.931a3.185,3.185,0,0,1,.161-1.637,3.986,3.986,0,0,1,.948-1.447A4.386,4.386,0,0,1-3841.142,2766.124Zm3.824,5.034a2.627,2.627,0,0,0-.022-1.442,3.1,3.1,0,0,0-.82-1.341,3.12,3.12,0,0,0-1.341-.821,2.611,2.611,0,0,0-1.437-.016,2.848,2.848,0,0,0-1.269.761,2.766,2.766,0,0,0-.742,1.262,2.669,2.669,0,0,0,.016,1.437,3.072,3.072,0,0,0,.816,1.337,3.139,3.139,0,0,0,1.334.824,2.581,2.581,0,0,0,1.442.022,2.812,2.812,0,0,0,1.27-.748A2.789,2.789,0,0,0-3837.318,2771.158Z" transform="translate(9172.434 -6006.031)" fill="#3a4960"/>
    <path id="Trazado_24402" data-name="Trazado 24402" d="M-3798.479,2787.566a5.379,5.379,0,0,1-2.905.057,5.546,5.546,0,0,1-2.566-1.492,5.554,5.554,0,0,1-1.492-2.566,5.405,5.405,0,0,1,.057-2.906,6.126,6.126,0,0,1,1.6-2.632,6.112,6.112,0,0,1,2.623-1.592,5.352,5.352,0,0,1,2.894-.056,5.575,5.575,0,0,1,2.566,1.5,5.554,5.554,0,0,1,1.5,2.566,5.334,5.334,0,0,1-.057,2.894,6.079,6.079,0,0,1-1.59,2.623A6.126,6.126,0,0,1-3798.479,2787.566Zm2.8-4.511a4.069,4.069,0,0,0,.006-2.146,4.239,4.239,0,0,0-1.133-1.918,4.246,4.246,0,0,0-1.916-1.132,4.039,4.039,0,0,0-2.146.007,4.321,4.321,0,0,0-1.925,1.147,4.4,4.4,0,0,0-1.157,1.934,3.991,3.991,0,0,0-.018,2.157,4.238,4.238,0,0,0,1.131,1.918,4.223,4.223,0,0,0,1.919,1.131,3.978,3.978,0,0,0,2.156-.017,4.4,4.4,0,0,0,1.934-1.157A4.326,4.326,0,0,0-3795.683,2783.055Z" transform="translate(9172.434 -6006.031)" fill="#3a4960"/>
    <path id="Trazado_24403" data-name="Trazado 24403" d="M-3789.641,2778.941a4.032,4.032,0,0,1-2.173.034,4.262,4.262,0,0,1-1.947-1.147,4.262,4.262,0,0,1-1.148-1.947,3.977,3.977,0,0,1,.039-2.168,4.678,4.678,0,0,1,1.221-1.984,4.352,4.352,0,0,1,1.746-1.1,3.244,3.244,0,0,1,1.9-.039l-.289,1.33a2.559,2.559,0,0,0-1.319.057,2.735,2.735,0,0,0-1.118.7,2.983,2.983,0,0,0-.783,1.29,2.562,2.562,0,0,0,.006,1.447,3.1,3.1,0,0,0,.821,1.342,3.127,3.127,0,0,0,1.352.832,2.564,2.564,0,0,0,1.445.006,3,3,0,0,0,1.293-.782,2.744,2.744,0,0,0,.7-1.119,2.548,2.548,0,0,0,.057-1.32l1.319-.3a3.3,3.3,0,0,1-.033,1.909,4.306,4.306,0,0,1-1.1,1.751A4.609,4.609,0,0,1-3789.641,2778.941Z" transform="translate(9172.434 -6006.031)" fill="#3a4960"/>
    <path id="Trazado_24404" data-name="Trazado 24404" d="M-3780.909,2770.166a2.275,2.275,0,0,1-.273.881,3.375,3.375,0,0,1-.6.815,2.664,2.664,0,0,1-1.851.9,2.575,2.575,0,0,1-1.853-.876l-3.226-3.226-1,1-.875-.876,1-1-1.286-1.287,1.065-1.065,1.286,1.286,1.685-1.685.877.876-1.687,1.685,3.183,3.182a1.448,1.448,0,0,0,.969.493,1.251,1.251,0,0,0,.936-.425,1.826,1.826,0,0,0,.556-1.109Z" transform="translate(9172.434 -6006.031)" fill="#3a4960"/>
    <path id="Trazado_24405" data-name="Trazado 24405" d="M-3747.558,2775.83l7.761,7.762-.91.91-10.443-1.131,5.788,5.788-1.109,1.109-7.761-7.761.907-.91,10.446,1.131-5.788-5.789Z" transform="translate(9172.434 -6006.031)" fill="#3a4960"/>
    <path id="Trazado_24406" data-name="Trazado 24406" d="M-3737,2780.155a3.989,3.989,0,0,1-2.164.022,4.29,4.29,0,0,1-1.94-1.153,4.276,4.276,0,0,1-1.153-1.94,3.908,3.908,0,0,1,.028-2.157,4.574,4.574,0,0,1,1.19-1.957,4.509,4.509,0,0,1,1.952-1.185,3.926,3.926,0,0,1,2.152-.023,4.289,4.289,0,0,1,1.94,1.154,4.286,4.286,0,0,1,1.153,1.94,3.989,3.989,0,0,1-.017,2.157,4.432,4.432,0,0,1-1.179,1.956A4.507,4.507,0,0,1-3737,2780.155Zm1.784-3.393a2.609,2.609,0,0,0-.028-1.436,3.157,3.157,0,0,0-.827-1.335,3.156,3.156,0,0,0-1.336-.827,2.537,2.537,0,0,0-1.429-.022,2.86,2.86,0,0,0-1.271.76,2.857,2.857,0,0,0-.759,1.269,2.59,2.59,0,0,0,.018,1.436,3.1,3.1,0,0,0,.82,1.342,3.106,3.106,0,0,0,1.341.819,2.637,2.637,0,0,0,1.441.023,2.821,2.821,0,0,0,1.276-.753A2.821,2.821,0,0,0-3735.217,2776.762Z" transform="translate(9172.434 -6006.031)" fill="#3a4960"/>
    <path id="Trazado_24407" data-name="Trazado 24407" d="M-3731.426,2763.469l3.3,8.448-1.088,1.087-8.448-3.3,1.109-1.109,6.731,2.693-2.649-6.775Z" transform="translate(9172.434 -6006.031)" fill="#3a4960"/>
    <path id="Trazado_24442" data-name="Trazado 24442" d="M5.04,0A5.04,5.04,0,1,1,0,5.04,5.04,5.04,0,0,1,5.04,0Z" transform="translate(4895.768 -3262.018)" fill="#98b7c9"/>
    <path id="Trazado_24443" data-name="Trazado 24443" d="M5.04,0A5.04,5.04,0,1,1,0,5.04,5.04,5.04,0,0,1,5.04,0Z" transform="translate(4948.198 -3262.018)" fill="#98b7c9"/>
    <path id="Trazado_24444" data-name="Trazado 24444" d="M5.04,0A5.04,5.04,0,1,1,0,5.04,5.04,5.04,0,0,1,5.04,0Z" transform="translate(5002.688 -3262.018)" fill="#98b7c9"/>
    <path id="Trazado_24445" data-name="Trazado 24445" d="M5.04,0A5.04,5.04,0,1,1,0,5.04,5.04,5.04,0,0,1,5.04,0Z" transform="translate(5056.658 -3262.018)" fill="#98b7c9"/>
    <path id="Trazado_24446" data-name="Trazado 24446" d="M5.04,0A5.04,5.04,0,1,1,0,5.04,5.04,5.04,0,0,1,5.04,0Z" transform="translate(5111.158 -3262.018)" fill="#98b7c9"/>
    <path id="Trazado_24447" data-name="Trazado 24447" d="M5.04,0A5.04,5.04,0,1,1,0,5.04,5.04,5.04,0,0,1,5.04,0Z" transform="translate(5165.479 -3262.018)" fill="#98b7c9"/>
    <path id="Trazado_24448" data-name="Trazado 24448" d="M5.04,0A5.04,5.04,0,1,1,0,5.04,5.04,5.04,0,0,1,5.04,0Z" transform="translate(5219.968 -3262.018)" fill="#98b7c9"/>
    <path id="Trazado_24449" data-name="Trazado 24449" d="M5.04,0A5.04,5.04,0,1,1,0,5.04,5.04,5.04,0,0,1,5.04,0Z" transform="translate(5273.868 -3262.018)" fill="#98b7c9"/>
    <path id="Trazado_24450" data-name="Trazado 24450" d="M5.04,0A5.04,5.04,0,1,1,0,5.04,5.04,5.04,0,0,1,5.04,0Z" transform="translate(5328.438 -3262.018)" fill="#98b7c9"/>
    <path id="Trazado_24451" data-name="Trazado 24451" d="M5.04,0A5.04,5.04,0,1,1,0,5.04,5.04,5.04,0,0,1,5.04,0Z" transform="translate(5382.928 -3262.018)" fill="#98b7c9"/>
    <path id="Trazado_24452" data-name="Trazado 24452" d="M5.04,0A5.04,5.04,0,1,1,0,5.04,5.04,5.04,0,0,1,5.04,0Z" transform="translate(5436.898 -3262.018)" fill="#98b7c9"/>
    <path id="Trazado_24408" data-name="Trazado 24408" d="M-4165.225,2706.9l-55.263-23.1-52.752-54.868,3.229-3.105,52.108,54.2,52.677,22.02,52.618-22,55.959-64.97,55.7,15.907,53.976,42.864,52.847-8.314,54.754-37.632,54.325,14.652,54.036-17.625,1.389,4.259-55.3,18.038-53.615-14.46-53.886,37.036-55.792,8.778-54.818-43.532-52.088-14.876-54.78,63.6Z" transform="translate(9172.434 -6006.031)" fill="url(#linear-gradient)"/>
    <path id="Trazado_24453" data-name="Trazado 24453" d="M5.641,0A5.641,5.641,0,1,1,0,5.641,5.641,5.641,0,0,1,5.641,0Z" transform="translate(4895.167 -3384.297)" fill="#0ddfcc"/>
    <path id="Trazado_24409" data-name="Trazado 24409" d="M-4213.555,2681.853a5.64,5.64,0,0,1-5.64,5.641,5.641,5.641,0,0,1-5.641-5.641,5.641,5.641,0,0,1,5.641-5.64A5.64,5.64,0,0,1-4213.555,2681.853Z" transform="translate(9172.434 -6006.031)" fill="#16e0c9"/>
    <path id="Trazado_24410" data-name="Trazado 24410" d="M-4159.585,2704.468a5.64,5.64,0,0,1-5.64,5.641,5.641,5.641,0,0,1-5.641-5.641,5.641,5.641,0,0,1,5.641-5.64A5.64,5.64,0,0,1-4159.585,2704.468Z" transform="translate(9172.434 -6006.031)" fill="#1ee1c8"/>
    <path id="Trazado_24411" data-name="Trazado 24411" d="M-4104.494,2681.853a5.641,5.641,0,0,1-5.641,5.641,5.641,5.641,0,0,1-5.64-5.641,5.64,5.64,0,0,1,5.64-5.64A5.641,5.641,0,0,1-4104.494,2681.853Z" transform="translate(9172.434 -6006.031)" fill="#25e1c7"/>
    <path id="Trazado_24412" data-name="Trazado 24412" d="M-4050.245,2619.052a5.64,5.64,0,0,1-5.64,5.641,5.64,5.64,0,0,1-5.641-5.641,5.64,5.64,0,0,1,5.641-5.64A5.64,5.64,0,0,1-4050.245,2619.052Z" transform="translate(9172.434 -6006.031)" fill="#2ee2c5"/>
    <path id="Trazado_24413" data-name="Trazado 24413" d="M-3996.275,2633.015a5.641,5.641,0,0,1-5.64,5.641,5.642,5.642,0,0,1-5.641-5.641,5.641,5.641,0,0,1,5.641-5.64A5.64,5.64,0,0,1-3996.275,2633.015Z" transform="translate(9172.434 -6006.031)" fill="#36e3c3"/>
    <path id="Trazado_24414" data-name="Trazado 24414" d="M-3942.3,2676.213a5.64,5.64,0,0,1-5.64,5.64,5.641,5.641,0,0,1-5.641-5.64,5.641,5.641,0,0,1,5.641-5.641A5.641,5.641,0,0,1-3942.3,2676.213Z" transform="translate(9172.434 -6006.031)" fill="#3ee4c1"/>
    <path id="Trazado_24415" data-name="Trazado 24415" d="M-3887.285,2667.667a5.64,5.64,0,0,1-5.64,5.64,5.64,5.64,0,0,1-5.641-5.64,5.64,5.64,0,0,1,5.641-5.641A5.64,5.64,0,0,1-3887.285,2667.667Z" transform="translate(9172.434 -6006.031)" fill="#46e5bf"/>
    <path id="Trazado_24416" data-name="Trazado 24416" d="M-3833.315,2631.453a5.641,5.641,0,0,1-5.64,5.641,5.641,5.641,0,0,1-5.641-5.641,5.641,5.641,0,0,1,5.641-5.64A5.64,5.64,0,0,1-3833.315,2631.453Z" transform="translate(9172.434 -6006.031)" fill="#4ee5bd"/>
    <path id="Trazado_24417" data-name="Trazado 24417" d="M-3779.344,2644.333a5.642,5.642,0,0,1-5.641,5.641,5.641,5.641,0,0,1-5.64-5.641,5.64,5.64,0,0,1,5.64-5.64A5.641,5.641,0,0,1-3779.344,2644.333Z" transform="translate(9172.434 -6006.031)" fill="#56e6bc"/>
    <path id="Trazado_24418" data-name="Trazado 24418" d="M-3725.374,2627.375a5.641,5.641,0,0,1-5.641,5.64,5.64,5.64,0,0,1-5.64-5.64,5.64,5.64,0,0,1,5.64-5.641A5.641,5.641,0,0,1-3725.374,2627.375Z" transform="translate(9172.434 -6006.031)" fill="#5be7ba"/>
    <path id="Trazado_24419" data-name="Trazado 24419" d="M-4056.869,2697.406l-54.751-68.359-53.2,41.483-54.128-38.689-51.088,51.643-3.185-3.151,53.773-54.357,54.511,38.964,54.044-42.144,55.289,69.028,52.349-25.185,55.319-57.789,54.131,34.971,54.528-71.743,54.579,48.553,52.827-50.83,3.106,3.229-55.813,53.7-54.061-48.091-54.112,71.195-54.508-35.216-53.321,55.7Z" transform="translate(9172.434 -6006.031)" fill="url(#linear-gradient-2)"/>
    <path id="Trazado_24420" data-name="Trazado 24420" d="M-4265.985,2681.853a5.641,5.641,0,0,1-5.64,5.641,5.641,5.641,0,0,1-5.641-5.641,5.64,5.64,0,0,1,5.641-5.64A5.64,5.64,0,0,1-4265.985,2681.853Z" transform="translate(9172.434 -6006.031)" fill="#0b76ce"/>
    <path id="Trazado_24421" data-name="Trazado 24421" d="M-4213.555,2630.333a5.641,5.641,0,0,1-5.64,5.641,5.642,5.642,0,0,1-5.641-5.641,5.641,5.641,0,0,1,5.641-5.64A5.64,5.64,0,0,1-4213.555,2630.333Z" transform="translate(9172.434 -6006.031)" fill="#0f7fd2"/>
    <path id="Trazado_24422" data-name="Trazado 24422" d="M-4159.585,2667.667a5.64,5.64,0,0,1-5.64,5.64,5.641,5.641,0,0,1-5.641-5.64,5.641,5.641,0,0,1,5.641-5.641A5.64,5.64,0,0,1-4159.585,2667.667Z" transform="translate(9172.434 -6006.031)" fill="#1487d7"/>
    <path id="Trazado_24423" data-name="Trazado 24423" d="M-4104.494,2627.375a5.64,5.64,0,0,1-5.641,5.64,5.64,5.64,0,0,1-5.64-5.64,5.64,5.64,0,0,1,5.64-5.641A5.641,5.641,0,0,1-4104.494,2627.375Z" transform="translate(9172.434 -6006.031)" fill="#1890dc"/>
    <path id="Trazado_24424" data-name="Trazado 24424" d="M-4050.245,2693.053a5.641,5.641,0,0,1-5.64,5.641,5.641,5.641,0,0,1-5.641-5.641,5.64,5.64,0,0,1,5.641-5.64A5.64,5.64,0,0,1-4050.245,2693.053Z" transform="translate(9172.434 -6006.031)" fill="#1e99e1"/>
    <path id="Trazado_24425" data-name="Trazado 24425" d="M-3996.275,2667.667a5.64,5.64,0,0,1-5.64,5.64,5.641,5.641,0,0,1-5.641-5.64,5.641,5.641,0,0,1,5.641-5.641A5.64,5.64,0,0,1-3996.275,2667.667Z" transform="translate(9172.434 -6006.031)" fill="#23a1e5"/>
    <path id="Trazado_24426" data-name="Trazado 24426" d="M-3942.3,2611.983a5.64,5.64,0,0,1-5.64,5.64,5.641,5.641,0,0,1-5.641-5.64,5.641,5.641,0,0,1,5.641-5.641A5.641,5.641,0,0,1-3942.3,2611.983Z" transform="translate(9172.434 -6006.031)" fill="#27a8e9"/>
    <path id="Trazado_24427" data-name="Trazado 24427" d="M-3887.285,2646.573a5.641,5.641,0,0,1-5.64,5.641,5.641,5.641,0,0,1-5.641-5.641,5.64,5.64,0,0,1,5.641-5.64A5.64,5.64,0,0,1-3887.285,2646.573Z" transform="translate(9172.434 -6006.031)" fill="#2eb1ee"/>
    <path id="Trazado_24428" data-name="Trazado 24428" d="M-3833.315,2575.36a5.64,5.64,0,0,1-5.64,5.64,5.641,5.641,0,0,1-5.641-5.64,5.642,5.642,0,0,1,5.641-5.641A5.641,5.641,0,0,1-3833.315,2575.36Z" transform="translate(9172.434 -6006.031)" fill="#35baf4"/>
    <path id="Trazado_24429" data-name="Trazado 24429" d="M-3779.344,2623.8a5.641,5.641,0,0,1-5.641,5.64,5.64,5.64,0,0,1-5.64-5.64,5.641,5.641,0,0,1,5.64-5.641A5.642,5.642,0,0,1-3779.344,2623.8Z" transform="translate(9172.434 -6006.031)" fill="#3bc3f9"/>
    <path id="Trazado_24430" data-name="Trazado 24430" d="M-3725.374,2572.775a5.641,5.641,0,0,1-5.641,5.64,5.64,5.64,0,0,1-5.64-5.64,5.64,5.64,0,0,1,5.64-5.641A5.641,5.641,0,0,1-3725.374,2572.775Z" transform="translate(9172.434 -6006.031)" fill="#40cafd"/>
    <path id="Trazado_24431" data-name="Trazado 24431" d="M-4164.914,2627.826l-54.886-44.434-51.413,9.637-.826-4.4,53.448-10.019,53.054,42.951,54.209-65.365,54.8,16.734,53.822-32.068,55.5-5.366,53.774,46.269,53.923-57.073,55.036,23.452,53.566-14.726,1.188,4.319-55.074,15.141-53.6-22.842-54.717,57.914-55.565-47.811-52.6,5.087-54.665,32.569-53.842-16.442Z" transform="translate(9172.434 -6006.031)" fill="url(#linear-gradient-3)"/>
    <path id="Trazado_24432" data-name="Trazado 24432" d="M-4265.985,2590.828a5.64,5.64,0,0,1-5.64,5.641,5.64,5.64,0,0,1-5.641-5.641,5.64,5.64,0,0,1,5.641-5.64A5.64,5.64,0,0,1-4265.985,2590.828Z" transform="translate(9172.434 -6006.031)" fill="#17afd7"/>
    <path id="Trazado_24433" data-name="Trazado 24433" d="M-4213.555,2581.668a5.64,5.64,0,0,1-5.64,5.64,5.641,5.641,0,0,1-5.641-5.64,5.641,5.641,0,0,1,5.641-5.641A5.64,5.64,0,0,1-4213.555,2581.668Z" transform="translate(9172.434 -6006.031)" fill="#18b7db"/>
    <path id="Trazado_24434" data-name="Trazado 24434" d="M-4159.585,2624.693a5.64,5.64,0,0,1-5.64,5.64,5.641,5.641,0,0,1-5.641-5.64,5.642,5.642,0,0,1,5.641-5.641A5.641,5.641,0,0,1-4159.585,2624.693Z" transform="translate(9172.434 -6006.031)" fill="#1abedd"/>
    <path id="Trazado_24435" data-name="Trazado 24435" d="M-4104.494,2558.772a5.641,5.641,0,0,1-5.641,5.64,5.64,5.64,0,0,1-5.64-5.64,5.641,5.641,0,0,1,5.64-5.641A5.641,5.641,0,0,1-4104.494,2558.772Z" transform="translate(9172.434 -6006.031)" fill="#1dc6e1"/>
    <path id="Trazado_24436" data-name="Trazado 24436" d="M-4050.245,2576.027a5.641,5.641,0,0,1-5.64,5.641,5.641,5.641,0,0,1-5.641-5.641,5.64,5.64,0,0,1,5.641-5.64A5.64,5.64,0,0,1-4050.245,2576.027Z" transform="translate(9172.434 -6006.031)" fill="#1ecee4"/>
    <path id="Trazado_24437" data-name="Trazado 24437" d="M-3996.275,2542.6a5.64,5.64,0,0,1-5.64,5.64,5.641,5.641,0,0,1-5.641-5.64,5.642,5.642,0,0,1,5.641-5.641A5.641,5.641,0,0,1-3996.275,2542.6Z" transform="translate(9172.434 -6006.031)" fill="#20d5e6"/>
    <path id="Trazado_24438" data-name="Trazado 24438" d="M-3942.3,2538.867a5.64,5.64,0,0,1-5.64,5.64,5.641,5.641,0,0,1-5.641-5.64,5.641,5.641,0,0,1,5.641-5.641A5.64,5.64,0,0,1-3942.3,2538.867Z" transform="translate(9172.434 -6006.031)" fill="#21dfea"/>
    <path id="Trazado_24454" data-name="Trazado 24454" d="M5.641,0A5.641,5.641,0,1,1,0,5.641,5.641,5.641,0,0,1,5.641,0Z" transform="translate(5273.868 -3427.616)" fill="#23e6ed"/>
    <path id="Trazado_24439" data-name="Trazado 24439" d="M-3833.315,2527.362a5.64,5.64,0,0,1-5.64,5.64,5.641,5.641,0,0,1-5.641-5.64,5.642,5.642,0,0,1,5.641-5.641A5.641,5.641,0,0,1-3833.315,2527.362Z" transform="translate(9172.434 -6006.031)" fill="#25edf0"/>
    <path id="Trazado_24440" data-name="Trazado 24440" d="M-3779.344,2550.148a5.641,5.641,0,0,1-5.641,5.64,5.64,5.64,0,0,1-5.64-5.64,5.64,5.64,0,0,1,5.64-5.641A5.641,5.641,0,0,1-3779.344,2550.148Z" transform="translate(9172.434 -6006.031)" fill="#28f6f4"/>
    <path id="Trazado_24441" data-name="Trazado 24441" d="M-3725.374,2536.959a5.641,5.641,0,0,1-5.641,5.641,5.64,5.64,0,0,1-5.64-5.641,5.64,5.64,0,0,1,5.64-5.64A5.641,5.641,0,0,1-3725.374,2536.959Z" transform="translate(9172.434 -6006.031)" fill="#2afdf6"/>
  </g>
</svg>
