<svg xmlns="http://www.w3.org/2000/svg" width="716" height="373" viewBox="0 0 716 373">
  <g id="Grupo_30139" data-name="Grupo 30139" transform="translate(-4405 909)">
    <line id="Línea_316" data-name="Línea 316" y2="370" transform="translate(4406.5 -907.5)" fill="none" stroke="#4d3189" stroke-width="3"/>
    <g id="Grupo_30138" data-name="Grupo 30138">
      <path id="Trazado_24160" data-name="Trazado 24160" d="M0,0H262V73H0Z" transform="translate(4857 -907)" fill="#eef2f9"/>
      <path id="Trazado_24151" data-name="Trazado 24151" d="M0,0H454V73H0Z" transform="translate(4406 -907)" fill="#b869c3"/>
      <path id="Trazado_24153" data-name="Trazado 24153" d="M169.392,19h-2.92l-.928-10.635L161.97,19h-1.895L156.5,8.365,155.563,19h-2.93l1.182-14.111H158L161,13.746l3.047-8.857h4.18Zm7.314.2a6.313,6.313,0,0,1-2.842-.615,4.6,4.6,0,0,1-1.948-1.807,5.384,5.384,0,0,1-.708-2.8,4.911,4.911,0,0,1,1.523-3.809,6.368,6.368,0,0,1,7.959,0,4.911,4.911,0,0,1,1.523,3.809,4.938,4.938,0,0,1-1.523,3.823A5.654,5.654,0,0,1,176.706,19.2Zm-.029-2.236a2.577,2.577,0,0,0,1.987-.82,3.071,3.071,0,0,0,.757-2.168,3.071,3.071,0,0,0-.757-2.168,2.577,2.577,0,0,0-1.987-.82,2.483,2.483,0,0,0-1.929.825A3.1,3.1,0,0,0,174,13.971a3.1,3.1,0,0,0,.747,2.163A2.483,2.483,0,0,0,176.677,16.959ZM188.044,19a3.032,3.032,0,0,1-2.266-.815,3.171,3.171,0,0,1-.8-2.319V11.119H183V8.961h.635a1.656,1.656,0,0,0,1.25-.42,2.162,2.162,0,0,0,.4-1.494V5.719h2.539V8.961h2.07v2.158h-2.07v4.443q0,1.3,1.162,1.3h.908V19Zm5.469-11.543a1.579,1.579,0,0,1-1.152-.474,1.555,1.555,0,0,1-.479-1.147,1.536,1.536,0,0,1,.483-1.138,1.584,1.584,0,0,1,1.147-.474,1.626,1.626,0,0,1,1.611,1.611,1.626,1.626,0,0,1-1.611,1.621ZM192.077,19V8.961h2.832V19ZM204.353,8.961h2.979L203.054,19h-2.441L196.384,8.961h2.959l2.5,6.865Zm8.73,10.234a6.313,6.313,0,0,1-2.842-.615,4.6,4.6,0,0,1-1.948-1.807,5.384,5.384,0,0,1-.708-2.8,4.911,4.911,0,0,1,1.523-3.809,6.368,6.368,0,0,1,7.959,0,4.911,4.911,0,0,1,1.523,3.809,4.938,4.938,0,0,1-1.523,3.823A5.654,5.654,0,0,1,213.083,19.2Zm-.029-2.236a2.577,2.577,0,0,0,1.987-.82,3.071,3.071,0,0,0,.757-2.168,3.071,3.071,0,0,0-.757-2.168,2.577,2.577,0,0,0-1.987-.82,2.483,2.483,0,0,0-1.929.825,3.1,3.1,0,0,0-.747,2.163,3.1,3.1,0,0,0,.747,2.163A2.483,2.483,0,0,0,213.054,16.959ZM225.876,19V4h2.842V19Zm5.752,0V4h2.842V19Zm13.984-2.725a9.391,9.391,0,0,0,.244,2.451V19h-2.627L243,17.906a3.264,3.264,0,0,1-1.406.967,5.183,5.183,0,0,1-1.816.322,4.776,4.776,0,0,1-.937-.088,3.187,3.187,0,0,1-.845-.3,2.563,2.563,0,0,1-.7-.522,2.291,2.291,0,0,1-.469-.8,3.17,3.17,0,0,1-.176-1.089,3.019,3.019,0,0,1,.186-1.089,2.552,2.552,0,0,1,.488-.815,2.962,2.962,0,0,1,.791-.6,6.052,6.052,0,0,1,1-.43,11.9,11.9,0,0,1,1.191-.312l1.65-.371a1.82,1.82,0,0,0,.747-.317.633.633,0,0,0,.22-.5,1.036,1.036,0,0,0-.493-.967,2.3,2.3,0,0,0-1.2-.293,1.721,1.721,0,0,0-1.963,1.533l-2.49-.449a3.371,3.371,0,0,1,1.455-2.29,5.783,5.783,0,0,1,3.154-.737q4.219,0,4.219,3.623Zm-4.951,1.016a2.262,2.262,0,0,0,1.738-.728,3.066,3.066,0,0,0,.674-2.153l-2.383.674a2.816,2.816,0,0,0-1,.41.842.842,0,0,0-.347.723.935.935,0,0,0,.371.8A1.536,1.536,0,0,0,240.661,17.291Zm19.58-8.525a3.836,3.836,0,0,1,2.588.815,2.918,2.918,0,0,1,.947,2.339V19h-2.812V12.721a1.677,1.677,0,0,0-.449-1.27,1.573,1.573,0,0,0-1.133-.43,1.814,1.814,0,0,0-1.367.547,2.484,2.484,0,0,0-.527,1.768V19h-2.842V12.75a1.721,1.721,0,0,0-.449-1.294,1.6,1.6,0,0,0-1.162-.435,1.757,1.757,0,0,0-1.357.576,2.751,2.751,0,0,0-.527,1.885V19h-2.8V8.961h2.8v1.182a3.414,3.414,0,0,1,2.91-1.377,4.293,4.293,0,0,1,1.89.386,2.572,2.572,0,0,1,1.187,1.118A3.55,3.55,0,0,1,260.241,8.766Zm14.5,7.51a9.392,9.392,0,0,0,.244,2.451V19H272.36l-.225-1.094a3.264,3.264,0,0,1-1.406.967,5.183,5.183,0,0,1-1.816.322,4.776,4.776,0,0,1-.937-.088,3.187,3.187,0,0,1-.845-.3,2.564,2.564,0,0,1-.7-.522,2.291,2.291,0,0,1-.469-.8,3.17,3.17,0,0,1-.176-1.089,3.02,3.02,0,0,1,.186-1.089,2.552,2.552,0,0,1,.488-.815,2.961,2.961,0,0,1,.791-.6,6.053,6.053,0,0,1,1-.43,11.9,11.9,0,0,1,1.191-.312l1.65-.371a1.82,1.82,0,0,0,.747-.317.633.633,0,0,0,.22-.5,1.036,1.036,0,0,0-.493-.967,2.3,2.3,0,0,0-1.2-.293,1.721,1.721,0,0,0-1.963,1.533l-2.49-.449A3.371,3.371,0,0,1,267.37,9.5a5.783,5.783,0,0,1,3.154-.737q4.219,0,4.219,3.623Zm-4.951,1.016a2.262,2.262,0,0,0,1.738-.728,3.066,3.066,0,0,0,.674-2.153l-2.383.674a2.816,2.816,0,0,0-1,.41.842.842,0,0,0-.347.723.935.935,0,0,0,.371.8A1.536,1.536,0,0,0,269.792,17.291ZM284.372,4h2.813V19h-2.666l-.068-1.309a2.867,2.867,0,0,1-1.274,1.138,4.29,4.29,0,0,1-1.88.405,4.883,4.883,0,0,1-1.875-.361,4.516,4.516,0,0,1-2.578-2.676,6.106,6.106,0,0,1-.381-2.2,5.707,5.707,0,0,1,.664-2.8,4.55,4.55,0,0,1,1.753-1.821,4.827,4.827,0,0,1,2.417-.615,4.4,4.4,0,0,1,1.821.366,2.843,2.843,0,0,1,1.255,1.04ZM281.94,16.9a2.5,2.5,0,0,0,1.9-.8A2.932,2.932,0,0,0,284.6,14a2.938,2.938,0,0,0-.762-2.1,2.5,2.5,0,0,0-1.895-.806,2.53,2.53,0,0,0-1.909.791A2.937,2.937,0,0,0,279.274,14a2.924,2.924,0,0,0,.757,2.109A2.53,2.53,0,0,0,281.94,16.9Zm16.387-.625a9.392,9.392,0,0,0,.244,2.451V19h-2.627l-.225-1.094a3.264,3.264,0,0,1-1.406.967,5.183,5.183,0,0,1-1.816.322,4.776,4.776,0,0,1-.937-.088,3.187,3.187,0,0,1-.845-.3,2.564,2.564,0,0,1-.7-.522,2.291,2.291,0,0,1-.469-.8,3.17,3.17,0,0,1-.176-1.089,3.02,3.02,0,0,1,.186-1.089,2.552,2.552,0,0,1,.488-.815,2.961,2.961,0,0,1,.791-.6,6.053,6.053,0,0,1,1-.43,11.9,11.9,0,0,1,1.191-.312l1.65-.371a1.82,1.82,0,0,0,.747-.317.633.633,0,0,0,.22-.5,1.036,1.036,0,0,0-.493-.967,2.3,2.3,0,0,0-1.2-.293,1.721,1.721,0,0,0-1.963,1.533l-2.49-.449a3.371,3.371,0,0,1,1.455-2.29,5.783,5.783,0,0,1,3.154-.737q4.219,0,4.219,3.623Zm-4.951,1.016a2.262,2.262,0,0,0,1.738-.728,3.066,3.066,0,0,0,.674-2.153l-2.383.674a2.816,2.816,0,0,0-1,.41.842.842,0,0,0-.347.723.935.935,0,0,0,.371.8A1.536,1.536,0,0,0,293.376,17.291Z" transform="translate(4406 -883)" fill="#fff"/>
      <path id="Trazado_24154" data-name="Trazado 24154" d="M6.514,19.2A6.818,6.818,0,0,1,2.6,18.116a4.328,4.328,0,0,1-1.9-3.022L3.721,14.4a2.571,2.571,0,0,0,.933,1.782,3.1,3.1,0,0,0,1.978.62,2.554,2.554,0,0,0,1.543-.435,1.466,1.466,0,0,0,.586-1.284,1.37,1.37,0,0,0-.5-1.045,3.254,3.254,0,0,0-.991-.64q-.493-.19-1.587-.522-.146-.049-.215-.068-.557-.176-.9-.293t-.845-.327a5.625,5.625,0,0,1-.82-.41,6.006,6.006,0,0,1-.679-.508,2.66,2.66,0,0,1-.566-.649,3.45,3.45,0,0,1-.342-.811A3.577,3.577,0,0,1,1.182,8.8a3.778,3.778,0,0,1,.659-2.222A4.037,4.037,0,0,1,3.618,5.167a6.469,6.469,0,0,1,2.544-.474A8.036,8.036,0,0,1,8,4.9a6.448,6.448,0,0,1,1.646.63A4.031,4.031,0,0,1,10.962,6.69,4.37,4.37,0,0,1,11.709,8.4l-2.832.7A2.294,2.294,0,0,0,6.338,7.086a2.78,2.78,0,0,0-1.572.41,1.39,1.39,0,0,0-.615,1.24q0,.771,1.025,1.25a15.28,15.28,0,0,0,1.963.674q.576.176.938.293t.908.342a6.311,6.311,0,0,1,.889.435,6.576,6.576,0,0,1,.742.542,2.919,2.919,0,0,1,.63.7,3.8,3.8,0,0,1,.386.874,3.653,3.653,0,0,1,.156,1.089,4.278,4.278,0,0,1-.283,1.592,3.464,3.464,0,0,1-.776,1.2,4.508,4.508,0,0,1-1.167.825,5.661,5.661,0,0,1-1.436.488A8.256,8.256,0,0,1,6.514,19.2Zm15.84-2.92a9.392,9.392,0,0,0,.244,2.451V19H19.971l-.225-1.094a3.264,3.264,0,0,1-1.406.967,5.183,5.183,0,0,1-1.816.322,4.776,4.776,0,0,1-.937-.088,3.187,3.187,0,0,1-.845-.3,2.564,2.564,0,0,1-.7-.522,2.291,2.291,0,0,1-.469-.8A3.17,3.17,0,0,1,13.4,16.4a3.02,3.02,0,0,1,.186-1.089,2.552,2.552,0,0,1,.488-.815,2.962,2.962,0,0,1,.791-.6,6.052,6.052,0,0,1,1-.43,11.9,11.9,0,0,1,1.191-.312l1.65-.371a1.82,1.82,0,0,0,.747-.317.633.633,0,0,0,.22-.5A1.036,1.036,0,0,0,19.175,11a2.3,2.3,0,0,0-1.2-.293,1.721,1.721,0,0,0-1.963,1.533l-2.49-.449A3.371,3.371,0,0,1,14.98,9.5a5.783,5.783,0,0,1,3.154-.737q4.219,0,4.219,3.623ZM17.4,17.291a2.262,2.262,0,0,0,1.738-.728,3.066,3.066,0,0,0,.674-2.153l-2.383.674a2.816,2.816,0,0,0-1,.41.842.842,0,0,0-.347.723.935.935,0,0,0,.371.8A1.536,1.536,0,0,0,17.4,17.291ZM25.088,19V4H27.93V19ZM37.959,4h2.813V19H38.105l-.068-1.309a2.867,2.867,0,0,1-1.274,1.138,4.29,4.29,0,0,1-1.88.405,4.883,4.883,0,0,1-1.875-.361A4.516,4.516,0,0,1,30.43,16.2a6.106,6.106,0,0,1-.381-2.2,5.707,5.707,0,0,1,.664-2.8,4.55,4.55,0,0,1,1.753-1.821,4.827,4.827,0,0,1,2.417-.615,4.4,4.4,0,0,1,1.821.366,2.843,2.843,0,0,1,1.255,1.04ZM35.527,16.9a2.5,2.5,0,0,0,1.9-.8,2.932,2.932,0,0,0,.757-2.1,2.938,2.938,0,0,0-.762-2.1,2.5,2.5,0,0,0-1.895-.806,2.53,2.53,0,0,0-1.909.791A2.937,2.937,0,0,0,32.861,14a2.924,2.924,0,0,0,.757,2.109A2.53,2.53,0,0,0,35.527,16.9ZM48.359,19.2a6.313,6.313,0,0,1-2.842-.615,4.6,4.6,0,0,1-1.948-1.807,5.384,5.384,0,0,1-.708-2.8,4.911,4.911,0,0,1,1.523-3.809,5.652,5.652,0,0,1,3.975-1.4,5.665,5.665,0,0,1,3.984,1.4,4.911,4.911,0,0,1,1.523,3.809,4.938,4.938,0,0,1-1.523,3.823A5.654,5.654,0,0,1,48.359,19.2Zm-.029-2.236a2.577,2.577,0,0,0,1.987-.82,3.071,3.071,0,0,0,.757-2.168,3.071,3.071,0,0,0-.757-2.168,2.577,2.577,0,0,0-1.987-.82,2.483,2.483,0,0,0-1.929.825,3.1,3.1,0,0,0-.747,2.163,3.1,3.1,0,0,0,.747,2.163A2.483,2.483,0,0,0,48.33,16.959ZM66.816,6.246h-.059q-.273,0-.415,0t-.4.034a1.621,1.621,0,0,0-.405.088,2.065,2.065,0,0,0-.337.181.9.9,0,0,0-.293.293,1.77,1.77,0,0,0-.176.435,2.269,2.269,0,0,0-.073.605V8.961h2.158v2.158H64.658V19h-2.8V11.119H59.893V8.961h1.963V7.877A5.871,5.871,0,0,1,61.982,6.6a3.893,3.893,0,0,1,.342-.972,2.275,2.275,0,0,1,.571-.7,3.371,3.371,0,0,1,.742-.469,4.241,4.241,0,0,1,.923-.283,8.1,8.1,0,0,1,1.06-.142Q66.143,4,66.816,4ZM76.6,16.275a9.392,9.392,0,0,0,.244,2.451V19H74.219l-.225-1.094a3.264,3.264,0,0,1-1.406.967,5.183,5.183,0,0,1-1.816.322,4.776,4.776,0,0,1-.937-.088,3.187,3.187,0,0,1-.845-.3,2.564,2.564,0,0,1-.7-.522,2.291,2.291,0,0,1-.469-.8,3.17,3.17,0,0,1-.176-1.089,3.02,3.02,0,0,1,.186-1.089,2.552,2.552,0,0,1,.488-.815,2.962,2.962,0,0,1,.791-.6,6.053,6.053,0,0,1,1-.43A11.9,11.9,0,0,1,71.3,13.16l1.65-.371a1.82,1.82,0,0,0,.747-.317.633.633,0,0,0,.22-.5A1.036,1.036,0,0,0,73.423,11a2.3,2.3,0,0,0-1.2-.293,1.721,1.721,0,0,0-1.963,1.533l-2.49-.449A3.371,3.371,0,0,1,69.229,9.5a5.783,5.783,0,0,1,3.154-.737q4.219,0,4.219,3.623ZM71.65,17.291a2.262,2.262,0,0,0,1.738-.728,3.066,3.066,0,0,0,.674-2.153l-2.383.674a2.816,2.816,0,0,0-1,.41.842.842,0,0,0-.347.723.935.935,0,0,0,.371.8A1.536,1.536,0,0,0,71.65,17.291Zm12,1.895a5.364,5.364,0,0,1-3.877-1.445,4.992,4.992,0,0,1-1.5-3.77,4.981,4.981,0,0,1,1.5-3.77A5.96,5.96,0,0,1,86.9,9.732a4.316,4.316,0,0,1,1.68,2.725l-2.6.283a2.226,2.226,0,0,0-.84-1.318,2.554,2.554,0,0,0-1.523-.439,2.3,2.3,0,0,0-1.836.82,3.216,3.216,0,0,0-.7,2.168,3.22,3.22,0,0,0,.7,2.163,2.3,2.3,0,0,0,1.836.825,2.532,2.532,0,0,0,1.519-.439,2.277,2.277,0,0,0,.845-1.318l2.6.283a4.328,4.328,0,0,1-1.694,2.725A5.327,5.327,0,0,1,83.652,19.186ZM94.326,19a3.032,3.032,0,0,1-2.266-.815,3.172,3.172,0,0,1-.8-2.319V11.119H89.287V8.961h.635a1.656,1.656,0,0,0,1.25-.42,2.162,2.162,0,0,0,.4-1.494V5.719h2.539V8.961h2.07v2.158h-2.07v4.443q0,1.3,1.162,1.3h.908V19ZM105.01,8.961h2.813V19h-2.666l-.068-1.211a3.834,3.834,0,0,1-3.193,1.406,3.914,3.914,0,0,1-2.773-.9,3.349,3.349,0,0,1-.967-2.573V8.961h2.822v6.152a1.735,1.735,0,0,0,.5,1.377,1.909,1.909,0,0,0,1.3.439,2.264,2.264,0,0,0,1.6-.571,2.454,2.454,0,0,0,.63-1.86Zm8.418,1.592a3.259,3.259,0,0,1,1.318-1.206,4.023,4.023,0,0,1,1.963-.5v2.51a3.8,3.8,0,0,0-2.4.605,2.643,2.643,0,0,0-.742,2.148V19h-2.832V8.961h2.7Zm13.105,5.723a9.392,9.392,0,0,0,.244,2.451V19H124.15l-.225-1.094a3.264,3.264,0,0,1-1.406.967,5.183,5.183,0,0,1-1.816.322,4.776,4.776,0,0,1-.937-.088,3.187,3.187,0,0,1-.845-.3,2.564,2.564,0,0,1-.7-.522,2.291,2.291,0,0,1-.469-.8,3.17,3.17,0,0,1-.176-1.089,3.02,3.02,0,0,1,.186-1.089,2.552,2.552,0,0,1,.488-.815,2.962,2.962,0,0,1,.791-.6,6.053,6.053,0,0,1,1-.43,11.9,11.9,0,0,1,1.191-.312l1.65-.371a1.82,1.82,0,0,0,.747-.317.633.633,0,0,0,.22-.5,1.036,1.036,0,0,0-.493-.967,2.3,2.3,0,0,0-1.2-.293,1.721,1.721,0,0,0-1.963,1.533l-2.49-.449A3.371,3.371,0,0,1,119.16,9.5a5.783,5.783,0,0,1,3.154-.737q4.219,0,4.219,3.623Zm-4.951,1.016a2.262,2.262,0,0,0,1.738-.728,3.066,3.066,0,0,0,.674-2.153l-2.383.674a2.816,2.816,0,0,0-1,.41.842.842,0,0,0-.347.723.935.935,0,0,0,.371.8A1.536,1.536,0,0,0,121.582,17.291Z" transform="translate(4437 -809)" fill="#002b45"/>
      <path id="Trazado_24156" data-name="Trazado 24156" d="M1.826,19V4.889h2.93V19ZM13.955,8.766a3.914,3.914,0,0,1,2.773.9,3.349,3.349,0,0,1,.967,2.573V19H14.873V12.848a1.749,1.749,0,0,0-.5-1.387,1.9,1.9,0,0,0-1.294-.439,2.643,2.643,0,0,0-.84.127,2.158,2.158,0,0,0-.7.4,1.748,1.748,0,0,0-.5.757,3.5,3.5,0,0,0-.19,1.162V19H8.027V8.961H10.84v1.113A3.868,3.868,0,0,1,13.955,8.766Zm12.129-2.52h-.059q-.273,0-.415,0t-.4.034a1.621,1.621,0,0,0-.405.088,2.065,2.065,0,0,0-.337.181.9.9,0,0,0-.293.293A1.77,1.77,0,0,0,24,7.281a2.269,2.269,0,0,0-.073.605V8.961h2.158v2.158H23.926V19h-2.8V11.119H19.16V8.961h1.963V7.877A5.871,5.871,0,0,1,21.25,6.6a3.893,3.893,0,0,1,.342-.972,2.275,2.275,0,0,1,.571-.7,3.371,3.371,0,0,1,.742-.469,4.241,4.241,0,0,1,.923-.283,8.1,8.1,0,0,1,1.06-.142Q25.41,4,26.084,4ZM32.314,19.2a6.313,6.313,0,0,1-2.842-.615,4.6,4.6,0,0,1-1.948-1.807,5.384,5.384,0,0,1-.708-2.8,4.911,4.911,0,0,1,1.523-3.809,5.652,5.652,0,0,1,3.975-1.4,5.665,5.665,0,0,1,3.984,1.4,4.911,4.911,0,0,1,1.523,3.809A4.938,4.938,0,0,1,36.3,17.794,5.654,5.654,0,0,1,32.314,19.2Zm-.029-2.236a2.577,2.577,0,0,0,1.987-.82,3.071,3.071,0,0,0,.757-2.168,3.071,3.071,0,0,0-.757-2.168,2.577,2.577,0,0,0-1.987-.82,2.483,2.483,0,0,0-1.929.825,3.1,3.1,0,0,0-.747,2.163,3.1,3.1,0,0,0,.747,2.163A2.483,2.483,0,0,0,32.285,16.959Zm10.322-6.406a3.259,3.259,0,0,1,1.318-1.206,4.023,4.023,0,0,1,1.963-.5v2.51a3.8,3.8,0,0,0-2.4.605,2.643,2.643,0,0,0-.742,2.148V19H39.912V8.961h2.7ZM59.434,8.766a3.836,3.836,0,0,1,2.588.815,2.918,2.918,0,0,1,.947,2.339V19H60.156V12.721a1.677,1.677,0,0,0-.449-1.27,1.573,1.573,0,0,0-1.133-.43,1.814,1.814,0,0,0-1.367.547,2.484,2.484,0,0,0-.527,1.768V19H53.838V12.75a1.721,1.721,0,0,0-.449-1.294,1.6,1.6,0,0,0-1.162-.435,1.757,1.757,0,0,0-1.357.576,2.751,2.751,0,0,0-.527,1.885V19h-2.8V8.961h2.8v1.182a3.414,3.414,0,0,1,2.91-1.377,4.293,4.293,0,0,1,1.89.386,2.572,2.572,0,0,1,1.187,1.118A3.55,3.55,0,0,1,59.434,8.766Zm14.5,7.51a9.392,9.392,0,0,0,.244,2.451V19H71.553l-.225-1.094a3.264,3.264,0,0,1-1.406.967,5.183,5.183,0,0,1-1.816.322,4.776,4.776,0,0,1-.937-.088,3.187,3.187,0,0,1-.845-.3,2.564,2.564,0,0,1-.7-.522,2.291,2.291,0,0,1-.469-.8A3.17,3.17,0,0,1,64.98,16.4a3.02,3.02,0,0,1,.186-1.089,2.552,2.552,0,0,1,.488-.815,2.962,2.962,0,0,1,.791-.6,6.053,6.053,0,0,1,1-.43,11.9,11.9,0,0,1,1.191-.312l1.65-.371a1.82,1.82,0,0,0,.747-.317.633.633,0,0,0,.22-.5A1.036,1.036,0,0,0,70.757,11a2.3,2.3,0,0,0-1.2-.293A1.721,1.721,0,0,0,67.6,12.242l-2.49-.449A3.371,3.371,0,0,1,66.563,9.5a5.783,5.783,0,0,1,3.154-.737q4.219,0,4.219,3.623Zm-4.951,1.016a2.262,2.262,0,0,0,1.738-.728A3.066,3.066,0,0,0,71.4,14.41l-2.383.674a2.816,2.816,0,0,0-1,.41.842.842,0,0,0-.347.723.935.935,0,0,0,.371.8A1.536,1.536,0,0,0,68.984,17.291Zm12,1.895a5.364,5.364,0,0,1-3.877-1.445,4.992,4.992,0,0,1-1.5-3.77,4.981,4.981,0,0,1,1.5-3.77,5.96,5.96,0,0,1,7.134-.469,4.316,4.316,0,0,1,1.68,2.725l-2.6.283a2.226,2.226,0,0,0-.84-1.318,2.554,2.554,0,0,0-1.523-.439,2.3,2.3,0,0,0-1.836.82,3.216,3.216,0,0,0-.7,2.168,3.22,3.22,0,0,0,.7,2.163,2.3,2.3,0,0,0,1.836.825,2.532,2.532,0,0,0,1.519-.439A2.277,2.277,0,0,0,83.32,15.2l2.6.283a4.328,4.328,0,0,1-1.694,2.725A5.327,5.327,0,0,1,80.986,19.186ZM89.355,7.457A1.579,1.579,0,0,1,88.2,6.983a1.555,1.555,0,0,1-.479-1.147A1.536,1.536,0,0,1,88.208,4.7a1.584,1.584,0,0,1,1.147-.474,1.626,1.626,0,0,1,1.611,1.611,1.626,1.626,0,0,1-1.611,1.621ZM87.92,19V8.961h2.832V19ZM97.471,7.594,100.029,4l1.387.977L99.2,7.594Zm.869,11.6A6.313,6.313,0,0,1,95.5,18.58a4.6,4.6,0,0,1-1.948-1.807,5.384,5.384,0,0,1-.708-2.8,4.911,4.911,0,0,1,1.523-3.809,6.368,6.368,0,0,1,7.959,0,4.911,4.911,0,0,1,1.523,3.809,4.938,4.938,0,0,1-1.523,3.823A5.654,5.654,0,0,1,98.34,19.2Zm-.029-2.236a2.577,2.577,0,0,0,1.987-.82,3.071,3.071,0,0,0,.757-2.168A3.071,3.071,0,0,0,100.3,11.8a2.577,2.577,0,0,0-1.987-.82,2.483,2.483,0,0,0-1.929.825,3.1,3.1,0,0,0-.747,2.163,3.1,3.1,0,0,0,.747,2.163A2.483,2.483,0,0,0,98.311,16.959Zm13.555-8.193a3.914,3.914,0,0,1,2.773.9,3.349,3.349,0,0,1,.967,2.573V19h-2.822V12.848a1.749,1.749,0,0,0-.5-1.387,1.9,1.9,0,0,0-1.294-.439,2.643,2.643,0,0,0-.84.127,2.158,2.158,0,0,0-.7.4,1.748,1.748,0,0,0-.5.757,3.5,3.5,0,0,0-.19,1.162V19h-2.812V8.961h2.813v1.113A3.868,3.868,0,0,1,111.865,8.766Zm16.2,10.42a5.364,5.364,0,0,1-3.877-1.445,4.992,4.992,0,0,1-1.5-3.77,4.981,4.981,0,0,1,1.5-3.77,5.96,5.96,0,0,1,7.134-.469A4.316,4.316,0,0,1,133,12.457l-2.6.283a2.225,2.225,0,0,0-.84-1.318,2.554,2.554,0,0,0-1.523-.439,2.3,2.3,0,0,0-1.836.82,3.216,3.216,0,0,0-.7,2.168,3.22,3.22,0,0,0,.7,2.163,2.3,2.3,0,0,0,1.836.825,2.532,2.532,0,0,0,1.519-.439A2.277,2.277,0,0,0,130.4,15.2l2.6.283a4.328,4.328,0,0,1-1.694,2.725A5.327,5.327,0,0,1,128.066,19.186Zm11.611.01a6.313,6.313,0,0,1-2.842-.615,4.6,4.6,0,0,1-1.948-1.807,5.384,5.384,0,0,1-.708-2.8,4.911,4.911,0,0,1,1.523-3.809,6.368,6.368,0,0,1,7.959,0,4.911,4.911,0,0,1,1.523,3.809,4.938,4.938,0,0,1-1.523,3.823A5.654,5.654,0,0,1,139.678,19.2Zm-.029-2.236a2.577,2.577,0,0,0,1.987-.82,3.071,3.071,0,0,0,.757-2.168,3.071,3.071,0,0,0-.757-2.168,2.577,2.577,0,0,0-1.987-.82,2.483,2.483,0,0,0-1.929.825,3.1,3.1,0,0,0-.747,2.163,3.1,3.1,0,0,0,.747,2.163A2.483,2.483,0,0,0,139.648,16.959ZM153.2,8.766a3.914,3.914,0,0,1,2.773.9,3.349,3.349,0,0,1,.967,2.573V19h-2.822V12.848a1.749,1.749,0,0,0-.5-1.387,1.9,1.9,0,0,0-1.294-.439,2.643,2.643,0,0,0-.84.127,2.158,2.158,0,0,0-.7.4,1.748,1.748,0,0,0-.5.757,3.5,3.5,0,0,0-.19,1.162V19h-2.812V8.961h2.813v1.113A3.868,3.868,0,0,1,153.2,8.766Zm11.006,10.42a5.364,5.364,0,0,1-3.877-1.445,4.992,4.992,0,0,1-1.5-3.77,4.981,4.981,0,0,1,1.5-3.77,5.96,5.96,0,0,1,7.134-.469,4.316,4.316,0,0,1,1.68,2.725l-2.6.283a2.225,2.225,0,0,0-.84-1.318,2.554,2.554,0,0,0-1.523-.439,2.3,2.3,0,0,0-1.836.82,3.216,3.216,0,0,0-.7,2.168,3.22,3.22,0,0,0,.7,2.163,2.3,2.3,0,0,0,1.836.825,2.532,2.532,0,0,0,1.519-.439,2.277,2.277,0,0,0,.845-1.318l2.6.283a4.328,4.328,0,0,1-1.694,2.725A5.327,5.327,0,0,1,164.209,19.186Zm16.377-5.352-.029.674h-7.441a2.6,2.6,0,0,0,.8,1.836,2.561,2.561,0,0,0,1.768.635,2.468,2.468,0,0,0,1.323-.347,2.131,2.131,0,0,0,.845-1.011L180.43,16a4.383,4.383,0,0,1-1.758,2.354,5.226,5.226,0,0,1-2.969.84,5.435,5.435,0,0,1-3.911-1.382,5.042,5.042,0,0,1-1.45-3.833,5.072,5.072,0,0,1,1.455-3.833,5.273,5.273,0,0,1,3.818-1.4,5.04,5.04,0,0,1,3.6,1.279A5.019,5.019,0,0,1,180.586,13.834Zm-4.951-3.1a2.222,2.222,0,0,0-2.441,1.934H177.8a2.114,2.114,0,0,0-.693-1.436A2.2,2.2,0,0,0,175.635,10.738Zm12.979-1.973a4.883,4.883,0,0,1,1.875.361,4.692,4.692,0,0,1,1.538,1.016,4.6,4.6,0,0,1,1.04,1.655,6.146,6.146,0,0,1,.381,2.2,6.146,6.146,0,0,1-.381,2.2,4.6,4.6,0,0,1-1.04,1.655,4.692,4.692,0,0,1-1.538,1.016,4.883,4.883,0,0,1-1.875.361,4.356,4.356,0,0,1-1.816-.371,2.846,2.846,0,0,1-1.26-1.055v6.074h-2.812V8.961h2.666l.078,1.348a2.75,2.75,0,0,1,1.255-1.138A4.313,4.313,0,0,1,188.613,8.766Zm-.635,8.135a2.527,2.527,0,0,0,1.9-.786A2.92,2.92,0,0,0,190.635,14a2.92,2.92,0,0,0-.757-2.114,2.688,2.688,0,0,0-3.813.015A2.921,2.921,0,0,0,185.3,14a2.921,2.921,0,0,0,.762,2.1A2.531,2.531,0,0,0,187.979,16.9ZM199.307,19a3.032,3.032,0,0,1-2.266-.815,3.171,3.171,0,0,1-.8-2.319V11.119h-1.973V8.961h.635a1.656,1.656,0,0,0,1.25-.42,2.162,2.162,0,0,0,.4-1.494V5.719h2.539V8.961h2.07v2.158h-2.07v4.443q0,1.3,1.162,1.3h.908V19Zm8.672.2a6.313,6.313,0,0,1-2.842-.615,4.6,4.6,0,0,1-1.948-1.807,5.384,5.384,0,0,1-.708-2.8A4.911,4.911,0,0,1,204,10.162a6.368,6.368,0,0,1,7.959,0,4.911,4.911,0,0,1,1.523,3.809,4.938,4.938,0,0,1-1.523,3.823A5.654,5.654,0,0,1,207.979,19.2Zm-.029-2.236a2.577,2.577,0,0,0,1.987-.82,3.071,3.071,0,0,0,.757-2.168,3.071,3.071,0,0,0-.757-2.168,2.577,2.577,0,0,0-1.987-.82,2.483,2.483,0,0,0-1.929.825,3.1,3.1,0,0,0-.747,2.163,3.1,3.1,0,0,0,.747,2.163A2.483,2.483,0,0,0,207.949,16.959ZM220.771,19V4h2.842V19Zm13.984-2.725A9.391,9.391,0,0,0,235,18.727V19h-2.627l-.225-1.094a3.264,3.264,0,0,1-1.406.967,5.183,5.183,0,0,1-1.816.322,4.776,4.776,0,0,1-.937-.088,3.187,3.187,0,0,1-.845-.3,2.563,2.563,0,0,1-.7-.522,2.291,2.291,0,0,1-.469-.8A3.17,3.17,0,0,1,225.8,16.4a3.019,3.019,0,0,1,.186-1.089,2.552,2.552,0,0,1,.488-.815,2.962,2.962,0,0,1,.791-.6,6.052,6.052,0,0,1,1-.43,11.9,11.9,0,0,1,1.191-.312l1.65-.371a1.82,1.82,0,0,0,.747-.317.633.633,0,0,0,.22-.5,1.036,1.036,0,0,0-.493-.967,2.3,2.3,0,0,0-1.2-.293,1.721,1.721,0,0,0-1.963,1.533l-2.49-.449a3.371,3.371,0,0,1,1.455-2.29,5.783,5.783,0,0,1,3.154-.737q4.219,0,4.219,3.623ZM229.8,17.291a2.262,2.262,0,0,0,1.738-.728,3.066,3.066,0,0,0,.674-2.153l-2.383.674a2.816,2.816,0,0,0-1,.41.842.842,0,0,0-.347.723.935.935,0,0,0,.371.8A1.536,1.536,0,0,0,229.8,17.291Zm10.381-6.738A3.259,3.259,0,0,1,241.5,9.347a4.023,4.023,0,0,1,1.963-.5v2.51a3.8,3.8,0,0,0-2.4.605,2.643,2.643,0,0,0-.742,2.148V19H237.49V8.961h2.7Zm11.787-1.592h2.676v9.287a7.51,7.51,0,0,1-.376,2.5,4.123,4.123,0,0,1-1.089,1.714,4.539,4.539,0,0,1-1.67.962,7.04,7.04,0,0,1-2.187.313q-3.975,0-5.176-3.115l2.334-1a3.406,3.406,0,0,0,1.084,1.455,2.763,2.763,0,0,0,1.65.469q2.607,0,2.607-3.1V17.281a3.163,3.163,0,0,1-1.265.991,4.2,4.2,0,0,1-1.782.376,4.5,4.5,0,0,1-3.223-1.353,4.638,4.638,0,0,1-.991-1.577,5.83,5.83,0,0,1,0-4.067,4.451,4.451,0,0,1,1-1.558,4.584,4.584,0,0,1,1.465-.977,4.521,4.521,0,0,1,1.772-.352,4.082,4.082,0,0,1,1.86.415,2.967,2.967,0,0,1,1.245,1.108ZM247.661,15.6a2.576,2.576,0,0,0,3.687-.01,2.806,2.806,0,0,0,0-3.818,2.6,2.6,0,0,0-3.7-.015,2.671,2.671,0,0,0-.737,1.929A2.644,2.644,0,0,0,247.661,15.6Zm18.14.674a9.392,9.392,0,0,0,.244,2.451V19h-2.627l-.225-1.094a3.264,3.264,0,0,1-1.406.967,5.183,5.183,0,0,1-1.816.322,4.776,4.776,0,0,1-.937-.088,3.187,3.187,0,0,1-.845-.3,2.564,2.564,0,0,1-.7-.522,2.291,2.291,0,0,1-.469-.8,3.17,3.17,0,0,1-.176-1.089,3.02,3.02,0,0,1,.186-1.089,2.552,2.552,0,0,1,.488-.815,2.961,2.961,0,0,1,.791-.6,6.053,6.053,0,0,1,1-.43,11.9,11.9,0,0,1,1.191-.312l1.65-.371a1.82,1.82,0,0,0,.747-.317.633.633,0,0,0,.22-.5,1.036,1.036,0,0,0-.493-.967,2.3,2.3,0,0,0-1.2-.293,1.721,1.721,0,0,0-1.963,1.533l-2.49-.449a3.371,3.371,0,0,1,1.455-2.29,5.783,5.783,0,0,1,3.154-.737q4.219,0,4.219,3.623Zm-4.951,1.016a2.262,2.262,0,0,0,1.738-.728,3.066,3.066,0,0,0,.674-2.153l-2.383.674a2.816,2.816,0,0,0-1,.41.842.842,0,0,0-.347.723.935.935,0,0,0,.371.8A1.536,1.536,0,0,0,260.85,17.291Z" transform="translate(4437 -735)" fill="#002b45"/>
      <path id="Trazado_24158" data-name="Trazado 24158" d="M1.826,19V4.889h2.93V19ZM13.955,8.766a3.914,3.914,0,0,1,2.773.9,3.349,3.349,0,0,1,.967,2.573V19H14.873V12.848a1.749,1.749,0,0,0-.5-1.387,1.9,1.9,0,0,0-1.294-.439,2.643,2.643,0,0,0-.84.127,2.158,2.158,0,0,0-.7.4,1.748,1.748,0,0,0-.5.757,3.5,3.5,0,0,0-.19,1.162V19H8.027V8.961H10.84v1.113A3.868,3.868,0,0,1,13.955,8.766Zm12.129-2.52h-.059q-.273,0-.415,0t-.4.034a1.621,1.621,0,0,0-.405.088,2.065,2.065,0,0,0-.337.181.9.9,0,0,0-.293.293A1.77,1.77,0,0,0,24,7.281a2.269,2.269,0,0,0-.073.605V8.961h2.158v2.158H23.926V19h-2.8V11.119H19.16V8.961h1.963V7.877A5.871,5.871,0,0,1,21.25,6.6a3.893,3.893,0,0,1,.342-.972,2.275,2.275,0,0,1,.571-.7,3.371,3.371,0,0,1,.742-.469,4.241,4.241,0,0,1,.923-.283,8.1,8.1,0,0,1,1.06-.142Q25.41,4,26.084,4ZM32.314,19.2a6.313,6.313,0,0,1-2.842-.615,4.6,4.6,0,0,1-1.948-1.807,5.384,5.384,0,0,1-.708-2.8,4.911,4.911,0,0,1,1.523-3.809,5.652,5.652,0,0,1,3.975-1.4,5.665,5.665,0,0,1,3.984,1.4,4.911,4.911,0,0,1,1.523,3.809A4.938,4.938,0,0,1,36.3,17.794,5.654,5.654,0,0,1,32.314,19.2Zm-.029-2.236a2.577,2.577,0,0,0,1.987-.82,3.071,3.071,0,0,0,.757-2.168,3.071,3.071,0,0,0-.757-2.168,2.577,2.577,0,0,0-1.987-.82,2.483,2.483,0,0,0-1.929.825,3.1,3.1,0,0,0-.747,2.163,3.1,3.1,0,0,0,.747,2.163A2.483,2.483,0,0,0,32.285,16.959Zm10.322-6.406a3.259,3.259,0,0,1,1.318-1.206,4.023,4.023,0,0,1,1.963-.5v2.51a3.8,3.8,0,0,0-2.4.605,2.643,2.643,0,0,0-.742,2.148V19H39.912V8.961h2.7ZM59.434,8.766a3.836,3.836,0,0,1,2.588.815,2.918,2.918,0,0,1,.947,2.339V19H60.156V12.721a1.677,1.677,0,0,0-.449-1.27,1.573,1.573,0,0,0-1.133-.43,1.814,1.814,0,0,0-1.367.547,2.484,2.484,0,0,0-.527,1.768V19H53.838V12.75a1.721,1.721,0,0,0-.449-1.294,1.6,1.6,0,0,0-1.162-.435,1.757,1.757,0,0,0-1.357.576,2.751,2.751,0,0,0-.527,1.885V19h-2.8V8.961h2.8v1.182a3.414,3.414,0,0,1,2.91-1.377,4.293,4.293,0,0,1,1.89.386,2.572,2.572,0,0,1,1.187,1.118A3.55,3.55,0,0,1,59.434,8.766Zm14.5,7.51a9.392,9.392,0,0,0,.244,2.451V19H71.553l-.225-1.094a3.264,3.264,0,0,1-1.406.967,5.183,5.183,0,0,1-1.816.322,4.776,4.776,0,0,1-.937-.088,3.187,3.187,0,0,1-.845-.3,2.564,2.564,0,0,1-.7-.522,2.291,2.291,0,0,1-.469-.8A3.17,3.17,0,0,1,64.98,16.4a3.02,3.02,0,0,1,.186-1.089,2.552,2.552,0,0,1,.488-.815,2.962,2.962,0,0,1,.791-.6,6.053,6.053,0,0,1,1-.43,11.9,11.9,0,0,1,1.191-.312l1.65-.371a1.82,1.82,0,0,0,.747-.317.633.633,0,0,0,.22-.5A1.036,1.036,0,0,0,70.757,11a2.3,2.3,0,0,0-1.2-.293A1.721,1.721,0,0,0,67.6,12.242l-2.49-.449A3.371,3.371,0,0,1,66.563,9.5a5.783,5.783,0,0,1,3.154-.737q4.219,0,4.219,3.623Zm-4.951,1.016a2.262,2.262,0,0,0,1.738-.728A3.066,3.066,0,0,0,71.4,14.41l-2.383.674a2.816,2.816,0,0,0-1,.41.842.842,0,0,0-.347.723.935.935,0,0,0,.371.8A1.536,1.536,0,0,0,68.984,17.291Zm12,1.895a5.364,5.364,0,0,1-3.877-1.445,4.992,4.992,0,0,1-1.5-3.77,4.981,4.981,0,0,1,1.5-3.77,5.96,5.96,0,0,1,7.134-.469,4.316,4.316,0,0,1,1.68,2.725l-2.6.283a2.226,2.226,0,0,0-.84-1.318,2.554,2.554,0,0,0-1.523-.439,2.3,2.3,0,0,0-1.836.82,3.216,3.216,0,0,0-.7,2.168,3.22,3.22,0,0,0,.7,2.163,2.3,2.3,0,0,0,1.836.825,2.532,2.532,0,0,0,1.519-.439A2.277,2.277,0,0,0,83.32,15.2l2.6.283a4.328,4.328,0,0,1-1.694,2.725A5.327,5.327,0,0,1,80.986,19.186ZM89.355,7.457A1.579,1.579,0,0,1,88.2,6.983a1.555,1.555,0,0,1-.479-1.147A1.536,1.536,0,0,1,88.208,4.7a1.584,1.584,0,0,1,1.147-.474,1.626,1.626,0,0,1,1.611,1.611,1.626,1.626,0,0,1-1.611,1.621ZM87.92,19V8.961h2.832V19ZM97.471,7.594,100.029,4l1.387.977L99.2,7.594Zm.869,11.6A6.313,6.313,0,0,1,95.5,18.58a4.6,4.6,0,0,1-1.948-1.807,5.384,5.384,0,0,1-.708-2.8,4.911,4.911,0,0,1,1.523-3.809,6.368,6.368,0,0,1,7.959,0,4.911,4.911,0,0,1,1.523,3.809,4.938,4.938,0,0,1-1.523,3.823A5.654,5.654,0,0,1,98.34,19.2Zm-.029-2.236a2.577,2.577,0,0,0,1.987-.82,3.071,3.071,0,0,0,.757-2.168A3.071,3.071,0,0,0,100.3,11.8a2.577,2.577,0,0,0-1.987-.82,2.483,2.483,0,0,0-1.929.825,3.1,3.1,0,0,0-.747,2.163,3.1,3.1,0,0,0,.747,2.163A2.483,2.483,0,0,0,98.311,16.959Zm13.555-8.193a3.914,3.914,0,0,1,2.773.9,3.349,3.349,0,0,1,.967,2.573V19h-2.822V12.848a1.749,1.749,0,0,0-.5-1.387,1.9,1.9,0,0,0-1.294-.439,2.643,2.643,0,0,0-.84.127,2.158,2.158,0,0,0-.7.4,1.748,1.748,0,0,0-.5.757,3.5,3.5,0,0,0-.19,1.162V19h-2.812V8.961h2.813v1.113A3.868,3.868,0,0,1,111.865,8.766Zm17.549,0a4.883,4.883,0,0,1,1.875.361,4.692,4.692,0,0,1,1.538,1.016,4.6,4.6,0,0,1,1.04,1.655,6.146,6.146,0,0,1,.381,2.2,6.146,6.146,0,0,1-.381,2.2,4.6,4.6,0,0,1-1.04,1.655,4.692,4.692,0,0,1-1.538,1.016,4.883,4.883,0,0,1-1.875.361,4.356,4.356,0,0,1-1.816-.371,2.846,2.846,0,0,1-1.26-1.055v6.074h-2.812V8.961h2.666l.078,1.348a2.75,2.75,0,0,1,1.255-1.138A4.313,4.313,0,0,1,129.414,8.766Zm-.635,8.135a2.527,2.527,0,0,0,1.9-.786A2.92,2.92,0,0,0,131.436,14a2.92,2.92,0,0,0-.757-2.114,2.688,2.688,0,0,0-3.813.015A2.921,2.921,0,0,0,126.1,14a2.921,2.921,0,0,0,.762,2.1A2.531,2.531,0,0,0,128.779,16.9Zm7.588,2.1V4h2.842V19Zm13.984-2.725a9.391,9.391,0,0,0,.244,2.451V19h-2.627l-.225-1.094a3.264,3.264,0,0,1-1.406.967,5.183,5.183,0,0,1-1.816.322,4.776,4.776,0,0,1-.937-.088,3.187,3.187,0,0,1-.845-.3,2.563,2.563,0,0,1-.7-.522,2.291,2.291,0,0,1-.469-.8A3.17,3.17,0,0,1,141.4,16.4a3.019,3.019,0,0,1,.186-1.089,2.552,2.552,0,0,1,.488-.815,2.962,2.962,0,0,1,.791-.6,6.052,6.052,0,0,1,1-.43,11.9,11.9,0,0,1,1.191-.312l1.65-.371a1.82,1.82,0,0,0,.747-.317.633.633,0,0,0,.22-.5,1.036,1.036,0,0,0-.493-.967,2.3,2.3,0,0,0-1.2-.293,1.721,1.721,0,0,0-1.963,1.533l-2.49-.449a3.371,3.371,0,0,1,1.455-2.29,5.783,5.783,0,0,1,3.154-.737q4.219,0,4.219,3.623ZM145.4,17.291a2.262,2.262,0,0,0,1.738-.728,3.066,3.066,0,0,0,.674-2.153l-2.383.674a2.816,2.816,0,0,0-1,.41.842.842,0,0,0-.347.723.935.935,0,0,0,.371.8A1.536,1.536,0,0,0,145.4,17.291Zm13.613-8.525a3.914,3.914,0,0,1,2.773.9,3.349,3.349,0,0,1,.967,2.573V19h-2.822V12.848a1.749,1.749,0,0,0-.5-1.387,1.9,1.9,0,0,0-1.294-.439,2.643,2.643,0,0,0-.84.127,2.158,2.158,0,0,0-.7.4,1.748,1.748,0,0,0-.5.757,3.5,3.5,0,0,0-.19,1.162V19h-2.812V8.961H155.9v1.113A3.868,3.868,0,0,1,159.014,8.766Z" transform="translate(4437 -661)" fill="#002b45"/>
      <path id="Trazado_24161" data-name="Trazado 24161" d="M11.465,4.889h2.92V19H11L4.746,8.912V19H1.826V4.889h3.35l6.289,10.029ZM22.285,19.2a6.313,6.313,0,0,1-2.842-.615A4.6,4.6,0,0,1,17.5,16.773a5.384,5.384,0,0,1-.708-2.8,4.911,4.911,0,0,1,1.523-3.809,5.652,5.652,0,0,1,3.975-1.4,5.665,5.665,0,0,1,3.984,1.4,4.911,4.911,0,0,1,1.523,3.809,4.938,4.938,0,0,1-1.523,3.823A5.654,5.654,0,0,1,22.285,19.2Zm-.029-2.236a2.577,2.577,0,0,0,1.987-.82A3.071,3.071,0,0,0,25,13.971a3.071,3.071,0,0,0-.757-2.168,2.577,2.577,0,0,0-1.987-.82,2.483,2.483,0,0,0-1.929.825,3.1,3.1,0,0,0-.747,2.163,3.1,3.1,0,0,0,.747,2.163A2.483,2.483,0,0,0,22.256,16.959Zm15.518-6.406a3.259,3.259,0,0,1,1.318-1.206,4.023,4.023,0,0,1,1.963-.5v2.51a3.8,3.8,0,0,0-2.4.605,2.643,2.643,0,0,0-.742,2.148V19H35.078V8.961h2.7ZM52.09,13.834l-.029.674H44.619a2.6,2.6,0,0,0,.8,1.836,2.561,2.561,0,0,0,1.768.635,2.468,2.468,0,0,0,1.323-.347,2.131,2.131,0,0,0,.845-1.011L51.934,16a4.383,4.383,0,0,1-1.758,2.354,5.226,5.226,0,0,1-2.969.84A5.435,5.435,0,0,1,43.3,17.813a5.042,5.042,0,0,1-1.45-3.833A5.072,5.072,0,0,1,43.3,10.147a5.273,5.273,0,0,1,3.818-1.4,5.04,5.04,0,0,1,3.6,1.279A5.019,5.019,0,0,1,52.09,13.834Zm-4.951-3.1A2.222,2.222,0,0,0,44.7,12.672h4.609a2.114,2.114,0,0,0-.693-1.436A2.2,2.2,0,0,0,47.139,10.738ZM58.77,19.186a5.364,5.364,0,0,1-3.877-1.445,4.992,4.992,0,0,1-1.5-3.77,4.981,4.981,0,0,1,1.5-3.77,5.96,5.96,0,0,1,7.134-.469,4.316,4.316,0,0,1,1.68,2.725l-2.6.283a2.225,2.225,0,0,0-.84-1.318,2.554,2.554,0,0,0-1.523-.439,2.3,2.3,0,0,0-1.836.82,3.216,3.216,0,0,0-.7,2.168,3.22,3.22,0,0,0,.7,2.163,2.3,2.3,0,0,0,1.836.825,2.532,2.532,0,0,0,1.519-.439A2.277,2.277,0,0,0,61.1,15.2l2.6.283a4.328,4.328,0,0,1-1.694,2.725A5.327,5.327,0,0,1,58.77,19.186ZM67.139,7.457a1.579,1.579,0,0,1-1.152-.474,1.555,1.555,0,0,1-.479-1.147A1.536,1.536,0,0,1,65.991,4.7a1.584,1.584,0,0,1,1.147-.474A1.626,1.626,0,0,1,68.75,5.836a1.626,1.626,0,0,1-1.611,1.621ZM65.7,19V8.961h2.832V19ZM77.344,8.766a4.857,4.857,0,0,1,1.865.361A4.516,4.516,0,0,1,81.787,11.8a6.106,6.106,0,0,1,.381,2.2,6.106,6.106,0,0,1-.381,2.2,4.516,4.516,0,0,1-2.578,2.676,4.857,4.857,0,0,1-1.865.361,4.336,4.336,0,0,1-1.9-.405,2.808,2.808,0,0,1-1.265-1.138L74.111,19H71.445V4h2.813v6.182a2.8,2.8,0,0,1,1.255-1.045A4.414,4.414,0,0,1,77.344,8.766ZM76.689,16.9a2.53,2.53,0,0,0,1.909-.791A2.924,2.924,0,0,0,79.355,14a2.937,2.937,0,0,0-.757-2.119,2.53,2.53,0,0,0-1.909-.791,2.5,2.5,0,0,0-1.895.806,2.938,2.938,0,0,0-.762,2.1,2.932,2.932,0,0,0,.757,2.1A2.5,2.5,0,0,0,76.689,16.9ZM93.73,13.834l-.029.674H86.26a2.6,2.6,0,0,0,.8,1.836,2.561,2.561,0,0,0,1.768.635,2.468,2.468,0,0,0,1.323-.347A2.131,2.131,0,0,0,91,15.621L93.574,16a4.383,4.383,0,0,1-1.758,2.354,5.226,5.226,0,0,1-2.969.84,5.435,5.435,0,0,1-3.911-1.382,5.042,5.042,0,0,1-1.45-3.833,5.072,5.072,0,0,1,1.455-3.833,5.273,5.273,0,0,1,3.818-1.4,5.04,5.04,0,0,1,3.6,1.279A5.019,5.019,0,0,1,93.73,13.834Zm-4.951-3.1a2.222,2.222,0,0,0-2.441,1.934h4.609a2.114,2.114,0,0,0-.693-1.436A2.2,2.2,0,0,0,88.779,10.738Zm17.949-4.492h-.059q-.273,0-.415,0t-.4.034a1.621,1.621,0,0,0-.405.088,2.065,2.065,0,0,0-.337.181.9.9,0,0,0-.293.293,1.77,1.77,0,0,0-.176.435,2.269,2.269,0,0,0-.073.605V8.961h2.158v2.158H104.57V19h-2.8V11.119H99.8V8.961h1.963V7.877a5.871,5.871,0,0,1,.127-1.279,3.893,3.893,0,0,1,.342-.972,2.275,2.275,0,0,1,.571-.7,3.371,3.371,0,0,1,.742-.469,4.241,4.241,0,0,1,.923-.283,8.1,8.1,0,0,1,1.06-.142q.522-.034,1.2-.034Zm9.785,10.029a9.392,9.392,0,0,0,.244,2.451V19h-2.627l-.225-1.094a3.264,3.264,0,0,1-1.406.967,5.183,5.183,0,0,1-1.816.322,4.776,4.776,0,0,1-.937-.088,3.187,3.187,0,0,1-.845-.3,2.564,2.564,0,0,1-.7-.522,2.291,2.291,0,0,1-.469-.8,3.17,3.17,0,0,1-.176-1.089,3.02,3.02,0,0,1,.186-1.089,2.552,2.552,0,0,1,.488-.815,2.962,2.962,0,0,1,.791-.6,6.053,6.053,0,0,1,1-.43,11.9,11.9,0,0,1,1.191-.312l1.65-.371a1.82,1.82,0,0,0,.747-.317.633.633,0,0,0,.22-.5,1.036,1.036,0,0,0-.493-.967,2.3,2.3,0,0,0-1.2-.293,1.721,1.721,0,0,0-1.963,1.533l-2.49-.449a3.371,3.371,0,0,1,1.455-2.29,5.783,5.783,0,0,1,3.154-.737q4.219,0,4.219,3.623Zm-4.951,1.016a2.262,2.262,0,0,0,1.738-.728,3.066,3.066,0,0,0,.674-2.153l-2.383.674a2.816,2.816,0,0,0-1,.41.842.842,0,0,0-.347.723.935.935,0,0,0,.371.8A1.536,1.536,0,0,0,111.563,17.291Zm12,1.895a5.364,5.364,0,0,1-3.877-1.445,4.992,4.992,0,0,1-1.5-3.77,4.981,4.981,0,0,1,1.5-3.77,5.96,5.96,0,0,1,7.134-.469,4.316,4.316,0,0,1,1.68,2.725l-2.6.283a2.226,2.226,0,0,0-.84-1.318,2.554,2.554,0,0,0-1.523-.439,2.3,2.3,0,0,0-1.836.82,3.216,3.216,0,0,0-.7,2.168,3.22,3.22,0,0,0,.7,2.163,2.3,2.3,0,0,0,1.836.825,2.532,2.532,0,0,0,1.519-.439A2.277,2.277,0,0,0,125.9,15.2l2.6.283a4.328,4.328,0,0,1-1.694,2.725A5.327,5.327,0,0,1,123.564,19.186ZM134.238,19a3.032,3.032,0,0,1-2.266-.815,3.171,3.171,0,0,1-.8-2.319V11.119H129.2V8.961h.635a1.656,1.656,0,0,0,1.25-.42,2.162,2.162,0,0,0,.4-1.494V5.719h2.539V8.961h2.07v2.158h-2.07v4.443q0,1.3,1.162,1.3h.908V19ZM144.922,8.961h2.813V19h-2.666L145,17.789a3.834,3.834,0,0,1-3.193,1.406,3.914,3.914,0,0,1-2.773-.9,3.349,3.349,0,0,1-.967-2.573V8.961h2.822v6.152a1.735,1.735,0,0,0,.5,1.377,1.909,1.909,0,0,0,1.3.439,2.264,2.264,0,0,0,1.6-.571,2.454,2.454,0,0,0,.63-1.86Zm8.418,1.592a3.259,3.259,0,0,1,1.318-1.206,4.023,4.023,0,0,1,1.963-.5v2.51a3.8,3.8,0,0,0-2.4.605,2.643,2.643,0,0,0-.742,2.148V19h-2.832V8.961h2.7Zm13.105,5.723a9.391,9.391,0,0,0,.244,2.451V19h-2.627l-.225-1.094a3.264,3.264,0,0,1-1.406.967,5.183,5.183,0,0,1-1.816.322,4.776,4.776,0,0,1-.937-.088,3.187,3.187,0,0,1-.845-.3,2.563,2.563,0,0,1-.7-.522,2.291,2.291,0,0,1-.469-.8,3.17,3.17,0,0,1-.176-1.089,3.019,3.019,0,0,1,.186-1.089,2.552,2.552,0,0,1,.488-.815,2.962,2.962,0,0,1,.791-.6,6.052,6.052,0,0,1,1-.43,11.9,11.9,0,0,1,1.191-.312l1.65-.371a1.82,1.82,0,0,0,.747-.317.633.633,0,0,0,.22-.5,1.036,1.036,0,0,0-.493-.967,2.3,2.3,0,0,0-1.2-.293,1.721,1.721,0,0,0-1.963,1.533l-2.49-.449a3.371,3.371,0,0,1,1.455-2.29,5.783,5.783,0,0,1,3.154-.737q4.219,0,4.219,3.623Zm-4.951,1.016a2.262,2.262,0,0,0,1.738-.728,3.066,3.066,0,0,0,.674-2.153l-2.383.674a2.816,2.816,0,0,0-1,.41.842.842,0,0,0-.347.723.935.935,0,0,0,.371.8A1.536,1.536,0,0,0,161.494,17.291Zm21.113-1.016a9.391,9.391,0,0,0,.244,2.451V19h-2.627L180,17.906a3.264,3.264,0,0,1-1.406.967,5.183,5.183,0,0,1-1.816.322,4.776,4.776,0,0,1-.937-.088,3.187,3.187,0,0,1-.845-.3,2.563,2.563,0,0,1-.7-.522,2.291,2.291,0,0,1-.469-.8,3.17,3.17,0,0,1-.176-1.089,3.019,3.019,0,0,1,.186-1.089,2.552,2.552,0,0,1,.488-.815,2.962,2.962,0,0,1,.791-.6,6.052,6.052,0,0,1,1-.43,11.9,11.9,0,0,1,1.191-.312l1.65-.371a1.82,1.82,0,0,0,.747-.317.633.633,0,0,0,.22-.5,1.036,1.036,0,0,0-.493-.967,2.3,2.3,0,0,0-1.2-.293,1.721,1.721,0,0,0-1.963,1.533l-2.49-.449a3.371,3.371,0,0,1,1.455-2.29,5.783,5.783,0,0,1,3.154-.737q4.219,0,4.219,3.623Zm-4.951,1.016a2.262,2.262,0,0,0,1.738-.728,3.066,3.066,0,0,0,.674-2.153l-2.383.674a2.816,2.816,0,0,0-1,.41.842.842,0,0,0-.347.723.935.935,0,0,0,.371.8A1.536,1.536,0,0,0,177.656,17.291Zm16.416,1.9a5.61,5.61,0,0,1-2.93-.7,2.972,2.972,0,0,1-1.436-2.09l2.354-.664a1.891,1.891,0,0,0,2.012,1.494A2.078,2.078,0,0,0,195.1,17a.8.8,0,0,0,.4-.776.821.821,0,0,0-.166-.518,1.315,1.315,0,0,0-.513-.371,6.388,6.388,0,0,0-.684-.264q-.337-.107-.894-.259t-.928-.288a6.215,6.215,0,0,1-.884-.376,3.769,3.769,0,0,1-.732-.518,2.086,2.086,0,0,1-.547-.786,2.836,2.836,0,0,1-.19-1.074,2.565,2.565,0,0,1,1.089-2.246,4.865,4.865,0,0,1,2.847-.762,4.988,4.988,0,0,1,2.627.645,2.917,2.917,0,0,1,1.348,2.012l-2.178.488a1.706,1.706,0,0,0-1.787-1.27,1.957,1.957,0,0,0-.986.225.722.722,0,0,0-.391.664.761.761,0,0,0,.059.3.6.6,0,0,0,.205.244,2.992,2.992,0,0,0,.283.186,2.136,2.136,0,0,0,.4.161q.264.083.439.127l.513.132.522.137q.537.146.942.293a5.519,5.519,0,0,1,.864.41,3.1,3.1,0,0,1,.757.591,2.635,2.635,0,0,1,.493.83,3.066,3.066,0,0,1,.2,1.118,3.02,3.02,0,0,1-.337,1.455,2.529,2.529,0,0,1-.923.981,4.492,4.492,0,0,1-1.3.527A6.763,6.763,0,0,1,194.072,19.2Zm12.8-10.234h2.813V19h-2.666l-.068-1.211A3.834,3.834,0,0,1,203.76,19.2a3.914,3.914,0,0,1-2.773-.9,3.349,3.349,0,0,1-.967-2.573V8.961h2.822v6.152a1.735,1.735,0,0,0,.5,1.377,1.909,1.909,0,0,0,1.3.439,2.264,2.264,0,0,0,1.6-.571,2.454,2.454,0,0,0,.63-1.86ZM224.912,4h2.813V19h-2.666l-.068-1.309a2.867,2.867,0,0,1-1.274,1.138,4.29,4.29,0,0,1-1.88.405,4.883,4.883,0,0,1-1.875-.361,4.516,4.516,0,0,1-2.578-2.676A6.106,6.106,0,0,1,217,14a5.708,5.708,0,0,1,.664-2.8,4.55,4.55,0,0,1,1.753-1.821,4.827,4.827,0,0,1,2.417-.615,4.4,4.4,0,0,1,1.821.366,2.843,2.843,0,0,1,1.255,1.04ZM222.48,16.9a2.5,2.5,0,0,0,1.9-.8,2.932,2.932,0,0,0,.757-2.1,2.938,2.938,0,0,0-.762-2.1,2.5,2.5,0,0,0-1.895-.806,2.53,2.53,0,0,0-1.909.791A2.937,2.937,0,0,0,219.814,14a2.924,2.924,0,0,0,.757,2.109A2.53,2.53,0,0,0,222.48,16.9ZM235.313,19.2a6.313,6.313,0,0,1-2.842-.615,4.6,4.6,0,0,1-1.948-1.807,5.384,5.384,0,0,1-.708-2.8,4.911,4.911,0,0,1,1.523-3.809,6.368,6.368,0,0,1,7.959,0,4.911,4.911,0,0,1,1.523,3.809,4.938,4.938,0,0,1-1.523,3.823A5.654,5.654,0,0,1,235.313,19.2Zm-.029-2.236a2.577,2.577,0,0,0,1.987-.82,3.071,3.071,0,0,0,.757-2.168,3.071,3.071,0,0,0-.757-2.168,2.577,2.577,0,0,0-1.987-.82,2.483,2.483,0,0,0-1.929.825,3.1,3.1,0,0,0-.747,2.163,3.1,3.1,0,0,0,.747,2.163A2.483,2.483,0,0,0,235.283,16.959ZM254.8,8.766a3.836,3.836,0,0,1,2.588.815,2.918,2.918,0,0,1,.947,2.339V19h-2.812V12.721a1.677,1.677,0,0,0-.449-1.27,1.573,1.573,0,0,0-1.133-.43,1.814,1.814,0,0,0-1.367.547,2.484,2.484,0,0,0-.527,1.768V19h-2.842V12.75a1.721,1.721,0,0,0-.449-1.294,1.6,1.6,0,0,0-1.162-.435,1.757,1.757,0,0,0-1.357.576,2.751,2.751,0,0,0-.527,1.885V19h-2.8V8.961h2.8v1.182a3.414,3.414,0,0,1,2.91-1.377,4.293,4.293,0,0,1,1.89.386A2.572,2.572,0,0,1,251.7,10.27,3.55,3.55,0,0,1,254.8,8.766Zm7.705-1.309a1.579,1.579,0,0,1-1.152-.474,1.555,1.555,0,0,1-.479-1.147,1.536,1.536,0,0,1,.483-1.138,1.584,1.584,0,0,1,1.147-.474,1.626,1.626,0,0,1,1.611,1.611,1.626,1.626,0,0,1-1.611,1.621ZM261.074,19V8.961h2.832V19Zm10.283.186a5.364,5.364,0,0,1-3.877-1.445,4.992,4.992,0,0,1-1.5-3.77,4.981,4.981,0,0,1,1.5-3.77,5.96,5.96,0,0,1,7.134-.469,4.316,4.316,0,0,1,1.68,2.725l-2.6.283a2.226,2.226,0,0,0-.84-1.318,2.554,2.554,0,0,0-1.523-.439,2.3,2.3,0,0,0-1.836.82,3.216,3.216,0,0,0-.7,2.168,3.22,3.22,0,0,0,.7,2.163,2.3,2.3,0,0,0,1.836.825,2.531,2.531,0,0,0,1.519-.439,2.277,2.277,0,0,0,.845-1.318l2.6.283a4.328,4.328,0,0,1-1.694,2.725A5.327,5.327,0,0,1,271.357,19.186Zm8.369-11.729a1.579,1.579,0,0,1-1.152-.474,1.555,1.555,0,0,1-.479-1.147,1.536,1.536,0,0,1,.483-1.138,1.584,1.584,0,0,1,1.147-.474,1.626,1.626,0,0,1,1.611,1.611,1.626,1.626,0,0,1-1.611,1.621ZM278.291,19V8.961h2.832V19Zm5.742,0V4h2.842V19Zm7.188-11.543a1.579,1.579,0,0,1-1.152-.474,1.555,1.555,0,0,1-.479-1.147,1.536,1.536,0,0,1,.483-1.138,1.584,1.584,0,0,1,1.147-.474,1.626,1.626,0,0,1,1.611,1.611,1.626,1.626,0,0,1-1.611,1.621ZM289.785,19V8.961h2.832V19Zm10.42.2a6.313,6.313,0,0,1-2.842-.615,4.6,4.6,0,0,1-1.948-1.807,5.384,5.384,0,0,1-.708-2.8,4.911,4.911,0,0,1,1.523-3.809,6.368,6.368,0,0,1,7.959,0,4.911,4.911,0,0,1,1.523,3.809,4.938,4.938,0,0,1-1.523,3.823A5.654,5.654,0,0,1,300.205,19.2Zm-.029-2.236a2.577,2.577,0,0,0,1.987-.82,3.071,3.071,0,0,0,.757-2.168,3.071,3.071,0,0,0-.757-2.168,2.577,2.577,0,0,0-1.987-.82,2.483,2.483,0,0,0-1.929.825,3.1,3.1,0,0,0-.747,2.163,3.1,3.1,0,0,0,.747,2.163A2.483,2.483,0,0,0,300.176,16.959Z" transform="translate(4437 -587)" fill="#002b45"/>
      <path id="Trazado_24162" data-name="Trazado 24162" d="M48.73,19.2a7.877,7.877,0,0,1-2.876-.518,6.763,6.763,0,0,1-2.29-1.445,6.515,6.515,0,0,1-1.5-2.295,8,8,0,0,1-.547-3,7.644,7.644,0,0,1,.938-3.833,6.382,6.382,0,0,1,2.573-2.534,7.705,7.705,0,0,1,3.706-.879,7.488,7.488,0,0,1,4.141,1.143A6.255,6.255,0,0,1,55.4,8.98l-2.734,1a3.866,3.866,0,0,0-1.514-1.9,4.323,4.323,0,0,0-2.422-.684,4.145,4.145,0,0,0-3.086,1.23,4.528,4.528,0,0,0-1.211,3.32,4.534,4.534,0,0,0,1.216,3.325A4.14,4.14,0,0,0,48.73,16.5a4.307,4.307,0,0,0,2.417-.688A3.883,3.883,0,0,0,52.666,13.9l2.734,1a6.28,6.28,0,0,1-2.529,3.149A7.464,7.464,0,0,1,48.73,19.2Zm16.934-2.92a9.392,9.392,0,0,0,.244,2.451V19H63.281l-.225-1.094a3.264,3.264,0,0,1-1.406.967,5.183,5.183,0,0,1-1.816.322,4.776,4.776,0,0,1-.937-.088,3.187,3.187,0,0,1-.845-.3,2.563,2.563,0,0,1-.7-.522,2.291,2.291,0,0,1-.469-.8,3.17,3.17,0,0,1-.176-1.089,3.02,3.02,0,0,1,.186-1.089,2.552,2.552,0,0,1,.488-.815,2.962,2.962,0,0,1,.791-.6,6.052,6.052,0,0,1,1-.43,11.9,11.9,0,0,1,1.191-.312l1.65-.371a1.82,1.82,0,0,0,.747-.317.633.633,0,0,0,.22-.5A1.036,1.036,0,0,0,62.485,11a2.3,2.3,0,0,0-1.2-.293,1.721,1.721,0,0,0-1.963,1.533l-2.49-.449A3.371,3.371,0,0,1,58.291,9.5a5.783,5.783,0,0,1,3.154-.737q4.219,0,4.219,3.623Zm-4.951,1.016a2.262,2.262,0,0,0,1.738-.728,3.066,3.066,0,0,0,.674-2.153l-2.383.674a2.816,2.816,0,0,0-1,.41.842.842,0,0,0-.347.723.935.935,0,0,0,.371.8A1.536,1.536,0,0,0,60.713,17.291ZM74.326,8.766a3.914,3.914,0,0,1,2.773.9,3.349,3.349,0,0,1,.967,2.573V19H75.244V12.848a1.749,1.749,0,0,0-.5-1.387,1.9,1.9,0,0,0-1.294-.439,2.643,2.643,0,0,0-.84.127,2.158,2.158,0,0,0-.7.4,1.748,1.748,0,0,0-.5.757,3.5,3.5,0,0,0-.19,1.162V19H68.4V8.961h2.813v1.113A3.868,3.868,0,0,1,74.326,8.766ZM84.531,19a3.032,3.032,0,0,1-2.266-.815,3.172,3.172,0,0,1-.8-2.319V11.119H79.492V8.961h.635a1.656,1.656,0,0,0,1.25-.42,2.162,2.162,0,0,0,.4-1.494V5.719h2.539V8.961h2.07v2.158h-2.07v4.443q0,1.3,1.162,1.3h.908V19ZM90,7.457a1.579,1.579,0,0,1-1.152-.474,1.555,1.555,0,0,1-.479-1.147A1.536,1.536,0,0,1,88.853,4.7,1.584,1.584,0,0,1,90,4.225a1.626,1.626,0,0,1,1.611,1.611A1.626,1.626,0,0,1,90,7.457ZM88.564,19V8.961H91.4V19ZM101.426,4h2.813V19h-2.666l-.068-1.309a2.867,2.867,0,0,1-1.274,1.138,4.29,4.29,0,0,1-1.88.405,4.883,4.883,0,0,1-1.875-.361A4.516,4.516,0,0,1,93.9,16.2a6.106,6.106,0,0,1-.381-2.2,5.707,5.707,0,0,1,.664-2.8,4.55,4.55,0,0,1,1.753-1.821,4.827,4.827,0,0,1,2.417-.615,4.4,4.4,0,0,1,1.821.366,2.843,2.843,0,0,1,1.255,1.04ZM98.994,16.9a2.5,2.5,0,0,0,1.9-.8,2.932,2.932,0,0,0,.757-2.1,2.938,2.938,0,0,0-.762-2.1,2.5,2.5,0,0,0-1.895-.806,2.53,2.53,0,0,0-1.909.791A2.937,2.937,0,0,0,96.328,14a2.924,2.924,0,0,0,.757,2.109A2.53,2.53,0,0,0,98.994,16.9Zm16.387-.625a9.392,9.392,0,0,0,.244,2.451V19H113l-.225-1.094a3.264,3.264,0,0,1-1.406.967,5.183,5.183,0,0,1-1.816.322,4.776,4.776,0,0,1-.937-.088,3.187,3.187,0,0,1-.845-.3,2.564,2.564,0,0,1-.7-.522,2.291,2.291,0,0,1-.469-.8,3.17,3.17,0,0,1-.176-1.089,3.02,3.02,0,0,1,.186-1.089,2.552,2.552,0,0,1,.488-.815,2.962,2.962,0,0,1,.791-.6,6.053,6.053,0,0,1,1-.43,11.9,11.9,0,0,1,1.191-.312l1.65-.371a1.82,1.82,0,0,0,.747-.317.633.633,0,0,0,.22-.5A1.036,1.036,0,0,0,112.2,11a2.3,2.3,0,0,0-1.2-.293,1.721,1.721,0,0,0-1.963,1.533l-2.49-.449a3.371,3.371,0,0,1,1.455-2.29,5.783,5.783,0,0,1,3.154-.737q4.219,0,4.219,3.623Zm-4.951,1.016a2.262,2.262,0,0,0,1.738-.728,3.066,3.066,0,0,0,.674-2.153l-2.383.674a2.816,2.816,0,0,0-1,.41.842.842,0,0,0-.347.723.935.935,0,0,0,.371.8A1.536,1.536,0,0,0,110.43,17.291ZM125.01,4h2.813V19h-2.666l-.068-1.309a2.867,2.867,0,0,1-1.274,1.138,4.29,4.29,0,0,1-1.88.405,4.883,4.883,0,0,1-1.875-.361A4.516,4.516,0,0,1,117.48,16.2,6.106,6.106,0,0,1,117.1,14a5.707,5.707,0,0,1,.664-2.8,4.55,4.55,0,0,1,1.753-1.821,4.827,4.827,0,0,1,2.417-.615,4.4,4.4,0,0,1,1.821.366,2.843,2.843,0,0,1,1.255,1.04Zm-2.432,12.9a2.5,2.5,0,0,0,1.9-.8,2.932,2.932,0,0,0,.757-2.1,2.938,2.938,0,0,0-.762-2.1,2.5,2.5,0,0,0-1.895-.806,2.53,2.53,0,0,0-1.909.791A2.937,2.937,0,0,0,119.912,14a2.924,2.924,0,0,0,.757,2.109A2.53,2.53,0,0,0,122.578,16.9Zm13.35,2.1V4h2.842V19Zm5.752,0V4h2.842V19Zm13.984-2.725a9.391,9.391,0,0,0,.244,2.451V19h-2.627l-.225-1.094a3.264,3.264,0,0,1-1.406.967,5.183,5.183,0,0,1-1.816.322,4.776,4.776,0,0,1-.937-.088,3.187,3.187,0,0,1-.845-.3,2.563,2.563,0,0,1-.7-.522,2.291,2.291,0,0,1-.469-.8,3.17,3.17,0,0,1-.176-1.089,3.019,3.019,0,0,1,.186-1.089,2.552,2.552,0,0,1,.488-.815,2.962,2.962,0,0,1,.791-.6,6.052,6.052,0,0,1,1-.43,11.9,11.9,0,0,1,1.191-.312l1.65-.371a1.82,1.82,0,0,0,.747-.317.633.633,0,0,0,.22-.5,1.036,1.036,0,0,0-.493-.967,2.3,2.3,0,0,0-1.2-.293,1.721,1.721,0,0,0-1.963,1.533l-2.49-.449a3.371,3.371,0,0,1,1.455-2.29,5.783,5.783,0,0,1,3.154-.737q4.219,0,4.219,3.623Zm-4.951,1.016a2.262,2.262,0,0,0,1.738-.728,3.066,3.066,0,0,0,.674-2.153l-2.383.674a2.816,2.816,0,0,0-1,.41.842.842,0,0,0-.347.723.935.935,0,0,0,.371.8A1.536,1.536,0,0,0,150.713,17.291Zm19.58-8.525a3.836,3.836,0,0,1,2.588.815,2.918,2.918,0,0,1,.947,2.339V19h-2.812V12.721a1.677,1.677,0,0,0-.449-1.27,1.573,1.573,0,0,0-1.133-.43,1.814,1.814,0,0,0-1.367.547,2.484,2.484,0,0,0-.527,1.768V19H164.7V12.75a1.721,1.721,0,0,0-.449-1.294,1.6,1.6,0,0,0-1.162-.435,1.757,1.757,0,0,0-1.357.576,2.751,2.751,0,0,0-.527,1.885V19h-2.8V8.961h2.8v1.182a3.414,3.414,0,0,1,2.91-1.377,4.293,4.293,0,0,1,1.89.386,2.572,2.572,0,0,1,1.187,1.118A3.55,3.55,0,0,1,170.293,8.766Zm14.5,7.51a9.391,9.391,0,0,0,.244,2.451V19h-2.627l-.225-1.094a3.264,3.264,0,0,1-1.406.967,5.183,5.183,0,0,1-1.816.322,4.776,4.776,0,0,1-.937-.088,3.187,3.187,0,0,1-.845-.3,2.563,2.563,0,0,1-.7-.522,2.291,2.291,0,0,1-.469-.8,3.17,3.17,0,0,1-.176-1.089,3.019,3.019,0,0,1,.186-1.089,2.552,2.552,0,0,1,.488-.815,2.962,2.962,0,0,1,.791-.6,6.052,6.052,0,0,1,1-.43,11.9,11.9,0,0,1,1.191-.312l1.65-.371a1.82,1.82,0,0,0,.747-.317.633.633,0,0,0,.22-.5,1.036,1.036,0,0,0-.493-.967,2.3,2.3,0,0,0-1.2-.293,1.721,1.721,0,0,0-1.963,1.533l-2.49-.449a3.371,3.371,0,0,1,1.455-2.29,5.783,5.783,0,0,1,3.154-.737q4.219,0,4.219,3.623Zm-4.951,1.016a2.262,2.262,0,0,0,1.738-.728,3.066,3.066,0,0,0,.674-2.153l-2.383.674a2.816,2.816,0,0,0-1,.41.842.842,0,0,0-.347.723.935.935,0,0,0,.371.8A1.536,1.536,0,0,0,179.844,17.291ZM194.424,4h2.813V19H194.57l-.068-1.309a2.867,2.867,0,0,1-1.274,1.138,4.29,4.29,0,0,1-1.88.405,4.883,4.883,0,0,1-1.875-.361,4.516,4.516,0,0,1-2.578-2.676,6.106,6.106,0,0,1-.381-2.2,5.708,5.708,0,0,1,.664-2.8,4.55,4.55,0,0,1,1.753-1.821,4.827,4.827,0,0,1,2.417-.615,4.4,4.4,0,0,1,1.821.366,2.843,2.843,0,0,1,1.255,1.04Zm-2.432,12.9a2.5,2.5,0,0,0,1.9-.8,2.932,2.932,0,0,0,.757-2.1,2.938,2.938,0,0,0-.762-2.1,2.5,2.5,0,0,0-1.895-.806,2.53,2.53,0,0,0-1.909.791A2.937,2.937,0,0,0,189.326,14a2.924,2.924,0,0,0,.757,2.109A2.53,2.53,0,0,0,191.992,16.9Zm16.387-.625a9.391,9.391,0,0,0,.244,2.451V19H206l-.225-1.094a3.264,3.264,0,0,1-1.406.967,5.183,5.183,0,0,1-1.816.322,4.776,4.776,0,0,1-.937-.088,3.187,3.187,0,0,1-.845-.3,2.563,2.563,0,0,1-.7-.522,2.291,2.291,0,0,1-.469-.8,3.17,3.17,0,0,1-.176-1.089,3.019,3.019,0,0,1,.186-1.089,2.552,2.552,0,0,1,.488-.815,2.962,2.962,0,0,1,.791-.6,6.052,6.052,0,0,1,1-.43,11.9,11.9,0,0,1,1.191-.312l1.65-.371a1.82,1.82,0,0,0,.747-.317.633.633,0,0,0,.22-.5A1.036,1.036,0,0,0,205.2,11a2.3,2.3,0,0,0-1.2-.293,1.721,1.721,0,0,0-1.963,1.533l-2.49-.449a3.371,3.371,0,0,1,1.455-2.29,5.783,5.783,0,0,1,3.154-.737q4.219,0,4.219,3.623Zm-4.951,1.016a2.262,2.262,0,0,0,1.738-.728,3.066,3.066,0,0,0,.674-2.153l-2.383.674a2.816,2.816,0,0,0-1,.41.842.842,0,0,0-.347.723.935.935,0,0,0,.371.8A1.536,1.536,0,0,0,203.428,17.291Zm11.221,1.9a5.61,5.61,0,0,1-2.93-.7,2.972,2.972,0,0,1-1.436-2.09l2.354-.664a1.891,1.891,0,0,0,2.012,1.494A2.078,2.078,0,0,0,215.674,17a.8.8,0,0,0,.4-.776.821.821,0,0,0-.166-.518,1.315,1.315,0,0,0-.513-.371,6.388,6.388,0,0,0-.684-.264q-.337-.107-.894-.259t-.928-.288a6.215,6.215,0,0,1-.884-.376,3.769,3.769,0,0,1-.732-.518,2.086,2.086,0,0,1-.547-.786,2.836,2.836,0,0,1-.19-1.074,2.565,2.565,0,0,1,1.089-2.246,4.865,4.865,0,0,1,2.847-.762,4.988,4.988,0,0,1,2.627.645,2.917,2.917,0,0,1,1.348,2.012l-2.178.488a1.706,1.706,0,0,0-1.787-1.27,1.957,1.957,0,0,0-.986.225.722.722,0,0,0-.391.664.761.761,0,0,0,.059.3.6.6,0,0,0,.205.244,2.992,2.992,0,0,0,.283.186,2.136,2.136,0,0,0,.4.161q.264.083.439.127l.513.132.522.137q.537.146.942.293a5.519,5.519,0,0,1,.864.41,3.1,3.1,0,0,1,.757.591,2.635,2.635,0,0,1,.493.83,3.066,3.066,0,0,1,.2,1.118,3.02,3.02,0,0,1-.337,1.455,2.529,2.529,0,0,1-.923.981,4.492,4.492,0,0,1-1.3.527A6.763,6.763,0,0,1,214.648,19.2Z" transform="translate(4860 -883)" fill="#002b45"/>
      <path id="Trazado_24163" data-name="Trazado 24163" d="M117,16.49h6.016V19h-9.951V16.881l5.615-5.732A3.534,3.534,0,0,0,119.9,8.717a1.72,1.72,0,0,0-.5-1.309,1.98,1.98,0,0,0-1.421-.479q-2,0-2,2.275V10.25l-2.8-.283v-.7a4.4,4.4,0,0,1,1.289-3.394,4.937,4.937,0,0,1,3.5-1.2,5.172,5.172,0,0,1,3.4,1.084,3.653,3.653,0,0,1,1.313,2.979,4.224,4.224,0,0,1-.444,1.934,8.082,8.082,0,0,1-1.411,1.885ZM130.015,19.2a4.4,4.4,0,0,1-3.794-1.826,9.225,9.225,0,0,1-1.323-5.43,9.224,9.224,0,0,1,1.318-5.43,4.87,4.87,0,0,1,7.588,0,9.224,9.224,0,0,1,1.318,5.43,9.225,9.225,0,0,1-1.323,5.43A4.391,4.391,0,0,1,130.015,19.2Zm0-2.539a1.855,1.855,0,0,0,1.694-1.157,8.057,8.057,0,0,0,.6-3.56,8,8,0,0,0-.605-3.56,1.859,1.859,0,0,0-1.689-1.157q-2.3,0-2.3,4.717T130.015,16.656ZM141.958,19.2a4.4,4.4,0,0,1-3.794-1.826,9.225,9.225,0,0,1-1.323-5.43,9.224,9.224,0,0,1,1.318-5.43,4.87,4.87,0,0,1,7.588,0,9.224,9.224,0,0,1,1.318,5.43,9.225,9.225,0,0,1-1.323,5.43A4.391,4.391,0,0,1,141.958,19.2Zm0-2.539a1.855,1.855,0,0,0,1.694-1.157,8.057,8.057,0,0,0,.6-3.56,8,8,0,0,0-.605-3.56,1.859,1.859,0,0,0-1.689-1.157q-2.3,0-2.3,4.717T141.958,16.656Z" transform="translate(4860 -809)" fill="#002b45"/>
      <path id="Trazado_24164" data-name="Trazado 24164" d="M123.75,9.85q5.42,0,5.42,4.453a4.757,4.757,0,0,1-1.367,3.569,4.941,4.941,0,0,1-3.6,1.333,5.978,5.978,0,0,1-2.524-.522,4.356,4.356,0,0,1-1.831-1.553,4.158,4.158,0,0,1-.693-2.378,4.39,4.39,0,0,1,.059-.7L122,13.922a4.128,4.128,0,0,0-.068.625,1.9,1.9,0,0,0,.635,1.558,2.392,2.392,0,0,0,1.572.522,2.167,2.167,0,0,0,1.641-.6,2.237,2.237,0,0,0,.576-1.616,2.012,2.012,0,0,0-.7-1.65,3.765,3.765,0,0,0-2.363-.576h-3.7l.586-7.295h8.33V7.4h-5.8L122.52,9.85ZM135.986,19.2a4.4,4.4,0,0,1-3.794-1.826,9.225,9.225,0,0,1-1.323-5.43,9.224,9.224,0,0,1,1.318-5.43,4.87,4.87,0,0,1,7.588,0,9.224,9.224,0,0,1,1.318,5.43,9.225,9.225,0,0,1-1.323,5.43A4.391,4.391,0,0,1,135.986,19.2Zm0-2.539a1.855,1.855,0,0,0,1.694-1.157,8.057,8.057,0,0,0,.6-3.56,8,8,0,0,0-.605-3.56,1.859,1.859,0,0,0-1.689-1.157q-2.3,0-2.3,4.717T135.986,16.656Z" transform="translate(4860 -735)" fill="#002b45"/>
      <path id="Trazado_24165" data-name="Trazado 24165" d="M118.081,19.2a5.647,5.647,0,0,1-3.687-1.182,3.882,3.882,0,0,1-1.45-3.174,3.955,3.955,0,0,1,.591-2.163,4.049,4.049,0,0,1,1.636-1.46,3.575,3.575,0,0,1-1.167-1.2,3.1,3.1,0,0,1-.425-1.6,3.31,3.31,0,0,1,1.26-2.69,4.955,4.955,0,0,1,3.242-1.03,4.874,4.874,0,0,1,3.2,1.03,3.315,3.315,0,0,1,1.255,2.69,3.161,3.161,0,0,1-.41,1.6,3.6,3.6,0,0,1-1.133,1.206,4.029,4.029,0,0,1,1.621,1.46,3.98,3.98,0,0,1,.586,2.163,4.055,4.055,0,0,1-.674,2.319,4.241,4.241,0,0,1-1.831,1.519A6.332,6.332,0,0,1,118.081,19.2Zm0-8.8a1.876,1.876,0,0,0,1.338-.527,1.708,1.708,0,0,0,.557-1.289,1.666,1.666,0,0,0-.557-1.27,2.007,2.007,0,0,0-2.69,0,1.673,1.673,0,0,0-.552,1.27,1.71,1.71,0,0,0,.552,1.294A1.893,1.893,0,0,0,118.081,10.4Zm0,6.279a2.358,2.358,0,0,0,1.65-.6,2.06,2.06,0,0,0,.654-1.6,2,2,0,0,0-.659-1.567,2.374,2.374,0,0,0-1.646-.591,2.4,2.4,0,0,0-1.665.591,2,2,0,0,0-.659,1.567,2.052,2.052,0,0,0,.659,1.6A2.389,2.389,0,0,0,118.081,16.676Zm11.934,2.52a4.4,4.4,0,0,1-3.794-1.826,9.225,9.225,0,0,1-1.323-5.43,9.224,9.224,0,0,1,1.318-5.43,4.87,4.87,0,0,1,7.588,0,9.224,9.224,0,0,1,1.318,5.43,9.225,9.225,0,0,1-1.323,5.43A4.391,4.391,0,0,1,130.015,19.2Zm0-2.539a1.855,1.855,0,0,0,1.694-1.157,8.057,8.057,0,0,0,.6-3.56,8,8,0,0,0-.605-3.56,1.859,1.859,0,0,0-1.689-1.157q-2.3,0-2.3,4.717T130.015,16.656ZM141.958,19.2a4.4,4.4,0,0,1-3.794-1.826,9.225,9.225,0,0,1-1.323-5.43,9.224,9.224,0,0,1,1.318-5.43,4.87,4.87,0,0,1,7.588,0,9.224,9.224,0,0,1,1.318,5.43,9.225,9.225,0,0,1-1.323,5.43A4.391,4.391,0,0,1,141.958,19.2Zm0-2.539a1.855,1.855,0,0,0,1.694-1.157,8.057,8.057,0,0,0,.6-3.56,8,8,0,0,0-.605-3.56,1.859,1.859,0,0,0-1.689-1.157q-2.3,0-2.3,4.717T141.958,16.656Z" transform="translate(4860 -661)" fill="#002b45"/>
      <path id="Trazado_24166" data-name="Trazado 24166" d="M122.969,16.49h6.016V19h-9.951V16.881l5.615-5.732a3.534,3.534,0,0,0,1.221-2.432,1.72,1.72,0,0,0-.5-1.309,1.98,1.98,0,0,0-1.421-.479q-2,0-2,2.275V10.25l-2.8-.283v-.7A4.4,4.4,0,0,1,120.43,5.87a4.937,4.937,0,0,1,3.5-1.2,5.172,5.172,0,0,1,3.4,1.084,3.653,3.653,0,0,1,1.313,2.979,4.224,4.224,0,0,1-.444,1.934,8.082,8.082,0,0,1-1.411,1.885ZM135.986,19.2a4.4,4.4,0,0,1-3.794-1.826,9.225,9.225,0,0,1-1.323-5.43,9.224,9.224,0,0,1,1.318-5.43,4.87,4.87,0,0,1,7.588,0,9.224,9.224,0,0,1,1.318,5.43,9.225,9.225,0,0,1-1.323,5.43A4.391,4.391,0,0,1,135.986,19.2Zm0-2.539a1.855,1.855,0,0,0,1.694-1.157,8.057,8.057,0,0,0,.6-3.56,8,8,0,0,0-.605-3.56,1.859,1.859,0,0,0-1.689-1.157q-2.3,0-2.3,4.717T135.986,16.656Z" transform="translate(4860 -587)" fill="#002b45"/>
      <path id="Trazado_24152" data-name="Trazado 24152" d="M0,0H713.5" transform="translate(4406.5 -907.5)" fill="none" stroke="#4d3189" stroke-width="3"/>
      <path id="Trazado_24155" data-name="Trazado 24155" d="M0,0H713.5" transform="translate(4406.5 -833.5)" fill="none" stroke="#4d3189" stroke-width="3"/>
      <path id="Trazado_24157" data-name="Trazado 24157" d="M0,0H713.5" transform="translate(4406.5 -759.5)" fill="none" stroke="#4d3189" stroke-width="3"/>
      <path id="Trazado_24159" data-name="Trazado 24159" d="M0,0H713.5" transform="translate(4406.5 -685.5)" fill="none" stroke="#4d3189" stroke-width="3"/>
      <path id="Trazado_24167" data-name="Trazado 24167" d="M0,0H713.5" transform="translate(4406.5 -611.5)" fill="none" stroke="#4d3189" stroke-width="3"/>
      <path id="Trazado_24169" data-name="Trazado 24169" d="M0,0H713.5" transform="translate(4406.5 -537.5)" fill="none" stroke="#4d3189" stroke-width="3"/>
      <path id="Trazado_24168" data-name="Trazado 24168" d="M0,0V370" transform="translate(4857.5 -907.5)" fill="none" stroke="#4d3189" stroke-width="3"/>
      <path id="Trazado_24170" data-name="Trazado 24170" d="M0,0V370" transform="translate(5119.5 -907.5)" fill="none" stroke="#4d3189" stroke-width="3"/>
    </g>
  </g>
</svg>
