<svg xmlns="http://www.w3.org/2000/svg" width="737.581" height="288.953" viewBox="0 0 737.581 288.953">
  <g id="Grupo_30200" data-name="Grupo 30200" transform="translate(-4659 4999)">
    <g id="Grupo_30198" data-name="Grupo 30198" transform="translate(4498.914 -5120.325)">
      <rect id="Rectángulo_5119" data-name="Rectángulo 5119" width="42.07" height="16.234" transform="translate(217.75 372.694)" fill="#a5a5a5"/>
      <rect id="Rectángulo_5120" data-name="Rectángulo 5120" width="100.773" height="16.234" transform="translate(268.835 372.713)" fill="#dedede"/>
      <path id="Trazado_24270" data-name="Trazado 24270" d="M248.463,224.066a2.315,2.315,0,0,1,.1.4.277.277,0,0,1-.1.234.5.5,0,0,1-.3.1,3.844,3.844,0,0,1-.562.026c-.243,0-.42,0-.562-.011a1.184,1.184,0,0,1-.317-.066.272.272,0,0,1-.168-.1.449.449,0,0,1-.086-.168l-1.273-3.595-6.144-.006-1.214,3.549a1.208,1.208,0,0,1-.08.183.635.635,0,0,1-.177.117.785.785,0,0,1-.306.071,4.167,4.167,0,0,1-.52.026,2.71,2.71,0,0,1-.542-.037.422.422,0,0,1-.291-.094.313.313,0,0,1-.083-.237,1.692,1.692,0,0,1,.1-.408l4.957-13.731a.876.876,0,0,1,.126-.194.339.339,0,0,1,.214-.123,1.654,1.654,0,0,1,.363-.066c.148-.011.345-.02.565-.023a4.848,4.848,0,0,1,.614.026,1.353,1.353,0,0,1,.38.06.391.391,0,0,1,.226.128.429.429,0,0,1,.126.214ZM242.1,211.951l-.009,0-2.55,7.355,5.148.009Z" transform="translate(140.536 164.35)" fill="#515151"/>
      <path id="Trazado_24271" data-name="Trazado 24271" d="M244.416,215.133a4.839,4.839,0,0,1-.029.662,4.65,4.65,0,0,1-.109.548,3.007,3.007,0,0,1-.226.52,5.074,5.074,0,0,1-.326.548l-1.565,2.356a.425.425,0,0,1-.126.131.54.54,0,0,1-.188.1.591.591,0,0,1-.251.063,1.343,1.343,0,0,1-.357.017,1.924,1.924,0,0,1-.328-.011.407.407,0,0,1-.188-.057.137.137,0,0,1-.06-.111.314.314,0,0,1,.046-.151l1.51-3.149v-1.465a1.76,1.76,0,0,1,.06-.488.583.583,0,0,1,.206-.274.971.971,0,0,1,.351-.126,3.433,3.433,0,0,1,.5-.026,3.5,3.5,0,0,1,.488.026.778.778,0,0,1,.34.131.535.535,0,0,1,.194.274A1.592,1.592,0,0,1,244.416,215.133Z" transform="translate(149.491 172.341)" fill="#515151"/>
      <path id="Trazado_24272" data-name="Trazado 24272" d="M254.82,220.475a4.068,4.068,0,0,1-.174,1.291,4,4,0,0,1-.5,1.051,3.961,3.961,0,0,1-1.787,1.408,5.579,5.579,0,0,1-1.216.371,7.893,7.893,0,0,1-1.473.111h-3.863a.794.794,0,0,1-.5-.177.75.75,0,0,1-.234-.62l.014-13.174a.737.737,0,0,1,.228-.622.79.79,0,0,1,.505-.171h3.358a7.382,7.382,0,0,1,2.159.248,3.618,3.618,0,0,1,1.419.731,2.884,2.884,0,0,1,.845,1.165,4.039,4.039,0,0,1,.28,1.585,3.326,3.326,0,0,1-.131,1,2.739,2.739,0,0,1-.368.894,2.578,2.578,0,0,1-.605.717,3,3,0,0,1-.862.531,3.371,3.371,0,0,1,1.134.42,3.517,3.517,0,0,1,.928.768,3.437,3.437,0,0,1,.622,1.1A3.858,3.858,0,0,1,254.82,220.475Zm-2.067.114a2.9,2.9,0,0,0-.211-1.168,2.17,2.17,0,0,0-.605-.842,2.855,2.855,0,0,0-1.022-.525,5.65,5.65,0,0,0-1.528-.174h-2.347v5.211h2.85a3.932,3.932,0,0,0,1.168-.157,2.516,2.516,0,0,0,.885-.474,2.125,2.125,0,0,0,.594-.785A2.409,2.409,0,0,0,252.753,220.589Zm-.882-6.733a3.13,3.13,0,0,0-.154-.962,1.91,1.91,0,0,0-.457-.742,2.112,2.112,0,0,0-.837-.463,4.848,4.848,0,0,0-1.359-.16l-2.024.006.006,4.785h2.23a3.068,3.068,0,0,0,1.225-.2,2.043,2.043,0,0,0,.777-.542,2.076,2.076,0,0,0,.445-.785A3.162,3.162,0,0,0,251.87,213.857Z" transform="translate(157.674 164.406)" fill="#515151"/>
      <path id="Trazado_24273" data-name="Trazado 24273" d="M252.659,215.139a4.19,4.19,0,0,1-.04.651,4.43,4.43,0,0,1-.108.554,5.662,5.662,0,0,1-.211.528c-.1.166-.2.348-.328.537l-1.559,2.358a.949.949,0,0,1-.137.128.7.7,0,0,1-.177.108.843.843,0,0,1-.26.06,1.7,1.7,0,0,1-.363.017,1.677,1.677,0,0,1-.314-.017.482.482,0,0,1-.2-.054.111.111,0,0,1-.06-.117.265.265,0,0,1,.043-.148l1.513-3.135.009-1.468a1.926,1.926,0,0,1,.06-.494.534.534,0,0,1,.2-.277.922.922,0,0,1,.351-.123,3.168,3.168,0,0,1,.5-.023,2.36,2.36,0,0,1,.491.023.919.919,0,0,1,.328.123.519.519,0,0,1,.2.277A1.5,1.5,0,0,1,252.659,215.139Z" transform="translate(164.775 172.346)" fill="#515151"/>
      <path id="Trazado_24274" data-name="Trazado 24274" d="M263.736,222.744a2.321,2.321,0,0,1-.006.323,1.587,1.587,0,0,1-.037.24.5.5,0,0,1-.08.186.679.679,0,0,1-.151.186,2.576,2.576,0,0,1-.485.351,5.462,5.462,0,0,1-.9.457,7.364,7.364,0,0,1-2.8.534,6.661,6.661,0,0,1-2.587-.483,5.179,5.179,0,0,1-1.976-1.408,6.578,6.578,0,0,1-1.259-2.324,10.455,10.455,0,0,1-.445-3.164,10.3,10.3,0,0,1,.485-3.272,7.151,7.151,0,0,1,1.328-2.444,5.777,5.777,0,0,1,2.05-1.522,6.636,6.636,0,0,1,2.641-.525,6.918,6.918,0,0,1,1.248.114,10.214,10.214,0,0,1,1.114.308,5.942,5.942,0,0,1,.928.42,4.74,4.74,0,0,1,.548.391c.1.109.163.191.206.243a1.256,1.256,0,0,1,.063.191,1.1,1.1,0,0,1,.04.254,2.272,2.272,0,0,1,.029.345c-.006.16-.014.283-.029.394a2.589,2.589,0,0,1-.066.274.637.637,0,0,1-.109.157.3.3,0,0,1-.157.051.866.866,0,0,1-.445-.228c-.188-.146-.445-.305-.742-.488a5.988,5.988,0,0,0-1.1-.488,4.7,4.7,0,0,0-1.565-.226,4.377,4.377,0,0,0-1.793.385,3.835,3.835,0,0,0-1.379,1.171,5.508,5.508,0,0,0-.894,1.87,9.162,9.162,0,0,0-.32,2.518,9.265,9.265,0,0,0,.311,2.476,5.11,5.11,0,0,0,.871,1.8,3.788,3.788,0,0,0,1.391,1.1,4.527,4.527,0,0,0,1.876.371,5.176,5.176,0,0,0,1.542-.217,6.355,6.355,0,0,0,1.131-.488c.311-.171.56-.346.762-.48a.883.883,0,0,1,.468-.214.264.264,0,0,1,.143.031.31.31,0,0,1,.083.134.736.736,0,0,1,.054.257A2.98,2.98,0,0,1,263.736,222.744Z" transform="translate(172.405 164.287)" fill="#515151"/>
      <path id="Trazado_24275" data-name="Trazado 24275" d="M251.928,161.435l93.321,32.073a98.682,98.682,0,0,1-175.923,21.905Z" transform="translate(17.141 74.414)" fill="#64d0da"/>
      <path id="Trazado_24276" data-name="Trazado 24276" d="M280.855,167.354a98.491,98.491,0,0,1,10.721,86.054l-93.321-32.073,35.208-92.187A98.205,98.205,0,0,1,280.855,167.354Z" transform="translate(70.814 14.514)" fill="#662d91"/>
      <path id="Trazado_24277" data-name="Trazado 24277" d="M232.219,220.011l-53.981-82.6a98.563,98.563,0,0,1,89.189-9.588Z" transform="translate(33.675 0)" fill="#316e73"/>
      <path id="Trazado_24278" data-name="Trazado 24278" d="M261.667,219.354l-100.39-51.68a98.234,98.234,0,0,1,35.385-40.716Z" transform="translate(2.209 10.451)" fill="#e34856"/>
      <path id="Trazado_24279" data-name="Trazado 24279" d="M258.774,188.65l-82.6,53.976a98.61,98.61,0,0,1-6.761-95.856Z" transform="translate(0 47.205)" fill="#ffc95c"/>
      <path id="Trazado_24291" data-name="Trazado 24291" d="M0,0H20.663V11.6H0Z" transform="translate(402.04 150.89)" fill="#662d91"/>
      <rect id="Rectángulo_5122" data-name="Rectángulo 5122" width="32.844" height="4.882" transform="translate(437.808 153.723) rotate(-0.095)" fill="#857f85"/>
      <rect id="Rectángulo_5123" data-name="Rectángulo 5123" width="20.663" height="11.597" transform="translate(402.04 189.2)" fill="#64d0da"/>
      <rect id="Rectángulo_5124" data-name="Rectángulo 5124" width="39.032" height="4.882" transform="translate(437.808 192.034) rotate(-0.094)" fill="#857f85"/>
      <rect id="Rectángulo_5125" data-name="Rectángulo 5125" width="20.663" height="11.597" transform="translate(402.04 227.511)" fill="#ffc95c"/>
      <rect id="Rectángulo_5126" data-name="Rectángulo 5126" width="42.848" height="4.882" transform="translate(437.808 230.343) rotate(-0.086)" fill="#857f85"/>
      <rect id="Rectángulo_5127" data-name="Rectángulo 5127" width="20.663" height="11.596" transform="translate(402.04 265.821)" fill="#e34856"/>
      <rect id="Rectángulo_5128" data-name="Rectángulo 5128" width="39.037" height="4.882" transform="translate(437.808 268.654) rotate(-0.094)" fill="#857f85"/>
      <rect id="Rectángulo_5129" data-name="Rectángulo 5129" width="20.663" height="11.597" transform="translate(402.04 304.131)" fill="#316e73"/>
      <rect id="Rectángulo_5130" data-name="Rectángulo 5130" width="29.042" height="4.882" transform="translate(437.807 306.964) rotate(-0.099)" fill="#857f85"/>
      <path id="Trazado_24280" data-name="Trazado 24280" d="M284.984,137.534l-10.964.064v-4.88l10.961-.07Z" transform="translate(211.375 21.008)" fill="#857f85"/>
      <path id="Trazado_24281" data-name="Trazado 24281" d="M284.984,150.951l-10.964.064v-4.88l10.961-.07Z" transform="translate(211.375 45.901)" fill="#857f85"/>
      <path id="Trazado_24282" data-name="Trazado 24282" d="M284.984,164.369l-10.964.064v-4.879l10.961-.07Z" transform="translate(211.375 70.793)" fill="#857f85"/>
      <path id="Trazado_24283" data-name="Trazado 24283" d="M284.984,177.786l-10.964.064v-4.88l10.961-.07Z" transform="translate(211.375 95.686)" fill="#857f85"/>
      <path id="Trazado_24284" data-name="Trazado 24284" d="M284.984,191.2l-10.964.064v-4.88l10.961-.07Z" transform="translate(211.375 120.579)" fill="#857f85"/>
      <rect id="Rectángulo_5131" data-name="Rectángulo 5131" width="20.662" height="11.597" transform="translate(792.347 130.866)" fill="#e34856"/>
      <rect id="Rectángulo_5132" data-name="Rectángulo 5132" width="69.549" height="4.882" transform="translate(828.118 133.667)" fill="#857f85"/>
      <rect id="Rectángulo_5133" data-name="Rectángulo 5133" width="20.662" height="11.597" transform="translate(792.347 163.41)" fill="#ffc95c"/>
      <rect id="Rectángulo_5134" data-name="Rectángulo 5134" width="69.549" height="4.882" transform="translate(828.118 166.211)" fill="#857f85"/>
      <rect id="Rectángulo_5135" data-name="Rectángulo 5135" width="20.662" height="11.597" transform="translate(792.347 195.955)" fill="#662d91"/>
      <rect id="Rectángulo_5136" data-name="Rectángulo 5136" width="69.549" height="4.882" transform="translate(828.118 198.756)" fill="#857f85"/>
      <rect id="Rectángulo_5137" data-name="Rectángulo 5137" width="20.662" height="11.596" transform="translate(792.347 228.501)" fill="#64d0da"/>
      <rect id="Rectángulo_5138" data-name="Rectángulo 5138" width="69.549" height="4.882" transform="translate(828.118 231.301)" fill="#857f85"/>
      <rect id="Rectángulo_5139" data-name="Rectángulo 5139" width="20.662" height="11.597" transform="translate(792.347 261.044)" fill="#34b2e4"/>
      <rect id="Rectángulo_5140" data-name="Rectángulo 5140" width="69.549" height="4.882" transform="translate(828.118 263.845)" fill="#857f85"/>
      <rect id="Rectángulo_5141" data-name="Rectángulo 5141" width="50.073" height="8.464" transform="translate(625.488 386.578)" fill="#a5a5a5"/>
      <rect id="Rectángulo_5142" data-name="Rectángulo 5142" width="174.524" height="8.458" transform="translate(686.296 386.554)" fill="#d9d9d9"/>
      <path id="Trazado_24285" data-name="Trazado 24285" d="M440.717,228.016l-117.634.025.028-8.466,117.609-.022Z" transform="translate(302.399 182.237)" fill="#d9d9d9"/>
      <rect id="Rectángulo_5143" data-name="Rectángulo 5143" width="106.836" height="8.458" transform="translate(753.985 401.777)" fill="#a5a5a5"/>
      <g id="Grupo_30195" data-name="Grupo 30195" transform="translate(547.708 129.086)">
        <g id="Grupo_30190" data-name="Grupo 30190">
          <path id="Trazado_24286" data-name="Trazado 24286" d="M441.524,132.505a104.519,104.519,0,1,0,54.952,137.22A104.516,104.516,0,0,0,441.524,132.505Zm-41.135,173.9a77.82,77.82,0,1,1,77.82-77.82A77.82,77.82,0,0,1,400.388,306.41Z" transform="translate(-295.844 -124.043)" fill="#e34856"/>
        </g>
        <g id="Grupo_30191" data-name="Grupo 30191" transform="translate(135.223 8.462)">
          <path id="Trazado_24287" data-name="Trazado 24287" d="M353.706,127.007l-10.5,24.535a77.875,77.875,0,0,1,40.919,102.181l24.538,10.5A104.519,104.519,0,0,0,353.706,127.007Z" transform="translate(-343.204 -127.007)" fill="#662d91"/>
        </g>
        <g id="Grupo_30192" data-name="Grupo 30192" transform="translate(3.442 124.288)">
          <path id="Trazado_24288" data-name="Trazado 24288" d="M469.7,178.463a77.837,77.837,0,0,1-146.837-10.89l-25.817,6.77a104.525,104.525,0,0,0,197.192,14.625Z" transform="translate(-297.05 -167.573)" fill="#34b2e4"/>
        </g>
        <g id="Grupo_30193" data-name="Grupo 30193" transform="translate(135.178 8.462)">
          <path id="Trazado_24289" data-name="Trazado 24289" d="M389.517,211.525l26.417-3.972a104.459,104.459,0,0,0-62.241-80.546l-10.5,24.535A77.914,77.914,0,0,1,389.517,211.525Z" transform="translate(-343.188 -127.007)" fill="#ffc95c"/>
        </g>
        <g id="Grupo_30194" data-name="Grupo 30194" transform="translate(121.732 135.178)">
          <path id="Trazado_24290" data-name="Trazado 24290" d="M392.843,171.387a77.949,77.949,0,0,1-54.364,45.261l5.9,26.054a104.378,104.378,0,0,0,73-60.811Z" transform="translate(-338.479 -171.387)" fill="#64d0da"/>
        </g>
      </g>
    </g>
  </g>
</svg>
