<svg xmlns="http://www.w3.org/2000/svg" xmlns:xlink="http://www.w3.org/1999/xlink" width="877.542" height="488.272" viewBox="0 0 877.542 488.272">
  <defs>
    <linearGradient id="linear-gradient" y1="0.5" x2="1" y2="0.5" gradientUnits="objectBoundingBox">
      <stop offset="0" stop-color="#0048ad"/>
      <stop offset="1" stop-color="#479fe3"/>
    </linearGradient>
    <linearGradient id="linear-gradient-2" y1="0.5" x2="1" y2="0.5" gradientUnits="objectBoundingBox">
      <stop offset="0" stop-color="#0075cf"/>
      <stop offset="1" stop-color="#40ccff"/>
    </linearGradient>
    <linearGradient id="linear-gradient-3" y1="0.5" x2="1" y2="0.5" gradientUnits="objectBoundingBox">
      <stop offset="0" stop-color="#15afd8"/>
      <stop offset="1" stop-color="#2bfff8"/>
    </linearGradient>
    <linearGradient id="linear-gradient-4" y1="0.5" x2="1" y2="0.5" gradientUnits="objectBoundingBox">
      <stop offset="0" stop-color="#10e0cc"/>
      <stop offset="1" stop-color="#5fe8ba"/>
    </linearGradient>
    <linearGradient id="linear-gradient-5" y1="0.5" x2="1" y2="0.5" gradientUnits="objectBoundingBox">
      <stop offset="0" stop-color="#16c274"/>
      <stop offset="1" stop-color="#61ffc0"/>
    </linearGradient>
  </defs>
  <g id="Grupo_30201" data-name="Grupo 30201" transform="translate(-4758 4223)">
    <path id="Trazado_24292" data-name="Trazado 24292" d="M-2732.1,2065.138a6.455,6.455,0,0,1-2.387-2.788,10.144,10.144,0,0,1-.862-4.358,10.137,10.137,0,0,1,.862-4.356,6.453,6.453,0,0,1,2.387-2.789,6.357,6.357,0,0,1,3.471-.964,6.36,6.36,0,0,1,3.472.964,6.449,6.449,0,0,1,2.385,2.789,10.122,10.122,0,0,1,.863,4.356,10.129,10.129,0,0,1-.863,4.358,6.451,6.451,0,0,1-2.385,2.788,6.35,6.35,0,0,1-3.472.963A6.347,6.347,0,0,1-2732.1,2065.138Zm5.722-3.337a7.011,7.011,0,0,0,.818-3.809,7,7,0,0,0-.818-3.807,2.563,2.563,0,0,0-2.251-1.233,2.544,2.544,0,0,0-2.229,1.233,7,7,0,0,0-.817,3.807,7.009,7.009,0,0,0,.817,3.809,2.544,2.544,0,0,0,2.229,1.231A2.563,2.563,0,0,0-2726.378,2061.8Z" transform="translate(7498.243 -5826.095)" fill="#3a4960"/>
    <path id="Trazado_24293" data-name="Trazado 24293" d="M-2714.226,2050.152v15.68h-3.629v-12.767h-3.136v-2.913Z" transform="translate(7498.243 -5826.095)" fill="#3a4960"/>
    <path id="Trazado_24294" data-name="Trazado 24294" d="M-2735.391,1966.74a6.459,6.459,0,0,1-2.387-2.789,10.139,10.139,0,0,1-.862-4.357,10.135,10.135,0,0,1,.862-4.357,6.456,6.456,0,0,1,2.387-2.788,6.354,6.354,0,0,1,3.471-.964,6.359,6.359,0,0,1,3.472.964,6.449,6.449,0,0,1,2.385,2.788,10.12,10.12,0,0,1,.863,4.357,10.124,10.124,0,0,1-.863,4.357,6.452,6.452,0,0,1-2.385,2.789,6.358,6.358,0,0,1-3.472.963A6.353,6.353,0,0,1-2735.391,1966.74Zm5.722-3.339a7,7,0,0,0,.818-3.807,7,7,0,0,0-.818-3.808,2.562,2.562,0,0,0-2.251-1.232,2.543,2.543,0,0,0-2.229,1.232,7,7,0,0,0-.817,3.808,7,7,0,0,0,.817,3.807,2.544,2.544,0,0,0,2.229,1.233A2.563,2.563,0,0,0-2729.669,1963.4Z" transform="translate(7498.243 -5826.095)" fill="#3a4960"/>
    <path id="Trazado_24295" data-name="Trazado 24295" d="M-2711.85,1964.477v2.957H-2723.7v-2.353l6.047-5.711a6.444,6.444,0,0,0,1.3-1.579,2.86,2.86,0,0,0,.336-1.311,1.734,1.734,0,0,0-.637-1.445,2.983,2.983,0,0,0-1.872-.5,4.28,4.28,0,0,0-1.858.393,3.545,3.545,0,0,0-1.389,1.176l-2.644-1.7a6.212,6.212,0,0,1,2.531-2.139,8.463,8.463,0,0,1,3.7-.773,7.593,7.593,0,0,1,3.057.571,4.721,4.721,0,0,1,2.039,1.613,4.182,4.182,0,0,1,.727,2.452,5.461,5.461,0,0,1-.537,2.4,9.215,9.215,0,0,1-2.084,2.553l-3.606,3.405Z" transform="translate(7498.243 -5826.095)" fill="#3a4960"/>
    <path id="Trazado_24296" data-name="Trazado 24296" d="M-2735.407,1868.339a6.452,6.452,0,0,1-2.386-2.788,10.124,10.124,0,0,1-.862-4.357,10.127,10.127,0,0,1,.862-4.357,6.46,6.46,0,0,1,2.386-2.789,6.355,6.355,0,0,1,3.472-.963,6.354,6.354,0,0,1,3.471.963,6.456,6.456,0,0,1,2.386,2.789,10.127,10.127,0,0,1,.863,4.357,10.124,10.124,0,0,1-.863,4.357,6.447,6.447,0,0,1-2.386,2.788,6.346,6.346,0,0,1-3.471.964A6.347,6.347,0,0,1-2735.407,1868.339Zm5.723-3.337a7.01,7.01,0,0,0,.818-3.808,7.013,7.013,0,0,0-.818-3.808,2.564,2.564,0,0,0-2.251-1.232,2.545,2.545,0,0,0-2.229,1.232,7.008,7.008,0,0,0-.817,3.808,7,7,0,0,0,.817,3.808,2.543,2.543,0,0,0,2.229,1.232A2.562,2.562,0,0,0-2729.684,1865Z" transform="translate(7498.243 -5826.095)" fill="#3a4960"/>
    <path id="Trazado_24297" data-name="Trazado 24297" d="M-2713.186,1861.273a4.235,4.235,0,0,1,1.1,2.968,4.687,4.687,0,0,1-.717,2.52,4.987,4.987,0,0,1-2.184,1.847,8.363,8.363,0,0,1-3.595.695,12.33,12.33,0,0,1-3.259-.437,8.394,8.394,0,0,1-2.722-1.243l1.411-2.778a6.85,6.85,0,0,0,2.072,1.042,8,8,0,0,0,2.408.37,3.819,3.819,0,0,0,2.151-.527,1.688,1.688,0,0,0,.784-1.489q0-1.927-2.935-1.927h-1.658v-2.4l3.227-3.651h-6.675v-2.912h10.975v2.352l-3.539,4.032A5.283,5.283,0,0,1-2713.186,1861.273Z" transform="translate(7498.243 -5826.095)" fill="#3a4960"/>
    <path id="Trazado_24298" data-name="Trazado 24298" d="M-2737,1769.941a6.45,6.45,0,0,1-2.386-2.788,10.122,10.122,0,0,1-.862-4.356,10.129,10.129,0,0,1,.862-4.358,6.475,6.475,0,0,1,2.386-2.789,6.364,6.364,0,0,1,3.472-.962,6.362,6.362,0,0,1,3.471.962,6.472,6.472,0,0,1,2.386,2.789,10.129,10.129,0,0,1,.863,4.358,10.122,10.122,0,0,1-.863,4.356,6.446,6.446,0,0,1-2.386,2.788,6.348,6.348,0,0,1-3.471.965A6.35,6.35,0,0,1-2737,1769.941Zm5.723-3.337a7.009,7.009,0,0,0,.818-3.807,7.019,7.019,0,0,0-.818-3.809,2.563,2.563,0,0,0-2.251-1.231,2.543,2.543,0,0,0-2.229,1.231,7.008,7.008,0,0,0-.818,3.809,7,7,0,0,0,.818,3.807,2.545,2.545,0,0,0,2.229,1.233A2.565,2.565,0,0,0-2731.272,1766.6Z" transform="translate(7498.243 -5826.095)" fill="#3a4960"/>
    <path id="Trazado_24299" data-name="Trazado 24299" d="M-2710.676,1767.343h-2.554v3.294h-3.538v-3.294h-8.445V1764.9l7.392-9.944h3.808l-6.855,9.43h4.211v-2.936h3.427v2.936h2.554Z" transform="translate(7498.243 -5826.095)" fill="#3a4960"/>
    <path id="Trazado_24300" data-name="Trazado 24300" d="M-2737,1671.543a6.464,6.464,0,0,1-2.386-2.789,10.12,10.12,0,0,1-.862-4.356,10.125,10.125,0,0,1,.862-4.358,6.467,6.467,0,0,1,2.386-2.788,6.357,6.357,0,0,1,3.472-.964,6.356,6.356,0,0,1,3.471.964,6.464,6.464,0,0,1,2.386,2.788,10.125,10.125,0,0,1,.863,4.358,10.12,10.12,0,0,1-.863,4.356,6.461,6.461,0,0,1-2.386,2.789,6.355,6.355,0,0,1-3.471.964A6.356,6.356,0,0,1-2737,1671.543Zm5.723-3.338a7.007,7.007,0,0,0,.818-3.807,7.017,7.017,0,0,0-.818-3.809,2.563,2.563,0,0,0-2.251-1.231,2.543,2.543,0,0,0-2.229,1.231,7.006,7.006,0,0,0-.818,3.809,7,7,0,0,0,.818,3.807,2.545,2.545,0,0,0,2.229,1.233A2.565,2.565,0,0,0-2731.272,1668.2Z" transform="translate(7498.243 -5826.095)" fill="#3a4960"/>
    <path id="Trazado_24301" data-name="Trazado 24301" d="M-2714.763,1663.77a4.379,4.379,0,0,1,1.578,3.539,4.925,4.925,0,0,1-.716,2.61,5.013,5.013,0,0,1-2.185,1.881,8.315,8.315,0,0,1-3.617.707,12.329,12.329,0,0,1-3.259-.438,8.391,8.391,0,0,1-2.721-1.242l1.432-2.779a6.831,6.831,0,0,0,2.061,1.042,7.862,7.862,0,0,0,2.4.369,3.759,3.759,0,0,0,2.15-.537,1.716,1.716,0,0,0,.784-1.5,1.688,1.688,0,0,0-.818-1.524,5.65,5.65,0,0,0-2.834-.515h-4.009l.807-8.825h9.564v2.911h-6.54l-.247,2.979h1.277A7.537,7.537,0,0,1-2714.763,1663.77Z" transform="translate(7498.243 -5826.095)" fill="#3a4960"/>
    <path id="Trazado_24332" data-name="Trazado 24332" d="M0,0H838.01V28H0Z" transform="translate(4797.532 -3782.304)" fill="#98b7c9" opacity="0.1"/>
    <path id="Trazado_24302" data-name="Trazado 24302" d="M-2700.711,2071.791v-28h220.1c10.038,0,18.174,6.268,18.174,14s-8.136,14-18.174,14Z" transform="translate(7498.243 -5826.095)" fill="url(#linear-gradient)"/>
    <path id="Trazado_24333" data-name="Trazado 24333" d="M5.6,0A5.6,5.6,0,1,1,0,5.6,5.6,5.6,0,0,1,5.6,0Z" transform="translate(5043.985 -3773.904)" fill="#3a4960"/>
    <path id="Trazado_24334" data-name="Trazado 24334" d="M5.6,0H68.693a5.6,5.6,0,0,1,5.6,5.6V23.147a5.6,5.6,0,0,1-5.6,5.6H5.6a5.6,5.6,0,0,1-5.6-5.6V5.6A5.6,5.6,0,0,1,5.6,0Z" transform="translate(5012.438 -3829.134)" fill="#3a4960"/>
    <path id="Trazado_24335" data-name="Trazado 24335" d="M0,0H1.12V32.107H0Z" transform="translate(5049.025 -3800.387)" fill="#3a4960"/>
    <path id="Trazado_24303" data-name="Trazado 24303" d="M-2548.12,2010.566a2.884,2.884,0,0,1,.847,2.141,3.178,3.178,0,0,1-.47,1.7,3.235,3.235,0,0,1-1.405,1.208,5.248,5.248,0,0,1-2.281.447,7.252,7.252,0,0,1-2.258-.353,4.791,4.791,0,0,1-1.772-.98l.722-1.238a4.144,4.144,0,0,0,1.442.854,5.393,5.393,0,0,0,1.866.322,3.091,3.091,0,0,0,1.905-.518,1.69,1.69,0,0,0,.683-1.427,1.661,1.661,0,0,0-.674-1.411,3.406,3.406,0,0,0-2.039-.5h-.878v-1.1l2.759-3.387h-5.284v-1.364h7.244v1.066l-2.87,3.544A3.915,3.915,0,0,1-2548.12,2010.566Z" transform="translate(7581.869 -5826.095)" fill="#fff"/>
    <path id="Trazado_24304" data-name="Trazado 24304" d="M-2539.23,2010.566a2.885,2.885,0,0,1,.847,2.141,3.178,3.178,0,0,1-.47,1.7,3.227,3.227,0,0,1-1.4,1.208,5.249,5.249,0,0,1-2.281.447,7.255,7.255,0,0,1-2.259-.353,4.809,4.809,0,0,1-1.772-.98l.722-1.238a4.147,4.147,0,0,0,1.443.854,5.389,5.389,0,0,0,1.866.322,3.092,3.092,0,0,0,1.905-.518,1.692,1.692,0,0,0,.682-1.427,1.659,1.659,0,0,0-.674-1.411,3.4,3.4,0,0,0-2.039-.5h-.877v-1.1l2.758-3.387h-5.283v-1.364h7.243v1.066l-2.869,3.544A3.913,3.913,0,0,1-2539.23,2010.566Z" transform="translate(7581.869 -5826.095)" fill="#fff"/>
    <path id="Trazado_24305" data-name="Trazado 24305" d="M-2535.146,2014.189a1.058,1.058,0,0,1,.291.76,1.966,1.966,0,0,1-.054.455q-.057.219-.212.674l-.738,2.179h-.987l.579-2.336a.991.991,0,0,1-.478-.368,1.036,1.036,0,0,1-.18-.6,1.036,1.036,0,0,1,.3-.768,1.018,1.018,0,0,1,.753-.3A.956.956,0,0,1-2535.146,2014.189Z" transform="translate(7581.869 -5826.095)" fill="#fff"/>
    <path id="Trazado_24306" data-name="Trazado 24306" d="M-2524.828,2006.262a6.122,6.122,0,0,1,1.2,4.046,6.9,6.9,0,0,1-.652,3.128,4.528,4.528,0,0,1-1.818,1.96,5.4,5.4,0,0,1-2.721.666,6.532,6.532,0,0,1-1.5-.165,4.164,4.164,0,0,1-1.223-.478l.6-1.223a3.845,3.845,0,0,0,2.116.518,3.439,3.439,0,0,0,2.674-1.059,4.427,4.427,0,0,0,.964-3.081v-.392a2.961,2.961,0,0,1-1.3,1.074,4.551,4.551,0,0,1-1.866.369,4.438,4.438,0,0,1-1.936-.408,3.114,3.114,0,0,1-1.334-1.168,3.222,3.222,0,0,1-.477-1.748,3.262,3.262,0,0,1,.509-1.819,3.409,3.409,0,0,1,1.387-1.215,4.423,4.423,0,0,1,1.976-.432A4.21,4.21,0,0,1-2524.828,2006.262Zm-1.953,3.811a2.21,2.21,0,0,0,.9-.769,1.922,1.922,0,0,0,.321-1.082,1.934,1.934,0,0,0-.3-1.059,2.165,2.165,0,0,0-.894-.767,3.172,3.172,0,0,0-1.419-.29,2.569,2.569,0,0,0-1.748.579,1.96,1.96,0,0,0-.667,1.553,1.919,1.919,0,0,0,.675,1.544,2.714,2.714,0,0,0,1.819.573A2.971,2.971,0,0,0-2526.781,2010.073Z" transform="translate(7581.869 -5826.095)" fill="#fff"/>
    <path id="Trazado_24307" data-name="Trazado 24307" d="M-2520.964,2010.026a3.232,3.232,0,0,1-.7-2.165,3.228,3.228,0,0,1,.7-2.163,2.307,2.307,0,0,1,1.851-.831,2.294,2.294,0,0,1,1.842.823,3.242,3.242,0,0,1,.7,2.171,3.246,3.246,0,0,1-.7,2.172,2.29,2.29,0,0,1-1.842.823A2.312,2.312,0,0,1-2520.964,2010.026Zm2.979-.62a2.561,2.561,0,0,0,.408-1.545,2.56,2.56,0,0,0-.408-1.544,1.319,1.319,0,0,0-1.128-.557,1.317,1.317,0,0,0-1.121.565,2.54,2.54,0,0,0-.415,1.536,2.539,2.539,0,0,0,.415,1.537,1.318,1.318,0,0,0,1.121.564A1.316,1.316,0,0,0-2517.985,2009.406Zm5.489-4.445h1.207l-7.494,10.975h-1.208Zm-1.514,10.247a3.246,3.246,0,0,1-.7-2.172,3.242,3.242,0,0,1,.7-2.171,2.3,2.3,0,0,1,1.843-.824,2.312,2.312,0,0,1,1.85.831,3.227,3.227,0,0,1,.706,2.164,3.22,3.22,0,0,1-.706,2.163,2.31,2.31,0,0,1-1.85.832A2.3,2.3,0,0,1-2514.01,2015.208Zm2.964-.635a2.545,2.545,0,0,0,.416-1.537,2.542,2.542,0,0,0-.416-1.537,1.323,1.323,0,0,0-1.121-.564,1.326,1.326,0,0,0-1.129.556,2.568,2.568,0,0,0-.408,1.545,2.566,2.566,0,0,0,.408,1.544,1.322,1.322,0,0,0,1.129.557A1.323,1.323,0,0,0-2511.046,2014.573Z" transform="translate(7581.869 -5826.095)" fill="#fff"/>
    <path id="Trazado_24336" data-name="Trazado 24336" d="M0,0H838.01V28H0Z" transform="translate(4797.532 -3880.703)" fill="#98b7c9" opacity="0.1"/>
    <path id="Trazado_24308" data-name="Trazado 24308" d="M-2700.711,1973.392v-28h606.662c11.331,0,20.514,6.268,20.514,14s-9.184,14-20.514,14Z" transform="translate(7498.243 -5826.095)" fill="url(#linear-gradient-2)"/>
    <path id="Trazado_24337" data-name="Trazado 24337" d="M5.6,0A5.6,5.6,0,1,1,0,5.6,5.6,5.6,0,0,1,5.6,0Z" transform="translate(5446.731 -3872.303)" fill="#3a4960"/>
    <path id="Trazado_24338" data-name="Trazado 24338" d="M5.6,0H68.694a5.6,5.6,0,0,1,5.6,5.6V23.147a5.6,5.6,0,0,1-5.6,5.6H5.6a5.6,5.6,0,0,1-5.6-5.6V5.6A5.6,5.6,0,0,1,5.6,0Z" transform="translate(5415.185 -3927.533)" fill="#3a4960"/>
    <path id="Trazado_24339" data-name="Trazado 24339" d="M0,0H1.12V32.106H0Z" transform="translate(5451.771 -3898.786)" fill="#3a4960"/>
    <path id="Trazado_24309" data-name="Trazado 24309" d="M-2299.639,1906.561v1.066l-4.439,9.91h-1.661l4.343-9.612h-5.018v1.96h-1.5v-3.324Z" transform="translate(7738.589 -5826.095)" fill="#fff"/>
    <path id="Trazado_24310" data-name="Trazado 24310" d="M-2291.29,1907.862a6.118,6.118,0,0,1,1.2,4.046,6.881,6.881,0,0,1-.651,3.128,4.53,4.53,0,0,1-1.819,1.96,5.394,5.394,0,0,1-2.72.666,6.68,6.68,0,0,1-1.506-.164,4.2,4.2,0,0,1-1.223-.478l.6-1.224a3.829,3.829,0,0,0,2.115.518,3.436,3.436,0,0,0,2.674-1.058,4.43,4.43,0,0,0,.964-3.081v-.393a2.952,2.952,0,0,1-1.3,1.074,4.542,4.542,0,0,1-1.866.369,4.456,4.456,0,0,1-1.936-.407,3.127,3.127,0,0,1-1.332-1.168,3.219,3.219,0,0,1-.479-1.749,3.269,3.269,0,0,1,.51-1.819,3.409,3.409,0,0,1,1.388-1.215,4.412,4.412,0,0,1,1.976-.431A4.209,4.209,0,0,1-2291.29,1907.862Zm-1.953,3.811a2.221,2.221,0,0,0,.9-.768,1.925,1.925,0,0,0,.322-1.083,1.933,1.933,0,0,0-.3-1.058,2.179,2.179,0,0,0-.9-.769,3.2,3.2,0,0,0-1.42-.29,2.571,2.571,0,0,0-1.748.581,1.953,1.953,0,0,0-.666,1.552,1.923,1.923,0,0,0,.675,1.545,2.718,2.718,0,0,0,1.818.572A2.971,2.971,0,0,0-2293.243,1911.673Z" transform="translate(7738.589 -5826.095)" fill="#fff"/>
    <path id="Trazado_24311" data-name="Trazado 24311" d="M-2286.993,1915.788a1.069,1.069,0,0,1,.288.762,1.825,1.825,0,0,1-.054.453q-.057.22-.211.675l-.738,2.179h-.987l.579-2.336a.981.981,0,0,1-.478-.368,1.028,1.028,0,0,1-.18-.6,1.047,1.047,0,0,1,.3-.769,1.028,1.028,0,0,1,.753-.3A.971.971,0,0,1-2286.993,1915.788Z" transform="translate(7738.589 -5826.095)" fill="#fff"/>
    <path id="Trazado_24312" data-name="Trazado 24312" d="M-2280.245,1906.561v10.976h-1.551v-9.612h-2.478v-1.364Z" transform="translate(7738.589 -5826.095)" fill="#fff"/>
    <path id="Trazado_24313" data-name="Trazado 24313" d="M-2276.058,1911.625a3.227,3.227,0,0,1-.706-2.163,3.23,3.23,0,0,1,.706-2.164,2.31,2.31,0,0,1,1.851-.831,2.293,2.293,0,0,1,1.841.823,3.241,3.241,0,0,1,.7,2.172,3.239,3.239,0,0,1-.7,2.171,2.294,2.294,0,0,1-1.841.824A2.308,2.308,0,0,1-2276.058,1911.625Zm2.979-.619a2.562,2.562,0,0,0,.407-1.544,2.565,2.565,0,0,0-.407-1.544,1.318,1.318,0,0,0-1.128-.557,1.325,1.325,0,0,0-1.123.564,2.556,2.556,0,0,0-.414,1.537,2.556,2.556,0,0,0,.414,1.537,1.325,1.325,0,0,0,1.123.564A1.32,1.32,0,0,0-2273.079,1911.006Zm5.489-4.445h1.207l-7.495,10.976h-1.208Zm-1.514,10.247a3.239,3.239,0,0,1-.7-2.171,3.244,3.244,0,0,1,.7-2.173,2.3,2.3,0,0,1,1.842-.823,2.316,2.316,0,0,1,1.851.831,3.232,3.232,0,0,1,.706,2.165,3.231,3.231,0,0,1-.706,2.163,2.31,2.31,0,0,1-1.851.831A2.3,2.3,0,0,1-2269.1,1916.808Zm2.964-.635a2.55,2.55,0,0,0,.416-1.536,2.547,2.547,0,0,0-.416-1.537,1.325,1.325,0,0,0-1.122-.565,1.323,1.323,0,0,0-1.129.556,2.58,2.58,0,0,0-.407,1.546,2.575,2.575,0,0,0,.407,1.544,1.324,1.324,0,0,0,1.129.557A1.323,1.323,0,0,0-2266.14,1916.173Z" transform="translate(7738.589 -5826.095)" fill="#fff"/>
    <path id="Trazado_24340" data-name="Trazado 24340" d="M0,0H838.01V28H0Z" transform="translate(4797.532 -3979.102)" fill="#98b7c9" opacity="0.1"/>
    <path id="Trazado_24314" data-name="Trazado 24314" d="M-2700.711,1874.994v-28h331.518c10.657,0,19.294,6.268,19.294,14s-8.637,14-19.294,14Z" transform="translate(7498.243 -5826.095)" fill="url(#linear-gradient-3)"/>
    <path id="Trazado_24341" data-name="Trazado 24341" d="M5.6,0A5.6,5.6,0,1,1,0,5.6,5.6,5.6,0,0,1,5.6,0Z" transform="translate(5162.547 -3970.701)" fill="#3a4960"/>
    <path id="Trazado_24342" data-name="Trazado 24342" d="M5.6,0H68.694a5.6,5.6,0,0,1,5.6,5.6V23.147a5.6,5.6,0,0,1-5.6,5.6H5.6a5.6,5.6,0,0,1-5.6-5.6V5.6A5.6,5.6,0,0,1,5.6,0Z" transform="translate(5131 -4025.508)" fill="#3a4960"/>
    <path id="Trazado_24343" data-name="Trazado 24343" d="M0,0H1.12V32.106H0Z" transform="translate(5167.588 -3996.761)" fill="#3a4960"/>
    <path id="Trazado_24315" data-name="Trazado 24315" d="M-2473.882,1816.865h-2.086v2.7h-1.522v-2.7h-6.1v-1.1l5.613-7.18h1.693l-5.378,6.93h4.219v-2.384h1.473v2.384h2.086Z" transform="translate(7628.005 -5826.095)" fill="#fff"/>
    <path id="Trazado_24316" data-name="Trazado 24316" d="M-2466.27,1813.306a3.179,3.179,0,0,1,1.341,1.168,3.176,3.176,0,0,1,.486,1.748,3.271,3.271,0,0,1-.51,1.819,3.4,3.4,0,0,1-1.4,1.215,4.461,4.461,0,0,1-1.984.431,4.21,4.21,0,0,1-3.41-1.426,6.115,6.115,0,0,1-1.2-4.046,6.909,6.909,0,0,1,.65-3.128,4.538,4.538,0,0,1,1.82-1.96,5.393,5.393,0,0,1,2.72-.666,6.593,6.593,0,0,1,1.5.164,4.21,4.21,0,0,1,1.224.479l-.6,1.223a3.755,3.755,0,0,0-2.1-.518,3.461,3.461,0,0,0-2.682,1.058,4.408,4.408,0,0,0-.972,3.081,3.623,3.623,0,0,0,.016.393,2.974,2.974,0,0,1,1.293-1.074,4.5,4.5,0,0,1,1.858-.369A4.448,4.448,0,0,1-2466.27,1813.306Zm-.37,4.532a1.944,1.944,0,0,0,.675-1.553,1.911,1.911,0,0,0-.681-1.545,2.754,2.754,0,0,0-1.827-.572,2.927,2.927,0,0,0-1.31.282,2.232,2.232,0,0,0-.894.769,1.92,1.92,0,0,0-.32,1.082,1.918,1.918,0,0,0,.305,1.059,2.159,2.159,0,0,0,.894.767,3.127,3.127,0,0,0,1.4.29A2.6,2.6,0,0,0-2466.64,1817.838Z" transform="translate(7628.005 -5826.095)" fill="#fff"/>
    <path id="Trazado_24317" data-name="Trazado 24317" d="M-2461.331,1817.813a1.066,1.066,0,0,1,.289.762,1.806,1.806,0,0,1-.055.454c-.037.146-.107.372-.211.674l-.737,2.179h-.987l.579-2.336a.979.979,0,0,1-.478-.368,1.029,1.029,0,0,1-.18-.6,1.043,1.043,0,0,1,.3-.769,1.026,1.026,0,0,1,.753-.3A.967.967,0,0,1-2461.331,1817.813Z" transform="translate(7628.005 -5826.095)" fill="#fff"/>
    <path id="Trazado_24318" data-name="Trazado 24318" d="M-2451.014,1809.887a6.122,6.122,0,0,1,1.2,4.046,6.907,6.907,0,0,1-.649,3.128,4.547,4.547,0,0,1-1.819,1.96,5.4,5.4,0,0,1-2.72.666,6.658,6.658,0,0,1-1.506-.164,4.142,4.142,0,0,1-1.223-.478l.6-1.224a3.835,3.835,0,0,0,2.116.519,3.439,3.439,0,0,0,2.674-1.059,4.427,4.427,0,0,0,.964-3.081v-.393a2.96,2.96,0,0,1-1.3,1.074,4.554,4.554,0,0,1-1.866.369,4.459,4.459,0,0,1-1.937-.407,3.143,3.143,0,0,1-1.333-1.168,3.22,3.22,0,0,1-.478-1.749,3.262,3.262,0,0,1,.51-1.819,3.4,3.4,0,0,1,1.388-1.215,4.41,4.41,0,0,1,1.975-.431A4.211,4.211,0,0,1-2451.014,1809.887Zm-1.953,3.811a2.224,2.224,0,0,0,.9-.768,1.934,1.934,0,0,0,.321-1.083,1.932,1.932,0,0,0-.306-1.058,2.15,2.15,0,0,0-.9-.768,3.178,3.178,0,0,0-1.418-.29,2.565,2.565,0,0,0-1.748.58,1.952,1.952,0,0,0-.666,1.552,1.921,1.921,0,0,0,.674,1.545,2.712,2.712,0,0,0,1.818.572A2.97,2.97,0,0,0-2452.967,1813.7Z" transform="translate(7628.005 -5826.095)" fill="#fff"/>
    <path id="Trazado_24319" data-name="Trazado 24319" d="M-2447.463,1813.651a3.23,3.23,0,0,1-.705-2.164,3.228,3.228,0,0,1,.705-2.164,2.308,2.308,0,0,1,1.85-.83,2.3,2.3,0,0,1,1.843.822,3.252,3.252,0,0,1,.7,2.172,3.248,3.248,0,0,1-.7,2.171,2.3,2.3,0,0,1-1.843.824A2.309,2.309,0,0,1-2447.463,1813.651Zm2.979-.619a2.563,2.563,0,0,0,.408-1.545,2.561,2.561,0,0,0-.408-1.544,1.32,1.32,0,0,0-1.129-.557,1.315,1.315,0,0,0-1.12.565,2.531,2.531,0,0,0-.416,1.536,2.535,2.535,0,0,0,.416,1.537,1.317,1.317,0,0,0,1.12.564A1.324,1.324,0,0,0-2444.484,1813.032Zm5.488-4.445h1.207l-7.494,10.975h-1.208Zm-1.513,10.246a3.244,3.244,0,0,1-.7-2.171,3.246,3.246,0,0,1,.7-2.172,2.3,2.3,0,0,1,1.843-.824,2.315,2.315,0,0,1,1.85.831,3.229,3.229,0,0,1,.7,2.165,3.223,3.223,0,0,1-.7,2.163,2.309,2.309,0,0,1-1.85.831A2.3,2.3,0,0,1-2440.509,1818.833Zm2.963-.635a2.537,2.537,0,0,0,.416-1.536,2.534,2.534,0,0,0-.416-1.537,1.32,1.32,0,0,0-1.12-.564,1.32,1.32,0,0,0-1.129.555,2.564,2.564,0,0,0-.409,1.546,2.56,2.56,0,0,0,.409,1.544,1.322,1.322,0,0,0,1.129.557A1.318,1.318,0,0,0-2437.546,1818.2Z" transform="translate(7628.005 -5826.095)" fill="#fff"/>
    <path id="Trazado_24344" data-name="Trazado 24344" d="M0,0H838.01V28H0Z" transform="translate(4797.532 -4077.5)" fill="#98b7c9" opacity="0.1"/>
    <path id="Trazado_24320" data-name="Trazado 24320" d="M-2700.712,1776.595v-28h487.061c11.3,0,20.454,6.269,20.454,14s-9.157,14-20.454,14Z" transform="translate(7498.243 -5826.095)" fill="url(#linear-gradient-4)"/>
    <path id="Trazado_24345" data-name="Trazado 24345" d="M5.6,0A5.6,5.6,0,1,1,0,5.6,5.6,5.6,0,0,1,5.6,0Z" transform="translate(5313.5 -4069.1)" fill="#3a4960"/>
    <path id="Trazado_24346" data-name="Trazado 24346" d="M5.6,0H68.693a5.6,5.6,0,0,1,5.6,5.6V23.147a5.6,5.6,0,0,1-5.6,5.6H5.6a5.6,5.6,0,0,1-5.6-5.6V5.6A5.6,5.6,0,0,1,5.6,0Z" transform="translate(5281.954 -4124.813)" fill="#3a4960"/>
    <path id="Trazado_24347" data-name="Trazado 24347" d="M0,0H1.12V32.106H0Z" transform="translate(5318.541 -4096.066)" fill="#3a4960"/>
    <path id="Trazado_24321" data-name="Trazado 24321" d="M-2384.523,1714a3.175,3.175,0,0,1,1.341,1.168,3.176,3.176,0,0,1,.485,1.748,3.26,3.26,0,0,1-.509,1.819,3.392,3.392,0,0,1-1.4,1.215,4.459,4.459,0,0,1-1.983.431,4.206,4.206,0,0,1-3.41-1.426,6.111,6.111,0,0,1-1.2-4.046,6.9,6.9,0,0,1,.651-3.128,4.529,4.529,0,0,1,1.819-1.96,5.393,5.393,0,0,1,2.72-.666,6.642,6.642,0,0,1,1.5.164,4.212,4.212,0,0,1,1.224.479l-.6,1.223a3.758,3.758,0,0,0-2.1-.518,3.461,3.461,0,0,0-2.682,1.058,4.407,4.407,0,0,0-.973,3.081,3.578,3.578,0,0,0,.017.393,2.982,2.982,0,0,1,1.294-1.074,4.488,4.488,0,0,1,1.857-.369A4.442,4.442,0,0,1-2384.523,1714Zm-.369,4.532a1.945,1.945,0,0,0,.674-1.552,1.913,1.913,0,0,0-.681-1.546,2.757,2.757,0,0,0-1.827-.572,2.919,2.919,0,0,0-1.309.282,2.226,2.226,0,0,0-.9.769,1.92,1.92,0,0,0-.32,1.082,1.928,1.928,0,0,0,.3,1.059,2.16,2.16,0,0,0,.894.767,3.132,3.132,0,0,0,1.4.29A2.6,2.6,0,0,0-2384.892,1718.532Z" transform="translate(7686.745 -5826.095)" fill="#fff"/>
    <path id="Trazado_24322" data-name="Trazado 24322" d="M-2371.971,1717.559h-2.086v2.7h-1.521v-2.7h-6.1v-1.1l5.613-7.18h1.693l-5.378,6.93h4.218v-2.384h1.474v2.384h2.086Z" transform="translate(7686.745 -5826.095)" fill="#fff"/>
    <path id="Trazado_24323" data-name="Trazado 24323" d="M-2368.938,1718.508a1.064,1.064,0,0,1,.29.761,1.9,1.9,0,0,1-.055.454c-.037.146-.107.372-.211.675l-.737,2.178h-.988l.58-2.336a.981.981,0,0,1-.478-.367,1.03,1.03,0,0,1-.181-.6,1.044,1.044,0,0,1,.3-.769,1.022,1.022,0,0,1,.752-.3A.965.965,0,0,1-2368.938,1718.508Z" transform="translate(7686.745 -5826.095)" fill="#fff"/>
    <path id="Trazado_24324" data-name="Trazado 24324" d="M-2357.876,1718.893v1.363h-7.887v-1.066l4.468-4.312a5.312,5.312,0,0,0,1.1-1.357,2.581,2.581,0,0,0,.282-1.152,1.614,1.614,0,0,0-.6-1.341,2.739,2.739,0,0,0-1.732-.477,3.443,3.443,0,0,0-2.807,1.191l-1.066-.926a4.31,4.31,0,0,1,1.685-1.223,5.963,5.963,0,0,1,2.329-.438,4.24,4.24,0,0,1,2.744.823,2.72,2.72,0,0,1,1.02,2.234,3.788,3.788,0,0,1-.377,1.662,6.656,6.656,0,0,1-1.427,1.788l-3.356,3.231Z" transform="translate(7686.745 -5826.095)" fill="#fff"/>
    <path id="Trazado_24325" data-name="Trazado 24325" d="M-2355.274,1714.345a3.232,3.232,0,0,1-.706-2.164,3.23,3.23,0,0,1,.706-2.164,2.309,2.309,0,0,1,1.851-.83,2.3,2.3,0,0,1,1.842.822,3.246,3.246,0,0,1,.7,2.172,3.244,3.244,0,0,1-.7,2.171,2.3,2.3,0,0,1-1.842.824A2.309,2.309,0,0,1-2355.274,1714.345Zm2.979-.619a2.563,2.563,0,0,0,.408-1.545,2.562,2.562,0,0,0-.408-1.544,1.318,1.318,0,0,0-1.128-.557,1.317,1.317,0,0,0-1.121.565,2.538,2.538,0,0,0-.416,1.536,2.541,2.541,0,0,0,.416,1.537,1.318,1.318,0,0,0,1.121.564A1.322,1.322,0,0,0-2352.295,1713.726Zm5.489-4.445h1.207l-7.495,10.975h-1.208Zm-1.514,10.246a3.245,3.245,0,0,1-.7-2.171,3.248,3.248,0,0,1,.7-2.172,2.3,2.3,0,0,1,1.843-.824,2.315,2.315,0,0,1,1.85.831,3.229,3.229,0,0,1,.706,2.165,3.224,3.224,0,0,1-.706,2.163,2.31,2.31,0,0,1-1.85.832A2.3,2.3,0,0,1-2348.32,1719.527Zm2.964-.634a2.548,2.548,0,0,0,.416-1.537,2.541,2.541,0,0,0-.416-1.537,1.323,1.323,0,0,0-1.121-.564,1.322,1.322,0,0,0-1.129.555,2.573,2.573,0,0,0-.408,1.546,2.568,2.568,0,0,0,.408,1.544,1.322,1.322,0,0,0,1.129.557A1.323,1.323,0,0,0-2345.356,1718.893Z" transform="translate(7686.745 -5826.095)" fill="#fff"/>
    <path id="Trazado_24348" data-name="Trazado 24348" d="M0,0H838.01V28H0Z" transform="translate(4797.532 -4175.899)" fill="#98b7c9" opacity="0.1"/>
    <path id="Trazado_24326" data-name="Trazado 24326" d="M-2700.712,1678.2v-28h260.882c10.33,0,18.7,6.268,18.7,14s-8.374,14-18.7,14Z" transform="translate(7498.243 -5826.095)" fill="url(#linear-gradient-5)"/>
    <path id="Trazado_24349" data-name="Trazado 24349" d="M5.6,0A5.6,5.6,0,1,1,0,5.6,5.6,5.6,0,0,1,5.6,0Z" transform="translate(5084.932 -4167.499)" fill="#3a4960"/>
    <path id="Trazado_24350" data-name="Trazado 24350" d="M5.6,0H68.693a5.6,5.6,0,0,1,5.6,5.6V23.147a5.6,5.6,0,0,1-5.6,5.6H5.6a5.6,5.6,0,0,1-5.6-5.6V5.6A5.6,5.6,0,0,1,5.6,0Z" transform="translate(5053.385 -4223)" fill="#3a4960"/>
    <path id="Trazado_24351" data-name="Trazado 24351" d="M0,0H1.12V32.107H0Z" transform="translate(5089.972 -4194.253)" fill="#3a4960"/>
    <path id="Trazado_24327" data-name="Trazado 24327" d="M-2523.844,1616.7a2.889,2.889,0,0,1,.847,2.141,3.162,3.162,0,0,1-.471,1.7,3.225,3.225,0,0,1-1.4,1.208,5.249,5.249,0,0,1-2.281.447,7.237,7.237,0,0,1-2.258-.353,4.789,4.789,0,0,1-1.772-.98l.721-1.238a4.138,4.138,0,0,0,1.443.854,5.389,5.389,0,0,0,1.866.322,3.092,3.092,0,0,0,1.905-.518,1.689,1.689,0,0,0,.682-1.427,1.657,1.657,0,0,0-.675-1.411,3.4,3.4,0,0,0-2.037-.5h-.878v-1.1l2.759-3.387h-5.284v-1.364h7.244v1.066l-2.87,3.544A3.916,3.916,0,0,1-2523.844,1616.7Z" transform="translate(7597.803 -5826.095)" fill="#fff"/>
    <path id="Trazado_24328" data-name="Trazado 24328" d="M-2513.385,1617.35a2.632,2.632,0,0,1,.5,1.615,2.837,2.837,0,0,1-.534,1.718,3.376,3.376,0,0,1-1.52,1.121,6.286,6.286,0,0,1-2.321.391,6.165,6.165,0,0,1-2.3-.391,3.373,3.373,0,0,1-1.514-1.121,2.837,2.837,0,0,1-.533-1.718,2.653,2.653,0,0,1,.5-1.615,3.089,3.089,0,0,1,1.434-1.035,2.741,2.741,0,0,1-1.144-.957,2.5,2.5,0,0,1-.393-1.411,2.612,2.612,0,0,1,.494-1.584,3.109,3.109,0,0,1,1.388-1.034,5.489,5.489,0,0,1,2.07-.361,5.6,5.6,0,0,1,2.093.361,3.112,3.112,0,0,1,1.4,1.034,2.61,2.61,0,0,1,.493,1.584,2.479,2.479,0,0,1-.4,1.4,2.783,2.783,0,0,1-1.153.964A3.144,3.144,0,0,1-2513.385,1617.35Zm-1.819,3.034a1.711,1.711,0,0,0,.752-1.466,1.658,1.658,0,0,0-.752-1.435,3.539,3.539,0,0,0-2.054-.525,3.466,3.466,0,0,0-2.039.525,1.669,1.669,0,0,0-.736,1.435,1.724,1.724,0,0,0,.736,1.466,3.386,3.386,0,0,0,2.039.541A3.457,3.457,0,0,0-2515.2,1620.384Zm-3.811-7.667a1.525,1.525,0,0,0-.642,1.294,1.514,1.514,0,0,0,.634,1.285,2.912,2.912,0,0,0,1.765.47,3.017,3.017,0,0,0,1.8-.47,1.5,1.5,0,0,0,.65-1.285,1.511,1.511,0,0,0-.667-1.294,2.981,2.981,0,0,0-1.779-.478A2.876,2.876,0,0,0-2519.015,1612.717Z" transform="translate(7597.803 -5826.095)" fill="#fff"/>
    <path id="Trazado_24329" data-name="Trazado 24329" d="M-2509.5,1620.322a1.062,1.062,0,0,1,.29.76,1.853,1.853,0,0,1-.055.455q-.055.219-.212.674l-.737,2.179h-.988l.58-2.336a.983.983,0,0,1-.478-.369,1.029,1.029,0,0,1-.18-.6,1.036,1.036,0,0,1,.3-.768,1.02,1.02,0,0,1,.753-.3A.96.96,0,0,1-2509.5,1620.322Z" transform="translate(7597.803 -5826.095)" fill="#fff"/>
    <path id="Trazado_24330" data-name="Trazado 24330" d="M-2499.564,1616.355a2.934,2.934,0,0,1,1.106,2.422,3.343,3.343,0,0,1-.463,1.748,3.155,3.155,0,0,1-1.4,1.223,5.3,5.3,0,0,1-2.3.447,7.188,7.188,0,0,1-2.242-.353,4.97,4.97,0,0,1-1.789-.98l.722-1.238a4.151,4.151,0,0,0,1.443.854,5.343,5.343,0,0,0,1.849.322,3.092,3.092,0,0,0,1.922-.525,1.717,1.717,0,0,0,.682-1.435,1.693,1.693,0,0,0-.753-1.5,4.79,4.79,0,0,0-2.571-.509h-2.493l.58-5.739h6.194v1.364h-4.877l-.3,3.011h1.223A5.5,5.5,0,0,1-2499.564,1616.355Z" transform="translate(7597.803 -5826.095)" fill="#fff"/>
    <path id="Trazado_24331" data-name="Trazado 24331" d="M-2495.213,1616.159a3.233,3.233,0,0,1-.705-2.165,3.227,3.227,0,0,1,.705-2.163,2.308,2.308,0,0,1,1.851-.831,2.3,2.3,0,0,1,1.842.823,3.237,3.237,0,0,1,.7,2.171,3.242,3.242,0,0,1-.7,2.172,2.3,2.3,0,0,1-1.842.823A2.313,2.313,0,0,1-2495.213,1616.159Zm2.98-.62a2.569,2.569,0,0,0,.408-1.545,2.569,2.569,0,0,0-.408-1.544,1.324,1.324,0,0,0-1.129-.557,1.318,1.318,0,0,0-1.121.565,2.54,2.54,0,0,0-.416,1.536,2.539,2.539,0,0,0,.416,1.537,1.32,1.32,0,0,0,1.121.564A1.32,1.32,0,0,0-2492.233,1615.539Zm5.488-4.445h1.208l-7.5,10.975h-1.207Zm-1.514,10.247a3.246,3.246,0,0,1-.7-2.172,3.242,3.242,0,0,1,.7-2.171,2.3,2.3,0,0,1,1.843-.824,2.311,2.311,0,0,1,1.85.831,3.226,3.226,0,0,1,.706,2.164,3.22,3.22,0,0,1-.706,2.163,2.308,2.308,0,0,1-1.85.831A2.3,2.3,0,0,1-2488.259,1621.341Zm2.964-.636a2.539,2.539,0,0,0,.416-1.536,2.543,2.543,0,0,0-.416-1.537,1.32,1.32,0,0,0-1.121-.564,1.321,1.321,0,0,0-1.128.556,2.563,2.563,0,0,0-.408,1.545,2.561,2.561,0,0,0,.408,1.544,1.317,1.317,0,0,0,1.128.557A1.319,1.319,0,0,0-2485.295,1620.7Z" transform="translate(7597.803 -5826.095)" fill="#fff"/>
    <path id="Trazado_24352" data-name="Trazado 24352" d="M0,0H1.12V457.058H0Z" transform="translate(4796.971 -4191.786)" fill="#3a4960"/>
  </g>
</svg>
