<svg xmlns="http://www.w3.org/2000/svg" width="433.943" height="226.152" viewBox="0 0 433.943 226.152">
  <g id="Grupo_30208" data-name="Grupo 30208" transform="translate(-4404 -2086.098)">
    <g id="Grupo_30138" data-name="Grupo 30138" transform="translate(3644.721 2066.148)">
      <path id="Trazado_24151" data-name="Trazado 24151" d="M810.43,244.81h-3l-.469,1.12h-1.256l2.592-6.2h1.256l2.593,6.2H810.9Zm-.408-.976-1.092-2.61-1.093,2.61Z" fill="#a8a8a8"/>
    </g>
    <g id="Grupo_30139" data-name="Grupo 30139" transform="translate(3644.721 2066.148)">
      <path id="Trazado_24152" data-name="Trazado 24152" d="M760.765,200.422l-1.037.66-.449-.774,1.7-1.151h.878V205.2h-1.089Z" fill="#a8a8a8"/>
      <path id="Trazado_24153" data-name="Trazado 24153" d="M763.018,202.171c0-1.828,1.1-3.12,2.654-3.12s2.637,1.292,2.637,3.12-1.09,3.129-2.637,3.129S763.018,204.008,763.018,202.171Zm4.174,0c0-1.248-.632-2.118-1.52-2.118s-1.529.87-1.529,2.118.632,2.127,1.529,2.127S767.192,203.419,767.192,202.171Z" fill="#a8a8a8"/>
    </g>
    <g id="Grupo_30140" data-name="Grupo 30140" transform="translate(3644.721 2066.148)">
      <path id="Trazado_24154" data-name="Trazado 24154" d="M759.517,165.188l2.223-1.775c.765-.616,1.037-1.073,1.037-1.565a.954.954,0,0,0-1.028-.923,1.941,1.941,0,0,0-1.529.853l-.712-.659a2.737,2.737,0,0,1,2.276-1.178,1.939,1.939,0,0,1,2.11,1.881c0,.8-.37,1.441-1.407,2.241l-1.265,1.02h2.733v1h-4.438Z" fill="#a8a8a8"/>
      <path id="Trazado_24155" data-name="Trazado 24155" d="M764.855,163.061c0-1.828,1.1-3.12,2.655-3.12s2.636,1.292,2.636,3.12-1.089,3.129-2.636,3.129S764.855,164.9,764.855,163.061Zm4.175,0c0-1.248-.633-2.118-1.52-2.118s-1.53.87-1.53,2.118.633,2.127,1.53,2.127S769.03,164.309,769.03,163.061Z" fill="#a8a8a8"/>
    </g>
    <g id="Grupo_30141" data-name="Grupo 30141" transform="translate(3644.721 2066.148)">
      <path id="Trazado_24156" data-name="Trazado 24156" d="M759.385,126.062l.668-.721a2.2,2.2,0,0,0,1.652.765c.721,0,1.169-.36,1.169-.888s-.448-.817-1.3-.817l-.677.009v-.95h.677c.712.009,1.178-.281,1.178-.808,0-.492-.475-.835-1.125-.835a1.932,1.932,0,0,0-1.468.747l-.65-.668a2.707,2.707,0,0,1,2.215-1.063c1.283,0,2.135.685,2.135,1.643a1.447,1.447,0,0,1-1.142,1.4,1.5,1.5,0,0,1,1.274,1.432c0,1.037-.887,1.776-2.25,1.776A3,3,0,0,1,759.385,126.062Z" fill="#a8a8a8"/>
      <path id="Trazado_24157" data-name="Trazado 24157" d="M764.82,123.953c0-1.828,1.1-3.12,2.655-3.12s2.636,1.292,2.636,3.12-1.09,3.129-2.636,3.129S764.82,125.79,764.82,123.953Zm4.175,0c0-1.248-.633-2.119-1.52-2.119s-1.53.871-1.53,2.119.633,2.127,1.53,2.127S768.995,125.2,768.995,123.953Z" fill="#a8a8a8"/>
    </g>
    <g id="Grupo_30142" data-name="Grupo 30142" transform="translate(3644.721 2066.148)">
      <path id="Trazado_24158" data-name="Trazado 24158" d="M762.47,86.555h-2.98l-.1-.852,2.865-3.876h1.31v3.788h.835v.94h-.835v1.31h-1.09Zm0-.94V83.022l-1.916,2.593Z" fill="#a8a8a8"/>
      <path id="Trazado_24159" data-name="Trazado 24159" d="M765.182,84.841c0-1.828,1.1-3.12,2.654-3.12s2.637,1.292,2.637,3.12-1.09,3.129-2.637,3.129S765.182,86.678,765.182,84.841Zm4.174,0c0-1.248-.632-2.118-1.52-2.118s-1.529.87-1.529,2.118.632,2.127,1.529,2.127S769.356,86.089,769.356,84.841Z" fill="#a8a8a8"/>
    </g>
    <g id="Grupo_30143" data-name="Grupo 30143" transform="translate(3644.721 2066.148)">
      <path id="Trazado_24160" data-name="Trazado 24160" d="M759.5,47.929l.65-.782a2.362,2.362,0,0,0,1.626.765,1.1,1.1,0,0,0,1.2-1.064,1.065,1.065,0,0,0-1.2-1.028,1.983,1.983,0,0,0-1.23.422l-.747-.317.088-3.208h3.867v1h-2.839l-.053,1.556a2.1,2.1,0,0,1,1.222-.369,1.865,1.865,0,0,1,1.995,1.9,2.077,2.077,0,0,1-2.32,2.057A3,3,0,0,1,759.5,47.929Z" fill="#a8a8a8"/>
      <path id="Trazado_24161" data-name="Trazado 24161" d="M764.926,45.732c0-1.828,1.1-3.12,2.654-3.12s2.637,1.292,2.637,3.12-1.09,3.129-2.637,3.129S764.926,47.569,764.926,45.732Zm4.175,0c0-1.248-.633-2.118-1.521-2.118s-1.529.87-1.529,2.118.633,2.127,1.529,2.127S769.1,46.98,769.1,45.732Z" fill="#a8a8a8"/>
    </g>
    <g id="Grupo_30144" data-name="Grupo 30144" transform="translate(3644.721 2066.148)">
      <path id="Trazado_24162" data-name="Trazado 24162" d="M866.407,239.725h3.044a1.645,1.645,0,0,1,1.834,1.553,1.493,1.493,0,0,1-.876,1.373,1.7,1.7,0,0,1-.841,3.279h-3.161Zm2.774,2.538a.8.8,0,1,0,0-1.563h-1.654v1.563Zm.162,2.692a.9.9,0,1,0,0-1.771h-1.816v1.771Z" fill="#a8a8a8"/>
    </g>
    <g id="Grupo_30145" data-name="Grupo 30145" transform="translate(3644.721 2066.148)">
      <path id="Trazado_24163" data-name="Trazado 24163" d="M925.166,242.823a3.252,3.252,0,0,1,5.6-2.2l-.8.749a2.042,2.042,0,0,0-1.535-.722,2.183,2.183,0,0,0,0,4.363,2.058,2.058,0,0,0,1.544-.723l.8.741a3.235,3.235,0,0,1-2.339,1.012A3.28,3.28,0,0,1,925.166,242.823Z" fill="#a8a8a8"/>
    </g>
    <g id="Grupo_30146" data-name="Grupo 30146" transform="translate(3644.721 2066.148)">
      <path id="Trazado_24164" data-name="Trazado 24164" d="M982.761,239.725h2.186c2.05,0,3.495,1.282,3.495,3.1a3.186,3.186,0,0,1-3.495,3.107h-2.186Zm2.3,5.184a2.087,2.087,0,1,0,0-4.164H983.89v4.164Z" fill="#a8a8a8"/>
    </g>
    <g id="Grupo_30147" data-name="Grupo 30147" transform="translate(3644.721 2066.148)">
      <path id="Trazado_24165" data-name="Trazado 24165" d="M1042.865,240.754v1.5h3.207v1.029h-3.207V244.9h3.541v1.03h-4.67v-6.2h4.67v1.029Z" fill="#a8a8a8"/>
    </g>
    <g id="Grupo_30148" data-name="Grupo 30148" transform="translate(3644.721 2066.148)">
      <path id="Trazado_24166" data-name="Trazado 24166" d="M1099.754,240.754v1.572h3.207v1.029h-3.207v2.575h-1.129v-6.2h4.67v1.029Z" fill="#a8a8a8"/>
    </g>
    <g id="Grupo_30149" data-name="Grupo 30149" transform="translate(3644.721 2066.148)">
      <path id="Trazado_24167" data-name="Trazado 24167" d="M1159.562,242.578h2.646v2.511a3.546,3.546,0,0,1-2.466,1.012,3.212,3.212,0,1,1,0-6.423,3.533,3.533,0,0,1,2.466,1l-.8.749a2.281,2.281,0,0,0-1.662-.722,2.182,2.182,0,0,0,0,4.363,2.4,2.4,0,0,0,1.364-.443V243.5h-1.544Z" fill="#a8a8a8"/>
    </g>
    <path id="Trazado_24512" data-name="Trazado 24512" d="M0,0H6.541V31.654H0Z" transform="translate(4434.646 2251.726)" fill="#f9c04e"/>
    <path id="Trazado_24513" data-name="Trazado 24513" d="M0,0H6.541V40.322H0Z" transform="translate(4444.132 2243.058)" fill="#662d91"/>
    <path id="Trazado_24514" data-name="Trazado 24514" d="M0,0H6.541V52.137H0Z" transform="translate(4453.618 2231.243)" fill="#ba72ed"/>
    <path id="Trazado_24515" data-name="Trazado 24515" d="M0,0H6.541V68.287H0Z" transform="translate(4463.104 2215.093)" fill="#51beed"/>
    <path id="Trazado_24516" data-name="Trazado 24516" d="M0,0H6.541V63.058H0Z" transform="translate(4472.59 2220.322)" fill="#e82b7e"/>
    <path id="Trazado_24517" data-name="Trazado 24517" d="M0,0H6.541V84.207H0Z" transform="translate(4493.272 2199.173)" fill="#f9c04e"/>
    <path id="Trazado_24518" data-name="Trazado 24518" d="M0,0H6.541V103H0Z" transform="translate(4502.758 2180.381)" fill="#662d91"/>
    <path id="Trazado_24519" data-name="Trazado 24519" d="M0,0H6.541V108.892H0Z" transform="translate(4512.244 2174.488)" fill="#ba72ed"/>
    <path id="Trazado_24520" data-name="Trazado 24520" d="M0,0H6.542V128.853H0Z" transform="translate(4521.73 2154.528)" fill="#51beed"/>
    <path id="Trazado_24521" data-name="Trazado 24521" d="M0,0H6.541V143.436H0Z" transform="translate(4531.216 2139.945)" fill="#e82b7e"/>
    <path id="Trazado_24522" data-name="Trazado 24522" d="M0,0H6.541V147.654H0Z" transform="translate(4551.476 2135.726)" fill="#f9c04e"/>
    <path id="Trazado_24523" data-name="Trazado 24523" d="M0,0H6.541V169.7H0Z" transform="translate(4560.961 2113.684)" fill="#662d91"/>
    <path id="Trazado_24524" data-name="Trazado 24524" d="M0,0H6.541V177.093H0Z" transform="translate(4570.447 2106.288)" fill="#ba72ed"/>
    <path id="Trazado_24525" data-name="Trazado 24525" d="M0,0H6.541V175.1H0Z" transform="translate(4579.933 2108.285)" fill="#51beed"/>
    <path id="Trazado_24526" data-name="Trazado 24526" d="M0,0H6.542V182.9H0Z" transform="translate(4589.419 2100.484)" fill="#e82b7e"/>
    <path id="Trazado_24527" data-name="Trazado 24527" d="M0,0H6.541V181.618H0Z" transform="translate(4607.953 2101.762)" fill="#f9c04e"/>
    <path id="Trazado_24528" data-name="Trazado 24528" d="M0,0H6.541V187.118H0Z" transform="translate(4617.439 2096.263)" fill="#662d91"/>
    <path id="Trazado_24529" data-name="Trazado 24529" d="M0,0H6.541V165.112H0Z" transform="translate(4626.925 2118.268)" fill="#ba72ed"/>
    <path id="Trazado_24530" data-name="Trazado 24530" d="M0,0H6.541V181.215H0Z" transform="translate(4636.411 2102.166)" fill="#51beed"/>
    <path id="Trazado_24531" data-name="Trazado 24531" d="M0,0H6.541V158.616H0Z" transform="translate(4645.896 2124.765)" fill="#e82b7e"/>
    <path id="Trazado_24532" data-name="Trazado 24532" d="M0,0H6.541V150.618H0Z" transform="translate(4663.573 2132.762)" fill="#f9c04e"/>
    <path id="Trazado_24533" data-name="Trazado 24533" d="M0,0H6.541V141.118H0Z" transform="translate(4673.059 2142.263)" fill="#662d91"/>
    <path id="Trazado_24534" data-name="Trazado 24534" d="M0,0H6.541V153.38H0Z" transform="translate(4682.545 2130)" fill="#ba72ed"/>
    <path id="Trazado_24535" data-name="Trazado 24535" d="M0,0H6.541V132.287H0Z" transform="translate(4692.03 2151.093)" fill="#51beed"/>
    <path id="Trazado_24536" data-name="Trazado 24536" d="M0,0H6.541V130.616H0Z" transform="translate(4701.517 2152.765)" fill="#e82b7e"/>
    <path id="Trazado_24537" data-name="Trazado 24537" d="M0,0H6.541V102.529H0Z" transform="translate(4720.462 2180.851)" fill="#f9c04e"/>
    <path id="Trazado_24538" data-name="Trazado 24538" d="M0,0H6.541V112.287H0Z" transform="translate(4729.948 2171.093)" fill="#662d91"/>
    <path id="Trazado_24539" data-name="Trazado 24539" d="M0,0H6.541V118.454H0Z" transform="translate(4739.434 2164.926)" fill="#ba72ed"/>
    <path id="Trazado_24540" data-name="Trazado 24540" d="M0,0H6.541V99.454H0Z" transform="translate(4748.919 2183.926)" fill="#51beed"/>
    <path id="Trazado_24541" data-name="Trazado 24541" d="M0,0H6.541V90.9H0Z" transform="translate(4758.405 2192.484)" fill="#e82b7e"/>
    <path id="Trazado_24542" data-name="Trazado 24542" d="M0,0H6.541V76.529H0Z" transform="translate(4778.536 2206.851)" fill="#f9c04e"/>
    <path id="Trazado_24543" data-name="Trazado 24543" d="M0,0H6.541V79.326H0Z" transform="translate(4788.021 2204.055)" fill="#662d91"/>
    <path id="Trazado_24544" data-name="Trazado 24544" d="M0,0H6.541V71.794H0Z" transform="translate(4797.508 2211.586)" fill="#ba72ed"/>
    <path id="Trazado_24545" data-name="Trazado 24545" d="M0,0H6.541V59.373H0Z" transform="translate(4806.993 2224.008)" fill="#51beed"/>
    <path id="Trazado_24546" data-name="Trazado 24546" d="M0,0H6.541V51.4H0Z" transform="translate(4816.479 2231.976)" fill="#e82b7e"/>
    <path id="Trazado_24168" data-name="Trazado 24168" d="M778.351,24.851V228.834h414.871" transform="translate(3644.721 2066.148)" fill="none" stroke="#d3d3d1" stroke-miterlimit="10" stroke-width="1"/>
    <path id="Trazado_24511" data-name="Trazado 24511" d="M4437.917,1942.226s42.554-61.55,79.791-98.264c36.6-36.089,66.151-56.318,96.869-53.637.552-.016,1.323-.032,2.1-.045,45.849-.722,192.341,123.941,202.894,130.328" transform="translate(0 297)" fill="none" stroke="#4d3189" stroke-width="2" opacity="0.2"/>
  </g>
</svg>
