<svg xmlns="http://www.w3.org/2000/svg" width="642" height="268" viewBox="0 0 642 268">
  <g id="Grupo_30152" data-name="Grupo 30152" transform="translate(-4800 -2704)">
    <path id="Trazado_24169" data-name="Trazado 24169" d="M0,0H447V73H0Z" transform="translate(4995 2755)" fill="#eef2f9"/>
    <path id="Trazado_24170" data-name="Trazado 24170" d="M37.114,4.889H39.79V19h-2.8V7.779L33.745,10.8V7.906Z" transform="translate(4995 2780)" fill="#002b45"/>
    <path id="Trazado_24171" data-name="Trazado 24171" d="M28.711,16.147a4.457,4.457,0,0,1-3,1.02,4.462,4.462,0,0,1-3-1.024,3.369,3.369,0,0,1-1.2-2.694,3.329,3.329,0,0,1,.624-2.021,3.577,3.577,0,0,1,1.7-1.248,3.056,3.056,0,0,1-1.217-1.059A2.694,2.694,0,0,1,22.163,7.6a2.861,2.861,0,0,1,1.011-2.254,3.72,3.72,0,0,1,2.54-.883,3.655,3.655,0,0,1,2.509.888A2.87,2.87,0,0,1,29.229,7.6a2.753,2.753,0,0,1-.439,1.525,2.974,2.974,0,0,1-1.2,1.059,3.647,3.647,0,0,1,1.688,1.252,3.31,3.31,0,0,1,.624,2.017A3.371,3.371,0,0,1,28.711,16.147Zm-3-6.469a2.094,2.094,0,0,0,1.5-.58,1.887,1.887,0,0,0,.611-1.424,1.826,1.826,0,0,0-.611-1.393,2.288,2.288,0,0,0-3.01,0,1.829,1.829,0,0,0-.606,1.4A1.887,1.887,0,0,0,24.207,9.1,2.105,2.105,0,0,0,25.714,9.679Zm0,6.082a2.756,2.756,0,0,0,1.9-.677,2.283,2.283,0,0,0,.76-1.793,2.237,2.237,0,0,0-.76-1.767,2.778,2.778,0,0,0-1.9-.668,2.807,2.807,0,0,0-1.916.668,2.231,2.231,0,0,0-.765,1.767,2.277,2.277,0,0,0,.765,1.793A2.785,2.785,0,0,0,25.714,15.761Zm13.131.387a4.913,4.913,0,0,1-6,0,3.369,3.369,0,0,1-1.2-2.694,3.329,3.329,0,0,1,.624-2.021,3.577,3.577,0,0,1,1.7-1.248A3.056,3.056,0,0,1,32.75,9.121,2.694,2.694,0,0,1,32.3,7.6a2.861,2.861,0,0,1,1.011-2.254,3.72,3.72,0,0,1,2.54-.883,3.655,3.655,0,0,1,2.509.888A2.87,2.87,0,0,1,39.363,7.6a2.753,2.753,0,0,1-.439,1.525,2.974,2.974,0,0,1-1.2,1.059,3.647,3.647,0,0,1,1.688,1.252,3.31,3.31,0,0,1,.624,2.017A3.371,3.371,0,0,1,38.845,16.147Zm-3-6.469a2.094,2.094,0,0,0,1.5-.58,1.887,1.887,0,0,0,.611-1.424,1.826,1.826,0,0,0-.611-1.393,2.288,2.288,0,0,0-3.01,0,1.829,1.829,0,0,0-.606,1.4A1.887,1.887,0,0,0,34.34,9.1,2.105,2.105,0,0,0,35.848,9.679Zm0,6.082a2.756,2.756,0,0,0,1.9-.677,2.283,2.283,0,0,0,.76-1.793,2.237,2.237,0,0,0-.76-1.767,2.778,2.778,0,0,0-1.9-.668,2.807,2.807,0,0,0-1.916.668,2.231,2.231,0,0,0-.765,1.767,2.277,2.277,0,0,0,.765,1.793A2.785,2.785,0,0,0,35.848,15.761ZM44.5,9.556a2.431,2.431,0,0,1-1.789-.747A2.473,2.473,0,0,1,41.974,7a2.467,2.467,0,0,1,.743-1.8,2.509,2.509,0,0,1,3.582,0A2.475,2.475,0,0,1,47.036,7,2.485,2.485,0,0,1,46.3,8.8,2.42,2.42,0,0,1,44.5,9.556ZM43.6,17.009l6.592-12.4H51.58l-6.592,12.4ZM44.5,8.448a1.388,1.388,0,0,0,1.033-.426A1.411,1.411,0,0,0,45.955,7a1.385,1.385,0,0,0-.422-1.024,1.47,1.47,0,0,0-2.052,0A1.378,1.378,0,0,0,43.055,7a1.448,1.448,0,0,0,1.45,1.45Zm6.275,8.71a2.545,2.545,0,0,1-1.8-4.346,2.463,2.463,0,0,1,1.8-.743,2.406,2.406,0,0,1,1.775.747,2.562,2.562,0,0,1,0,3.595A2.4,2.4,0,0,1,50.78,17.158Zm0-1.1a1.471,1.471,0,0,0,1.459-1.45,1.385,1.385,0,0,0-.431-1.028,1.48,1.48,0,0,0-2.065,0A1.457,1.457,0,0,0,50.78,16.06Z" transform="translate(4995 2853)" fill="#00223d"/>
    <path id="Trazado_24172" data-name="Trazado 24172" d="M25.679,4.484A4.324,4.324,0,0,1,28.75,5.649a3.927,3.927,0,0,1,1.244,3,4.873,4.873,0,0,1-1.081,2.971L24.773,17H22.954l3.419-4.307a3.992,3.992,0,0,1-1.037.132A3.8,3.8,0,0,1,22,10.922a4.225,4.225,0,0,1-.589-2.167,4.445,4.445,0,0,1,.321-1.745,3.84,3.84,0,0,1,.91-1.354A4.235,4.235,0,0,1,24.013,4.8,4.476,4.476,0,0,1,25.679,4.484Zm-1.964,6.372a2.805,2.805,0,0,0,2.026.773,2.646,2.646,0,0,0,2.017-.848,2.85,2.85,0,0,0,.778-2.07,2.763,2.763,0,0,0-.8-2.057,3.066,3.066,0,0,0-4.056.04,2.733,2.733,0,0,0-.787,2.087A2.8,2.8,0,0,0,23.714,10.856Zm12.125,6.311a3.447,3.447,0,0,1-3.05-1.617A8.623,8.623,0,0,1,31.717,10.8a8.662,8.662,0,0,1,1.059-4.737,3.705,3.705,0,0,1,6.113,0A8.637,8.637,0,0,1,39.952,10.8a8.6,8.6,0,0,1-1.077,4.742A3.44,3.44,0,0,1,35.839,17.167Zm0-1.406a2.093,2.093,0,0,0,1.925-1.239,8.08,8.08,0,0,0,.668-3.718A7.851,7.851,0,0,0,37.75,7.09a2.115,2.115,0,0,0-3.828,0,7.891,7.891,0,0,0-.677,3.718,8.122,8.122,0,0,0,.664,3.722A2.091,2.091,0,0,0,35.839,15.761ZM44.5,9.556a2.431,2.431,0,0,1-1.789-.747A2.473,2.473,0,0,1,41.974,7a2.467,2.467,0,0,1,.743-1.8,2.509,2.509,0,0,1,3.582,0A2.475,2.475,0,0,1,47.036,7,2.485,2.485,0,0,1,46.3,8.8,2.42,2.42,0,0,1,44.5,9.556ZM43.6,17.009l6.592-12.4H51.58l-6.592,12.4ZM44.5,8.448a1.388,1.388,0,0,0,1.033-.426A1.411,1.411,0,0,0,45.955,7a1.385,1.385,0,0,0-.422-1.024,1.47,1.47,0,0,0-2.052,0A1.378,1.378,0,0,0,43.055,7a1.448,1.448,0,0,0,1.45,1.45Zm6.275,8.71a2.545,2.545,0,0,1-1.8-4.346,2.463,2.463,0,0,1,1.8-.743,2.406,2.406,0,0,1,1.775.747,2.562,2.562,0,0,1,0,3.595A2.4,2.4,0,0,1,50.78,17.158Zm0-1.1a1.471,1.471,0,0,0,1.459-1.45,1.385,1.385,0,0,0-.431-1.028,1.48,1.48,0,0,0-2.065,0A1.457,1.457,0,0,0,50.78,16.06Z" transform="translate(5069 2853)" fill="#00223d"/>
    <path id="Trazado_24173" data-name="Trazado 24173" d="M27.211,16.147a4.457,4.457,0,0,1-3,1.02,4.462,4.462,0,0,1-3-1.024,3.369,3.369,0,0,1-1.2-2.694,3.329,3.329,0,0,1,.624-2.021,3.577,3.577,0,0,1,1.7-1.248,3.056,3.056,0,0,1-1.217-1.059A2.694,2.694,0,0,1,20.663,7.6a2.861,2.861,0,0,1,1.011-2.254,3.72,3.72,0,0,1,2.54-.883,3.655,3.655,0,0,1,2.509.888A2.87,2.87,0,0,1,27.729,7.6a2.753,2.753,0,0,1-.439,1.525,2.974,2.974,0,0,1-1.2,1.059,3.647,3.647,0,0,1,1.688,1.252,3.31,3.31,0,0,1,.624,2.017A3.371,3.371,0,0,1,27.211,16.147Zm-3-6.469a2.094,2.094,0,0,0,1.5-.58,1.887,1.887,0,0,0,.611-1.424,1.826,1.826,0,0,0-.611-1.393,2.288,2.288,0,0,0-3.01,0,1.829,1.829,0,0,0-.606,1.4A1.887,1.887,0,0,0,22.707,9.1,2.105,2.105,0,0,0,24.214,9.679Zm0,6.082a2.756,2.756,0,0,0,1.9-.677,2.283,2.283,0,0,0,.76-1.793,2.237,2.237,0,0,0-.76-1.767,2.778,2.778,0,0,0-1.9-.668,2.807,2.807,0,0,0-1.916.668,2.231,2.231,0,0,0-.765,1.767,2.277,2.277,0,0,0,.765,1.793A2.785,2.785,0,0,0,24.214,15.761Zm14.81-2.646v1.4H37.116V17H35.6V14.513H29.672V13.106l5.15-8.481h2.294v8.49Zm-7.778,0H35.6V5.741ZM43,9.556a2.431,2.431,0,0,1-1.789-.747A2.473,2.473,0,0,1,40.474,7a2.467,2.467,0,0,1,.743-1.8,2.509,2.509,0,0,1,3.582,0A2.475,2.475,0,0,1,45.536,7,2.485,2.485,0,0,1,44.8,8.8,2.42,2.42,0,0,1,43,9.556ZM42.1,17.009l6.592-12.4H50.08l-6.592,12.4ZM43,8.448a1.388,1.388,0,0,0,1.033-.426A1.411,1.411,0,0,0,44.455,7a1.385,1.385,0,0,0-.422-1.024,1.47,1.47,0,0,0-2.052,0A1.378,1.378,0,0,0,41.555,7,1.448,1.448,0,0,0,43,8.448Zm6.275,8.71a2.545,2.545,0,0,1-1.8-4.346,2.463,2.463,0,0,1,1.8-.743,2.406,2.406,0,0,1,1.775.747,2.562,2.562,0,0,1,0,3.595A2.4,2.4,0,0,1,49.28,17.158Zm0-1.1a1.471,1.471,0,0,0,1.459-1.45,1.385,1.385,0,0,0-.431-1.028,1.48,1.48,0,0,0-2.065,0A1.457,1.457,0,0,0,49.28,16.06Z" transform="translate(5144 2853)" fill="#00223d"/>
    <path id="Trazado_24174" data-name="Trazado 24174" d="M28.211,16.147a4.457,4.457,0,0,1-3,1.02,4.462,4.462,0,0,1-3-1.024,3.369,3.369,0,0,1-1.2-2.694,3.329,3.329,0,0,1,.624-2.021,3.577,3.577,0,0,1,1.7-1.248,3.056,3.056,0,0,1-1.217-1.059A2.694,2.694,0,0,1,21.663,7.6a2.861,2.861,0,0,1,1.011-2.254,3.72,3.72,0,0,1,2.54-.883,3.655,3.655,0,0,1,2.509.888A2.87,2.87,0,0,1,28.729,7.6a2.753,2.753,0,0,1-.439,1.525,2.974,2.974,0,0,1-1.2,1.059,3.647,3.647,0,0,1,1.688,1.252,3.31,3.31,0,0,1,.624,2.017A3.371,3.371,0,0,1,28.211,16.147Zm-3-6.469a2.094,2.094,0,0,0,1.5-.58,1.887,1.887,0,0,0,.611-1.424,1.826,1.826,0,0,0-.611-1.393,2.288,2.288,0,0,0-3.01,0,1.829,1.829,0,0,0-.606,1.4A1.887,1.887,0,0,0,23.707,9.1,2.105,2.105,0,0,0,25.214,9.679Zm0,6.082a2.756,2.756,0,0,0,1.9-.677,2.283,2.283,0,0,0,.76-1.793,2.237,2.237,0,0,0-.76-1.767,2.778,2.778,0,0,0-1.9-.668,2.807,2.807,0,0,0-1.916.668,2.231,2.231,0,0,0-.765,1.767,2.277,2.277,0,0,0,.765,1.793A2.785,2.785,0,0,0,25.214,15.761Zm10.125,1.406a3.447,3.447,0,0,1-3.05-1.617A8.623,8.623,0,0,1,31.217,10.8a8.662,8.662,0,0,1,1.059-4.737,3.705,3.705,0,0,1,6.113,0A8.637,8.637,0,0,1,39.452,10.8a8.6,8.6,0,0,1-1.077,4.742A3.44,3.44,0,0,1,35.339,17.167Zm0-1.406a2.093,2.093,0,0,0,1.925-1.239,8.08,8.08,0,0,0,.668-3.718A7.851,7.851,0,0,0,37.25,7.09a2.115,2.115,0,0,0-3.828,0,7.891,7.891,0,0,0-.677,3.718,8.122,8.122,0,0,0,.664,3.722A2.091,2.091,0,0,0,35.339,15.761ZM44,9.556a2.431,2.431,0,0,1-1.789-.747A2.473,2.473,0,0,1,41.474,7a2.467,2.467,0,0,1,.743-1.8,2.509,2.509,0,0,1,3.582,0A2.475,2.475,0,0,1,46.536,7,2.485,2.485,0,0,1,45.8,8.8,2.42,2.42,0,0,1,44,9.556ZM43.1,17.009l6.592-12.4H51.08l-6.592,12.4ZM44,8.448a1.388,1.388,0,0,0,1.033-.426A1.411,1.411,0,0,0,45.455,7a1.385,1.385,0,0,0-.422-1.024,1.47,1.47,0,0,0-2.052,0A1.378,1.378,0,0,0,42.555,7,1.448,1.448,0,0,0,44,8.448Zm6.275,8.71a2.545,2.545,0,0,1-1.8-4.346,2.463,2.463,0,0,1,1.8-.743,2.406,2.406,0,0,1,1.775.747,2.562,2.562,0,0,1,0,3.595A2.4,2.4,0,0,1,50.28,17.158Zm0-1.1a1.471,1.471,0,0,0,1.459-1.45,1.385,1.385,0,0,0-.431-1.028,1.48,1.48,0,0,0-2.065,0A1.457,1.457,0,0,0,50.28,16.06Z" transform="translate(5218 2853)" fill="#00223d"/>
    <path id="Trazado_24175" data-name="Trazado 24175" d="M25.679,4.484A4.324,4.324,0,0,1,28.75,5.649a3.927,3.927,0,0,1,1.244,3,4.873,4.873,0,0,1-1.081,2.971L24.773,17H22.954l3.419-4.307a3.992,3.992,0,0,1-1.037.132A3.8,3.8,0,0,1,22,10.922a4.225,4.225,0,0,1-.589-2.167,4.445,4.445,0,0,1,.321-1.745,3.84,3.84,0,0,1,.91-1.354A4.235,4.235,0,0,1,24.013,4.8,4.476,4.476,0,0,1,25.679,4.484Zm-1.964,6.372a2.805,2.805,0,0,0,2.026.773,2.646,2.646,0,0,0,2.017-.848,2.85,2.85,0,0,0,.778-2.07,2.763,2.763,0,0,0-.8-2.057,3.066,3.066,0,0,0-4.056.04,2.733,2.733,0,0,0-.787,2.087A2.8,2.8,0,0,0,23.714,10.856ZM33.835,15.6H40V17h-8.35V15.849L36.6,10.725A5.872,5.872,0,0,0,37.72,9.257a2.928,2.928,0,0,0,.308-1.274A2.136,2.136,0,0,0,37.4,6.343a2.548,2.548,0,0,0-3.309.053,2.741,2.741,0,0,0-.628,1.991V9.3L31.945,9.16V8.4a3.912,3.912,0,0,1,1.046-2.94,4.33,4.33,0,0,1,5.48-.075,3.27,3.27,0,0,1,1.05,2.566A3.892,3.892,0,0,1,39.1,9.736a7.689,7.689,0,0,1-1.34,1.78ZM44.5,9.556a2.431,2.431,0,0,1-1.789-.747A2.473,2.473,0,0,1,41.974,7a2.467,2.467,0,0,1,.743-1.8,2.509,2.509,0,0,1,3.582,0A2.475,2.475,0,0,1,47.036,7,2.485,2.485,0,0,1,46.3,8.8,2.42,2.42,0,0,1,44.5,9.556ZM43.6,17.009l6.592-12.4H51.58l-6.592,12.4ZM44.5,8.448a1.388,1.388,0,0,0,1.033-.426A1.411,1.411,0,0,0,45.955,7a1.385,1.385,0,0,0-.422-1.024,1.47,1.47,0,0,0-2.052,0A1.378,1.378,0,0,0,43.055,7a1.448,1.448,0,0,0,1.45,1.45Zm6.275,8.71a2.545,2.545,0,0,1-1.8-4.346,2.463,2.463,0,0,1,1.8-.743,2.406,2.406,0,0,1,1.775.747,2.562,2.562,0,0,1,0,3.595A2.4,2.4,0,0,1,50.78,17.158Zm0-1.1a1.471,1.471,0,0,0,1.459-1.45,1.385,1.385,0,0,0-.431-1.028,1.48,1.48,0,0,0-2.065,0A1.457,1.457,0,0,0,50.78,16.06Z" transform="translate(5292 2853)" fill="#00223d"/>
    <path id="Trazado_24176" data-name="Trazado 24176" d="M29.211,16.147a4.457,4.457,0,0,1-3,1.02,4.462,4.462,0,0,1-3-1.024,3.369,3.369,0,0,1-1.2-2.694,3.329,3.329,0,0,1,.624-2.021,3.577,3.577,0,0,1,1.7-1.248,3.056,3.056,0,0,1-1.217-1.059A2.694,2.694,0,0,1,22.663,7.6a2.861,2.861,0,0,1,1.011-2.254,3.72,3.72,0,0,1,2.54-.883,3.655,3.655,0,0,1,2.509.888A2.87,2.87,0,0,1,29.729,7.6a2.753,2.753,0,0,1-.439,1.525,2.974,2.974,0,0,1-1.2,1.059,3.647,3.647,0,0,1,1.688,1.252,3.31,3.31,0,0,1,.624,2.017A3.371,3.371,0,0,1,29.211,16.147Zm-3-6.469a2.094,2.094,0,0,0,1.5-.58,1.887,1.887,0,0,0,.611-1.424,1.826,1.826,0,0,0-.611-1.393,2.288,2.288,0,0,0-3.01,0,1.829,1.829,0,0,0-.606,1.4A1.887,1.887,0,0,0,24.707,9.1,2.105,2.105,0,0,0,26.214,9.679Zm0,6.082a2.756,2.756,0,0,0,1.9-.677,2.283,2.283,0,0,0,.76-1.793,2.237,2.237,0,0,0-.76-1.767,2.778,2.778,0,0,0-1.9-.668,2.807,2.807,0,0,0-1.916.668,2.231,2.231,0,0,0-.765,1.767,2.277,2.277,0,0,0,.765,1.793A2.785,2.785,0,0,0,26.214,15.761Zm10.125,1.406a3.447,3.447,0,0,1-3.05-1.617A8.623,8.623,0,0,1,32.217,10.8a8.662,8.662,0,0,1,1.059-4.737,3.705,3.705,0,0,1,6.113,0A8.637,8.637,0,0,1,40.452,10.8a8.6,8.6,0,0,1-1.077,4.742A3.44,3.44,0,0,1,36.339,17.167Zm0-1.406a2.093,2.093,0,0,0,1.925-1.239,8.08,8.08,0,0,0,.668-3.718A7.851,7.851,0,0,0,38.25,7.09a2.115,2.115,0,0,0-3.828,0,7.891,7.891,0,0,0-.677,3.718,8.122,8.122,0,0,0,.664,3.722A2.091,2.091,0,0,0,36.339,15.761ZM45,9.556a2.431,2.431,0,0,1-1.789-.747A2.473,2.473,0,0,1,42.474,7a2.467,2.467,0,0,1,.743-1.8,2.509,2.509,0,0,1,3.582,0A2.475,2.475,0,0,1,47.536,7,2.485,2.485,0,0,1,46.8,8.8,2.42,2.42,0,0,1,45,9.556ZM44.1,17.009l6.592-12.4H52.08l-6.592,12.4ZM45,8.448a1.388,1.388,0,0,0,1.033-.426A1.411,1.411,0,0,0,46.455,7a1.385,1.385,0,0,0-.422-1.024,1.47,1.47,0,0,0-2.052,0A1.378,1.378,0,0,0,43.555,7,1.448,1.448,0,0,0,45,8.448Zm6.275,8.71a2.545,2.545,0,0,1-1.8-4.346,2.463,2.463,0,0,1,1.8-.743,2.406,2.406,0,0,1,1.775.747,2.562,2.562,0,0,1,0,3.595A2.4,2.4,0,0,1,51.28,17.158Zm0-1.1a1.471,1.471,0,0,0,1.459-1.45,1.385,1.385,0,0,0-.431-1.028,1.48,1.48,0,0,0-2.065,0A1.457,1.457,0,0,0,51.28,16.06Z" transform="translate(5366 2853)" fill="#00223d"/>
    <path id="Trazado_24177" data-name="Trazado 24177" d="M25.679,4.484A4.324,4.324,0,0,1,28.75,5.649a3.927,3.927,0,0,1,1.244,3,4.873,4.873,0,0,1-1.081,2.971L24.773,17H22.954l3.419-4.307a3.992,3.992,0,0,1-1.037.132A3.8,3.8,0,0,1,22,10.922a4.225,4.225,0,0,1-.589-2.167,4.445,4.445,0,0,1,.321-1.745,3.84,3.84,0,0,1,.91-1.354A4.235,4.235,0,0,1,24.013,4.8,4.476,4.476,0,0,1,25.679,4.484Zm-1.964,6.372a2.805,2.805,0,0,0,2.026.773,2.646,2.646,0,0,0,2.017-.848,2.85,2.85,0,0,0,.778-2.07,2.763,2.763,0,0,0-.8-2.057,3.066,3.066,0,0,0-4.056.04,2.733,2.733,0,0,0-.787,2.087A2.8,2.8,0,0,0,23.714,10.856Zm7.915-6.231h8.464V5.9L34.046,17h-1.74l6.1-10.969H31.629ZM44.5,9.556a2.431,2.431,0,0,1-1.789-.747A2.473,2.473,0,0,1,41.974,7a2.467,2.467,0,0,1,.743-1.8,2.509,2.509,0,0,1,3.582,0A2.475,2.475,0,0,1,47.036,7,2.485,2.485,0,0,1,46.3,8.8,2.42,2.42,0,0,1,44.5,9.556ZM43.6,17.009l6.592-12.4H51.58l-6.592,12.4ZM44.5,8.448a1.388,1.388,0,0,0,1.033-.426A1.411,1.411,0,0,0,45.955,7a1.385,1.385,0,0,0-.422-1.024,1.47,1.47,0,0,0-2.052,0A1.378,1.378,0,0,0,43.055,7a1.448,1.448,0,0,0,1.45,1.45Zm6.275,8.71a2.545,2.545,0,0,1-1.8-4.346,2.463,2.463,0,0,1,1.8-.743,2.406,2.406,0,0,1,1.775.747,2.562,2.562,0,0,1,0,3.595A2.4,2.4,0,0,1,50.78,17.158Zm0-1.1a1.471,1.471,0,0,0,1.459-1.45,1.385,1.385,0,0,0-.431-1.028,1.48,1.48,0,0,0-2.065,0A1.457,1.457,0,0,0,50.78,16.06Z" transform="translate(4995 2924)" fill="#00223d"/>
    <path id="Trazado_24178" data-name="Trazado 24178" d="M25.179,4.484A4.324,4.324,0,0,1,28.25,5.649a3.927,3.927,0,0,1,1.244,3,4.873,4.873,0,0,1-1.081,2.971L24.273,17H22.454l3.419-4.307a3.992,3.992,0,0,1-1.037.132,3.8,3.8,0,0,1-3.331-1.9,4.225,4.225,0,0,1-.589-2.167,4.445,4.445,0,0,1,.321-1.745,3.84,3.84,0,0,1,.91-1.354A4.235,4.235,0,0,1,23.513,4.8,4.476,4.476,0,0,1,25.179,4.484Zm-1.964,6.372a2.805,2.805,0,0,0,2.026.773,2.646,2.646,0,0,0,2.017-.848,2.85,2.85,0,0,0,.778-2.07,2.763,2.763,0,0,0-.8-2.057,3.066,3.066,0,0,0-4.056.04,2.733,2.733,0,0,0-.787,2.087A2.8,2.8,0,0,0,23.214,10.856ZM35.049,9.037a4.8,4.8,0,0,1,3.375,1.042,3.778,3.778,0,0,1,1.116,2.9,4.107,4.107,0,0,1-1.147,3.01,4.026,4.026,0,0,1-3,1.165,4.769,4.769,0,0,1-1.551-.25,4.19,4.19,0,0,1-1.31-.721,3.3,3.3,0,0,1-.914-1.217,4,4,0,0,1-.338-1.67,5.645,5.645,0,0,1,.044-.633l1.556-.132a6.186,6.186,0,0,0-.07.694,2.794,2.794,0,0,0,.224,1.151,1.968,1.968,0,0,0,.6.787,2.738,2.738,0,0,0,.813.426,2.968,2.968,0,0,0,.918.141,2.538,2.538,0,0,0,1.92-.756,2.69,2.69,0,0,0,.725-1.942,2.559,2.559,0,0,0-.751-1.951,3.368,3.368,0,0,0-2.377-.712H31.753l.765-5.73H39V6.058H33.8l-.4,2.979ZM44,9.556a2.431,2.431,0,0,1-1.789-.747A2.473,2.473,0,0,1,41.474,7a2.467,2.467,0,0,1,.743-1.8,2.509,2.509,0,0,1,3.582,0A2.475,2.475,0,0,1,46.536,7,2.485,2.485,0,0,1,45.8,8.8,2.42,2.42,0,0,1,44,9.556ZM43.1,17.009l6.592-12.4H51.08l-6.592,12.4ZM44,8.448a1.388,1.388,0,0,0,1.033-.426A1.411,1.411,0,0,0,45.455,7a1.385,1.385,0,0,0-.422-1.024,1.47,1.47,0,0,0-2.052,0A1.378,1.378,0,0,0,42.555,7,1.448,1.448,0,0,0,44,8.448Zm6.275,8.71a2.545,2.545,0,0,1-1.8-4.346,2.463,2.463,0,0,1,1.8-.743,2.406,2.406,0,0,1,1.775.747,2.562,2.562,0,0,1,0,3.595A2.4,2.4,0,0,1,50.28,17.158Zm0-1.1a1.471,1.471,0,0,0,1.459-1.45,1.385,1.385,0,0,0-.431-1.028,1.48,1.48,0,0,0-2.065,0A1.457,1.457,0,0,0,50.28,16.06Z" transform="translate(5070 2924)" fill="#00223d"/>
    <path id="Trazado_24179" data-name="Trazado 24179" d="M24.179,4.484A4.324,4.324,0,0,1,27.25,5.649a3.927,3.927,0,0,1,1.244,3,4.873,4.873,0,0,1-1.081,2.971L23.273,17H21.454l3.419-4.307a3.992,3.992,0,0,1-1.037.132,3.8,3.8,0,0,1-3.331-1.9,4.225,4.225,0,0,1-.589-2.167,4.445,4.445,0,0,1,.321-1.745,3.84,3.84,0,0,1,.91-1.354A4.235,4.235,0,0,1,22.513,4.8,4.476,4.476,0,0,1,24.179,4.484Zm-1.964,6.372a2.805,2.805,0,0,0,2.026.773,2.646,2.646,0,0,0,2.017-.848,2.85,2.85,0,0,0,.778-2.07,2.763,2.763,0,0,0-.8-2.057,3.066,3.066,0,0,0-4.056.04,2.733,2.733,0,0,0-.787,2.087A2.8,2.8,0,0,0,22.214,10.856Zm12.037,6.311q-4.122,0-4.122-4.4l1.547-.079a3.864,3.864,0,0,0,.58,2.329,2.339,2.339,0,0,0,2,.773,2.742,2.742,0,0,0,1.92-.668,2.254,2.254,0,0,0,.734-1.749,2.232,2.232,0,0,0-.708-1.74,2.537,2.537,0,0,0-1.771-.642h-.615V9.7h.6a1.831,1.831,0,0,0,1.354-.571,1.927,1.927,0,0,0,.563-1.406,1.733,1.733,0,0,0-.6-1.362,2.188,2.188,0,0,0-1.5-.527,2.392,2.392,0,0,0-.989.185,1.388,1.388,0,0,0-.628.541,2.548,2.548,0,0,0-.316.787,4.611,4.611,0,0,0-.1,1L30.647,8.29a4.007,4.007,0,0,1,.927-2.839,3.436,3.436,0,0,1,2.641-.993,3.669,3.669,0,0,1,2.536.905,2.893,2.893,0,0,1,1.015,2.25,2.71,2.71,0,0,1-.492,1.608,2.812,2.812,0,0,1-1.239,1,3.421,3.421,0,0,1,1.74,1.134,3.179,3.179,0,0,1,.677,2.083,3.4,3.4,0,0,1-1.182,2.7A4.434,4.434,0,0,1,34.251,17.167ZM43,9.556a2.431,2.431,0,0,1-1.789-.747A2.473,2.473,0,0,1,40.474,7a2.467,2.467,0,0,1,.743-1.8,2.509,2.509,0,0,1,3.582,0A2.475,2.475,0,0,1,45.536,7,2.485,2.485,0,0,1,44.8,8.8,2.42,2.42,0,0,1,43,9.556ZM42.1,17.009l6.592-12.4H50.08l-6.592,12.4ZM43,8.448a1.388,1.388,0,0,0,1.033-.426A1.411,1.411,0,0,0,44.455,7a1.385,1.385,0,0,0-.422-1.024,1.47,1.47,0,0,0-2.052,0A1.378,1.378,0,0,0,41.555,7,1.448,1.448,0,0,0,43,8.448Zm6.275,8.71a2.545,2.545,0,0,1-1.8-4.346,2.463,2.463,0,0,1,1.8-.743,2.406,2.406,0,0,1,1.775.747,2.562,2.562,0,0,1,0,3.595A2.4,2.4,0,0,1,49.28,17.158Zm0-1.1a1.471,1.471,0,0,0,1.459-1.45,1.385,1.385,0,0,0-.431-1.028,1.48,1.48,0,0,0-2.065,0A1.457,1.457,0,0,0,49.28,16.06Z" transform="translate(5144 2924)" fill="#00223d"/>
    <path id="Trazado_24180" data-name="Trazado 24180" d="M25.179,4.484A4.324,4.324,0,0,1,28.25,5.649a3.927,3.927,0,0,1,1.244,3,4.873,4.873,0,0,1-1.081,2.971L24.273,17H22.454l3.419-4.307a3.992,3.992,0,0,1-1.037.132,3.8,3.8,0,0,1-3.331-1.9,4.225,4.225,0,0,1-.589-2.167,4.445,4.445,0,0,1,.321-1.745,3.84,3.84,0,0,1,.91-1.354A4.235,4.235,0,0,1,23.513,4.8,4.476,4.476,0,0,1,25.179,4.484Zm-1.964,6.372a2.805,2.805,0,0,0,2.026.773,2.646,2.646,0,0,0,2.017-.848,2.85,2.85,0,0,0,.778-2.07,2.763,2.763,0,0,0-.8-2.057,3.066,3.066,0,0,0-4.056.04,2.733,2.733,0,0,0-.787,2.087A2.8,2.8,0,0,0,23.214,10.856Zm16.4,2.021a4.176,4.176,0,0,1-.562,2.224,3.974,3.974,0,0,1-1.556,1.512,4.437,4.437,0,0,1-2.145.527,4.32,4.32,0,0,1-3.076-1.165,3.934,3.934,0,0,1-1.239-3A4.873,4.873,0,0,1,32.1,10l4.14-5.379h1.793L34.6,8.958a3.853,3.853,0,0,1,1.072-.149,3.933,3.933,0,0,1,1.9.475,3.8,3.8,0,0,1,1.45,1.419A4.242,4.242,0,0,1,39.61,12.878Zm-4.3,2.848a2.688,2.688,0,0,0,2.813-2.874A2.719,2.719,0,0,0,35.286,10a2.66,2.66,0,0,0-2.021.848,2.842,2.842,0,0,0-.782,2.07,2.739,2.739,0,0,0,.8,2.065A2.834,2.834,0,0,0,35.313,15.726ZM44,9.556a2.431,2.431,0,0,1-1.789-.747A2.473,2.473,0,0,1,41.474,7a2.467,2.467,0,0,1,.743-1.8,2.509,2.509,0,0,1,3.582,0A2.475,2.475,0,0,1,46.536,7,2.485,2.485,0,0,1,45.8,8.8,2.42,2.42,0,0,1,44,9.556ZM43.1,17.009l6.592-12.4H51.08l-6.592,12.4ZM44,8.448a1.388,1.388,0,0,0,1.033-.426A1.411,1.411,0,0,0,45.455,7a1.385,1.385,0,0,0-.422-1.024,1.47,1.47,0,0,0-2.052,0A1.378,1.378,0,0,0,42.555,7,1.448,1.448,0,0,0,44,8.448Zm6.275,8.71a2.545,2.545,0,0,1-1.8-4.346,2.463,2.463,0,0,1,1.8-.743,2.406,2.406,0,0,1,1.775.747,2.562,2.562,0,0,1,0,3.595A2.4,2.4,0,0,1,50.28,17.158Zm0-1.1a1.471,1.471,0,0,0,1.459-1.45,1.385,1.385,0,0,0-.431-1.028,1.48,1.48,0,0,0-2.065,0A1.457,1.457,0,0,0,50.28,16.06Z" transform="translate(5218 2924)" fill="#00223d"/>
    <path id="Trazado_24181" data-name="Trazado 24181" d="M25.679,4.484A4.324,4.324,0,0,1,28.75,5.649a3.927,3.927,0,0,1,1.244,3,4.873,4.873,0,0,1-1.081,2.971L24.773,17H22.954l3.419-4.307a3.992,3.992,0,0,1-1.037.132A3.8,3.8,0,0,1,22,10.922a4.225,4.225,0,0,1-.589-2.167,4.445,4.445,0,0,1,.321-1.745,3.84,3.84,0,0,1,.91-1.354A4.235,4.235,0,0,1,24.013,4.8,4.476,4.476,0,0,1,25.679,4.484Zm-1.964,6.372a2.805,2.805,0,0,0,2.026.773,2.646,2.646,0,0,0,2.017-.848,2.85,2.85,0,0,0,.778-2.07,2.763,2.763,0,0,0-.8-2.057,3.066,3.066,0,0,0-4.056.04,2.733,2.733,0,0,0-.787,2.087A2.8,2.8,0,0,0,23.714,10.856ZM35.549,9.037a4.8,4.8,0,0,1,3.375,1.042,3.778,3.778,0,0,1,1.116,2.9,4.107,4.107,0,0,1-1.147,3.01,4.026,4.026,0,0,1-3,1.165,4.769,4.769,0,0,1-1.551-.25,4.19,4.19,0,0,1-1.31-.721,3.3,3.3,0,0,1-.914-1.217,4,4,0,0,1-.338-1.67,5.645,5.645,0,0,1,.044-.633l1.556-.132a6.186,6.186,0,0,0-.07.694,2.794,2.794,0,0,0,.224,1.151,1.968,1.968,0,0,0,.6.787,2.738,2.738,0,0,0,.813.426,2.968,2.968,0,0,0,.918.141,2.538,2.538,0,0,0,1.92-.756,2.69,2.69,0,0,0,.725-1.942,2.559,2.559,0,0,0-.751-1.951,3.368,3.368,0,0,0-2.377-.712H32.253l.765-5.73H39.5V6.058H34.3l-.4,2.979Zm8.956.519a2.431,2.431,0,0,1-1.789-.747A2.473,2.473,0,0,1,41.974,7a2.467,2.467,0,0,1,.743-1.8,2.509,2.509,0,0,1,3.582,0A2.475,2.475,0,0,1,47.036,7,2.485,2.485,0,0,1,46.3,8.8,2.42,2.42,0,0,1,44.5,9.556ZM43.6,17.009l6.592-12.4H51.58l-6.592,12.4ZM44.5,8.448a1.388,1.388,0,0,0,1.033-.426A1.411,1.411,0,0,0,45.955,7a1.385,1.385,0,0,0-.422-1.024,1.47,1.47,0,0,0-2.052,0A1.378,1.378,0,0,0,43.055,7a1.448,1.448,0,0,0,1.45,1.45Zm6.275,8.71a2.545,2.545,0,0,1-1.8-4.346,2.463,2.463,0,0,1,1.8-.743,2.406,2.406,0,0,1,1.775.747,2.562,2.562,0,0,1,0,3.595A2.4,2.4,0,0,1,50.78,17.158Zm0-1.1a1.471,1.471,0,0,0,1.459-1.45,1.385,1.385,0,0,0-.431-1.028,1.48,1.48,0,0,0-2.065,0A1.457,1.457,0,0,0,50.78,16.06Z" transform="translate(5292 2924)" fill="#00223d"/>
    <path id="Trazado_24182" data-name="Trazado 24182" d="M26.179,4.484A4.324,4.324,0,0,1,29.25,5.649a3.927,3.927,0,0,1,1.244,3,4.873,4.873,0,0,1-1.081,2.971L25.273,17H23.454l3.419-4.307a3.992,3.992,0,0,1-1.037.132,3.8,3.8,0,0,1-3.331-1.9,4.225,4.225,0,0,1-.589-2.167,4.445,4.445,0,0,1,.321-1.745,3.84,3.84,0,0,1,.91-1.354A4.235,4.235,0,0,1,24.513,4.8,4.476,4.476,0,0,1,26.179,4.484Zm-1.964,6.372a2.805,2.805,0,0,0,2.026.773,2.646,2.646,0,0,0,2.017-.848,2.85,2.85,0,0,0,.778-2.07,2.763,2.763,0,0,0-.8-2.057,3.066,3.066,0,0,0-4.056.04,2.733,2.733,0,0,0-.787,2.087A2.8,2.8,0,0,0,24.214,10.856Zm16.4,2.021a4.176,4.176,0,0,1-.562,2.224,3.974,3.974,0,0,1-1.556,1.512,4.437,4.437,0,0,1-2.145.527,4.32,4.32,0,0,1-3.076-1.165,3.934,3.934,0,0,1-1.239-3A4.873,4.873,0,0,1,33.1,10l4.14-5.379h1.793L35.6,8.958a3.853,3.853,0,0,1,1.072-.149,3.933,3.933,0,0,1,1.9.475,3.8,3.8,0,0,1,1.45,1.419A4.242,4.242,0,0,1,40.61,12.878Zm-4.3,2.848a2.688,2.688,0,0,0,2.813-2.874A2.719,2.719,0,0,0,36.286,10a2.66,2.66,0,0,0-2.021.848,2.842,2.842,0,0,0-.782,2.07,2.739,2.739,0,0,0,.8,2.065A2.834,2.834,0,0,0,36.313,15.726ZM45,9.556a2.431,2.431,0,0,1-1.789-.747A2.473,2.473,0,0,1,42.474,7a2.467,2.467,0,0,1,.743-1.8,2.509,2.509,0,0,1,3.582,0A2.475,2.475,0,0,1,47.536,7,2.485,2.485,0,0,1,46.8,8.8,2.42,2.42,0,0,1,45,9.556ZM44.1,17.009l6.592-12.4H52.08l-6.592,12.4ZM45,8.448a1.388,1.388,0,0,0,1.033-.426A1.411,1.411,0,0,0,46.455,7a1.385,1.385,0,0,0-.422-1.024,1.47,1.47,0,0,0-2.052,0A1.378,1.378,0,0,0,43.555,7,1.448,1.448,0,0,0,45,8.448Zm6.275,8.71a2.545,2.545,0,0,1-1.8-4.346,2.463,2.463,0,0,1,1.8-.743,2.406,2.406,0,0,1,1.775.747,2.562,2.562,0,0,1,0,3.595A2.4,2.4,0,0,1,51.28,17.158Zm0-1.1a1.471,1.471,0,0,0,1.459-1.45,1.385,1.385,0,0,0-.431-1.028,1.48,1.48,0,0,0-2.065,0A1.457,1.457,0,0,0,51.28,16.06Z" transform="translate(5366 2924)" fill="#00223d"/>
    <path id="Trazado_24183" data-name="Trazado 24183" d="M68.719,4.889h2.92V19H68.25L62,8.912V19H59.08V4.889h3.35l6.289,10.029Zm7.637,2.568A1.579,1.579,0,0,1,75.2,6.983a1.555,1.555,0,0,1-.479-1.147A1.536,1.536,0,0,1,75.208,4.7a1.584,1.584,0,0,1,1.147-.474,1.626,1.626,0,0,1,1.611,1.611,1.626,1.626,0,0,1-1.611,1.621ZM74.92,19V8.961h2.832V19ZM87.2,8.961h2.979L85.9,19H83.455L79.227,8.961h2.959l2.5,6.865Zm13.5,4.873-.029.674H93.221a2.6,2.6,0,0,0,.8,1.836,2.561,2.561,0,0,0,1.768.635,2.468,2.468,0,0,0,1.323-.347,2.131,2.131,0,0,0,.845-1.011l2.578.381a4.383,4.383,0,0,1-1.758,2.354,5.226,5.226,0,0,1-2.969.84A5.435,5.435,0,0,1,91.9,17.813a5.042,5.042,0,0,1-1.45-3.833A5.072,5.072,0,0,1,91.9,10.147a5.273,5.273,0,0,1,3.818-1.4,5.04,5.04,0,0,1,3.6,1.279A5.019,5.019,0,0,1,100.691,13.834Zm-4.951-3.1A2.222,2.222,0,0,0,93.3,12.672h4.609a2.114,2.114,0,0,0-.693-1.436A2.2,2.2,0,0,0,95.74,10.738ZM102.83,19V4h2.842V19ZM120.9,4h2.813V19h-2.666l-.068-1.309a2.867,2.867,0,0,1-1.274,1.138,4.29,4.29,0,0,1-1.88.405,4.883,4.883,0,0,1-1.875-.361,4.516,4.516,0,0,1-2.578-2.676,6.106,6.106,0,0,1-.381-2.2,5.707,5.707,0,0,1,.664-2.8A4.55,4.55,0,0,1,115.4,9.381a4.827,4.827,0,0,1,2.417-.615,4.4,4.4,0,0,1,1.821.366,2.843,2.843,0,0,1,1.255,1.04Zm-2.432,12.9a2.5,2.5,0,0,0,1.9-.8,2.932,2.932,0,0,0,.757-2.1,2.938,2.938,0,0,0-.762-2.1,2.5,2.5,0,0,0-1.895-.806,2.53,2.53,0,0,0-1.909.791A2.937,2.937,0,0,0,115.8,14a2.924,2.924,0,0,0,.757,2.109A2.53,2.53,0,0,0,118.465,16.9Zm17.6-3.066-.029.674h-7.441a2.6,2.6,0,0,0,.8,1.836,2.561,2.561,0,0,0,1.768.635,2.468,2.468,0,0,0,1.323-.347,2.131,2.131,0,0,0,.845-1.011l2.578.381a4.383,4.383,0,0,1-1.758,2.354,5.226,5.226,0,0,1-2.969.84,5.435,5.435,0,0,1-3.911-1.382,5.042,5.042,0,0,1-1.45-3.833,5.072,5.072,0,0,1,1.455-3.833,5.273,5.273,0,0,1,3.818-1.4,5.04,5.04,0,0,1,3.6,1.279A5.019,5.019,0,0,1,136.063,13.834Zm-4.951-3.1a2.222,2.222,0,0,0-2.441,1.934h4.609a2.114,2.114,0,0,0-.693-1.436A2.2,2.2,0,0,0,131.111,10.738ZM64.3,42.2a5.61,5.61,0,0,1-2.93-.7,2.972,2.972,0,0,1-1.436-2.09l2.354-.664A1.891,1.891,0,0,0,64.3,40.232,2.078,2.078,0,0,0,65.325,40a.8.8,0,0,0,.4-.776.821.821,0,0,0-.166-.518,1.315,1.315,0,0,0-.513-.371,6.387,6.387,0,0,0-.684-.264q-.337-.107-.894-.259t-.928-.288a6.215,6.215,0,0,1-.884-.376,3.77,3.77,0,0,1-.732-.518,2.086,2.086,0,0,1-.547-.786,2.836,2.836,0,0,1-.19-1.074,2.565,2.565,0,0,1,1.089-2.246,4.865,4.865,0,0,1,2.847-.762,4.988,4.988,0,0,1,2.627.645A2.917,2.917,0,0,1,68.1,34.422l-2.178.488a1.706,1.706,0,0,0-1.787-1.27,1.957,1.957,0,0,0-.986.225.722.722,0,0,0-.391.664.761.761,0,0,0,.059.3.6.6,0,0,0,.205.244,2.991,2.991,0,0,0,.283.186,2.137,2.137,0,0,0,.4.161q.264.083.439.127l.513.132.522.137q.537.146.942.293a5.519,5.519,0,0,1,.864.41,3.1,3.1,0,0,1,.757.591,2.635,2.635,0,0,1,.493.83,3.066,3.066,0,0,1,.2,1.118,3.02,3.02,0,0,1-.337,1.455,2.529,2.529,0,0,1-.923.981,4.492,4.492,0,0,1-1.3.527A6.763,6.763,0,0,1,64.3,42.2Zm15.6-5.361-.029.674H72.425a2.6,2.6,0,0,0,.8,1.836,2.561,2.561,0,0,0,1.768.635,2.468,2.468,0,0,0,1.323-.347,2.131,2.131,0,0,0,.845-1.011L79.739,39a4.383,4.383,0,0,1-1.758,2.354,5.226,5.226,0,0,1-2.969.84A5.435,5.435,0,0,1,71.1,40.813a5.042,5.042,0,0,1-1.45-3.833,5.072,5.072,0,0,1,1.455-3.833,5.273,5.273,0,0,1,3.818-1.4A4.6,4.6,0,0,1,79.9,36.834Zm-4.951-3.1A2.222,2.222,0,0,0,72.5,35.672h4.609a2.114,2.114,0,0,0-.693-1.436A2.2,2.2,0,0,0,74.944,33.738Zm9.785-.186a3.259,3.259,0,0,1,1.318-1.206,4.023,4.023,0,0,1,1.963-.5v2.51a3.8,3.8,0,0,0-2.4.605,2.643,2.643,0,0,0-.742,2.148V42H82.034V31.961h2.7Zm11.729-1.592h2.979L95.159,42H92.718L88.489,31.961h2.959l2.5,6.865Zm5.889-1.5a1.579,1.579,0,0,1-1.152-.474,1.555,1.555,0,0,1-.479-1.147A1.536,1.536,0,0,1,101.2,27.7a1.584,1.584,0,0,1,1.147-.474,1.616,1.616,0,0,1,0,3.232ZM100.911,42V31.961h2.832V42Zm10.283.186a5.364,5.364,0,0,1-3.877-1.445,4.992,4.992,0,0,1-1.5-3.77,4.981,4.981,0,0,1,1.5-3.77,5.96,5.96,0,0,1,7.134-.469,4.316,4.316,0,0,1,1.68,2.725l-2.6.283a2.226,2.226,0,0,0-.84-1.318,2.554,2.554,0,0,0-1.523-.439,2.3,2.3,0,0,0-1.836.82,3.686,3.686,0,0,0,0,4.331,2.3,2.3,0,0,0,1.836.825,2.532,2.532,0,0,0,1.519-.439,2.277,2.277,0,0,0,.845-1.318l2.6.283a4.328,4.328,0,0,1-1.694,2.725A5.327,5.327,0,0,1,111.194,42.186Zm8.369-11.729a1.579,1.579,0,0,1-1.152-.474,1.555,1.555,0,0,1-.479-1.147,1.536,1.536,0,0,1,.483-1.138,1.584,1.584,0,0,1,1.147-.474,1.616,1.616,0,0,1,0,3.232ZM118.128,42V31.961h2.832V42Zm10.42.2a6.313,6.313,0,0,1-2.842-.615,4.6,4.6,0,0,1-1.948-1.807,5.384,5.384,0,0,1-.708-2.8,4.911,4.911,0,0,1,1.523-3.809,6.368,6.368,0,0,1,7.959,0,4.911,4.911,0,0,1,1.523,3.809,4.938,4.938,0,0,1-1.523,3.823A5.654,5.654,0,0,1,128.548,42.2Zm-.029-2.236a2.577,2.577,0,0,0,1.987-.82,3.484,3.484,0,0,0,0-4.336,2.577,2.577,0,0,0-1.987-.82,2.483,2.483,0,0,0-1.929.825,3.505,3.505,0,0,0,0,4.326A2.483,2.483,0,0,0,128.519,39.959Z" transform="translate(4801 2840)" fill="#002b45"/>
    <path id="Trazado_24184" data-name="Trazado 24184" d="M68.719,4.889h2.92V19H68.25L62,8.912V19H59.08V4.889h3.35l6.289,10.029Zm7.637,2.568A1.579,1.579,0,0,1,75.2,6.983a1.555,1.555,0,0,1-.479-1.147A1.536,1.536,0,0,1,75.208,4.7a1.584,1.584,0,0,1,1.147-.474,1.626,1.626,0,0,1,1.611,1.611,1.626,1.626,0,0,1-1.611,1.621ZM74.92,19V8.961h2.832V19ZM87.2,8.961h2.979L85.9,19H83.455L79.227,8.961h2.959l2.5,6.865Zm13.5,4.873-.029.674H93.221a2.6,2.6,0,0,0,.8,1.836,2.561,2.561,0,0,0,1.768.635,2.468,2.468,0,0,0,1.323-.347,2.131,2.131,0,0,0,.845-1.011l2.578.381a4.383,4.383,0,0,1-1.758,2.354,5.226,5.226,0,0,1-2.969.84A5.435,5.435,0,0,1,91.9,17.813a5.042,5.042,0,0,1-1.45-3.833A5.072,5.072,0,0,1,91.9,10.147a5.273,5.273,0,0,1,3.818-1.4,5.04,5.04,0,0,1,3.6,1.279A5.019,5.019,0,0,1,100.691,13.834Zm-4.951-3.1A2.222,2.222,0,0,0,93.3,12.672h4.609a2.114,2.114,0,0,0-.693-1.436A2.2,2.2,0,0,0,95.74,10.738ZM102.83,19V4h2.842V19ZM120.9,4h2.813V19h-2.666l-.068-1.309a2.867,2.867,0,0,1-1.274,1.138,4.29,4.29,0,0,1-1.88.405,4.883,4.883,0,0,1-1.875-.361,4.516,4.516,0,0,1-2.578-2.676,6.106,6.106,0,0,1-.381-2.2,5.707,5.707,0,0,1,.664-2.8A4.55,4.55,0,0,1,115.4,9.381a4.827,4.827,0,0,1,2.417-.615,4.4,4.4,0,0,1,1.821.366,2.843,2.843,0,0,1,1.255,1.04Zm-2.432,12.9a2.5,2.5,0,0,0,1.9-.8,2.932,2.932,0,0,0,.757-2.1,2.938,2.938,0,0,0-.762-2.1,2.5,2.5,0,0,0-1.895-.806,2.53,2.53,0,0,0-1.909.791A2.937,2.937,0,0,0,115.8,14a2.924,2.924,0,0,0,.757,2.109A2.53,2.53,0,0,0,118.465,16.9Zm17.6-3.066-.029.674h-7.441a2.6,2.6,0,0,0,.8,1.836,2.561,2.561,0,0,0,1.768.635,2.468,2.468,0,0,0,1.323-.347,2.131,2.131,0,0,0,.845-1.011l2.578.381a4.383,4.383,0,0,1-1.758,2.354,5.226,5.226,0,0,1-2.969.84,5.435,5.435,0,0,1-3.911-1.382,5.042,5.042,0,0,1-1.45-3.833,5.072,5.072,0,0,1,1.455-3.833,5.273,5.273,0,0,1,3.818-1.4,5.04,5.04,0,0,1,3.6,1.279A5.019,5.019,0,0,1,136.063,13.834Zm-4.951-3.1a2.222,2.222,0,0,0-2.441,1.934h4.609a2.114,2.114,0,0,0-.693-1.436A2.2,2.2,0,0,0,131.111,10.738ZM64.476,39.275a9.392,9.392,0,0,0,.244,2.451V42H62.093l-.225-1.094a3.264,3.264,0,0,1-1.406.967,5.183,5.183,0,0,1-1.816.322,4.776,4.776,0,0,1-.937-.088,3.187,3.187,0,0,1-.845-.3,2.563,2.563,0,0,1-.7-.522,2.291,2.291,0,0,1-.469-.8,3.17,3.17,0,0,1-.176-1.089,3.02,3.02,0,0,1,.186-1.089,2.552,2.552,0,0,1,.488-.815,2.962,2.962,0,0,1,.791-.6,6.052,6.052,0,0,1,1-.43,11.9,11.9,0,0,1,1.191-.312l1.65-.371a1.82,1.82,0,0,0,.747-.317.633.633,0,0,0,.22-.5A1.036,1.036,0,0,0,61.3,34a2.3,2.3,0,0,0-1.2-.293,1.721,1.721,0,0,0-1.963,1.533l-2.49-.449A3.371,3.371,0,0,1,57.1,32.5a5.783,5.783,0,0,1,3.154-.737q4.219,0,4.219,3.623Zm-4.951,1.016a2.262,2.262,0,0,0,1.738-.728,3.066,3.066,0,0,0,.674-2.153l-2.383.674a2.816,2.816,0,0,0-1,.41.842.842,0,0,0-.347.723.935.935,0,0,0,.371.8A1.536,1.536,0,0,0,59.524,40.291ZM70.813,42a3.032,3.032,0,0,1-2.266-.815,3.172,3.172,0,0,1-.8-2.319V34.119H65.774V31.961h.635a1.656,1.656,0,0,0,1.25-.42,2.162,2.162,0,0,0,.4-1.494V28.719H70.6v3.242h2.07v2.158H70.6v4.443q0,1.3,1.162,1.3h.908V42Zm13.438-5.166-.029.674H76.78a2.6,2.6,0,0,0,.8,1.836,2.561,2.561,0,0,0,1.768.635,2.468,2.468,0,0,0,1.323-.347,2.131,2.131,0,0,0,.845-1.011L84.095,39a4.383,4.383,0,0,1-1.758,2.354,5.226,5.226,0,0,1-2.969.84,5.435,5.435,0,0,1-3.911-1.382,5.042,5.042,0,0,1-1.45-3.833,5.072,5.072,0,0,1,1.455-3.833,5.273,5.273,0,0,1,3.818-1.4,4.6,4.6,0,0,1,4.971,5.088Zm-4.951-3.1a2.222,2.222,0,0,0-2.441,1.934h4.609a2.114,2.114,0,0,0-.693-1.436A2.2,2.2,0,0,0,79.3,33.738Zm13.018-1.973a3.914,3.914,0,0,1,2.773.9,3.349,3.349,0,0,1,.967,2.573V42H93.235V35.848a1.749,1.749,0,0,0-.5-1.387,1.9,1.9,0,0,0-1.294-.439,2.643,2.643,0,0,0-.84.127,2.158,2.158,0,0,0-.7.4,1.748,1.748,0,0,0-.5.757,3.5,3.5,0,0,0-.19,1.162V42H86.39V31.961H89.2v1.113A3.868,3.868,0,0,1,92.317,31.766Zm11.006,10.42a5.364,5.364,0,0,1-3.877-1.445,4.992,4.992,0,0,1-1.5-3.77,4.981,4.981,0,0,1,1.5-3.77,5.96,5.96,0,0,1,7.134-.469,4.316,4.316,0,0,1,1.68,2.725l-2.6.283a2.226,2.226,0,0,0-.84-1.318,2.554,2.554,0,0,0-1.523-.439,2.3,2.3,0,0,0-1.836.82,3.686,3.686,0,0,0,0,4.331,2.3,2.3,0,0,0,1.836.825,2.532,2.532,0,0,0,1.519-.439,2.277,2.277,0,0,0,.845-1.318l2.6.283a4.328,4.328,0,0,1-1.694,2.725A5.327,5.327,0,0,1,103.323,42.186Zm8.369-11.729a1.579,1.579,0,0,1-1.152-.474,1.555,1.555,0,0,1-.479-1.147,1.536,1.536,0,0,1,.483-1.138,1.584,1.584,0,0,1,1.147-.474,1.616,1.616,0,0,1,0,3.232ZM110.257,42V31.961h2.832V42Zm9.551-11.406L122.366,27l1.387.977-2.217,2.617Zm.869,11.6a6.313,6.313,0,0,1-2.842-.615,4.6,4.6,0,0,1-1.948-1.807,5.384,5.384,0,0,1-.708-2.8,4.911,4.911,0,0,1,1.523-3.809,6.368,6.368,0,0,1,7.959,0,4.911,4.911,0,0,1,1.523,3.809,4.938,4.938,0,0,1-1.523,3.823A5.654,5.654,0,0,1,120.677,42.2Zm-.029-2.236a2.577,2.577,0,0,0,1.987-.82,3.484,3.484,0,0,0,0-4.336,2.577,2.577,0,0,0-1.987-.82,2.483,2.483,0,0,0-1.929.825,3.505,3.505,0,0,0,0,4.326A2.483,2.483,0,0,0,120.647,39.959ZM134.2,31.766a3.914,3.914,0,0,1,2.773.9,3.349,3.349,0,0,1,.967,2.573V42H135.12V35.848a1.749,1.749,0,0,0-.5-1.387,1.9,1.9,0,0,0-1.294-.439,2.643,2.643,0,0,0-.84.127,2.158,2.158,0,0,0-.7.4,1.748,1.748,0,0,0-.5.757,3.5,3.5,0,0,0-.19,1.162V42h-2.812V31.961h2.813v1.113A3.868,3.868,0,0,1,134.2,31.766Z" transform="translate(4801 2913)" fill="#002b45"/>
    <path id="Trazado_24185" data-name="Trazado 24185" d="M35.94,16.49h6.016V19H32V16.881l5.615-5.732a3.534,3.534,0,0,0,1.221-2.432,1.72,1.72,0,0,0-.5-1.309,1.98,1.98,0,0,0-1.421-.479q-2,0-2,2.275V10.25l-2.8-.283v-.7A4.4,4.4,0,0,1,33.4,5.87a4.937,4.937,0,0,1,3.5-1.2,5.172,5.172,0,0,1,3.4,1.084,3.653,3.653,0,0,1,1.313,2.979,4.224,4.224,0,0,1-.444,1.934,8.082,8.082,0,0,1-1.411,1.885Z" transform="translate(5070 2780)" fill="#002b45"/>
    <path id="Trazado_24186" data-name="Trazado 24186" d="M36.976,19.2a5.063,5.063,0,0,1-3.848-1.289,5.59,5.59,0,0,1-1.211-3.945l2.881-.127a10.2,10.2,0,0,0,.044,1.035,3.578,3.578,0,0,0,.176.8,1.433,1.433,0,0,0,.371.6,1.686,1.686,0,0,0,.635.347,3.137,3.137,0,0,0,.952.127,2.288,2.288,0,0,0,1.665-.566,1.98,1.98,0,0,0,.581-1.484,2,2,0,0,0-.557-1.528,2.1,2.1,0,0,0-1.494-.522h-.547V10.455h.508a1.527,1.527,0,0,0,1.167-.5,1.776,1.776,0,0,0,.464-1.26,1.419,1.419,0,0,0-.508-1.172,2.064,2.064,0,0,0-1.338-.41,2.005,2.005,0,0,0-.762.132,1.421,1.421,0,0,0-.513.337,1.49,1.49,0,0,0-.3.518,2.72,2.72,0,0,0-.146.615,6.144,6.144,0,0,0-.034.684l-2.842-.137A4.517,4.517,0,0,1,33.528,5.87a4.617,4.617,0,0,1,3.359-1.177A4.8,4.8,0,0,1,40.11,5.772a3.379,3.379,0,0,1,1.27,2.681,3.051,3.051,0,0,1-.542,1.816A3.1,3.1,0,0,1,39.6,11.344a3.478,3.478,0,0,1,.9.4,3.683,3.683,0,0,1,.786.674,3.007,3.007,0,0,1,.581,1.025,4.126,4.126,0,0,1,.215,1.367A3.988,3.988,0,0,1,40.687,18,5.508,5.508,0,0,1,36.976,19.2Z" transform="translate(5144 2780)" fill="#002b45"/>
    <path id="Trazado_24187" data-name="Trazado 24187" d="M42.464,13.814v2.51h-1.7V19H37.952V16.324H31.458V13.8l5-8.916h4.307v8.926Zm-8.4,0h3.887V6.578Z" transform="translate(5215 2780)" fill="#002b45"/>
    <path id="Trazado_24188" data-name="Trazado 24188" d="M36.722,9.85q5.42,0,5.42,4.453a4.757,4.757,0,0,1-1.367,3.569,4.941,4.941,0,0,1-3.6,1.333,5.978,5.978,0,0,1-2.524-.522,4.356,4.356,0,0,1-1.831-1.553,4.158,4.158,0,0,1-.693-2.378,4.39,4.39,0,0,1,.059-.7l2.793-.127a4.128,4.128,0,0,0-.068.625A1.9,1.9,0,0,0,35.54,16.1a2.392,2.392,0,0,0,1.572.522,2.167,2.167,0,0,0,1.641-.6,2.237,2.237,0,0,0,.576-1.616,2.012,2.012,0,0,0-.7-1.65,3.765,3.765,0,0,0-2.363-.576h-3.7l.586-7.295h8.33V7.4h-5.8L35.491,9.85Z" transform="translate(5289 2780)" fill="#002b45"/>
    <path id="Trazado_24189" data-name="Trazado 24189" d="M42.19,14.264a4.6,4.6,0,0,1-.415,1.982,4.678,4.678,0,0,1-1.143,1.567,5.38,5.38,0,0,1-1.675,1.006,5.678,5.678,0,0,1-4.038-.01,5.014,5.014,0,0,1-1.65-1.03,4.851,4.851,0,0,1-1.489-3.506,5.865,5.865,0,0,1,1.25-3.447l4.395-5.937h3.193L36.956,9.664a4.758,4.758,0,0,1,.645-.039,4.6,4.6,0,0,1,1.733.332,4.694,4.694,0,0,1,1.46.923A4.27,4.27,0,0,1,41.8,12.35,4.936,4.936,0,0,1,42.19,14.264ZM39.437,14.2a2.411,2.411,0,0,0-.684-1.821,2.486,2.486,0,0,0-1.846-.708,2.383,2.383,0,0,0-1.787.713,2.518,2.518,0,0,0-.713,1.777,2.315,2.315,0,0,0,2.471,2.5,2.543,2.543,0,0,0,1.836-.684A2.383,2.383,0,0,0,39.437,14.2Z" transform="translate(5364 2780)" fill="#002b45"/>
    <path id="Trazado_24190" data-name="Trazado 24190" d="M0,0H447V50H0Z" transform="translate(4995 2705)" fill="#b869c3"/>
    <path id="Trazado_24191" data-name="Trazado 24191" d="M203.957,19.2a7.98,7.98,0,0,1-3.73-.977l1.24-2.412a3.685,3.685,0,0,0,2.139.752A1.543,1.543,0,0,0,204.914,16a2.948,2.948,0,0,0,.43-1.782V4.889h2.93v9.873a4.388,4.388,0,0,1-1.177,3.276A4.283,4.283,0,0,1,203.957,19.2ZM217.98,8.961h2.813V19h-2.666l-.068-1.211a3.834,3.834,0,0,1-3.193,1.406,3.914,3.914,0,0,1-2.773-.9,3.349,3.349,0,0,1-.967-2.573V8.961h2.822v6.152a1.735,1.735,0,0,0,.5,1.377,1.909,1.909,0,0,0,1.3.439,2.264,2.264,0,0,0,1.6-.571,2.454,2.454,0,0,0,.63-1.86ZM223.7,19V4h2.842V19Zm7.188-11.543a1.579,1.579,0,0,1-1.152-.474,1.555,1.555,0,0,1-.479-1.147,1.536,1.536,0,0,1,.483-1.138,1.584,1.584,0,0,1,1.147-.474A1.626,1.626,0,0,1,232.5,5.836a1.626,1.626,0,0,1-1.611,1.621ZM229.455,19V8.961h2.832V19Zm10.42.2a6.313,6.313,0,0,1-2.842-.615,4.6,4.6,0,0,1-1.948-1.807,5.384,5.384,0,0,1-.708-2.8,4.911,4.911,0,0,1,1.523-3.809,6.368,6.368,0,0,1,7.959,0,4.911,4.911,0,0,1,1.523,3.809,4.938,4.938,0,0,1-1.523,3.823A5.654,5.654,0,0,1,239.875,19.2Zm-.029-2.236a2.577,2.577,0,0,0,1.987-.82,3.071,3.071,0,0,0,.757-2.168,3.071,3.071,0,0,0-.757-2.168,2.577,2.577,0,0,0-1.987-.82,2.483,2.483,0,0,0-1.929.825,3.1,3.1,0,0,0-.747,2.163,3.1,3.1,0,0,0,.747,2.163A2.483,2.483,0,0,0,239.846,16.959Z" transform="translate(4995 2720)" fill="#fff"/>
    <path id="Trazado_24192" data-name="Trazado 24192" d="M0,0H639" transform="translate(4801.5 2828.5)" fill="none" stroke="#4d3189" stroke-width="3"/>
    <path id="Trazado_24193" data-name="Trazado 24193" d="M0,0H445" transform="translate(4995.5 2755.5)" fill="none" stroke="#4d3189" stroke-width="3"/>
    <path id="Trazado_24194" data-name="Trazado 24194" d="M0,0H639" transform="translate(4801.5 2705.5)" fill="none" stroke="#4d3189" stroke-width="3"/>
    <path id="Trazado_24195" data-name="Trazado 24195" d="M0,0H639" transform="translate(4801.5 2902.5)" fill="none" stroke="#4d3189" stroke-width="3"/>
    <path id="Trazado_24196" data-name="Trazado 24196" d="M0,0H639" transform="translate(4801.5 2970.5)" fill="none" stroke="#4d3189" stroke-width="3"/>
    <path id="Trazado_24197" data-name="Trazado 24197" d="M0,0V265" transform="translate(4995.5 2705.5)" fill="none" stroke="#4d3189" stroke-width="3"/>
    <path id="Trazado_24198" data-name="Trazado 24198" d="M0,0V215" transform="translate(5069.5 2755.5)" fill="none" stroke="#4d3189" stroke-width="3"/>
    <path id="Trazado_24199" data-name="Trazado 24199" d="M0,0V215" transform="translate(5143.5 2755.5)" fill="none" stroke="#4d3189" stroke-width="3"/>
    <path id="Trazado_24200" data-name="Trazado 24200" d="M0,0V215" transform="translate(5217.5 2755.5)" fill="none" stroke="#4d3189" stroke-width="3"/>
    <path id="Trazado_24201" data-name="Trazado 24201" d="M0,0V215" transform="translate(5291.5 2755.5)" fill="none" stroke="#4d3189" stroke-width="3"/>
    <path id="Trazado_24202" data-name="Trazado 24202" d="M0,0V215" transform="translate(5365.5 2755.5)" fill="none" stroke="#4d3189" stroke-width="3"/>
    <path id="Trazado_24203" data-name="Trazado 24203" d="M0,0V265" transform="translate(5440.5 2705.5)" fill="none" stroke="#4d3189" stroke-width="3"/>
    <path id="Trazado_24204" data-name="Trazado 24204" d="M0,0V265" transform="translate(4801.5 2705.5)" fill="none" stroke="#4d3189" stroke-width="3"/>
  </g>
</svg>
